<svg width="126" height="119" viewBox="0 0 126 119" fill="none" xmlns="http://www.w3.org/2000/svg">
<path opacity="0.3" d="M62.8 117.6C85.3995 117.6 103.72 115.356 103.72 112.588C103.72 109.82 85.3995 107.576 62.8 107.576C40.2005 107.576 21.88 109.82 21.88 112.588C21.88 115.356 40.2005 117.6 62.8 117.6Z" fill="black"/>
<path d="M56.27 112.558C25.45 112.558 0.459991 87.358 0.459991 56.279C0.459991 25.2 25.45 0 56.27 0H69.29V112.548H56.27V112.558Z" fill="#545454"/>
<path d="M15.73 94.9311H45.62V86.9748H9.5C11.34 89.8185 13.42 92.4807 15.73 94.9311Z" fill="#545454"/>
<path d="M1.06 64.4874H29.18V57.7009H0.5C0.56 60 0.739999 62.2689 1.06 64.4874Z" fill="#545454"/>
<path d="M5.31 33.3479H31.63V26.4404H8.96C7.59 28.6488 6.37 30.9479 5.31 33.3479Z" fill="#545454"/>
<path d="M67.47 6.26217V0.0100708H56.26C47.05 0.0100708 38.36 2.27898 30.7 6.26217H67.46H67.47Z" fill="#545454"/>
<path d="M0.459991 56.279C0.459991 57.9428 0.549993 59.5865 0.689993 61.2101H39.12V46.0134H1.39999C0.789992 49.3412 0.459991 52.7697 0.459991 56.2891V56.279Z" fill="#808080"/>
<path d="M6.81 30.2118H56.44V15.0151H18.34C13.69 19.3614 9.78 24.5042 6.81 30.2118Z" fill="#808080"/>
<path d="M36.32 3.721H69.28V0.0100708H56.26C49.23 0.0100708 42.51 1.33108 36.32 3.721Z" fill="#808080"/>
<path d="M13.32 92.2084H56.45V77.0118H4.38998C6.56998 82.5681 9.59998 87.6908 13.32 92.2084Z" fill="#808080"/>
<path d="M28.27 104.955C36.5 109.775 46.06 112.558 56.26 112.558H69.28V104.955H28.26H28.27Z" fill="#808080"/>
<path d="M69.0925 112.12C100.162 112.12 125.44 87.1221 125.552 56.2862C125.665 25.4503 100.57 0.45282 69.5013 0.45282C38.4323 0.45282 13.1543 25.4503 13.0415 56.2862C12.9286 87.1221 38.0235 112.12 69.0925 112.12Z" fill="#ABABAB"/>
<path d="M69.29 0C68.68 0 68.08 0.0302513 67.47 0.0504194C97.45 1.01849 121.46 25.8151 121.46 56.279C121.46 86.7429 97.45 111.539 67.47 112.508C68.07 112.528 68.68 112.558 69.29 112.558C100.11 112.558 125.1 87.358 125.1 56.279C125.1 25.2 100.11 0 69.29 0Z" fill="white"/>
<path d="M85.1497 92.5729C105.028 81.7206 112.419 56.6726 101.657 36.6267C90.8954 16.5809 66.0562 9.12801 46.1774 19.9803C26.2985 30.8327 18.9078 55.8806 29.6697 75.9265C40.4316 95.9724 65.2708 103.425 85.1497 92.5729Z" fill="white"/>
<path d="M98.2299 85.4628C114.214 69.3443 114.214 43.2111 98.2299 27.0926C82.2458 10.9741 56.3303 10.9741 40.3462 27.0926C24.362 43.2111 24.362 69.3443 40.3462 85.4628C56.3303 101.581 82.2458 101.581 98.2299 85.4628Z" fill="#808080"/>
<path d="M69.29 15.0051C68.06 15.0051 66.86 15.0656 65.66 15.1765C86.56 17.032 102.95 34.7193 102.95 56.279C102.95 77.8387 86.56 95.5261 65.66 97.3815C66.86 97.4925 68.07 97.553 69.29 97.553C91.89 97.553 110.22 79.079 110.22 56.279C110.22 33.479 91.9 15.0051 69.29 15.0051Z" fill="#545454"/>
<path d="M62 43.1126V48.642H73V43.1126C73 40.0628 70.5336 37.5832 67.5 37.5832C64.4664 37.5832 62 40.0628 62 43.1126ZM56.5 48.642V43.1126C56.5 37.0043 61.4242 32.0538 67.5 32.0538C73.5758 32.0538 78.5 37.0043 78.5 43.1126V48.642C81.5336 48.642 84 51.1216 84 54.1714V73.5244C84 76.5742 81.5336 79.0538 78.5 79.0538H56.5C53.4664 79.0538 51 76.5742 51 73.5244V54.1714C51 51.1216 53.4664 48.642 56.5 48.642Z" fill="white"/>
<path d="M60 43.1126V48.642H71V43.1126C71 40.0628 68.5336 37.5832 65.5 37.5832C62.4664 37.5832 60 40.0628 60 43.1126ZM54.5 48.642V43.1126C54.5 37.0043 59.4242 32.0538 65.5 32.0538C71.5758 32.0538 76.5 37.0043 76.5 43.1126V48.642C79.5336 48.642 82 51.1216 82 54.1714V73.5244C82 76.5742 79.5336 79.0538 76.5 79.0538H54.5C51.4664 79.0538 49 76.5742 49 73.5244V54.1714C49 51.1216 51.4664 48.642 54.5 48.642Z" fill="#ABABAB"/>
</svg>
