<svg width="131" height="121" viewBox="0 0 131 121" fill="none" xmlns="http://www.w3.org/2000/svg">
<path opacity="0.3" d="M65.8 119.546C88.3995 119.546 106.72 117.302 106.72 114.534C106.72 111.767 88.3995 109.523 65.8 109.523C43.2005 109.523 24.88 111.767 24.88 114.534C24.88 117.302 43.2005 119.546 65.8 119.546Z" fill="black"/>
<path d="M59.27 114.504C28.45 114.504 3.45999 89.3042 3.45999 58.2252C3.45999 27.1462 28.45 1.94621 59.27 1.94621H72.29V114.494H59.27V114.504Z" fill="#2E8698"/>
<path d="M18.73 96.8773H48.62V88.921H12.5C14.34 91.7647 16.42 94.4269 18.73 96.8773Z" fill="#2E8698"/>
<path d="M4.06 66.4336H32.18V59.647H3.5C3.56 61.9462 3.74 64.2151 4.06 66.4336Z" fill="#2E8698"/>
<path d="M8.31 35.2941H34.63V28.3866H11.96C10.59 30.595 9.37 32.8941 8.31 35.2941Z" fill="#2E8698"/>
<path d="M70.47 8.20839V1.95629H59.26C50.05 1.95629 41.36 4.2252 33.7 8.20839H70.46H70.47Z" fill="#2E8698"/>
<path d="M3.45999 58.2252C3.45999 59.8891 3.54999 61.5328 3.68999 63.1563H42.12V47.9597H4.39999C3.78999 51.2874 3.45999 54.716 3.45999 58.2353V58.2252Z" fill="url(#paint0_linear_1010_5135)"/>
<path d="M9.81 32.158H59.44V16.9613H21.34C16.69 21.3076 12.78 26.4504 9.81 32.158Z" fill="url(#paint1_linear_1010_5135)"/>
<path d="M39.32 5.66722H72.28V1.95629H59.26C52.23 1.95629 45.51 3.2773 39.32 5.66722Z" fill="url(#paint2_linear_1010_5135)"/>
<path d="M16.32 94.1546H59.45V78.958H7.38998C9.56998 84.5143 12.6 89.637 16.32 94.1546Z" fill="url(#paint3_linear_1010_5135)"/>
<path d="M31.27 106.901C39.5 111.721 49.06 114.504 59.26 114.504H72.28V106.901H31.26H31.27Z" fill="url(#paint4_linear_1010_5135)"/>
<path d="M72.2969 114.511C103.12 114.511 128.107 89.3144 128.107 58.2323C128.107 27.1503 103.12 1.95336 72.2969 1.95336C41.4739 1.95336 16.4869 27.1503 16.4869 58.2323C16.4869 89.3144 41.4739 114.511 72.2969 114.511Z" fill="url(#paint5_linear_1010_5135)"/>
<path d="M72.29 1.94621C71.68 1.94621 71.08 1.97646 70.47 1.99662C100.45 2.96469 124.46 27.7613 124.46 58.2252C124.46 88.6891 100.45 113.486 70.47 114.454C71.07 114.474 71.68 114.504 72.29 114.504C103.11 114.504 128.1 89.3042 128.1 58.2252C128.1 27.1462 103.11 1.94621 72.29 1.94621Z" fill="white"/>
<path d="M88.1497 94.5191C108.028 83.6667 115.419 58.6188 104.657 38.5729C93.8954 18.527 69.0562 11.0742 49.1774 21.9265C29.2985 32.7788 21.9078 57.8268 32.6697 77.8727C43.4316 97.9186 68.2708 105.371 88.1497 94.5191Z" fill="white"/>
<path d="M101.23 87.409C117.214 71.2905 117.214 45.1573 101.23 29.0388C85.2458 12.9203 59.3303 12.9203 43.3462 29.0388C27.362 45.1573 27.362 71.2905 43.3462 87.409C59.3303 103.527 85.2458 103.527 101.23 87.409Z" fill="url(#paint6_linear_1010_5135)"/>
<path d="M72.29 16.9512C71.06 16.9512 69.86 17.0118 68.66 17.1227C89.56 18.9781 105.95 36.6655 105.95 58.2252C105.95 79.7849 89.56 97.4723 68.66 99.3277C69.86 99.4386 71.07 99.4991 72.29 99.4991C94.89 99.4991 113.22 81.0252 113.22 58.2252C113.22 35.4252 94.9 16.9512 72.29 16.9512Z" fill="#2E8698"/>
<path d="M77.12 52.1143L79.86 55.9765C80.98 57.8117 81.72 59.9496 81.97 62.2588C82.39 66.3933 81.15 70.3059 78.78 73.2504C77.5 72.3529 72.75 70.2857 70.16 69.8823L65.61 76.2756L65.13 80.9647H69.18C69.8 80.9647 70.42 80.9344 71.06 80.8638C80.65 79.805 86.98 71.7983 85.93 62.1277C85.53 58.4067 82.59 54.4134 80.32 51.7916L77.11 52.1042L77.12 52.1143Z" fill="white"/>
<path d="M85.66 29.4655C83.22 30.1613 80.8 31.0891 78.33 28.4067C72.85 22.447 65.34 27.7815 66.86 28.2353C71.91 29.7277 71.13 33.2773 75.21 38.4706C76.96 40.6991 79.58 41.1529 81.92 41.0017C82.07 41.0017 82.17 41.1227 82.12 41.2638L78.53 50.5714C75.3 48.484 71.37 45.4386 67.26 45.8924C57.68 46.9512 50.75 55.6336 51.8 65.3042C52.54 72.1613 57.1 77.6672 63.1 79.9059L59.5 87.2168C59.22 87.7815 59.58 88.7395 60.2 88.8302H62.49C62.89 88.8907 63.27 88.6689 63.45 88.3159L89.98 30.9378C90.13 30.4538 89.53 28.2655 87.29 28.9916L85.66 29.4655ZM68.04 69.8924C63.89 70.0033 61.33 70.8605 59.38 72.0907C57.73 69.9731 56.64 67.3512 56.33 64.4269C55.5 56.4 60.01 50.1882 67.64 49.321C71.22 48.9075 74.6 50.4403 77.3 52.5075L68.04 69.8924Z" fill="white"/>
<path d="M80.32 51.8218L78.86 54.9681C79.98 56.8034 80.72 58.9412 80.97 61.2504C81.39 65.3849 80.15 69.2975 77.78 72.242C76.5 71.3445 74.38 70.6286 71.79 70.2252L67.92 78.5849L66.81 80.9748H67.19C67.81 80.9748 68.43 80.9445 69.07 80.8739C78.66 79.8151 85.58 71.1328 84.53 61.4622C84.13 57.7412 82.6 54.4235 80.33 51.8017V51.8218H80.32Z" fill="url(#paint7_linear_1010_5135)"/>
<path d="M86.95 30.1412C84.51 30.837 78.8 32.0975 76.33 29.4151C70.85 23.4555 63.34 27.7815 64.86 28.2353C69.91 29.7277 69.13 33.2773 73.21 38.4706C74.96 40.6992 77.58 41.1529 79.92 41.0017C80.07 41.0017 80.17 41.1227 80.12 41.2639L76.53 48.5546C73.3 46.4672 69.37 45.4387 65.26 45.8924C55.68 46.9513 48.75 55.6336 49.8 65.3042C50.54 72.1613 55.1 77.6672 61.1 79.9059L57.5 87.2168C57.22 87.7815 57.57 88.4471 58.19 88.5378L60.2 88.8302C60.6 88.8908 60.98 88.6689 61.16 88.316L87.73 30.9378C87.88 30.4538 87.44 29.9798 86.95 30.121V30.1412ZM66.04 69.8924C61.89 70.0034 58.33 70.8605 56.38 72.0908C54.73 69.9731 53.64 67.3513 53.33 64.4269C52.5 56.4 58.01 49.1798 65.64 48.3126C69.22 47.8992 72.62 48.9681 75.33 51.0353L66.04 69.8924Z" fill="url(#paint8_linear_1010_5135)"/>
<path d="M41 20.1681L43.291 29.9586L53 32.2689L43.291 34.5792L41 44.3697L38.709 34.5792L29 32.2689L38.709 29.9586L41 20.1681Z" fill="white"/>
<path d="M28.5 88.7395L30.1228 95.6745L37 97.3109L30.1228 98.9474L28.5 105.882L26.8772 98.9474L20 97.3109L26.8772 95.6745L28.5 88.7395Z" fill="white"/>
<path d="M112 52.437L113.527 58.964L120 60.5042L113.527 62.0444L112 68.5714L110.473 62.0444L104 60.5042L110.473 58.964L112 52.437Z" fill="white"/>
<defs>
<linearGradient id="paint0_linear_1010_5135" x1="3.45999" y1="55.558" x2="43.6338" y2="67.8221" gradientUnits="userSpaceOnUse">
<stop stop-color="#47DBFA"/>
<stop offset="0.33" stop-color="#80ECFF"/>
<stop offset="0.66" stop-color="#EFFFFE"/>
<stop offset="1" stop-color="#8AF4FF"/>
</linearGradient>
<linearGradient id="paint1_linear_1010_5135" x1="9.81" y1="24.5597" x2="58.6833" y2="43.7132" gradientUnits="userSpaceOnUse">
<stop stop-color="#47DBFA"/>
<stop offset="0.33" stop-color="#80ECFF"/>
<stop offset="0.66" stop-color="#EFFFFE"/>
<stop offset="1" stop-color="#8AF4FF"/>
</linearGradient>
<linearGradient id="paint2_linear_1010_5135" x1="39.32" y1="3.81175" x2="56.8494" y2="22.4951" gradientUnits="userSpaceOnUse">
<stop stop-color="#47DBFA"/>
<stop offset="0.33" stop-color="#80ECFF"/>
<stop offset="0.66" stop-color="#EFFFFE"/>
<stop offset="1" stop-color="#8AF4FF"/>
</linearGradient>
<linearGradient id="paint3_linear_1010_5135" x1="7.38998" y1="86.5563" x2="57.9806" y2="107.354" gradientUnits="userSpaceOnUse">
<stop stop-color="#47DBFA"/>
<stop offset="0.33" stop-color="#80ECFF"/>
<stop offset="0.66" stop-color="#EFFFFE"/>
<stop offset="1" stop-color="#8AF4FF"/>
</linearGradient>
<linearGradient id="paint4_linear_1010_5135" x1="31.26" y1="110.703" x2="64.0962" y2="131.961" gradientUnits="userSpaceOnUse">
<stop stop-color="#47DBFA"/>
<stop offset="0.33" stop-color="#80ECFF"/>
<stop offset="0.66" stop-color="#EFFFFE"/>
<stop offset="1" stop-color="#8AF4FF"/>
</linearGradient>
<linearGradient id="paint5_linear_1010_5135" x1="16.4869" y1="58.2324" x2="141.517" y2="73.1109" gradientUnits="userSpaceOnUse">
<stop stop-color="#3AA3B9"/>
<stop offset="0.33" stop-color="#61C7D8"/>
<stop offset="0.66" stop-color="white"/>
<stop offset="1" stop-color="#2C919B"/>
</linearGradient>
<linearGradient id="paint6_linear_1010_5135" x1="43.3462" y1="87.409" x2="116.41" y2="30.4799" gradientUnits="userSpaceOnUse">
<stop stop-color="#47DBFA"/>
<stop offset="0.33" stop-color="#80ECFF"/>
<stop offset="0.66" stop-color="#EFFFFE"/>
<stop offset="1" stop-color="#8AF4FF"/>
</linearGradient>
<linearGradient id="paint7_linear_1010_5135" x1="42.4263" y1="100.84" x2="168.523" y2="28.6449" gradientUnits="userSpaceOnUse">
<stop stop-color="#3AA3B9"/>
<stop offset="0.33" stop-color="#61C7D8"/>
<stop offset="0.66" stop-color="white"/>
<stop offset="1" stop-color="#2C919B"/>
</linearGradient>
<linearGradient id="paint8_linear_1010_5135" x1="27.5" y1="88.7395" x2="155.333" y2="34.0554" gradientUnits="userSpaceOnUse">
<stop stop-color="#3AA3B9"/>
<stop offset="0.33" stop-color="#61C7D8"/>
<stop offset="0.66" stop-color="white"/>
<stop offset="1" stop-color="#2C919B"/>
</linearGradient>
</defs>
</svg>
