<svg width="126" height="133" viewBox="0 0 126 133" fill="none" xmlns="http://www.w3.org/2000/svg">
<path opacity="0.3" d="M62.8 125.092C85.3995 125.092 103.72 122.849 103.72 120.081C103.72 117.313 85.3995 115.069 62.8 115.069C40.2005 115.069 21.88 117.313 21.88 120.081C21.88 122.849 40.2005 125.092 62.8 125.092Z" fill="black"/>
<path d="M56.27 120.05C25.45 120.05 0.459991 94.8504 0.459991 63.7714C0.459991 32.6924 25.45 7.4924 56.27 7.4924H69.29V120.04H56.27V120.05Z" fill="#3B2506"/>
<path d="M15.73 102.423H45.62V94.4672H9.5C11.34 97.3109 13.42 99.9731 15.73 102.423Z" fill="#3B2506"/>
<path d="M1.06 71.9798H29.18V65.1932H0.5C0.56 67.4924 0.739999 69.7613 1.06 71.9798Z" fill="#3B2506"/>
<path d="M5.31 40.8403H31.63V33.9327H8.96C7.59 36.1411 6.37 38.4403 5.31 40.8403Z" fill="#3B2506"/>
<path d="M67.47 13.7546V7.5025H56.26C47.05 7.5025 38.36 9.77141 30.7 13.7546H67.46H67.47Z" fill="#3B2506"/>
<path d="M0.459991 63.7714C0.459991 65.4353 0.549993 67.079 0.689993 68.7025H39.12V53.5059H1.39999C0.789992 56.8336 0.459991 60.2622 0.459991 63.7815V63.7714Z" fill="url(#paint0_linear_1010_5057)"/>
<path d="M6.81 37.7042H56.44V22.5075H18.34C13.69 26.8538 9.78 31.9966 6.81 37.7042Z" fill="url(#paint1_linear_1010_5057)"/>
<path d="M36.32 11.2134H69.28V7.5025H56.26C49.23 7.5025 42.51 8.82351 36.32 11.2134Z" fill="url(#paint2_linear_1010_5057)"/>
<path d="M13.32 99.7008H56.45V84.5042H4.38998C6.56998 90.0605 9.59998 95.1832 13.32 99.7008Z" fill="url(#paint3_linear_1010_5057)"/>
<path d="M28.27 112.447C36.5 117.267 46.06 120.05 56.26 120.05H69.28V112.447H28.26H28.27Z" fill="url(#paint4_linear_1010_5057)"/>
<path d="M123.683 76.4099C130.601 46.1208 111.86 15.9114 81.823 8.93535C51.7863 1.95927 21.8287 20.8582 14.9108 51.1472C7.99284 81.4363 26.7342 111.646 56.7709 118.622C86.8075 125.598 116.765 106.699 123.683 76.4099Z" fill="url(#paint5_linear_1010_5057)"/>
<path d="M69.29 7.4924C68.68 7.4924 68.08 7.52265 67.47 7.54282C97.45 8.51089 121.46 33.3075 121.46 63.7714C121.46 94.2353 97.45 119.032 67.47 120C68.07 120.02 68.68 120.05 69.29 120.05C100.11 120.05 125.1 94.8504 125.1 63.7714C125.1 32.6924 100.11 7.4924 69.29 7.4924Z" fill="white"/>
<path d="M85.1497 100.065C105.028 89.2129 112.419 64.165 101.657 44.1191C90.8954 24.0732 66.0562 16.6203 46.1774 27.4727C26.2985 38.325 18.9078 63.373 29.6697 83.4189C40.4316 103.465 65.2708 110.918 85.1497 100.065Z" fill="white"/>
<path d="M98.2299 92.9552C114.214 76.8367 114.214 50.7035 98.2299 34.585C82.2458 18.4665 56.3303 18.4665 40.3462 34.585C24.362 50.7035 24.362 76.8367 40.3462 92.9552C56.3303 109.074 82.2458 109.074 98.2299 92.9552Z" fill="url(#paint6_linear_1010_5057)"/>
<path d="M69.29 22.4974C68.06 22.4974 66.86 22.5579 65.66 22.6689C86.56 24.5243 102.95 42.2117 102.95 63.7714C102.95 85.331 86.56 103.018 65.66 104.874C66.86 104.985 68.07 105.045 69.29 105.045C91.89 105.045 110.22 86.5714 110.22 63.7714C110.22 40.9714 91.9 22.4974 69.29 22.4974Z" fill="#3B2506"/>
<path d="M74.12 57.6605L76.86 61.5227C77.98 63.358 78.72 65.4958 78.97 67.805C79.39 71.9395 78.15 75.8521 75.78 78.7966C74.5 77.8991 69.75 75.8319 67.16 75.4286L62.61 81.8218L62.13 86.5109H66.18C66.8 86.5109 67.42 86.4807 68.06 86.4101C77.65 85.3512 83.98 77.3445 82.93 67.6739C82.53 63.9529 79.59 59.9596 77.32 57.3378L74.11 57.6504L74.12 57.6605Z" fill="white"/>
<path d="M82.66 35.0117C80.22 35.7075 77.8 36.6353 75.33 33.9529C69.85 27.9932 62.34 33.3277 63.86 33.7815C68.91 35.2739 68.13 38.8235 72.21 44.0168C73.96 46.2453 76.58 46.6991 78.92 46.5479C79.07 46.5479 79.17 46.6689 79.12 46.8101L75.53 56.1176C72.3 54.0302 68.37 50.9848 64.26 51.4386C54.68 52.4974 47.75 61.1798 48.8 70.8504C49.54 77.7075 54.1 83.2134 60.1 85.4521L56.5 92.763C56.22 93.3277 56.58 94.2857 57.2 94.3764H59.49C59.89 94.4369 60.27 94.2151 60.45 93.8622L86.98 36.484C87.13 36 86.53 33.8117 84.29 34.5378L82.66 35.0117ZM65.04 75.4386C60.89 75.5495 58.33 76.4067 56.38 77.6369C54.73 75.5193 53.64 72.8974 53.33 69.9731C52.5 61.9462 57.01 55.7344 64.64 54.8672C68.22 54.4538 71.6 55.9865 74.3 58.0537L65.04 75.4386Z" fill="white"/>
<path d="M77.32 57.3681L75.86 60.5143C76.98 62.3496 77.72 64.4874 77.97 66.7966C78.39 70.9311 77.15 74.8437 74.78 77.7882C73.5 76.8908 71.38 76.1748 68.79 75.7714L64.92 84.1311L63.81 86.521H64.19C64.81 86.521 65.43 86.4907 66.07 86.4202C75.66 85.3613 82.58 76.679 81.53 67.0084C81.13 63.2874 79.6 59.9697 77.33 57.3479V57.3681H77.32Z" fill="url(#paint7_linear_1010_5057)"/>
<path d="M83.95 35.6874C81.51 36.3832 75.8 37.6437 73.33 34.9613C67.85 29.0017 60.34 33.3277 61.86 33.7815C66.91 35.2739 66.13 38.8235 70.21 44.0168C71.96 46.2454 74.58 46.6991 76.92 46.5479C77.07 46.5479 77.17 46.6689 77.12 46.8101L73.53 54.1008C70.3 52.0134 66.37 50.9849 62.26 51.4386C52.68 52.4975 45.75 61.1798 46.8 70.8504C47.54 77.7076 52.1 83.2134 58.1 85.4521L54.5 92.763C54.22 93.3277 54.57 93.9933 55.19 94.084L57.2 94.3765C57.6 94.437 57.98 94.2151 58.16 93.8622L84.73 36.484C84.88 36 84.44 35.526 83.95 35.6672V35.6874ZM63.04 75.4386C58.89 75.5496 55.33 76.4067 53.38 77.637C51.73 75.5193 50.64 72.8975 50.33 69.9731C49.5 61.9462 55.01 54.726 62.64 53.8588C66.22 53.4454 69.62 54.5143 72.33 56.5815L63.04 75.4386Z" fill="url(#paint8_linear_1010_5057)"/>
<path d="M95.5304 47.3237L102.003 45.7835L103.53 39.2564L105.058 45.7835L111.53 47.3237L105.058 48.8639L103.53 55.3909L102.003 48.8639L95.5304 47.3237Z" fill="white"/>
<defs>
<linearGradient id="paint0_linear_1010_5057" x1="0.459992" y1="61.1042" x2="33.854" y2="79.4972" gradientUnits="userSpaceOnUse">
<stop stop-color="#804A00"/>
<stop offset="0.33" stop-color="#895E1A"/>
<stop offset="0.66" stop-color="#B08D57"/>
<stop offset="1" stop-color="#9C7A3C"/>
</linearGradient>
<linearGradient id="paint1_linear_1010_5057" x1="6.81" y1="30.1059" x2="44.0611" y2="56.4453" gradientUnits="userSpaceOnUse">
<stop stop-color="#804A00"/>
<stop offset="0.33" stop-color="#895E1A"/>
<stop offset="0.66" stop-color="#B08D57"/>
<stop offset="1" stop-color="#9C7A3C"/>
</linearGradient>
<linearGradient id="paint2_linear_1010_5057" x1="36.32" y1="9.35796" x2="44.2188" y2="24.5472" gradientUnits="userSpaceOnUse">
<stop stop-color="#804A00"/>
<stop offset="0.33" stop-color="#895E1A"/>
<stop offset="0.66" stop-color="#B08D57"/>
<stop offset="1" stop-color="#9C7A3C"/>
</linearGradient>
<linearGradient id="paint3_linear_1010_5057" x1="4.38998" y1="92.1025" x2="42.2006" y2="120.147" gradientUnits="userSpaceOnUse">
<stop stop-color="#804A00"/>
<stop offset="0.33" stop-color="#895E1A"/>
<stop offset="0.66" stop-color="#B08D57"/>
<stop offset="1" stop-color="#9C7A3C"/>
</linearGradient>
<linearGradient id="paint4_linear_1010_5057" x1="28.26" y1="116.249" x2="47.7926" y2="139.064" gradientUnits="userSpaceOnUse">
<stop stop-color="#804A00"/>
<stop offset="0.33" stop-color="#895E1A"/>
<stop offset="0.66" stop-color="#B08D57"/>
<stop offset="1" stop-color="#9C7A3C"/>
</linearGradient>
<linearGradient id="paint5_linear_1010_5057" x1="56.7709" y1="118.622" x2="109.759" y2="6.88609" gradientUnits="userSpaceOnUse">
<stop stop-color="#CCAC7C"/>
<stop offset="0.480769" stop-color="#CBAB70"/>
<stop offset="0.822115" stop-color="#B38947"/>
</linearGradient>
<linearGradient id="paint6_linear_1010_5057" x1="40.3462" y1="92.9552" x2="116.443" y2="44.353" gradientUnits="userSpaceOnUse">
<stop stop-color="#804A00"/>
<stop offset="0.33" stop-color="#895E1A"/>
<stop offset="0.66" stop-color="#B08D57"/>
<stop offset="1" stop-color="#9C7A3C"/>
</linearGradient>
<linearGradient id="paint7_linear_1010_5057" x1="63.81" y1="71.9345" x2="83.5332" y2="74.5436" gradientUnits="userSpaceOnUse">
<stop stop-color="#CCAC7C"/>
<stop offset="0.480769" stop-color="#CBAB70"/>
<stop offset="0.822115" stop-color="#B38947"/>
</linearGradient>
<linearGradient id="paint8_linear_1010_5057" x1="46.6948" y1="63.1136" x2="88.8183" y2="68.664" gradientUnits="userSpaceOnUse">
<stop stop-color="#CCAC7C"/>
<stop offset="0.480769" stop-color="#CBAB70"/>
<stop offset="0.822115" stop-color="#B38947"/>
</linearGradient>
</defs>
</svg>
