<svg width="130" height="121" viewBox="0 0 130 121" fill="none" xmlns="http://www.w3.org/2000/svg">
<path opacity="0.3" d="M64.8001 120.546C87.3996 120.546 105.72 118.302 105.72 115.534C105.72 112.767 87.3996 110.523 64.8001 110.523C42.2006 110.523 23.8801 112.767 23.8801 115.534C23.8801 118.302 42.2006 120.546 64.8001 120.546Z" fill="black"/>
<path d="M58.2701 115.504C27.4501 115.504 2.46005 90.3042 2.46005 59.2252C2.46005 28.1462 27.4501 2.94621 58.2701 2.94621H71.2901V115.494H58.2701V115.504Z" fill="#4D4D4D"/>
<path d="M17.7301 97.8773H47.6201V89.921H11.5001C13.3401 92.7647 15.4201 95.4269 17.7301 97.8773Z" fill="#4D4D4D"/>
<path d="M3.06006 67.4336H31.1801V60.6471H2.50006C2.56006 62.9462 2.74006 65.2151 3.06006 67.4336Z" fill="#4D4D4D"/>
<path d="M7.31006 36.2941H33.6301V29.3866H10.9601C9.59006 31.595 8.37006 33.8941 7.31006 36.2941Z" fill="#4D4D4D"/>
<path d="M69.47 9.2084V2.9563H58.26C49.05 2.9563 40.36 5.2252 32.7 9.2084H69.46H69.47Z" fill="#4D4D4D"/>
<path d="M2.46005 59.2252C2.46005 60.8891 2.55005 62.5328 2.69005 64.1563H41.1201V48.9597H3.40005C2.79005 52.2874 2.46005 55.716 2.46005 59.2353V59.2252Z" fill="url(#paint0_linear_1010_5083)"/>
<path d="M8.81006 33.158H58.4401V17.9613H20.3401C15.6901 22.3076 11.7801 27.4504 8.81006 33.158Z" fill="url(#paint1_linear_1010_5083)"/>
<path d="M38.3201 6.66722H71.2801V2.9563H58.2601C51.2301 2.9563 44.5101 4.27731 38.3201 6.66722Z" fill="url(#paint2_linear_1010_5083)"/>
<path d="M15.32 95.1546H58.45V79.958H6.39005C8.57005 85.5143 11.6 90.637 15.32 95.1546Z" fill="url(#paint3_linear_1010_5083)"/>
<path d="M30.27 107.901C38.5 112.721 48.06 115.504 58.26 115.504H71.28V107.901H30.26H30.27Z" fill="url(#paint4_linear_1010_5083)"/>
<path d="M125.683 71.8637C132.601 41.5746 113.86 11.3652 83.823 4.38916C53.7864 -2.58691 23.8288 16.312 16.9108 46.6011C9.9929 76.8901 28.7343 107.099 58.771 114.076C88.8076 121.052 118.765 102.153 125.683 71.8637Z" fill="url(#paint5_linear_1010_5083)"/>
<path d="M71.2901 2.94621C70.6801 2.94621 70.0801 2.97646 69.4701 2.99663C99.4501 3.9647 123.46 28.7613 123.46 59.2252C123.46 89.6891 99.4501 114.486 69.4701 115.454C70.0701 115.474 70.6801 115.504 71.2901 115.504C102.11 115.504 127.1 90.3042 127.1 59.2252C127.1 28.1462 102.11 2.94621 71.2901 2.94621Z" fill="white"/>
<path d="M87.1497 95.5191C107.029 84.6667 114.419 59.6188 103.657 39.5729C92.8955 19.527 68.0563 12.0742 48.1774 22.9265C28.2986 33.7788 20.9078 58.8268 31.6697 78.8727C42.4316 98.9186 67.2709 106.371 87.1497 95.5191Z" fill="white"/>
<path d="M100.23 88.409C116.214 72.2905 116.214 46.1573 100.23 30.0388C84.2458 13.9203 58.3304 13.9203 42.3462 30.0388C26.3621 46.1573 26.3621 72.2905 42.3462 88.409C58.3304 104.527 84.2458 104.527 100.23 88.409Z" fill="url(#paint6_linear_1010_5083)"/>
<path d="M71.2901 17.9512C70.0601 17.9512 68.8601 18.0118 67.6601 18.1227C88.5601 19.9781 104.95 37.6655 104.95 59.2252C104.95 80.7849 88.5601 98.4723 67.6601 100.328C68.8601 100.439 70.0701 100.499 71.2901 100.499C93.8901 100.499 112.22 82.0252 112.22 59.2252C112.22 36.4252 93.9001 17.9512 71.2901 17.9512Z" fill="#4D4D4D"/>
<path d="M76.1201 53.1143L78.8601 56.9765C79.9801 58.8117 80.7201 60.9496 80.9701 63.2588C81.3901 67.3933 80.1501 71.3059 77.7801 74.2504C76.5001 73.3529 71.7501 71.2857 69.1601 70.8823L64.6101 77.2756L64.1301 81.9647H68.1801C68.8001 81.9647 69.4201 81.9344 70.0601 81.8638C79.6501 80.805 85.9801 72.7983 84.9301 63.1277C84.5301 59.4067 81.5901 55.4134 79.3201 52.7916L76.1101 53.1042L76.1201 53.1143Z" fill="white"/>
<path d="M84.6601 30.4655C82.2201 31.1613 79.8001 32.0891 77.3301 29.4067C71.8501 23.447 64.3401 28.7815 65.8601 29.2353C70.9101 30.7277 70.1301 34.2773 74.2101 39.4706C75.9601 41.6991 78.5801 42.1529 80.9201 42.0017C81.0701 42.0017 81.1701 42.1227 81.1201 42.2638L77.5301 51.5714C74.3001 49.484 70.3701 46.4386 66.2601 46.8924C56.6801 47.9512 49.7501 56.6336 50.8001 66.3042C51.5401 73.1613 56.1001 78.6672 62.1001 80.9059L58.5001 88.2168C58.2201 88.7815 58.5801 89.7395 59.2001 89.8302H61.4901C61.8901 89.8907 62.2701 89.6689 62.4501 89.3159L88.9801 31.9378C89.1301 31.4538 88.5301 29.2655 86.2901 29.9916L84.6601 30.4655ZM67.0401 70.8924C62.8901 71.0033 60.3301 71.8605 58.3801 73.0907C56.7301 70.9731 55.6401 68.3512 55.3301 65.4269C54.5001 57.4 59.0101 51.1882 66.6401 50.321C70.2201 49.9075 73.6001 51.4403 76.3001 53.5075L67.0401 70.8924Z" fill="white"/>
<path d="M79.3201 52.8218L77.8601 55.9681C78.9801 57.8034 79.7201 59.9412 79.9701 62.2504C80.3901 66.3849 79.1501 70.2975 76.7801 73.242C75.5001 72.3445 73.3801 71.6286 70.7901 71.2252L66.9201 79.5849L65.8101 81.9748H66.1901C66.8101 81.9748 67.4301 81.9445 68.0701 81.8739C77.6601 80.8151 84.5801 72.1328 83.5301 62.4622C83.1301 58.7412 81.6001 55.4235 79.3301 52.8017V52.8218H79.3201Z" fill="url(#paint7_linear_1010_5083)"/>
<path d="M85.9501 31.1412C83.5101 31.837 77.8001 33.0975 75.3301 30.4151C69.8501 24.4555 62.3401 28.7815 63.8601 29.2353C68.9101 30.7277 68.1301 34.2773 72.2101 39.4706C73.9601 41.6992 76.5801 42.1529 78.9201 42.0017C79.0701 42.0017 79.1701 42.1227 79.1201 42.2639L75.5301 49.5546C72.3001 47.4672 68.3701 46.4387 64.2601 46.8924C54.6801 47.9513 47.7501 56.6336 48.8001 66.3042C49.5401 73.1613 54.1001 78.6672 60.1001 80.9059L56.5001 88.2168C56.2201 88.7815 56.5701 89.4471 57.1901 89.5378L59.2001 89.8302C59.6001 89.8908 59.9801 89.6689 60.1601 89.316L86.7301 31.9378C86.8801 31.4538 86.4401 30.9798 85.9501 31.121V31.1412ZM65.0401 70.8924C60.8901 71.0034 57.3301 71.8605 55.3801 73.0908C53.7301 70.9731 52.6401 68.3513 52.3301 65.4269C51.5001 57.4 57.0101 50.1798 64.6401 49.3126C68.2201 48.8992 71.6201 49.9681 74.3301 52.0353L65.0401 70.8924Z" fill="url(#paint8_linear_1010_5083)"/>
<path d="M109.656 92.9697L108.046 86.0925L101.221 84.4697L108.046 82.8469L109.656 75.9697L111.267 82.8469L118.092 84.4697L111.267 86.0925L109.656 92.9697Z" fill="white"/>
<path d="M46.5711 26.9697L45.0554 20.497L38.6321 18.9697L45.0554 17.4423L46.5711 10.9697L48.0868 17.4423L54.51 18.9697L48.0868 20.497L46.5711 26.9697Z" fill="white"/>
<defs>
<linearGradient id="paint0_linear_1010_5083" x1="2.46005" y1="56.558" x2="46.8786" y2="68.4111" gradientUnits="userSpaceOnUse">
<stop stop-color="#A6A7AD"/>
<stop offset="0.5" stop-color="#F5F3F2"/>
<stop offset="1" stop-color="#DDDDDD"/>
</linearGradient>
<linearGradient id="paint1_linear_1010_5083" x1="8.81006" y1="25.5597" x2="63.4776" y2="44.2872" gradientUnits="userSpaceOnUse">
<stop stop-color="#A6A7AD"/>
<stop offset="0.5" stop-color="#F5F3F2"/>
<stop offset="1" stop-color="#DDDDDD"/>
</linearGradient>
<linearGradient id="paint2_linear_1010_5083" x1="38.3201" y1="4.81176" x2="60.0364" y2="25.0441" gradientUnits="userSpaceOnUse">
<stop stop-color="#A6A7AD"/>
<stop offset="0.5" stop-color="#F5F3F2"/>
<stop offset="1" stop-color="#DDDDDD"/>
</linearGradient>
<linearGradient id="paint3_linear_1010_5083" x1="6.39005" y1="87.5563" x2="63.1363" y2="107.948" gradientUnits="userSpaceOnUse">
<stop stop-color="#A6A7AD"/>
<stop offset="0.5" stop-color="#F5F3F2"/>
<stop offset="1" stop-color="#DDDDDD"/>
</linearGradient>
<linearGradient id="paint4_linear_1010_5083" x1="30.26" y1="111.703" x2="68.4999" y2="133.343" gradientUnits="userSpaceOnUse">
<stop stop-color="#A6A7AD"/>
<stop offset="0.5" stop-color="#F5F3F2"/>
<stop offset="1" stop-color="#DDDDDD"/>
</linearGradient>
<linearGradient id="paint5_linear_1010_5083" x1="58.771" y1="114.076" x2="103.827" y2="-15.9962" gradientUnits="userSpaceOnUse">
<stop stop-color="#E2E2E2"/>
<stop offset="0.490385" stop-color="#8D8E90"/>
<stop offset="1" stop-color="#C5C5C5"/>
</linearGradient>
<linearGradient id="paint6_linear_1010_5083" x1="42.3462" y1="88.409" x2="120.719" y2="25.4459" gradientUnits="userSpaceOnUse">
<stop stop-color="#A6A7AD"/>
<stop offset="0.5" stop-color="#F5F3F2"/>
<stop offset="1" stop-color="#DDDDDD"/>
</linearGradient>
<linearGradient id="paint7_linear_1010_5083" x1="65.8101" y1="67.3882" x2="87.6592" y2="68.7886" gradientUnits="userSpaceOnUse">
<stop stop-color="#E2E2E2"/>
<stop offset="0.490385" stop-color="#8D8E90"/>
<stop offset="1" stop-color="#C5C5C5"/>
</linearGradient>
<linearGradient id="paint8_linear_1010_5083" x1="48.6949" y1="58.5674" x2="95.354" y2="61.546" gradientUnits="userSpaceOnUse">
<stop stop-color="#E2E2E2"/>
<stop offset="0.490385" stop-color="#8D8E90"/>
<stop offset="1" stop-color="#C5C5C5"/>
</linearGradient>
</defs>
</svg>
