<svg width="126" height="119" viewBox="0 0 126 119" fill="none" xmlns="http://www.w3.org/2000/svg">
<path opacity="0.3" d="M62.8 117.605C85.3995 117.605 103.72 115.361 103.72 112.594C103.72 109.826 85.3995 107.582 62.8 107.582C40.2005 107.582 21.88 109.826 21.88 112.594C21.88 115.361 40.2005 117.605 62.8 117.605Z" fill="black"/>
<path d="M56.27 112.563C25.45 112.563 0.459991 87.3633 0.459991 56.2843C0.459991 25.2053 25.45 0.00531006 56.27 0.00531006H69.29V112.553H56.27V112.563Z" fill="#0A1A11"/>
<path d="M15.73 94.9364H45.62V86.9801H9.5C11.34 89.8238 13.42 92.486 15.73 94.9364Z" fill="#0A1A11"/>
<path d="M1.06 64.4927H29.18V57.7062H0.5C0.56 60.0053 0.739999 62.2742 1.06 64.4927Z" fill="#0A1A11"/>
<path d="M5.31 33.3532H31.63V26.4456H8.96C7.59 28.6541 6.37 30.9532 5.31 33.3532Z" fill="#0A1A11"/>
<path d="M67.47 6.26749V0.0153923H56.26C47.05 0.0153923 38.36 2.2843 30.7 6.26749H67.46H67.47Z" fill="#0A1A11"/>
<path d="M0.459991 56.2843C0.459991 57.9482 0.549993 59.5919 0.689993 61.2154H39.12V46.0188H1.39999C0.789992 49.3465 0.459991 52.7751 0.459991 56.2944V56.2843Z" fill="#002F18"/>
<path d="M6.81 30.2171H56.44V15.0204H18.34C13.69 19.3667 9.78 24.5095 6.81 30.2171Z" fill="#002F18"/>
<path d="M36.32 3.72632H69.28V0.0153923H56.26C49.23 0.0153923 42.51 1.3364 36.32 3.72632Z" fill="#002F18"/>
<path d="M13.32 92.2137H56.45V77.0171H4.38998C6.56998 82.5734 9.59998 87.6961 13.32 92.2137Z" fill="#002F18"/>
<path d="M28.27 104.96C36.5 109.78 46.06 112.563 56.26 112.563H69.28V104.96H28.26H28.27Z" fill="#002F18"/>
<path d="M123.683 68.9228C130.601 38.6337 111.86 8.42433 81.823 1.44826C51.7863 -5.52782 21.8287 13.3711 14.9108 43.6601C7.99284 73.9492 26.7342 104.159 56.7709 111.135C86.8075 118.111 116.765 99.2118 123.683 68.9228Z" fill="#337D59"/>
<path d="M69.29 0.00531006C68.68 0.00531006 68.08 0.0355614 67.47 0.0557295C97.45 1.0238 121.46 25.8204 121.46 56.2843C121.46 86.7482 97.45 111.545 67.47 112.513C68.07 112.533 68.68 112.563 69.29 112.563C100.11 112.563 125.1 87.3633 125.1 56.2843C125.1 25.2053 100.11 0.00531006 69.29 0.00531006Z" fill="white"/>
<path d="M85.1496 92.5782C105.028 81.7258 112.419 56.6779 101.657 36.632C90.8954 16.5861 66.0562 9.13326 46.1773 19.9856C26.2985 30.8379 18.9078 55.8859 29.6697 75.9318C40.4316 95.9777 65.2708 103.431 85.1496 92.5782Z" fill="white"/>
<path d="M98.2299 85.4681C114.214 69.3496 114.214 43.2164 98.2299 27.0979C82.2457 10.9794 56.3303 10.9794 40.3461 27.0979C24.362 43.2164 24.362 69.3496 40.3461 85.4681C56.3303 101.587 82.2457 101.587 98.2299 85.4681Z" fill="#002F18"/>
<path d="M69.29 15.0104C68.06 15.0104 66.86 15.0709 65.66 15.1818C86.56 17.0372 102.95 34.7246 102.95 56.2843C102.95 77.844 86.56 95.5314 65.66 97.3868C66.86 97.4977 68.07 97.5582 69.29 97.5582C91.89 97.5582 110.22 79.0843 110.22 56.2843C110.22 33.4843 91.9 15.0104 69.29 15.0104Z" fill="#0A1A11"/>
<path d="M74.12 50.1734L76.86 54.0356C77.98 55.8709 78.72 58.0087 78.97 60.3179C79.39 64.4524 78.15 68.365 75.78 71.3095C74.5 70.412 69.75 68.3448 67.16 67.9414L62.61 74.3347L62.13 79.0238H66.18C66.8 79.0238 67.42 78.9935 68.06 78.923C77.65 77.8641 83.98 69.8574 82.93 60.1868C82.53 56.4658 79.59 52.4725 77.32 49.8507L74.11 50.1633L74.12 50.1734Z" fill="white"/>
<path d="M82.66 27.5246C80.22 28.2204 77.8 29.1482 75.33 26.4658C69.85 20.5061 62.34 25.8406 63.86 26.2944C68.91 27.7868 68.13 31.3364 72.21 36.5297C73.96 38.7582 76.58 39.212 78.92 39.0608C79.07 39.0608 79.17 39.1818 79.12 39.323L75.53 48.6305C72.3 46.5431 68.37 43.4977 64.26 43.9515C54.68 45.0104 47.75 53.6927 48.8 63.3633C49.54 70.2204 54.1 75.7263 60.1 77.965L56.5 85.2759C56.22 85.8406 56.58 86.7986 57.2 86.8893H59.49C59.89 86.9498 60.27 86.728 60.45 86.3751L86.98 28.9969C87.13 28.5129 86.53 26.3246 84.29 27.0507L82.66 27.5246ZM65.04 67.9515C60.89 68.0624 58.33 68.9196 56.38 70.1498C54.73 68.0322 53.64 65.4103 53.33 62.486C52.5 54.4591 57.01 48.2473 64.64 47.3801C68.22 46.9667 71.6 48.4994 74.3 50.5667L65.04 67.9515Z" fill="white"/>
<path d="M77.32 49.881L75.86 53.0272C76.98 54.8625 77.72 57.0003 77.97 59.3095C78.39 63.444 77.15 67.3566 74.78 70.3011C73.5 69.4036 71.38 68.6877 68.79 68.2843L64.92 76.644L63.81 79.0339H64.19C64.81 79.0339 65.43 79.0036 66.07 78.9331C75.66 77.8742 82.58 69.1919 81.53 59.5213C81.13 55.8003 79.6 52.4826 77.33 49.8608V49.881H77.32Z" fill="#337D59"/>
<path d="M83.95 28.2003C81.51 28.8961 75.8 30.1566 73.33 27.4742C67.85 21.5146 60.34 25.8406 61.86 26.2944C66.91 27.7868 66.13 31.3364 70.21 36.5297C71.96 38.7583 74.58 39.212 76.92 39.0608C77.07 39.0608 77.17 39.1818 77.12 39.323L73.53 46.6137C70.3 44.5263 66.37 43.4978 62.26 43.9515C52.68 45.0104 45.75 53.6927 46.8 63.3633C47.54 70.2205 52.1 75.7263 58.1 77.965L54.5 85.2759C54.22 85.8406 54.57 86.5062 55.19 86.5969L57.2 86.8894C57.6 86.9499 57.98 86.728 58.16 86.3751L84.73 28.9969C84.88 28.5129 84.44 28.0389 83.95 28.1801V28.2003ZM63.04 67.9515C58.89 68.0625 55.33 68.9196 53.38 70.1499C51.73 68.0322 50.64 65.4104 50.33 62.486C49.5 54.4591 55.01 47.2389 62.64 46.3717C66.22 45.9583 69.62 47.0272 72.33 49.0944L63.04 67.9515Z" fill="#337D59"/>
</svg>
