<svg id="Logo_GCCN" xmlns="http://www.w3.org/2000/svg" width="200" height="156" viewBox="0 0 200 156"><style>.st0{fill:#D4B27C;}</style><path class="st0" d="M117.1 12.6v.6c3.2 1.2 12 2.1 6.3-6.7 0 0-.8 3.8-6.4 4.6.1.6.1 1 .1 1.5zM113.6 19.1c-.9.5-1.9.9-2.9 1.1 1.6 20.6 8.6 15.9 11.1 12.2-.1-.1-4.9-.3-8.2-13.3zM116.1 16.4c-.5.8-1.1 1.6-1.9 2.2 2.6 10 9.7 15.4 11.6 5.8.1-.1-6.7-1.1-9.7-8zM117 14.1c-.1.6-.3 1.2-.6 1.7 4.7 6.8 10.1 6.1 9.5-1.6 0 0-3 3.4-8.9-.1z"/><path class="st0" d="M115.4 7.8c.6.7 1 1.5 1.3 2.3 2.2-.5 9.5-3.9 1.7-8 0 0 .4 3.8-3 5.7zM82.9 13.3v-.6c0-.5 0-.9.1-1.4-5.6-.9-6.4-4.6-6.4-4.6-5.7 8.7 3.1 7.7 6.3 6.6zM89.4 20.1c-1.1-.2-2-.5-2.9-1.1-3.4 13-8.2 13.3-8.2 13.3 2.5 3.7 9.4 8.5 11.1-12.2z"/><path class="st0" d="M85.7 18.6c-.7-.6-1.4-1.3-1.9-2.2-3 6.9-9.8 7.9-9.8 7.9 2.1 9.7 9.2 4.3 11.7-5.7z"/><path class="st0" d="M83.6 15.8c-.2-.5-.4-1.1-.6-1.7-6 3.4-8.9.1-8.9.1-.6 7.7 4.8 8.5 9.5 1.6zM83.3 10.1c.3-.9.7-1.6 1.3-2.3-3.4-1.9-3-5.7-3-5.7-7.8 4.1-.5 7.5 1.7 8zM97.7 24.2v2.9l2.3-2.5 2.3 2.5v-2.9l-2.3-2.5zM97.7 30v2.9l2.3-2.5 2.3 2.5V30l-2.3-2.5z"/><path class="st0" d="M112 43.3c-1.8-2.9-2.7-5.1-3.3-7.5 1.9 2.8 4.1 3.1 6.2 1.7 0 0-5-.9-5.3-19.2 3.1-.1 5.6-2.6 5.6-5.7 0-1.8-.8-3.3-2.1-4.4 3.6-2.3 6.6-7.7.2-7.6-1.8 5.1-5.5 5.2-5.7 7.6-.1 1.4.8 2.5.8 2.5.3-.2.7-.3 1.2-.3 1.2 0 2.2 1 2.2 2.2 0 1.2-1 2.2-2.2 2.2-.8 0-1.5-.4-1.9-1-.2-.3-.9-1.8-2.9-2.2-.1-1.6.7-1.6.9-2.2.1-.2-.2-.9-.2-.9.5-.5 1.1-1.2.9-2.4-.6-3.1-2.3-3.2-2.3-4.7 0-.8.4-1.2.4-1.2-1.2-.5-2.4.6-2.4.6C97.9-.1 97.2 3 97.2 3s-3.1 0-3 3c1.2-1.1 2.5-1.1 2.3-.3-.5 1.6-3 1.3-3 1.3s.5 1.8 3.5.8c.2.6-.4.6-.4 1.2 0 .4 1.3.4 1.2 1.1-.1.5-.3.9-.5 1.4-.3-.1-.5-.1-.8-.1-3 0-3.9 2.1-4.1 2.4-.4.6-1.1 1-1.8 1-1.2 0-2.2-1-2.2-2.2 0-1.2 1-2.2 2.2-2.2.4 0 .8.1 1.2.3 0 0 .9-1.1.8-2.5-.2-2.5-3.9-2.6-5.7-7.6-6.5-.1-3.4 5.3.2 7.6-1.3 1-2.1 2.6-2.1 4.4 0 3.1 2.5 5.6 5.6 5.7C90 36.6 85 37.5 85 37.5c2.1 1.4 4.3 1.1 6.2-1.7-.5 2.4-1.5 4.6-3.3 7.5 0 0-4.8-.5-4.8 4.4 2.2-1.1 4.6-2 7-2.6.8-2 3-7.1 6.6-7.1 1.8 0 1.4 2.4-1.1 2.9 0 .7 2.3 1.4 4.4 1.4 2.1 0 4.3-.8 4.3-1.4-2.4-.5-2.9-2.9-1.1-2.9 3.5 0 5.8 5.1 6.6 7.1 2.4.7 4.8 1.5 7 2.7.1-4.9-4.8-4.5-4.8-4.5zM99.2 3.1c.3 0 .6.3.6.6s-.3.6-.6.6-.6-.3-.6-.6.3-.6.6-.6zm7.4 26.6c0 2.8-1.8 5.2-4.2 6.1h-.1l-2.3-2.5-2.3 2.5h-.1c-2.5-.9-4.3-3.3-4.3-6.1V18.2h4.3v3.1l2.3-2.5 2.3 2.5v-3.1h4.2v11.5zM98.2 52.8v-5c-4.1.2-7.9 1.1-11.5 2.6V113c3.6 1.5 7.4 2.4 11.5 2.6v-5c-2.2-.1-4.4-.5-6.5-1.2V54c2.1-.6 4.3-1 6.5-1.2zM83.1 58.2v-6C72.9 58.1 66 69.1 66 81.8c0 12.6 6.9 23.6 17.1 29.5V81.8h-5v19C73.7 95.7 71 89 71 81.8c0-9.7 4.8-18.3 12.1-23.6zM113.3 56.1v-5.6c-3.6-1.5-7.4-2.4-11.5-2.6v67.8c4.1-.2 7.9-1.1 11.5-2.6v-5.6c-2 1-4.2 1.9-6.5 2.4V53.6c2.3.6 4.4 1.4 6.5 2.5zM129 64v17.7c0 2.7-.4 5.3-1.1 7.8l-6-33.8c-1.6-1.3-3.2-2.5-5-3.5v59c1.8-1 3.4-2.2 5-3.5V77.5l4.6 25.5c4.7-5.8 7.5-13.2 7.5-21.3 0-6.4-1.9-12.5-5-17.7zM10.5 129.7h-.4c-.4-1.9-2-2.6-3.8-2.6-2.9 0-4.6 2.5-4.6 5.2 0 2.8 1.7 5.6 4.7 5.6 1.3 0 2-.5 2.2-.6v-2.4c0-1.2-.6-1.2-1.5-1.2v-.4h4.3v.4c-.5 0-1.2 0-1.2 1.2v2.1l.2.2v.3c-1.3.5-2.8.9-4.2.9-4.6 0-6.3-3.6-6.3-5.9 0-3.4 2.7-6 6.1-6 1.5 0 2.8.4 4.2.9l.3 2.3zM18.6 126.5c3.3 0 5.8 2.8 5.8 5.9 0 3-2.3 6-5.9 6-3.3 0-5.8-2.8-5.8-5.9 0-2.9 2.3-6 5.9-6zm.1 11.4c2.4 0 3.9-2.1 3.9-5 0-2.5-1.4-5.8-4.2-5.8-2.4 0-3.9 2.1-3.9 5 0 2.5 1.4 5.8 4.2 5.8zM34.4 138.2H26v-.4c.8 0 1.5-.2 1.5-1.1v-8.3c0-1.1-.6-1.2-1.5-1.2v-.4h4.6v.4c-.9 0-1.5 0-1.5 1.2v7.6c0 1.2.3 1.7 2.6 1.7 1.9 0 2.5-.5 3.1-2l.4.1-.8 2.4zM39 136.6c0 1.1.6 1.2 1.5 1.2v.4h-4.6v-.4c1.4 0 1.6-.3 1.6-1.8v-7.2c0-1.3-.3-1.4-1.6-1.5v-.4h7.9l.1 2.3-.4.1c-.2-1.4-.8-1.8-2.6-1.8H39v4.6h1.9c1.3 0 1.5-.2 1.7-1.4h.4c0 .3-.1 1.2-.1 1.8 0 .5 0 1.3.1 1.7h-.3c-.2-1.1-.2-1.5-1.6-1.5h-2v3.9zM63.7 136.9c-.7 1-1.6 1.8-2.9 1.8-1.7 0-2.7-1.6-3.6-2.8-1.2 1.3-2.1 2.5-3.9 2.5-1.8 0-3.3-1.5-3.3-3.3 0-2 1.1-2.9 2.7-3.8-.8-.5-1.3-1.2-1.3-2.2 0-1.5 1.1-2.5 2.5-2.5 1.2 0 2.3.7 2.3 1.9 0 1.1-.9 1.8-1.8 2.2 1.3 1 2.5 2.2 3.4 3.5.6-.7 2.3-2.9 2.3-3.7 0-.5-.7-.5-1-.5v-.4h4.4v.4c-2.6 0-2.4 1.2-5.4 4.6 1 1.1 1.8 2.9 3.5 2.9.8 0 1.3-.5 1.8-1l.3.4zm-9.6.3c1.4 0 2-.8 2.9-1.7-1.1-1.5-2.5-2.8-3.9-4-1 .6-1.9 1.4-1.9 2.7 0 1.6 1.4 3 2.9 3zm-.3-10.1c-.8 0-1.3.6-1.3 1.5 0 1 .8 1.6 1.6 2.1.7-.4 1.1-1.1 1.1-1.9 0-1-.5-1.7-1.4-1.7zM80 129.7h-.4c-.3-1.9-1.7-2.7-3.5-2.7-1.9 0-4.6 1.3-4.6 5.2 0 3.3 2.3 5.7 4.9 5.7 1.6 0 3-1.1 3.3-2.8l.4.1-.4 2.4c-.7.4-2.5.9-3.6.9-3.8 0-6.2-2.5-6.2-6.1 0-3.3 3-5.7 6.2-5.7 1.3 0 2.6.4 3.9.9v2.1zM87.5 126.5c3.3 0 5.8 2.8 5.8 5.9 0 3-2.3 6-5.9 6-3.3 0-5.8-2.8-5.8-5.9 0-2.9 2.3-6 5.9-6zm.1 11.4c2.4 0 3.9-2.1 3.9-5 0-2.5-1.4-5.8-4.2-5.8-2.4 0-3.9 2.1-3.9 5 0 2.5 1.4 5.8 4.2 5.8zM105.8 127.2c-1.3 0-1.3.6-1.3 2.6v4.7c0 2.2-1.4 3.9-4.3 3.9-2.7 0-4.3-1.3-4.4-4.1v-6c0-1.1-.6-1.2-1.5-1.2v-.4h4.6v.4c-.9 0-1.5 0-1.5 1.2v5.6c0 1.9.6 3.8 3.2 3.8 2.7 0 3-2.1 3-3.2v-4.7c0-2.7-.1-2.6-1.6-2.7v-.4h3.7v.5zM117.8 138.3h-.4l-8.5-9.4v6.1c0 2.3.2 2.7 1.9 2.7v.4h-4.4v-.4c1 0 1.7 0 1.7-2.1V129c0-1.4-.6-1.9-2-1.9v-.4h2.8c.7 1 2.2 2.5 4 4.5 1.4 1.5 2.9 3.1 4 4.4v-6.5c0-1.5-.3-2-2-2v-.4H119.1v.4c-1 0-1.5.1-1.5 1.7v9.5zM130.1 128.9h-.4c0-.9 0-1.5-1.3-1.5h-2.5v9.1c0 1.1.6 1.2 1.5 1.2v.4h-4.6v-.4c.9 0 1.5 0 1.5-1.2v-9.1h-2.1c-1.5 0-1.5.4-1.8 1.5h-.4l.2-2.6h.3c.2.4.6.5 1 .5h7.4c.6 0 1-.1 1.1-.5h.3l-.2 2.6zM134.1 132.8v3.8c0 1.1.6 1.2 1.5 1.2v.4H131v-.4c.8 0 1.5-.2 1.5-1.1v-8.3c0-1.1-.6-1.2-1.5-1.2v-.4h4.7c3.1 0 3.8 1.7 3.8 2.9 0 1.4-1 2.4-2.3 2.8 1.5 2.2 2.3 3.5 3 4.3.5.6 1 1 1.8 1v.4H139.4c-1.5-1.6-2.6-3.5-3.8-5.4h-1.5zm1-5.5c-.4 0-.7 0-1 .1v4.8c.2 0 .6.1.9.1 2 0 2.8-1.3 2.8-2.5 0-1.4-.8-2.5-2.7-2.5zM147.7 136.6c0 1.1.6 1.2 1.5 1.2v.4h-4.6v-.4c.9 0 1.5 0 1.5-1.2v-4l-3.4-4.7c-.5-.7-.6-.6-1.5-.7v-.4h4.3v.4c-.3 0-.9 0-.9.3 0 .2.2.6.5 1l2.3 3.2 2.1-2.9c.2-.3.6-.8.6-1.2 0-.5-.3-.5-1.2-.5v-.4h3.2v.4c-.7 0-1 .5-1.4.9l-3.1 4.2v4.4zM168.2 129.7h-.4c-.3-1.9-1.7-2.7-3.5-2.7-1.9 0-4.6 1.3-4.6 5.2 0 3.3 2.3 5.7 4.9 5.7 1.6 0 3-1.1 3.3-2.8l.4.1-.4 2.4c-.7.4-2.5.9-3.6.9-3.8 0-6.2-2.5-6.2-6.1 0-3.3 3-5.7 6.2-5.7 1.3 0 2.6.4 3.9.9v2.1zM177.9 138.2H169.5v-.4c.8 0 1.5-.2 1.5-1.1v-8.3c0-1.1-.6-1.2-1.5-1.2v-.4h4.6v.4c-.9 0-1.5 0-1.5 1.2v7.6c0 1.2.3 1.7 2.6 1.7 1.9 0 2.5-.5 3.1-2l.4.1-.8 2.4zM190.4 127.2c-1.3 0-1.3.6-1.3 2.6v4.7c0 2.2-1.4 3.9-4.3 3.9-2.7 0-4.3-1.3-4.4-4.1v-6c0-1.1-.6-1.2-1.5-1.2v-.4h4.6v.4c-.9 0-1.5 0-1.5 1.2v5.6c0 1.9.6 3.8 3.2 3.8 2.7 0 3-2.1 3-3.2v-4.7c0-2.7-.1-2.6-1.6-2.7v-.4h3.7v.5zM191.2 137.8c.8 0 1.5-.2 1.5-1.1v-8.3c0-1.1-.6-1.2-1.5-1.2v-.4h4c1.2 0 3.8.3 3.8 2.6 0 1.5-1.4 2.3-2.6 2.6 1.2-.1 3.7.8 3.7 3.1 0 1.7-1.5 3.1-4.4 3.1h-4.4v-.4zm3.1-5.9h.6c1.3 0 2.5-.4 2.5-2.5 0-1.9-1.1-2.2-2.4-2.2h-.7v4.7zm0 4.4c0 .7 0 1.3 1.5 1.3 1.9 0 2.6-1.3 2.6-2.3 0-2.3-1.5-2.9-3.1-2.9h-1v3.9zM60 155.9h-.4l-8.5-9.4v6.1c0 2.3.2 2.7 1.9 2.7v.4h-4.4v-.4c1 0 1.7 0 1.7-2.1v-6.6c0-1.4-.6-1.9-2-1.9v-.4h2.8c.7 1 2.2 2.5 4 4.5 1.4 1.5 2.9 3.1 4 4.4v-6.5c0-1.5-.3-2-2-2v-.4H61.3v.4c-1 0-1.5.1-1.5 1.7v9.5zM65.4 149.5h2.2c1.3 0 1.3-1 1.4-1.4h.3c0 .4-.1 1.2-.1 1.8 0 .5.1 1.3.1 1.8H69c0-1.6-.5-1.6-1.8-1.6h-1.7v2.8c0 1.8.1 2.3 1.7 2.3h1c1.6-.1 2.3-.3 3-2l.4.1c-.3.8-.5 1.6-.7 2.5h-8.5v-.4c1.4 0 1.6-.3 1.6-1.8v-7.2c0-1.3-.3-1.4-1.6-1.5v-.4h8v2.4l-.3.1c-.2-1.5-1-2-2.6-2h-1.9v4.5zM83.3 144.8c-1.3 0-1.3.6-1.3 2.6v4.7c0 2.2-1.4 3.9-4.3 3.9-2.7 0-4.3-1.3-4.4-4.1v-6c0-1.1-.6-1.2-1.5-1.2v-.4h4.6v.4c-.9 0-1.5 0-1.5 1.2v5.5c0 1.9.6 3.8 3.2 3.8 2.7 0 3-2.1 3-3.2v-4.7c0-2.7-.1-2.6-1.6-2.7v-.4h3.7v.6zM94.6 147.3h-.4c-.3-1.9-1.7-2.7-3.5-2.7-1.9 0-4.6 1.3-4.6 5.2 0 3.3 2.3 5.7 4.9 5.7 1.6 0 3-1.1 3.3-2.8l.4.1-.4 2.4c-.7.4-2.5.9-3.6.9-3.8 0-6.2-2.5-6.2-6.1 0-3.3 3-5.7 6.2-5.7 1.3 0 2.6.4 3.9.9v2.1zM105.4 149.5V146c0-1.1-.6-1.2-1.5-1.2v-.4h4.6v.4c-.9 0-1.5 0-1.5 1.2v8.2c0 1.1.6 1.2 1.5 1.2v.4h-4.6v-.4c.9 0 1.5 0 1.5-1.2v-4h-6.6v4c0 1.1.6 1.2 1.5 1.2v.4h-4.6v-.4c.9 0 1.5 0 1.5-1.2V146c0-1.1-.6-1.2-1.5-1.2v-.4h4.6v.4c-.9 0-1.5 0-1.5 1.2v3.6h6.6zM118.2 152.5c.2.6.7 2 .9 2.4.2.3.7.4 1.3.4v.4h-4.3v-.4h.3c.4 0 .9-.1.9-.5 0-.2-.1-.6-.2-.9l-.8-2.4h-3.8l-.4 1.1c-.2.7-.4 1.4-.4 1.9 0 .8.5.7 1.1.8h.4v.4h-3.9v-.4c1-.1 1.2-.2 1.6-1.2.3-.6.5-1.2.7-1.8l2.1-5.8c.1-.4.3-1 .3-1.5v-.4c.3-.2.7-.3.9-.7h.3l3 8.6zm-3-11.5l2 2.7h-.5l-1.9-1.7-1.9 1.7h-.5l2-2.7h.8zm-2.6 9.8h3.4l-1.7-4.8-1.7 4.8zM131.1 146.5h-.4c0-.9 0-1.5-1.3-1.5h-2.5v9.1c0 1.1.6 1.2 1.5 1.2v.4h-4.6v-.4c.9 0 1.5 0 1.5-1.2V145h-2.1c-1.5 0-1.5.4-1.8 1.5h-.4l.2-2.6h.3c.2.4.6.5 1 .5h7.4c.6 0 1-.1 1.1-.5h.3l-.2 2.6zM135.2 149.5h2.2c1.3 0 1.3-1 1.4-1.4h.3c0 .4-.1 1.2-.1 1.8 0 .5.1 1.3.1 1.8h-.3c0-1.6-.5-1.6-1.8-1.6h-1.7v2.8c0 1.8.1 2.3 1.7 2.3h1c1.6-.1 2.3-.3 3-2l.4.1c-.3.8-.5 1.6-.7 2.5h-8.5v-.4c1.4 0 1.6-.3 1.6-1.8v-7.2c0-1.3-.3-1.4-1.6-1.5v-.4h8v2.4l-.3.1c-.2-1.5-1-2-2.6-2h-1.9v4.5zM150.5 155.8H142.1v-.4c.8 0 1.5-.2 1.5-1.1V146c0-1.1-.6-1.2-1.5-1.2v-.4h4.6v.4c-.9 0-1.5 0-1.5 1.2v7.6c0 1.2.3 1.7 2.6 1.7 1.9 0 2.5-.5 3.1-2l.4.1-.8 2.4z"/></svg>