<?xml version="1.0" encoding="utf-8"?>
<!-- Generator: Adobe Illustrator 26.0.3, SVG Export Plug-In . SVG Version: 6.00 Build 0)  -->
<svg version="1.1" id="Calque_1" xmlns="http://www.w3.org/2000/svg" xmlns:xlink="http://www.w3.org/1999/xlink" x="0px" y="0px"
	 viewBox="0 0 113.8 130.3" style="enable-background:new 0 0 113.8 130.3;" xml:space="preserve">
<style type="text/css">
	.st0{fill:#043B2A;}
	.st1{fill:none;stroke:#FFFFFF;stroke-width:0.75;stroke-linecap:round;stroke-linejoin:round;stroke-miterlimit:10.0001;}
	.st2{fill:none;stroke:#FFFFFF;stroke-width:0.75;stroke-linecap:round;stroke-linejoin:round;stroke-miterlimit:3.864;}
	.st3{fill:none;stroke:#FFFFFF;stroke-width:0.75;stroke-linecap:square;stroke-linejoin:round;stroke-miterlimit:3.864;}
	.st4{fill:#FFFFFF;}
	.st5{fill-rule:evenodd;clip-rule:evenodd;fill:#FFFFFF;}
</style>
<rect y="0.2" class="st0" width="113.8" height="130"/>
<g transform="translate(-149.76 -100.75)">
	<g transform="matrix(.35278 0 0 -.35278 164.7 107.7)">
		<path class="st1" d="M106-64.5L118.5-52L131-64.5l-12.5-12.5L106-64.5z"/>
	</g>
	<g transform="matrix(.35278 0 0 -.35278 158.45 109.74)">
		<path class="st1" d="M73.5-75.1c-0.1,0-0.2,0-0.3,0C89.1-66,106.4-60.6,124-58.9 M148.5-58.9c17.8-1.7,35.3-7.1,51.4-16.3
			 M221.9-88.6l9.9,0l14.3-14.3l15.3,15.3l-15.1,15l0.1,13.9c-28,26.6-63.2,41.3-98.9,43.9L136.2-3.6l-11.3-11.3
			c-35.6-2.5-70.4-17.1-97.8-43.9l0-13.7L11.4-88.2l15.3-15.3l14.8,14.8h10.7"/>
	</g>
	<g transform="matrix(.35278 0 0 -.35278 169.55 110.7)">
		<path class="st2" d="M131.3-80.1c20,0,20.2,0.3,33.6,0.3s15.3,4.5,15.3,4.5l5.7-17.6c0,0-7.8-7.5-7.8-20.7c0-13.2-0.2-53.9-0.2-80
			c0-26.2-27-39.5-46.6-39.5s-26.5-14.4-26.5-14.4s-7.9,14.1-26.9,14.1c-19.1,0-46.8,13.4-46.8,40.2v79.6c0,13-6.8,20.3-6.8,20.3
			l5.4,17.9c0,0,1.6-4.2,15.1-4.2S57.3-80,77.8-80S111.2-80.1,131.3-80.1z"/>
	</g>
	<g transform="matrix(.35278 0 0 -.35278 179.05 111.33)">
		<path class="st1" d="M180.7-83.4l6.2,0l0.1,6.9"/>
	</g>
	<g transform="matrix(.35278 0 0 -.35278 153.45 111.33)">
		<path class="st1" d="M47.5-83.4l-6.2,0l-0.1,6.9"/>
	</g>
	<g transform="matrix(.35278 0 0 -.35278 170.04 120.37)">
		<path class="st3" d="M133.8-130.4h41"/>
	</g>
	<g transform="matrix(.35278 0 0 -.35278 157.29 120.37)">
		<path class="st2" d="M67.5-130.4h34.4"/>
	</g>
	<g transform="matrix(.35278 0 0 -.35278 159.58 126.95)">
		<path class="st4" d="M79.4-164.6c0,5.9,14.2,10.8,31.7,10.8c17.5,0,31.7-4.8,31.7-10.8c0-5.9-14.2-10.8-31.7-10.8
			C93.6-175.4,79.4-170.5,79.4-164.6"/>
	</g>
	<g transform="matrix(.35278 0 0 -.35278 176.87 107.62)">
		<path class="st4" d="M169.3-64.1c-1.4-2.3-3.4-1.6-5.3-0.4l-0.9,0.6l1.5,2.4l1.7,2.7c0.5-0.2,0.9-0.4,1.4-0.7
			c0.9-0.6,1.6-1.3,1.9-2.1C169.9-62.4,169.9-63.2,169.3-64.1 M165.9-71.4c-1-1.7-2.8-2.2-5.1-0.8c-0.7,0.4-1.3,1-1.8,1.6l3.6,5.8
			l1.1-0.7C166.7-67.3,166.9-69.7,165.9-71.4 M172.1-61.5l-2.5,0L172.1-61.5c-1,1-2.2,1.8-2.8,2.2l-7.5,4.7l-0.3-0.5l0.6-0.4
			c1.1-0.9,1.1-0.9-0.3-3.2l-1.7-2.7l-3.1-5c-1.5-2.4-1.4-2.3-2.7-1.8l-0.6,0.3l-0.3-0.5l6.5-4.1c3.7-2.3,7.7-3.6,9.6-0.5
			c1.6,2.6-0.6,5.1-2,6.3l0,0c1.5-0.5,4.1-1,5.5,1.2C173.9-64.1,173.2-62.7,172.1-61.5"/>
	</g>
	<g transform="matrix(.35278 0 0 -.35278 157.93 107.68)">
		<path class="st4" d="M70.8-64.4c-0.8,1.3-0.9,1.6-0.2,2.2l0.5,0.4l-0.3,0.5l-0.1-0.1l-7-4.4l0.3-0.5l1.3,0.6
			c1.4,0.6,1.5,0.5,2.4-0.9l1.3-2c-0.6-0.5-1.2-0.9-1.8-1.3c-3.8-2.4-7.9-1.6-10.6,2.6c-1.3,2-1.8,4.1-1.3,6h-0.4h0.4
			c0.4,1.4,1.3,2.7,3.1,3.8c4.1,2.6,6.2,0.5,7.4-0.5l0.9,0.7c-0.9,1.4-1.8,2.4-2.8,3.2c-1.4-0.2-3.1-0.8-5.7-2.4
			c-2-1.3-3.9-2.9-5-4.8h0c-1.6-2.5-2-5.4-0.1-8.4c3.3-5.3,9.1-4.4,14.3-1.1c2.8,1.8,5,4.2,5.7,5l-0.4,0.4
			C71.9-65.8,71.8-65.9,70.8-64.4"/>
	</g>
	<g transform="matrix(.35278 0 0 -.35278 159.9 107.17)">
		<path class="st4" d="M81.1-61.7c-4.2-1.7-7.3,1.1-8.8,4.9c-1.4,3.4-1.1,7.1,2.2,8.8c0.2,0.1,0.4,0.2,0.6,0.3
			c2,0.8,3.8,0.6,5.3-0.3h0c1.6-1,2.8-2.7,3.6-4.6C85.4-56.3,84.9-60.2,81.1-61.7 M86.2-48.1L86.2-48.1c-2.6,2.8-6.9,3-11.2,1.3
			c-0.9-0.3-1.7-0.8-2.4-1.2l1.8,0h-1.8c-3.8-2.4-5.9-6.5-4.1-10.9c0.7-1.8,1.8-3,3.1-3.8h0.1c2.5-1.5,5.9-1.3,9.3,0l-4.5,0l4.5,0
			c0,0,0.1,0,0.1,0c5.3,2.1,8.7,6.9,6.6,12.2C87.3-49.6,86.8-48.7,86.2-48.1"/>
	</g>
	<g transform="matrix(.35278 0 0 -.35278 163.1 105.69)">
		<path class="st4" d="M97.7-54c-0.3-2.2,0-3.8-4-4.8c-0.9-0.2-1.8-0.3-2.7-0.3l-1.7,6.9l-1,4.2c-0.6,2.3-0.7,2.6,0.7,3.1l0.7,0.2
			l-0.2,0.6l-7.8-2l0.2-0.6l0.7,0.1c1.4,0.2,1.5-0.1,2-2.4l0.8-3.2l1.4-5.6c0.7-2.7,0.7-2.6-0.6-3.2l-0.7-0.2l0.2-0.6l13.4,3.3
			c0.3,1.7,0.1,3-0.1,4.6L97.7-54z"/>
	</g>
	<g transform="matrix(.35278 0 0 -.35278 171.41 106.61)">
		<path class="st4" d="M140.9-58.8c-0.9,0.2-1.7,0.6-2.5,1l2.2,8.1l0.8,2.9c0.6,2.3,0.7,2.6,2.1,2.4l0.7-0.1l0.2,0.6l-7.8,2.1
			l-0.2-0.6l0.7-0.3c1.3-0.5,1.2-0.8,0.6-3.1l-1-3.9l-1.3-4.8c-0.7-2.7-0.7-2.6-2.1-2.5l-0.7,0.1l-0.2-0.6l13.3-3.6
			c1,1.4,1.6,2.6,2.2,4.1l-1,0.4C145.4-58.3,145-59.9,140.9-58.8"/>
	</g>
	<g transform="matrix(.35278 0 0 -.35278 175.25 106.17)">
		<path class="st4" d="M160.9-56.5l0.7-0.2l0.3,0.6l-7.4,3.3l-0.3-0.6l0.6-0.4c1.2-0.7,1.1-1,0.1-3.2l-3.8-8.5l-0.4-1
			c-0.7-0.1-2.5-0.2-4.4,0.6c-0.3,0.1-0.5,0.2-0.7,0.4h0c-2.6,1.4-2.9,3.3-1.6,6.1l2.7,6c1,2.2,1.1,2.5,2.5,2.1l0.7-0.2l0.3,0.6
			l-0.1,0l-7.3,3.2l-0.3-0.6l0.6-0.4c1-0.6,1.1-0.9,0.5-2.3h0c-0.1-0.3-0.2-0.6-0.4-0.9l-3.2-7.1c-0.9-2.1-1.2-4.6,2.2-6.6l2,0l-2,0
			c0.4-0.2,0.9-0.5,1.4-0.7c3.5-1.6,6.3-1.2,6.8-1.4c0.4-0.2,0.5-0.7,0.8-1.2l0.4-0.9c0.6-0.2,1.1-0.3,1.7-0.4l2.1,4.7l3.1,7
			C159.4-56.4,159.6-56.1,160.9-56.5"/>
	</g>
	<g transform="matrix(.35278 0 0 -.35278 169.42 104.17)">
		<path class="st4" d="M130.6-46.1c-5.5,0.8-11.4-1.1-12.2-7c-0.2-1.3-0.1-2.5,0.2-3.6h0c1.1-3.9,5.2-5.7,9.6-6.3
			c3.3-0.5,5.1-0.1,6.3,0.1c0.8,1.1,1.3,2.6,1.8,4.2l-1,0.3c-0.1-0.2-1.6-4.4-6.8-3.7c-4,0.6-5.3,3.2-5.7,5.5c-0.3,1.6-0.1,3,0,3.3
			c0.6,4.3,3.5,6.9,7.7,6.3c4.8-0.7,4.9-4,5-5.1l1.1,0c0.3,2.4,0.2,3.2,0.1,4.1C135.4-47.4,133.7-46.6,130.6-46.1"/>
	</g>
	<g transform="matrix(.35278 0 0 -.35278 165 104.52)">
		<path class="st4" d="M107.6-48l1,0.2c-0.2,1.3-0.4,2.7-0.8,3.9l-13.6-1.7l0.1-0.6l0.7,0c1.4,0,1.4-0.2,1.7-2.7l0.8-6.8l0.3-2.1
			c0.3-2.7,0.3-2.7-1.1-3.1L96.2-61l0.1-0.6l8,1l-0.1,0.6l-0.7,0c-1.4,0-1.4,0.1-1.8,2.7l-0.2,1.7l-0.3,2.1l2.3,0.3
			c2.1,0.3,2.9,0.4,3.2-0.6l0.3-0.9l0.8,0.1l-0.6,4.9l-0.8-0.1l-0.1-0.9c-0.1-1.1-0.7-1.2-3-1.4l-2.3-0.3l-0.8,6.8l2.3,0.3
			C106.5-44.9,106.7-45.7,107.6-48"/>
	</g>
	<g transform="matrix(.35278 0 0 -.35278 170.46 139.04)">
		<path class="st5" d="M136-227.5c-2.3,1.8-4.9,4.8-5.4,5.5c1.4,0.8,3.1,2.4,2.9,4.3v0c0,0.1,0,0.1,0,0.2c-0.6,3.6-4.6,3.2-7.1,2.8
			l-8-1.3l0.1-0.6l0.6,0c1,0,1.3-0.1,1.5-1.2l3.7,0l-0.2,1.6c0.5,0.2,0.9,0.3,1.4,0.4c1.9,0.3,3.6-0.4,4.2-2l2.6,0l-2.6,0
			c0.1-0.2,0.2-0.5,0.2-0.7c0.2-1,0.5-3.6-3.4-4.2l-1.4-0.2l-0.8,5.1h-3.7c0.1-0.3,0.1-0.8,0.2-1.3l1.3-8.4c0.4-2.3,0.4-2.6-0.9-2.9
			l-0.7-0.2l0.1-0.6l7.5,1.2l-0.1,0.6l-0.7,0c-1.3,0-1.4,0.2-1.7,2.5l-0.5,3.2l0.9,0.1c1.7,0.3,1.9-0.6,3.1-2l1.3-1.5
			c0.8-0.9,2.1-2.2,4.9-1.8l2.4,0.4l-0.1,0.6C137.4-227.9,136.6-227.9,136-227.5"/>
	</g>
	<g transform="matrix(.35278 0 0 -.35278 174.49 137.83)">
		<path class="st5" d="M157-221.2l-1.4,0l0.9-0.3C156.5-221.4,156.7-221.3,157-221.2"/>
	</g>
	<g transform="matrix(.35278 0 0 -.35278 165.91 137.82)">
		<path class="st5" d="M112.3-221.1c2.2-0.1,2.9-0.5,3.5-3.1l1,0.1c0,0.9,0.1,2-0.1,3L112.3-221.1z"/>
	</g>
	<g transform="matrix(.35278 0 0 -.35278 158.93 137.28)">
		<path class="st5" d="M76-218.3c-0.7,0.4-1.6,0.8-2.1,1.1c-0.6,0.3-1.5,0.6-2.2,0.8l4.3,4l0.1,0L76-218.3z M79.4-224.4l0,1.7
			l-0.1,12.7c-0.5,0.2-0.9,0.3-1.6,0.4l-10.6-9.1c-1.4-1.2-1.8-1.2-2.5-1.1l-0.7,0.2l-0.2-0.6l5.6-2.5l0.2,0.6l-1.3,0.8
			c-0.4,0.3-0.6,0.5-0.4,0.8c0.1,0.2,0.6,0.7,1.2,1.3l2,1.9c0.6,0,1.9-0.5,2.5-0.8c0.8-0.3,2-1,2.4-1.4l0-3.2l0-0.6
			c0-0.4,0-0.6-0.1-0.8c-0.1-0.3-0.5-0.3-1.1-0.1l-1.1,0.3l-0.2-0.6l7.2-3.2l0.2,0.6l-0.6,0.4C79.5-226.1,79.4-225.5,79.4-224.4"/>
	</g>
	<g transform="matrix(.35278 0 0 -.35278 165.83 139.51)">
		<path class="st5" d="M111.9-229.9c-0.9,0-1.9,0.2-2.8,0.4l0.2,6.2l2-0.1c2.3-0.1,2.7-0.1,2.9-1.1l0.1-0.8l0.7,0l0.2,4.6l-0.7,0
			l-0.2-0.8c-0.2-1-0.6-1-3.1-0.9l-1.9,0.1l0.2,5.9h-3.8c0.2-0.3,0.1-0.9,0.1-2.3l-0.3-8.5c-0.1-2.6-0.1-2.6-1.4-2.7l-0.7,0l0-0.6
			L117-231c0.6,1.4,0.9,2.6,1.1,4.2l-1,0.2C116.5-228.3,116.1-230.1,111.9-229.9"/>
	</g>
	<g transform="matrix(.35278 0 0 -.35278 165.79 137.82)">
		<path class="st5" d="M111.7-221.1c0.4,0,0.7,0,1,0l4.4,0c0,0.2-0.1,0.5-0.1,0.8l-12.9,0.4l0-0.6l0.7-0.1c0.6-0.1,1-0.2,1.1-0.5
			l3.8,0l0,0.1L111.7-221.1z"/>
	</g>
	<g transform="matrix(.35278 0 0 -.35278 162.62 137.41)">
		<path class="st5" d="M95.2-219l1.2-0.5c0.5-0.2,0.8-0.4,0.8-0.7c-0.1-0.2-0.4-0.8-0.9-1.3l-0.8-0.9l-3.4-3.6l-1.1,3.6l-0.7,2.2
			c-0.2,0.9-0.4,1.6-0.3,1.8c0.1,0.3,0.5,0.3,0.9,0.2l1.4-0.1l0.1,0.6l-7.8,2l-0.1-0.6l0.6-0.3c0.6-0.3,0.8-0.4,0.9-0.8l1.7-4.9
			l0.6-1.8c0.6-1.8,0.8-2.5,0.2-4.9l-0.4-1.4c-0.2-0.7-0.3-1.1-1.6-0.9l-1.1,0.2l-0.1-0.6l8.3-2.1l0.1,0.6l-1.1,0.4
			c-1.2,0.5-1.1,0.9-1,1.6l0.4,1.4c0.6,2.5,0.9,3.1,3.1,5.2l2.6,2.3l0.8,0.7c1.2,0.9,1.6,1.1,2.1,1.1l0.8-0.1l0.1,0.6l-6.2,1.6
			L95.2-219z"/>
	</g>
	<g transform="matrix(.35278 0 0 -.35278 174.03 136.02)">
		<path class="st5" d="M154.6-211.8l0.3,0.2l0.5,0.2l-0.2,0.6l-2-0.8l-3.8-1.5l0.2-0.6l0.8,0.2c1.4,0.4,1.7,0.4,3.1-3.2l2.4-5.8
			l-15.8,5.7c-0.2-0.1-0.9-0.5-1.2-0.7l3.6-8.8l0.4-1c1.2-2.9,1.5-3.7,0.4-4.2l-0.7-0.4l0.2-0.6l5.8,2.3l-0.2,0.6l-0.8-0.2
			c-1.4-0.4-1.7-0.3-3.1,3.1l-0.2,0.5L142-221l14.8-5.3h1.4c0.3,0.1,0.6,0.3,0.7,0.4l-4,9.8C153.8-213.2,153.5-212.4,154.6-211.8"/>
	</g>
	<g transform="matrix(.35278 0 0 -.35278 177.09 136.08)">
		<path class="st5" d="M170.5-212.1l-0.4,0.6l-3.1,4.5l1.6,1.2c1.9,1.3,2.2,1.6,3,0.8l0.5-0.5l0.6,0.4l-2.7,3.8l-0.6-0.4l0.4-0.7
			c0.4-0.9,0.1-1.1-1.9-2.6l-1.6-1.1l-3.4,4.9l1.6,1.2c2.4,1.7,3.2,2.2,5.5,0.2l0.8,0.7c-0.7,1-1.5,2.1-2.4,2.9l-10.6-7.4l0.3-0.5
			l0.6,0.3c1.2,0.5,1.2,0.6,2.7-1.5l4.2-6l0.6-0.9c1.5-2.2,1.5-2.1,0.5-3l-0.5-0.4l0.3-0.5l7,4.9h-1.7
			C171.4-211.7,170.9-211.9,170.5-212.1"/>
	</g>
	<g transform="matrix(.35278 0 0 -.35278 155.35 136.14)">
		<path class="st5" d="M57.4-212.4l-0.8,0.7c-0.2,0.2-0.4,0.3-0.5,0.5l-1.4,0l2.3-1.6L57.4-212.4z"/>
	</g>
	<g transform="matrix(.35278 0 0 -.35278 156.35 134.59)">
		<path class="st5" d="M62.6-204.3l-6.1,4.3l-0.3-0.5l0.5-0.4c1-0.9,0.8-1.2-0.5-3l-4.9-7c-1.3-1.9-1.5-2.2-2.7-1.5l-0.6,0.3
			l-0.3-0.5l4.3-3h1.4c-0.4,0.6-0.1,1,0.9,2.6l6.3,8.9c0.4-0.2,0.8-0.4,1.2-0.7c1.9-1.3,2.9-3.4,1.5-5.4c-1.6-2.3-3.5-1.9-5.4-0.9
			l-0.5-0.7c2.4-1.6,6.8-3.4,9-0.2C68.4-209,65.4-206.3,62.6-204.3"/>
	</g>
	<g transform="matrix(.35278 0 0 -.35278 177.79 135.14)">
		<path class="st5" d="M174.1-207.2l-0.9-0.4c0.5-1.8,1.3-3.4-2.1-5.8c-0.4-0.3-0.8-0.5-1.1-0.7l1.7,0l4.2,2.9
			C175.5-209.7,174.9-208.6,174.1-207.2"/>
	</g>
	<g transform="matrix(.35278 0 0 -.35278 152.82 126.5)">
		<path class="st5" d="M44.3-162.3c0-0.1,0-0.2,0-0.2S44.3-162.5,44.3-162.3"/>
	</g>
	<g transform="matrix(.35278 0 0 -.35278 172.53 135.77)">
		<path class="st5" d="M146.8-210.5l1.4,3.7l-45.3,16.3c36.8,13.2,79.1,28.4,83.7,30.1c8.3,3,11.5,10.3,11.5,10.3s8.5,14.9-1.8,17.5
			s-8.7-2.5-8.7-2.5s0.8-11,1.3-14.6c0.7-4.9-8.2-8.6-8.2-8.6L97-188.4l-83.7,30.1c0,0-8.8,3.7-8.2,8.6c0.5,3.6,1.3,11.6,1.3,11.6
			s1.7,4.7-8.7,4.4c-10.3-0.3-1.8-16.4-1.8-16.4s3.2-7.3,11.5-10.3c4.6-1.7,46.9-16.8,83.7-30.1l-45.3-16.3l1.4-3.7
			c0,0,22.7,8.1,49.8,17.9C124.1-202.3,146.8-210.5,146.8-210.5"/>
	</g>
	<g transform="matrix(.35278 0 0 -.35278 175.71 130.81)">
		<path class="st5" d="M163.3-184.7c-11.8-4-14.9-4.7-14.9-4.7s4.5,1.1,13.5-3.5c10.4-5.3,22.5,2.6,22.5,2.6
			S175.1-180.6,163.3-184.7"/>
	</g>
	<g transform="matrix(.35278 0 0 -.35278 178.66 129.2)">
		<path class="st5" d="M178.6-176.3c-9-7.8-11.6-9.5-11.6-9.5s3.7,2.6,13.9,1.4c11.7-1.3,19.4,10.2,19.4,10.2
			S187.7-168.5,178.6-176.3"/>
	</g>
	<g transform="matrix(.35278 0 0 -.35278 180.18 126.64)">
		<path class="st5" d="M186.5-163c-5-10.3-6.6-12.8-6.6-12.8s2.3,3.6,12.2,6c11.3,2.8,13.5,16.1,13.5,16.1S191.5-152.6,186.5-163"/>
	</g>
	<g transform="matrix(.35278 0 0 -.35278 178.78 123.38)">
		<path class="st5" d="M179.3-146c0,0-6.2-9.1,1.7-14.7c6-4.3,6.5-9.3,6.5-10.4c0.1,0.6,0.5,2.9,3,11.1
			C193.9-149.2,179.3-146,179.3-146"/>
	</g>
	<g transform="matrix(.35278 0 0 -.35278 179.8 126.53)">
		<path class="st5" d="M184.6-162.4c0,0,0,0.1,0,0.2C184.6-162.4,184.6-162.4,184.6-162.4"/>
	</g>
	<g transform="matrix(.35278 0 0 -.35278 180.9 123.73)">
		<path class="st5" d="M190.3-147.9c-1.7-11.1-2.6-13.8-2.6-13.8s1.1,4,9.9,8.6c10.1,5.2,8.2,18.6,8.2,18.6S192-136.8,190.3-147.9"
			/>
	</g>
	<g transform="matrix(.35278 0 0 -.35278 180.43 122.29)">
		<path class="st5" d="M187.8-140.4c0,11.2-15,11-15,11s-3.2-10.2,6-13.8c7.2-2.8,9.1-7.6,9.4-8.6
			C188.1-151.2,187.8-148.9,187.8-140.4"/>
	</g>
	<g transform="matrix(.35278 0 0 -.35278 180.48 123.71)">
		<path class="st5" d="M188.1-147.8c0-0.2,0.1-0.2,0.1-0.2S188.1-147.9,188.1-147.8"/>
	</g>
	<g transform="matrix(.35278 0 0 -.35278 180.73 120.76)">
		<path class="st5" d="M189.4-132.4c1.7-11.1,1.7-13.9,1.7-13.9s-0.1,4.1,7,10.5c8.2,7.3,2.4,19.8,2.4,19.8S187.7-121.3,189.4-132.4
			"/>
	</g>
	<g transform="matrix(.35278 0 0 -.35278 178.85 120.08)">
		<path class="st5" d="M179.6-128.9c7.8-1.1,11.1-5.3,11.7-6.2c-0.3,0.5-1.2,2.7-3.8,10.9c-3.4,10.8-17.8,7.3-17.8,7.3
			S169.6-127.5,179.6-128.9"/>
	</g>
	<g transform="matrix(.35278 0 0 -.35278 180.3 120.85)">
		<path class="st5" d="M187.2-132.9c0.1-0.2,0.1-0.2,0.1-0.2S187.2-133,187.2-132.9"/>
	</g>
	<g transform="matrix(.35278 0 0 -.35278 180.4 115.66)">
		<path class="st5" d="M187.7-105.9c0,0-10.7-7.9-5.8-18.2c5-10.3,5.8-13.1,5.8-13.1s-1.3,4,3.7,11.7
			C197.1-116.6,187.7-105.9,187.7-105.9"/>
	</g>
	<g transform="matrix(.35278 0 0 -.35278 177.64 117.72)">
		<path class="st5" d="M173.3-116.6c8.5,0,12.9-3.2,13.2-3.5c-0.3,0.2-1.5,1.6-7,9.8c-6.5,9.7-10.4,10.7-10.4,10.7
			S166.1-116.6,173.3-116.6"/>
	</g>
	<g transform="matrix(.35278 0 0 -.35278 177.83 113.08)">
		<path class="st5" d="M174.3-92.5c0,0-8-10-0.1-18.9c7.9-8.9,9.5-11.4,9.5-11.4s-2.5,3.5,0,12.1C186.6-100.7,174.3-92.5,174.3-92.5
			"/>
	</g>
	<g transform="matrix(.35278 0 0 -.35278 156.5 131.7)">
		<path class="st5" d="M63.4-189.3c9,4.6,13.5,3.5,13.5,3.5s-3.1,0.6-14.9,4.7c-11.8,4-21.1-5.5-21.1-5.5S53-194.6,63.4-189.3"/>
	</g>
	<g transform="matrix(.35278 0 0 -.35278 155.41 130.38)">
		<path class="st5" d="M57.7-182.4c0,0-2.6,1.7-11.6,9.5c-9,7.8-21.6,2.1-21.6,2.1s7.7-11.5,19.4-10.2
			C54-179.9,57.7-182.4,57.7-182.4"/>
	</g>
	<g transform="matrix(.35278 0 0 -.35278 153.27 128.23)">
		<path class="st5" d="M46.6-171.3c0,0-1.7,2.4-6.6,12.8s-19,9.4-19,9.4s2.1-13.3,13.5-16.1C44.3-167.6,46.6-171.3,46.6-171.3"/>
	</g>
	<g transform="matrix(.35278 0 0 -.35278 153.63 125.21)">
		<path class="st5" d="M48.5-155.6c7.9,5.5,1.7,14.7,1.7,14.7s-14.6-3.2-11.2-14c2.5-8.2,3-10.5,3-11.1
			C42-164.8,42.4-159.8,48.5-155.6"/>
	</g>
	<g transform="matrix(.35278 0 0 -.35278 150.8 124.39)">
		<path class="st5" d="M33.8-151.3c8.8-4.5,9.9-8.6,9.9-8.6s-0.9,2.7-2.6,13.8c-1.7,11.1-15.6,13.3-15.6,13.3S23.6-146.1,33.8-151.3
			"/>
	</g>
	<g transform="matrix(.35278 0 0 -.35278 153.31 122.64)">
		<path class="st5" d="M46.8-142.2c9.3,3.6,6,13.8,6,13.8s-15,0.2-15-11c0-8.5-0.3-10.8-0.4-11.4C37.7-149.8,39.6-145,46.8-142.2"/>
	</g>
	<g transform="matrix(.35278 0 0 -.35278 152.13 123.73)">
		<path class="st5" d="M40.7-147.9c0,0,0,0,0.1,0.2C40.7-147.8,40.7-147.9,40.7-147.9"/>
	</g>
	<g transform="matrix(.35278 0 0 -.35278 151.68 122.5)">
		<path class="st5" d="M38.3-141.5c0,0,0,2.8,1.7,13.9c1.7,11.1-11,16.3-11,16.3s-5.9-12.5,2.4-19.8
			C38.4-137.3,38.3-141.5,38.3-141.5"/>
	</g>
	<g transform="matrix(.35278 0 0 -.35278 152.32 120.85)">
		<path class="st5" d="M41.7-132.9c-0.1-0.1-0.1-0.2-0.1-0.2S41.6-133,41.7-132.9"/>
	</g>
	<g transform="matrix(.35278 0 0 -.35278 155 118.59)">
		<path class="st5" d="M55.6-121.1c0,0-14.5,3.6-17.8-7.3c-2.6-8.2-3.5-10.4-3.8-10.9c0.6,0.9,3.9,5.1,11.7,6.2
			C55.7-131.7,55.6-121.1,55.6-121.1"/>
	</g>
	<g transform="matrix(.35278 0 0 -.35278 152.94 117.93)">
		<path class="st5" d="M44.9-117.7c5,10.3-5.8,18.2-5.8,18.2s-9.4-10.7-3.6-19.6c5-7.7,3.7-11.7,3.7-11.7S39.9-128,44.9-117.7"/>
	</g>
	<g transform="matrix(.35278 0 0 -.35278 155.5 115.6)">
		<path class="st5" d="M58.2-105.6c0,0-3.9-1-10.4-10.7c-5.5-8.2-6.8-9.6-7-9.8c0.3,0.2,4.8,3.5,13.2,3.5
			C60.3-122.6,58.2-105.6,58.2-105.6"/>
	</g>
	<g transform="matrix(.35278 0 0 -.35278 154.81 115.44)">
		<path class="st5" d="M54.6-104.7c7.9,8.9-0.1,18.9-0.1,18.9s-12.3-8.3-9.4-18.1c2.5-8.6,0-12.1,0-12.1S46.7-113.6,54.6-104.7"/>
	</g>
	<g transform="matrix(.35278 0 0 -.35278 165.85 124.6)">
		<path class="st4" d="M112-152.4c-0.7-0.1-1.5-1-1.2-1.7c1-0.9,2.1-1.7,3.5-1.8c0.7,0.5,1.3,1.2,1.3,2.1
			C115.1-152.5,113.4-152.2,112-152.4"/>
	</g>
	<g transform="matrix(.35278 0 0 -.35278 165.22 123.84)">
		<path class="st4" d="M108.7-148.4c-0.7-0.5-1.6-1.3-1.2-2.4c0.4-0.7,1.2-1.2,1.9-1.4c0.8-0.2,2.3-0.7,2.8,0.5
			c0.4,0.9,0.3,1.8-0.4,2.6C110.9-148.5,109.8-148.1,108.7-148.4"/>
	</g>
	<g transform="matrix(.35278 0 0 -.35278 165.01 124.34)">
		<path class="st4" d="M107.7-151c-0.4-0.1-0.9-0.2-1.2-0.7c-0.3-0.7,0-1.4,0.5-1.9c0.9-0.6,1.8-1,3.1-0.8c0.7,0.1,0.8,0.9,0.7,1.5
			C110.1-151.8,109-151,107.7-151"/>
	</g>
	<g transform="matrix(.35278 0 0 -.35278 165.07 123.15)">
		<path class="st4" d="M108-144.8c-0.4,1.2-1.7,2.7-2.8,2.8c-1.1-0.1-2.2-0.5-2.6-1.6c-0.6-0.7-0.4-1.9,0.2-2.6
			c1.3-0.7,2.5-2.1,4.3-1.2C108.1-147.1,108.2-145.8,108-144.8"/>
	</g>
	<g transform="matrix(.35278 0 0 -.35278 166.52 124.25)">
		<path class="st4" d="M115.5-150.6c-1.2,1.1-2.7,1.7-4.2,1.2c-0.7-0.4-1.4-1.1-1.2-2c0.1-0.7,0.9-0.9,1.5-1.2
			c1.2-0.4,2.8-0.7,4,0.2C115.8-151.9,115.8-151,115.5-150.6"/>
	</g>
	<g transform="matrix(.35278 0 0 -.35278 166.74 124.84)">
		<path class="st4" d="M116.7-153.6c-0.7-0.2-1.9-0.3-1.7-1.4c0.1-1,1.3-1.1,2.2-1c0.7,0.1,1.7,0.6,1.6,1.5
			C118.5-153.8,117.5-153.5,116.7-153.6"/>
	</g>
	<g transform="matrix(.35278 0 0 -.35278 163.59 120.82)">
		<path class="st4" d="M100.3-132.7c-1.2-0.2-1.2-1.5-1.2-2.4c0.3-1.2,0.5-2.8,1.9-3.2c0.7,0.2,1.5,0.4,1.9,1.2c0.5,1,0.4,2,0,3.1
			C102.4-133.1,101.3-132.7,100.3-132.7"/>
	</g>
	<g transform="matrix(.35278 0 0 -.35278 164.09 122.5)">
		<path class="st4" d="M102.9-141.5c0.9-0.1,2.4-1.2,2.8,0.2c0.2,1.2,0.4,2.6-0.2,3.7c-0.5,1-1.6,1.5-2.8,1.5
			c-0.9,0-0.9-0.7-1.3-1.4C100.7-139.1,102.1-140.2,102.9-141.5"/>
	</g>
	<g transform="matrix(.35278 0 0 -.35278 166.64 124.6)">
		<path class="st4" d="M116.1-152.4c0.3-1.5,2.1-1,3.3-1.2c0.8,0.1,1.6,0.7,1.7,1.5c-0.9,0.7-2.1,1.2-3.3,1.3
			C117.1-151,116.1-151.5,116.1-152.4"/>
	</g>
	<g transform="matrix(.35278 0 0 -.35278 164.42 123.6)">
		<path class="st4" d="M104.6-147.2c-0.7,0-0.9-0.7-0.9-1.2c0-1.1,0.6-2.1,1.5-2.6c0.7-0.2,1.5-0.1,2.1,0.3c0.8,0.9,0.2,2-0.2,2.8
			C106.4-147.2,105.5-147.1,104.6-147.2"/>
	</g>
	<g transform="matrix(.35278 0 0 -.35278 163.77 123.48)">
		<path class="st4" d="M101.2-146.6c-0.7-0.3-0.4-1.3-0.3-1.9c0.2-0.9,1.2-1.7,2.3-1.6c0.7,0.1,0.7,0.9,0.6,1.4
			C103.5-147.5,102.3-146.7,101.2-146.6"/>
	</g>
	<g transform="matrix(.35278 0 0 -.35278 163.94 122.59)">
		<path class="st4" d="M102.1-141.9c-0.4,0.3-0.8,0.1-1.3,0.2c-0.1-0.1-0.2-0.1-0.4-0.2c-0.5-0.4-0.9-1-0.8-1.6
			c0-1.2,0.3-2.5,1.4-3.1c0.9-0.4,2.3-0.3,3.1,0.5C103.7-144.6,103.2-143.2,102.1-141.9C102.1-141.9,102.1-141.9,102.1-141.9"/>
	</g>
	<g transform="matrix(.35278 0 0 -.35278 164.36 124.37)">
		<path class="st4" d="M104.3-151.2c0.8-0.7,0.9-2.4,2.3-2.2c0.5,0.4,0.4,1,0.3,1.5C106.7-150.7,104.6-149.7,104.3-151.2"/>
	</g>
	<g transform="matrix(.35278 0 0 -.35278 163.77 124.19)">
		<path class="st4" d="M101.2-150.2c-0.1-0.7,0.1-1.2,0.5-1.5c0.4-0.4,1.1-0.2,1.5,0.1c0.2,0.9-0.9,1.2-0.9,2
			C101.9-149.7,101.4-149.8,101.2-150.2"/>
	</g>
	<g transform="matrix(.35278 0 0 -.35278 162.77 122.41)">
		<path class="st4" d="M96-141c-0.1,0.6-1.2,1.5-1.5,0.5c-0.1-0.7-0.4-1.4,0.2-1.9l0.1,0c0.4,0,0.9-0.5,1.4,0v0
			C96.1-141.9,96.1-141.5,96-141"/>
	</g>
	<g transform="matrix(.35278 0 0 -.35278 162.16 119.89)">
		<path class="st4" d="M92.8-127.9c0-0.4,0.4-0.7,0.8-0.7c0.7,0.1,0.9,1,0.9,1.7c-0.2,0.2-0.4,0.5-0.7,0.6
			C93.1-126.4,92.8-127.2,92.8-127.9"/>
	</g>
	<g transform="matrix(.35278 0 0 -.35278 162.71 120.64)">
		<path class="st4" d="M95.7-131.8c-0.1,0.5-0.5,1.2-1.2,1c-0.7-0.3-0.8-0.9-1.2-1.5c-0.3-0.9-0.1-1.8,0.6-2.5
			c0.2,0,0.6-0.1,0.8,0.1C95.6-133.9,95.6-132.8,95.7-131.8"/>
	</g>
	<g transform="matrix(.35278 0 0 -.35278 162.3 121.17)">
		<path class="st4" d="M93.6-134.5c-0.5-0.6-0.7-1.3-0.6-2.2c0.2-0.9,0.7-2.3,1.9-1.9c0.4,0.9,0.1,2,0,2.9
			C94.7-135.2,94.4-134.3,93.6-134.5"/>
	</g>
	<g transform="matrix(.35278 0 0 -.35278 163.23 119.25)">
		<path class="st4" d="M98.4-124.6c-0.1,0-0.2,0-0.3,0c-0.6-0.4-1.1-1-1.6-1.5C97.5-126.3,97.9-125.1,98.4-124.6"/>
	</g>
	<g transform="matrix(.35278 0 0 -.35278 167.42 124.68)">
		<path class="st4" d="M120.2-152.8c-0.1-0.1-0.2-0.7,0.1-0.8c0.7-0.7,1.9-0.4,2.7-0.2c0.3,0.4,1.2,0.3,0.9,1
			C123.3-151.3,121.2-151.9,120.2-152.8"/>
	</g>
	<g transform="matrix(.35278 0 0 -.35278 162.39 119.28)">
		<path class="st4" d="M94-124.7c0.4-1.4,1.7,0.5,2.1-0.9c0.6,0.3,1.2,0.7,1.4,1.4c0.1-0.2,0.2-0.5,0.4-0.7l-1.9-3.4
			c0,0,0.1,0,0.1,0.1c-0.6-0.8-0.8-1.8-0.5-2.8c0.2-0.4,0.6-0.8,1.1-0.7c0.9,0.5,1.3,1.8,1.3,3.1c-0.1,0.4-0.6,0.8-1.1,0.8
			c-0.3-0.2-0.6-0.5-0.9-0.6l3.2,5.7c-0.5,1.5-1,3-1.8,4.5c-1.9-2.4-3.4-5.1-4.6-7.9C93.4-125.9,93.8-125.1,94-124.7"/>
	</g>
	<g transform="matrix(.35278 0 0 -.35278 162.11 120.34)">
		<path class="st4" d="M92.6-130.2c-0.6-0.1-0.7-0.7-0.7-1.2c0.1-0.5,0.5-0.9,1-1c0.8,0.1,0.7,1,0.7,1.7
			C93.4-130.3,93-130.2,92.6-130.2"/>
	</g>
	<g transform="matrix(.35278 0 0 -.35278 163.39 122.59)">
		<path class="st4" d="M99.2-141.9c-0.5,0.7-1.5,0.9-2.2,0.4c0-0.1-0.1-0.3-0.1-0.4c-0.2-1.1,0.5-2,1-2.8c0.4-0.2,0.9-0.8,1.5-0.5
			c0.6,0.9-0.2,1.7-0.1,2.8C99.4-142.3,99.3-142.1,99.2-141.9"/>
	</g>
	<g transform="matrix(.35278 0 0 -.35278 169.84 115.99)">
		<path class="st4" d="M132.8-107.6c0.1-1.6-2.5-3.9-4.1-5.6c-1.1-1.1-2.5-0.2-4-0.6c0.3-0.7,0.6-2.2,0.8-3
			c-1.7-0.4-2.9,1.1-4.6,1.1c0,0.9,0,1.3,0,2.2h-1.4c-1.1,0-1.6-0.8-2.7-0.8c-1.3,0-2.6,0.7-2.6,1.9c0,1.6,2.4,5,2.5,3.3
			c0.1-1.4,1-1.7,2-1.7c1.2,0,1.4,1.7,2.6,1.7c1.3,0,1.7-1.7,3-1.6c2.3,0.2,1.9,0.3,2.9,1.4c0,0,0,0.2,2.9,1.6
			C132.9-106.2,132.8-107.6,132.8-107.6 M124.8-122.4L124.8-122.4c-0.9-1.3-1.8-2.5-1.7-4.1c1.2-1.5,1.6-3.6,3.6-4.6
			c0.1-0.5-0.3-0.8-0.7-0.9c-0.7,0.2-1,0.9-1.7,1.2c-2.3,0-4.2,2.3-6.5,0.9c-0.9-0.3-1.5-1.5-2.5-1.5c-0.5,0.6,0.6,1-0.1,1.5
			c-0.7,0.1-1.5-0.6-2-0.2c0.7,1.8,3.9,0.5,4,3c-0.1,1.1,0.7,2.5-0.3,3.2c-1.2-0.2-3,1.5-3.5-0.3c0-0.3-0.2-0.5-0.3-0.7
			c-0.7,0.1-0.6,1-0.9,1.6c-0.9-0.1-2.4-1.5-3.1,0c0.4,0.9,1.8,0.7,2.5,1.5c1.3,1.2,1.2,2.9,1.5,4.5c-0.7,0.5-1.7,0-2.5,0l-0.7,1.9
			c-0.8,0-1.7-0.4-2.5,0c-0.2,0.3-0.3,0.6-0.3,0.8c-1.3,0.2-2.7,0.3-4,0.3c-3.4,0-6.7-0.5-9.8-1.4c-0.2,0.4-0.5,0.6-0.9,0.7
			c-0.6,0.2-1.2,0.2-1.6,0.6c0,0.4,0.1,0.8-0.1,1.2c1.5,1.4,3.8,0.9,5.6,0.8c0.1,0.9-1.9,1.4-1.2,2.5c2.5,1,5.4,1.2,8,2l0.3,0.8
			c1.6-0.3,3.8,0.8,5.3,1.2c0.2-0.3,0.3-0.6,0.4-0.9c-0.2-0.9-0.6-1.7-1.3-2.4l-0.6,0c-0.3-0.2-0.6-0.4-0.9-0.6
			c-0.1-0.4,0.1-0.8,0.4-1c1.1-0.6,2.6-0.6,3.7,0c0.6,0,0.5-0.6,0.6-0.9c-0.6-1.4-2,0.1-3-0.1c-0.4-0.3-1.2-0.6-1-1.3
			c0.9-0.6,0.6-1,0.4-1.5C114-115.5,120-118.3,124.8-122.4 M122.5-171.4l-0.2,0.2h0.2V-171.4z M105.2-168c0.1,0.5,0.7,0.4,0.9,0.5
			C105.8-167.6,105.7-168.2,105.2-168 M103.3-162.4c-0.4,0.5-0.3,1.2-0.7,1.7h0c-0.1,0.2-0.3,0.3-0.5,0.4l0.2,0.2
			c0.4-0.1,0.6-0.4,0.8-0.6h0c0.2-0.4,0.3-0.8,0.3-1.3C103.3-162.1,103.5-162.3,103.3-162.4 M98-151.6c0.4-0.4,0.6-0.7,0.7-1.2
			C98.8-152.6,97.6-152.1,98-151.6 M97-159.4c-0.6-0.1-0.3,0.6-0.6,0.9c-0.5,0.4-1.4,1-1.5,1.5c0.8-0.3,1.9-0.7,2.2-1.6
			C96.9-158.9,97-159.2,97-159.4 M93.8-144.8c-0.7,0.6-1.4,1.5-1.5,2.5c0.7,0.1,1.2-0.7,1.5-1.2C93.8-144,94.1-144.3,93.8-144.8
			 M91.3-116.1l1,0c-0.2-0.1-0.5-0.2-0.7-0.3C91.4-116.3,91.3-116.2,91.3-116.1 M92.3-151.9c0.4,1.5-2,2-1.9,3.4
			c1,0.1,1.8-1.1,2.2-1.9C92.8-150.9,92.7-151.5,92.3-151.9 M90-134.7c1.5-0.7,0.2-1.7,0.2-2.7C89.3-136.8,90-135.6,90-134.7
			 M85.6-119.3c0.2,1.1,2,1.5,2.7,2.4c0.8,0.4,1.6,0.4,2.5,0.1C88.9-117.4,87.2-118.3,85.6-119.3 M85.5-115.1
			c0.3,0.6,0.5,1.2,0.6,1.8c-0.4,1.1-0.5,2.2-1.7,2.2c-1,0-1.4-1.1-2.4-1.1c-1,0-1.6,0.6-2.6,0.6c0.4,1.3,1.7,1.9,3.1,1.9
			c0,1.1,0,1.7,0,2.8c-1-0.2-1.6-0.7-2.6-0.6c-2.7,0.3-0.8,2.9-2,5l-2.4-0.9v4c1.2-0.2,1.5-1.6,2.7-1.6c0.6,0,0.9,0.5,1.6,0.5
			c1,0,0.7-1.6,1.4-2.3l3.4,1.1c0.3-0.5,0.4-1.8,0.4-2.4v-3.3c0-1.5,2.2-0.4,3.7-1.2v-2.2l-0.8-1.1c0.1-0.8,0-1.8,0.1-2.5
			c-0.1-0.2-0.2-0.4-0.3-0.6c-0.5-1-1.3-1.8-2.1-2.6C84.9-116.8,85.1-115.9,85.5-115.1 M78.7-114.9c-1.4,0-1.9-1.6-1.9-3
			c0-0.3-0.4-0.8-0.4-1.1c0.7-0.2,1.6-0.1,2.3-0.4c-0.8-1.6-1.1-3.3-2.8-3.3c-1.1,0-1.8,0.2-2.5,0.9v3.3c0,0.6,1.6,0.8,1.6,1.4
			c0,0.3-1.5,0.5-1.5,0.8c-1-0.2-2.3,0-2.3-0.9c0-0.8,0.6-1.1,0.6-1.9c0-0.8-0.7-1.1-1.4-1.6l-0.8,0.2c0.1,2.4-1.9,2.1-1.4,4.7
			c0.2,1.1,1.6,0.9,2.2,2c1-0.3,1.4-1.5,2.2-0.8c1.5,1.4,1.9,1.6,3.6,1.8C80.2-112.1,78.7-114.9,78.7-114.9 M67-113.1
			c-0.7-0.2-1.2,0.2-1.9,0c-0.1,0.4-0.5,0.6-0.3,1.1c0.7,1.9,0.5,2.8,0.5,4.5c0,0,3.1,2.5,4.6,1.9c1.5-0.7,2.5-1.4,2.5-1.4
			c-1-0.5-2.3-0.2-2.6-1.2C69.2-109.9,69.1-112.3,67-113.1 M62.2-103.7c0,1.9,3.3,1.8,3.3,3.7c0,1.5-0.8,2.2-1.2,3.6
			C63-97,62.9-97.5,61.4-98l0.6-3c-0.1-0.3-0.3-0.6-0.5-0.9c-1.2,0.4-1.5,1.4-2.8,1.6l1.1,4.7L59.7-95c0,0,0.6,2.1,3.2,1.3
			c2.7-0.8,4.2-2.1,3.4-1.5c-0.8,0.7,4.6-4.1,4.5-4.8c-0.6-2.5-2.9-1.7-2.9-1.7c-1.2-1.6-1.5-2.3-3.3-3.9
			C63.6-105.2,62.2-104.9,62.2-103.7 M70.2-90.2c0.9-1,3,0.6,3.2-4.6c0.7,0.1,1.8,0.6,2.5,0.5l-0.6-2.5c-0.4,0-1.6,0-2-0.1
			c-1.7-0.7-0.7,0.9-1.1,2c-0.3,0.7-1.3,0.5-2,0.8c-1.2,0.5-0.8,2-1.1,3.3C69-90.8,69-88.7,70.2-90.2 M84.4-92.5
			c1.5-3,3.9-1.4,5-2.5c1-0.9-0.3-2.5,0.3-3.6c0.5-0.9,3.5-1.1,4.1-2c-3.1-1.5,0.8-3.8,1-8.6l-2.3,0.6L90-107
			c0.7,0.9,1.6,1.6,2.7,2.3c1.3,0.8-2.5,1.8-4.4,1.5c-0.6,2.1,0.5,2.8,0.8,3.7l-0.2,1.2c-1.5,0.7-2.8,1.6-4.9,1.3
			C82.6-97.2,84.4-94,84.4-92.5 M95-94.5c1.2,0,1.8-0.7,2.7-1.4c-0.5-1.1-0.9-1.9-0.9-3.1c0-1.5,2.2-1.5,3.6-2.2l-2.1-2.3
			c0.7-0.7,2.1-0.6,3-1c-0.2-0.9-1.6-1.5-1.6-2.4c0-0.3,0.7-0.2,0.6-0.5c-0.4-1.2-5-0.3-5-0.3c1.4,1.4,1.9,2.9,1.6,4.8
			c-1,5.8-4.4,4.5-2.6,7c0.3,0.5-0.5,1.9-0.5,2.5C94-93.5,94.7-94.5,95-94.5 M107.2-101.4c1.1,0.2-1.1-3.1-1.6-4.2l-1.7-0.8
			l-0.2,0.1c-0.9,0.5-0.8,5.4-1,7.3C103.6-100.6,106.3-101.6,107.2-101.4 M110.7-103.9c-0.3-0.2-0.6-0.4-0.9-0.4
			C110.1-104.1,110.4-103.9,110.7-103.9 M116.7-101.7c0.9-1.8,2.3-2.4,3.7-2.4c0.9,0,1.5-0.2,1.7,1.4c0.1,1.1,1.5-1.2,2.6-1.2
			c0.9,0,5.2,0.6,5.2,0.6c0-1.4-1.5-2.9-3.2-4.2c-0.9-0.7-1.6,2.6-2.3,1.7c-0.9-1.1-2.3-1.7-3.1-2.8c-0.9,0.7-1,2-2.2,2
			c-0.5,0-0.7-0.6-1.2-0.6c-1.4,0-3.4,0.1-3.4,1.6C114.5-103.8,115.9-100,116.7-101.7 M118.3-94c1.2-1.3,2.5-1.8,3.2-3.1
			c0.8,1.1,2.2,3.6,2.6,2.3c0.6-1.6,1.8-1.8,2.5-3.3c0,0,3.3,0.5,3.2-1.2c-0.2-1.7-2.3-2.8-2.3-2.8c-1.5-0.2-2,1.5-2.8,1.5
			c-1.3,0-1.9-0.9-3.3-0.9c-1.1,0-0.7,1.6-1.6,2.3c-1.2,1.1-3.6,0.7-3.6,2.3C116.4-95.4,117.4-92.9,118.3-94 M123.2-85.7
			c-0.6,1.4,2.3-0.6,3.8-0.6c0.4,0,1.8,0.3,2.3,0.4c0.7,0.2,2.5-5.4,1.8-6.6l-1.1-2c0,0-0.6-1.8-1.8,0.5c-0.2,0.5,0.1,1.2,0.2,1.8
			c0.2,1.4,0.4,2.6-1,2.6c-0.3,0-0.4-0.2-0.6-0.3l0.5-2c-0.9-0.9-2-0.9-3.3-1.4c0,1-0.1,1.6,0,2.6c-1.4,0-3,0.6-3,2
			C121-87.2,124.6-88.9,123.2-85.7 M84.9-130.1C84.9-130,84.8-130,84.9-130.1c0.1,1,1.1,1.6,1.2,2.7c0.3,0.1,0.4-0.1,0.5-0.4
			C86.5-128.8,85.4-129.3,84.9-130.1 M81.7-141.7c0.4,0.4,0.3,1.3,0.1,1.8C82.1-140.5,82.2-141.2,81.7-141.7 M142.8-101.2
			c-0.5,1-1.2,1.9-1.8,2.8c0,0-0.7,2.4-1.2,2.2c0.6-1-0.6-1.7-1.1-2.5c-1.2,1.8,1.1,3,1.8,4.3c-0.4,1.7,1.4,1.3,2.1,2.1
			c-0.6,0.8-2.2,0.8-2.1,2l2.3,2c-2.1,0.7-1.6,3.3-3.2,4.5c-0.6-0.4-0.4-1.5-1.3-1.7c-0.3,0.8-0.8,1.6-0.4,2.4
			c1.5,0.7-0.2,2.3-0.5,3.4c-2.2-0.4-1.2,2.2-2,3.1l-0.4-0.1c-0.4,0-0.3,0.6-0.3,1c-1.8-1-3.6,0.7-5,1.6c-0.3-1,0-2.2-0.7-3.1
			c-1.4-0.6-2.9-1-4.6-0.8c-0.7-0.2,0.1-0.7,0-1.1c-1.6-0.6,0.1-2.2-0.7-3.2c-0.7,0-1.3,0.8-2,1.1c-1.2-1.1,0.2-2.7-0.4-4.1
			c-0.8,1.1-2,0.4-3.1,0.4c-1.6-0.2,0.2-1.4-0.3-2.4c-0.1-1.5-2.8-3.3-0.9-4.4l-0.8-0.8c-1.1-0.3-1.3-1.3-1.9-2.2l1.4-0.3
			c0.2-0.4-0.1-0.9-0.4-1.2c0,0,0,0.1,0,0.1c-0.7,2-2.7-1.1-4-0.4c0.7,2-1.5,1.6-2.5,1.8l0.2,0.8c-1.3,0.4-2.5,1.2-3.4,2
			c-1.7-1.1-0.8,1.5-1.7,2.1c-1.8-0.4-2.9,1.8-4.6,0.6c-0.9,0.7-1.8,1.4-1.4,2.8c-1-0.1-1.6-1-2.6-1.2c-0.8,0.4-0.6,1.3-1.3,1.9
			c-1.8-0.4-3.5,0.8-5.3,0.5c-0.6,0.3-0.4,1-0.7,1.4c-1,0.8-2-1.1-2.9-1.6l-2.9,1.5l0.1,0.8l-1.7,0.4c-2,1.9-2.2-1.3-3.9-1.4
			c-0.5-0.3-1.3,0-1.3,0.6c-0.3,0.1-0.7,0.3-1,0c-0.5-0.3-1.3-0.3-1.3,0.5c-2.7,0.1-6,0.8-8-1.3c-0.4,0.3-0.1,0.8-0.2,1.2
			c-0.5,0-0.3,0.6-0.5,0.8c-0.7-0.6-0.8-1.7-1.1-2.5c-0.3-2-2.5-0.8-3.4-2.1c-0.7-0.4,0.2-1.9-0.8-1.8c-4.3,4.1-0.9-3.8-4.3-4.4
			c-0.4-0.8-2.5-1.7-1.3-2.5c0.3,0.2,0.8,0.4,1.1,0c-0.3-0.2-0.5-0.6-0.8-0.6c0.6-0.3,0.8-0.8,0.9-1.4c2.1-1.3,1-4.8,4.1-4.8
			c0-0.8-1.2-1.1-1.8-1.8c-0.7-1.6-0.4-3.4-0.3-5.2c0.5-0.1,1.2,0,1.2,0.3c1.1-0.3,1.6,1.9,2.5,1c0.2-0.7-0.3-1.1-0.5-1.7
			c-0.4-0.6-0.9,0.2-1.3-0.3c-0.4-1.1,1.1-1.2,1.7-1.8c-0.1-0.6,0.2-1.7-0.4-2.2c-0.6,0.1-0.8,1-1.4,0.7c-0.2-0.6-0.1-1.2-0.1-1.8
			c0.2-1.3,0.9-2.4,1.3-3.5c0.4,0.4,1.1,0.1,1.1-0.4c0.4,0.6,1.2,0.6,1.5,1.1c0.8-1.7,0.1-4.1,1.2-5.5c0.9-0.3,1.2,1.1,1.8,0.7
			l0.8,0.9c0.2-1.3-0.1-3.1,0.7-4.1l0.6,0.9l0.3-0.6c0.8,0.3,0.4,1.3,0.9,1.8c0.3-0.6,0.1-1.1,0.8-1.5c0.4,1,1.1-0.1,1.4-0.2
			c1,0.5-0.3,1.6,0.7,2.1c1.2-0.1,0.6-1.5,1.3-2.1c1.1-0.1,1.1,1.6,1.8,2.2c1.1-1,1.3-2.6,1.6-4.1c1,1.3,2.2,2.6,3.4,3.7
			c0.2,1.9,0.3,3.8-1,5.3c0.8,0.5,2.2,0.8,2,2l0.5,0.8l0.6-0.3c-0.2-1.9,0.8-3.6,0.8-5.3c0.9,0.7,1.9,1.4,2.9,2l0,0
			c0-0.3,0-0.6,0.2-0.9c0.6-1.1,1.4,1.5,1.5-0.3c0.4-0.5,1.1-0.4,1.5-0.7c-0.6-0.8-1.8-0.6-2.5-1.6c-1.5,0.4-0.6-2.1-2-2.1l-0.6,1.1
			c-1.3-1-3-1.8-3.4-3.5l1.3-2.2c1.6-0.6,3.9-0.1,4.8-1.8c-1.4-0.1-3.4,0.6-4.5-0.6c0.4-1,0.7-2.6,0-3.4c-0.7,0.5-1.4,1.4-2.1,1.5
			c0.9-1.2-0.3-2.9,1.2-3.8l0.2-0.7c-0.1-0.1-0.4,0.7-0.9,0.7c-1.1,0.1-2-0.8-2.5-1.7c-0.8-1.5-0.4-3.5,0.6-4.7
			c0.5-0.3,1.3-0.4,1.8-0.1l0.6,0.6l-1-1.5c-0.9,0.6-2.1,0.3-2.9-0.1c-0.9-0.9-1.2-2.3-0.7-3.5c-0.1-0.7,0.7-1.3,1.3-1.7
			c1.2-0.2,1.9,0.9,2.3,1.8c0.4,1.7,2.3,3,3.6,4.4c0.4,0.3,0.5-0.5,0.9-0.7c0.5-0.4,1.4-0.5,2-0.3c0.7,0.3,1.3,1,1.5,1.7
			c0.4,1.1-1.9,2.7,0.3,2.8c1.3-1.6-0.1-3.6-0.9-5c1.7-2.5-1.2-3.9-0.4-6.5c0.7-2.3,3.5-2.5,4.3-4.5c-0.1-1.4-1.4-2.7-0.7-4.2
			c0-0.1,0.1-0.1,0.1-0.2c0.9-1.5,2.7-1.7,4.1-2.2c2.5-1.6,6.3-2,7.4-5.3c-1.7,1.2-3.5,3.3-5.7,2c-1.2-1.3,0.4-2.5,0.9-3.6
			c3.1-2.7,8.1-1,10.8-4.7c1.8-0.3,3.9,0,5.2-1.5c1.5,0.4,3.4,0.4,4.4-0.9c1.5-0.1,0.8,2.8,2.5,1.8c1.4-0.5,2.8-0.1,3.9,0.8
			c1.7,3.1,6,4,6.7,7.6c0.2,0.1,0.4,0.3,0.7,0.2v-0.3c3.5,5.3,5.6,11.7,5.6,18.6c0,10.4-4.7,19.8-12.2,26l3.8,2.9
			c1.1-1.5,2.9,0.7,4.5,0.2c0.4-0.8,1.4-0.8,2.2-1.1c0.7,1,0.6,2.5,1.4,3.4c1.9-0.2,2.2,2.2,3.5,2.8c0.1,0.4,0.6,1.2-0.2,1.3
			c-0.4,0.4-0.2,1.4-0.1,2c0.5,0.2,1.3,0.4,1.1,1.1l0.5,0.4c-0.2,0.7-1,1-1.7,1.2c0.3,0.6,1,1.5,1.8,1c-0.1,1.1,0.3,2,0.3,3
			l-1.4-0.3c-0.4,0.4-0.5,1-0.4,1.5C140.9-101.9,141.8-101.1,142.8-101.2"/>
	</g>
	<g transform="matrix(.35278 0 0 -.35278 163.03 123.3)">
		<path class="st4" d="M97.4-145.6c-0.2-0.8,0.2-1.6,0.9-2.2c0.2-0.3,0.7-0.4,1.1-0.2c0.4,0.4,0.4,1,0.2,1.5
			C99.3-145.8,98.2-145,97.4-145.6"/>
	</g>
	<g transform="matrix(.35278 0 0 -.35278 163.59 121.65)">
		<path class="st4" d="M100.3-137c-0.5,0.9-1.9,0.8-2.5,0.1c-0.3-0.9-0.3-1.8,0-2.7c0.7-0.9,1.4-2.3,2.6-2.3
			C101.9-140.7,100.1-138.8,100.3-137"/>
	</g>
	<g transform="matrix(.35278 0 0 -.35278 162.86 121.44)">
		<path class="st4" d="M96.5-135.9c-0.4,0-0.9-0.4-1.2-0.7c-0.5-0.7-0.7-1.9-0.3-2.7c0.4-0.8,1.1-1.7,2-1.8c0.6-0.1,0.7,0.7,0.8,1
			C96.8-138.7,98.8-136.2,96.5-135.9"/>
	</g>
</g>
</svg>
