<?xml version="1.0" encoding="utf-8"?>
<!-- Generator: Adobe Illustrator 26.3.1, SVG Export Plug-In . SVG Version: 6.00 Build 0)  -->
<svg version="1.1" id="Layer_1" xmlns="http://www.w3.org/2000/svg" xmlns:xlink="http://www.w3.org/1999/xlink" x="0px" y="0px"
	 viewBox="0 0 266.3 190.4" style="enable-background:new 0 0 266.3 190.4;" xml:space="preserve">
<style type="text/css">
	.st0{fill:#151F0D;}
	.st1{fill-rule:evenodd;clip-rule:evenodd;fill:#FFFFFF;}
</style>
<rect x="0.1" y="0.2" transform="matrix(1 -1.519060e-03 1.519060e-03 1 -0.1445 0.2024)" class="st0" width="266" height="190"/>
<g transform="translate(0 -2)">
	<g transform="translate(0 1.356)">
		<path class="st1" d="M107.5,86.4c-0.7,0.2-1.4,0.3-2.1,0.4c-0.2,0.9-0.5,1.9-0.8,2.8c-0.5,0-0.9,0-1.3-0.1
			c-0.1,0.3-0.2,0.6-0.4,0.9c0.2,0,0.5,0,0.7,0c0.3,0,0.5,0,0.7,0l-1.7,5.1c-0.5,1.4-1.2,3-1.2,4.5c0,0.7,0.4,1.3,1.1,1.2
			c1.5-0.1,3.4-1.9,4.3-2.9l-0.5-0.5c-0.5,0.6-1.7,1.9-2.6,1.9c-0.2,0-0.4-0.2-0.4-0.5c0-1.1,0.5-2.1,0.8-3.1l1.9-5.8
			c0.7,0,1.4,0.1,2.1,0.1l0.4-0.9c-0.8,0.1-1.5,0.1-2.3,0.1c0.3-1,0.7-2,1.1-3L107.5,86.4z M90,90.5c0,0.7,0.2,1.3,0.5,1.9
			c-0.4,2.4-2.6,7.6-5.7,7.6c-0.9,0-1.3-0.8-1.3-1.6c0-3.2,2.4-6.1,4.1-8.6l-0.2-0.3c-0.8,0-1.6,0-2.3,0c-0.8,0-1.7-0.1-2.5-0.1
			c-0.7,0-2.8,2.5-2.8,3.7c0,0.5,0.1,1.4,0.7,1.4c0.3,0,0.9-0.7,0.9-1c0-0.5-0.5-0.8-0.5-1.3c0-0.3,0.3-0.7,0.6-0.8
			c0.3-0.1,0.7-0.1,1.1-0.1c1.1,0,2.1,0,3.2,0c-1.7,2.2-4.4,5.2-4.4,8.1c0,1.1,0.8,1.8,2,1.8c3.4,0,6.4-3,7.6-6
			c0.6-1.5,1.1-3.2,1.1-4.8c0-0.3,0-0.6-0.1-0.9c-0.1-0.2-0.3-0.3-0.5-0.3C90.6,89.3,90,89.7,90,90.5z M93.4,106.9
			c-1.4-0.6-2.9-0.9-4.4-0.9c-4.6,0-8.3,3.5-8.3,7.5c0,2.9,1.8,4.9,5.2,4.9c0.8,0,3.4-0.3,4.1-0.5c0.3-0.9,0.5-1.9,0.9-2.8h-0.6
			c-0.7,1.6-2,2.7-4.1,2.7c-2.8,0-3.7-2.2-3.7-4.3c0-3,2.8-6.8,6.5-6.8c1.4,0,3.1,0.5,3.1,1.9c0,0.3-0.1,0.6-0.1,0.8h0.6
			C92.8,108.5,93.1,107.7,93.4,106.9z M93.9,117c0-0.7,0.4-1.3,0.6-2l2.4-6.4c0.4-0.9,0.8-1.9,1.2-2.7c-1.2,0-2.3,0.3-3.5,0.3
			l-0.2,0.4c0.1,0,0.2,0,0.4,0c0.4,0,1.1,0,1.1,0.5c0,0.3-0.2,0.7-0.3,1.1l-2.6,7c-0.3,0.8-0.7,1.6-0.7,2.5c0,0.3,0.3,0.5,0.7,0.5
			c1.1,0,2.6-1.2,3.3-1.8l-0.4-0.3c-0.4,0.4-1.1,1.1-1.8,1.1C94,117.3,93.9,117.2,93.9,117z M95,95c0.4-1.4,1.7-4.6,3.4-4.6
			c0.4,0,0.5,0.4,0.5,0.8C98.9,93.2,96.7,94.2,95,95z M92.4,98.2c0,1.3,0.4,3,1.9,3c1.8,0,4-1.7,5.1-3l-0.5-0.5c-0.9,0.8-2,2-3.3,2
			c-0.9,0-1.1-1.1-1.1-1.8c0-0.7,0.1-1.4,0.2-2.1c2.1-1,6-2.5,6-5.2c-0.1-0.7-0.5-1.4-1.3-1.4C95.9,89.3,92.4,94.7,92.4,98.2z
			 M101.1,110.6c-1.1,0-2.5,1.2-3.2,1.9l0.4,0.3c0.3-0.3,1.1-1.2,1.6-1.2c0.1,0,0.2,0.1,0.2,0.2c-0.2,1.7-2.7,4.4-2.7,5.9
			c0,0.3,0.3,0.5,0.6,0.5c1.8,0,4.5-3.5,5.6-4.7c-0.4,1.1-1.5,3.1-1.5,4.3c0,0.3,0.1,0.5,0.5,0.5c1.1,0,2.6-1.4,3.2-2.1l-0.4-0.3
			c-0.3,0.4-1.1,1.2-1.6,1.3c-0.2,0-0.2-0.1-0.2-0.3c0.2-1.8,1.8-4.7,2.7-6.4l-1.4,0.2c-0.9,1.6-2.1,3.1-3.5,4.5
			c-0.3,0.3-1.6,1.7-2.1,1.7l0,0c-0.1,0-0.2-0.1-0.2-0.2c0-0.8,1.6-3.2,2-4.1c0.2-0.5,0.6-1.1,0.6-1.6
			C101.7,110.7,101.5,110.6,101.1,110.6z M109.7,92.8c0,2,2.3,3.7,2.3,5.8c0,1-1,1.7-1.9,1.7c-0.3,0-0.7-0.1-0.7-0.5
			c0-0.2,0-0.3,0-0.5c0-0.5-0.4-0.8-1-0.8s-1.1,0.5-1.1,1.1c0.1,1.1,1.3,1.6,2.3,1.6c2,0,4-1.6,4-3.7c0-2.2-2.3-3.7-2.3-5.9
			c0-0.7,0.6-1.4,1.3-1.4c0.4,0,0.5,0.3,0.5,0.7c0.1,0.4,0.5,0.6,0.9,0.6c0.6,0,1-0.5,1-1.1c0-0.8-0.9-1-1.6-1
			C111.6,89.3,109.7,90.8,109.7,92.8z M113.7,111.8c0,1.5-2.4,5.8-4.4,5.8c-0.3,0-0.7-0.2-0.7-0.5c0-1.4,1-2.8,2-3.8
			c0.6-0.6,1.8-1.9,2.8-1.9C113.6,111.4,113.7,111.5,113.7,111.8z M115.3,111.5c0-0.5-0.3-0.9-0.9-0.9c-1.9,0-3.6,1.6-4.6,2.8l2-5.3
			c0.3-0.7,0.6-1.5,1-2.2l-0.2-0.1c-1,0.4-2.1,0.5-3.2,0.5l-0.2,0.4h0.3c0.5,0,1.2,0,1.2,0.6c0,0.3-0.1,0.5-0.2,0.8l-2.8,7.5
			c-0.2,0.6-0.4,1.2-0.4,1.8c0,0.7,0.6,1,1.4,1c2.2-0.1,4.1-1.7,5.2-3.2C114.4,114.3,115.3,112.6,115.3,111.5z M154.2,36.5
			c0.8-0.7,1.3-1.2,1.5-1.2c-1.3-0.4-2.6-0.4-3.5,0.1c-1.1,0.5-1.8,1-2.2,1.6c-1-1.2-1.8-1.9-2.8-2.2c-1-0.4-1.7-0.4-2.3-0.3
			c-0.6,0.1-1,0.3-1.1,0.4c-0.6,0.4-1,0.7-1.2,1.1l-0.1,0.4c1.3-0.4,2.4-0.3,3.2,0.5c0.7,0.6,1.2,1.3,1.2,2.3c0,0.7-0.4,1.3-0.9,1.9
			c-0.4,0.7-1.1,1.2-2.2,1.2c-1-0.1-1.7-0.5-2.3-1c-0.5-0.6-0.7-1.1-0.8-1.7c-0.3-0.6-0.3-0.8-0.3-1c0.4-0.1,0.6-0.5,0.6-1
			c0-0.7-0.4-1.1-0.9-1.2c-0.6,0.1-1,0.5-1.1,1.1c0,0.5,0.2,0.8,0.7,1.1c-0.2,0.7-0.6,1.5-1.2,1.9c-0.5,0.6-1.2,1.1-2,1.1
			c-1.2,0-2.1-0.5-2.6-1.2c-0.6-0.8-0.8-1.7-0.7-2.7c0-1.1,0.2-1.9,1-2.7c0.5-0.6,1.2-1,2.2-1.1c0.5,0.1,1.1,0.4,1.5,0.5
			c0.4,0.3,0.6,0.5,0.8,0.7c0.4-2.2-0.1-3.8-1.5-4.8c-1.1-0.7-2.5-0.7-4,0c0.1-2.2,0-3.8-0.6-4.6c-0.6-1-1-1.5-1.1-1.5
			c0,0-0.4,0.5-1,1.5c-0.6,0.9-0.7,2.4-0.6,4.6c-1.6-0.7-3.1-0.7-4.1,0c-1.3,1-1.7,2.6-1.5,4.8c0.1-0.2,0.5-0.5,1-0.7
			c0.4-0.1,0.9-0.4,1.5-0.5c0.7,0.1,1.6,0.5,2.2,1.1c0.6,0.7,1,1.6,1,2.7c0,1-0.4,1.8-0.9,2.7c-0.5,0.7-1.3,1.2-2.4,1.2
			c-1,0-1.6-0.5-2.1-1.1c-0.6-0.5-1-1.2-1.1-1.9c0.4-0.2,0.6-0.6,0.6-1.1c0-0.6-0.4-1-1-1.1c-0.5,0.1-0.9,0.5-1,1.2
			c0.1,0.5,0.4,0.8,0.7,1c0,0.1-0.1,0.4-0.2,1c-0.3,0.6-0.5,1.1-1,1.7c-0.5,0.5-1.2,0.8-2.2,1c-1.1-0.1-1.8-0.5-2.3-1.2
			c-0.5-0.6-0.7-1.2-0.7-1.9c0-1,0.4-1.7,1.2-2.3c0.7-0.7,1.8-0.8,3.2-0.5l-0.1-0.4c-0.2-0.4-0.7-0.7-1.2-1.1
			c-0.1-0.1-0.5-0.2-1.1-0.4c-0.6-0.1-1.3-0.1-2.4,0.3c-0.9,0.3-1.8,1-2.7,2.2c-0.4-0.6-1.1-1.1-2.2-1.7c-1.1-0.4-2.3-0.4-3.7,0
			c0.2,0,0.6,0.5,1.6,1.2c0.9,0.9,2,2.2,3.2,4.3s2.2,4.8,3.2,8.3h32.5c0.9-3.5,1.8-6.2,3.2-8.3C152.1,38.7,153.2,37.3,154.2,36.5z
			 M219.5,71.1c0,9.3-3.1,18.1-9.4,26.6c-10.4,14-24,21.1-40.6,21.1c-8,0-15.6-1.7-22.5-4.9l11.7-32.4c2-5.2,5.4-8,10.1-8
			c4.3,0,7.7,1.3,10.2,4c2.6,2.7,3.9,6.1,3.9,10.4c0,5.9-1.3,11-4.1,15.2c-3.2,4.8-7.5,7.2-13.3,7.2c-3,0-6.7-1.1-10.9-3.3l-0.2,0.4
			c4.1,3,9.3,4.4,15.1,4.4c6.3,0,11.6-1.7,15.7-5.1c4.4-3.8,6.7-8.8,6.7-14.9c0-12.2-9.6-19-28.8-20.6c1.2-3,2.4-6.2,3.5-9.4
			c1.5-3.6,3.2-6.6,4.9-8.9c4.8-6.2,9.8-9.8,14.8-10.5c2.6-0.5,4.9-0.6,7.1-0.6c9.5,0,16.6,4,21.6,12.3
			C218,59.3,219.5,65,219.5,71.1z M210.4,99.2c7.4-9,11.1-18.5,11.1-28.6c0-6.2-1.5-11.9-4.6-17.3c-4.9-8.5-12.2-12.8-22-12.8
			c-2.4,0-5,0.3-7.6,0.7c-6.7,1.1-12.8,5-18.4,11.8c-1.8,2.3-3.5,5.1-5.2,8.7c-0.4,0.8-1.8,3.9-4.1,9.1h-4.9c-2.8,0.1-5.5,0.1-8,0.5
			c-1.6,0.1-3.3,0.5-5,1c-1.8,0.5-3.4,1.1-5,2.1c2.4-0.6,4.9-1,7.6-1c2.4,0,4.4,0.6,5.6,1.7c1.3,1.1,1.8,2.9,1.5,5
			c-0.2,1.1-0.6,2.2-0.8,3.1c-5,13.3-8.4,22.3-10.1,27c-2.1-1.1-3.9-2.4-5.6-3.9c-1.8-1.3-3.3-2.6-4.4-3.7c-1.2-1.2-2.2-2.4-3.2-3.6
			c-0.8-1.2-1.3-1.9-1.3-1.9c-1.7-2.7-2.4-5.7-2.3-9.1c0-2.7,0.4-5.4,1.3-7.9l1.1-2.4c6.5-14.9,18-22.4,35-22.4l1.2-0.6
			c-8.8,0-16.5,1.9-22.8,5.6c-3.5,2.1-6.6,4.5-9,7.4c-2.6,2.8-4.5,6.3-5.9,10.1l-1.2,3.5c-1,2.8-1.3,5.6-1.2,8.3
			c0,3.4,0.8,6.5,2.7,9.1l3.8,4.9c3.3,3.5,6.8,6.3,10.8,8.8c-3.4,8.3-5.2,13.2-5.7,14.4c-1.9,4.6-3.2,7.2-3.3,7.6
			c-2.2,3.8-5.4,6.1-9.5,6.9c-1.2,0.2-2.4,0.4-3.9,0.4l-0.1,0.9c1,0,2.4,0,4-0.1c0.8-0.1,1.7-0.1,2.7-0.1
			c-7.3,7.5-17.7,11.5-31.1,11.8c-10,0.1-18.8-1.8-26.3-5.9c-2.6-1.3-4.9-2.8-7.2-4.3c-5.1-3.7-9.4-7.9-12.7-12.8
			c0-0.1-0.3-0.2-0.3-0.5c-5-7.3-7.4-15.5-7.4-24.5c0-2.9,0.4-6.2,1-9.9c2-10.7,6.8-19.8,14.7-26.9c8.2-7.6,17.7-11.3,28.4-11.3
			c7.4,0,14.4,1.9,20.8,5.8c-2.2-2.5-6.3-4.6-12.3-6.2c-5.1-1.4-9.6-2.1-13.9-1.9c-11.6-0.1-21.1,3.8-28.2,11.7
			C42.9,74.4,38.7,84,36.5,96.1c-0.5,2.9-0.8,6-0.8,9.4c0,9.5,2.4,18.2,7.3,26.2c0.8,1.4,1.8,2.7,2.8,4.1c2.1,2.9,4.6,5.6,7.4,8.2
			c2.9,2.4,6.1,4.6,9.6,6.7c7.9,4.3,16,6.6,24.3,6.7c4.3,0.1,9.9-0.7,16.9-2.4c3-0.9,6.7-2.7,11.1-5.2c4.5-2.7,7.9-5.1,10.4-7.4
			c2.4-0.1,4.6-0.1,6.7-0.1c5.1,0,10.5,0.1,16.1,0.4v-0.5v-0.1c-0.7,0-1.5-0.1-2.1-0.1c-4.9-0.4-7.2-2.1-7.1-5
			c-0.1-1,0.4-3.2,1.6-6.1c1.6-4.3,2.4-6.3,2.4-6.5l2.9-8.2c6.2,2.7,13.2,4,20.8,4c6.5,0,12.3-1,17.8-2.9
			C194.9,113.4,203.4,107.4,210.4,99.2z M63.6,93.2c0.2-1,0.4-1.9,0.4-2.9c0-0.5-0.2-1-0.8-1c-1.2,0-3.3,2.1-4,3.1l0.5,0.5
			c0.4-0.5,1.5-1.9,2.1-1.9l0,0c0.3,0,0.4,0.3,0.4,0.6c0,2-2.4,7.3-3.2,9.6c0.7-0.1,1.4-0.2,2-0.2c0.8-2.6,1.7-5.2,3.2-7.6
			c0.3-0.4,1.2-1.7,1.9-1.7l0,0c0.3,0.1,0.6,0.3,0.9,0.3c0.6,0,1.2-1.3,1.3-1.9c0-0.4-0.3-0.7-0.6-0.7C66.1,89.3,64.3,92,63.6,93.2z
			 M50,84.2c0,0.9-0.4,2-0.6,2.8l-2.7,9.2c-0.5,1.7-0.7,3.8-3,3.8l-0.3,0.8c1.2-0.1,2.3-0.1,3.5-0.1c1.1,0,2.1,0.1,3.2,0.1l0.2-0.8
			c-0.9,0-2.1-0.1-2.1-1.2c0.1-0.9,0.4-1.8,0.7-2.6l3-10.4c0.2-0.8,0.4-1.6,0.7-2.3c0.4,0,0.9-0.1,1.3-0.1c2.2,0,3.6,1.4,3.6,3.5
			c0,3.1-2.5,5-5.5,5c-0.1,0-0.3,0-0.4,0l-0.3,0.8c0.4,0.1,0.7,0.1,1.1,0.1c3.7,0,7.4-2.3,7.4-6.3c0-2.6-1.8-4.1-4.4-4.1h-4.2
			c-1,0-1.9,0-2.9-0.2l-0.2,1C48.8,83.2,50,83.2,50,84.2z M52.8,113.9c-0.1,0.7-0.3,1.4-0.6,2c-0.5,1.3-1.2,1.7-2.8,1.7
			c-2.4,0-3.5-2.1-3.5-3.9c0-3.3,2.7-7.1,6.7-7.1c1.3,0,2.7,0.7,2.7,2c0,0.3-0.1,0.5-0.1,0.7h0.6c0.2-0.9,0.5-1.7,0.8-2.5
			c-1.3-0.3-2.6-0.8-4-0.8c-2.4,0-4.6,0.7-6.2,2.3c-1.4,1.4-2.3,3.4-2.3,5.3c0,2.7,2,4.8,5.2,4.8c1.3,0,2.6-0.4,3.8-0.8
			c0.1,0,0.1-0.1,0.3-0.1c0.2-1.2,0.6-2.4,1.1-3.5c0.3-0.5,0.7-0.8,1.4-0.8l0.2-0.5c-0.8,0-1.6,0.1-2.3,0.1c-0.8,0-1.5,0-2.3-0.1
			l-0.2,0.5h0.5C52.5,113.1,52.8,113.3,52.8,113.9z M58,116c0.1-1.5,1.1-4.9,3.3-4.9c0.9,0,1,0.8,1,1.5c0,1.5-1.1,5.1-3.2,5.1
			c-0.9,0-1.1-0.9-1.1-1.5C58,116.2,58,116.1,58,116z M56.6,116c0,1.3,0.9,2.3,2.5,2.3c2.7,0,4.8-3.1,4.8-5.2c0-1.3-0.8-2.4-2.4-2.4
			C58.6,110.6,56.6,113.7,56.6,116z M74,110.8c-0.2,0-0.4,0-0.6,0c0.3-1.3,1.1-4.3,2.9-4.3c0.7,0,0.9,0.9,1.6,0.9
			c0.4,0,0.8-0.5,0.8-0.8c0-0.7-1.1-0.7-1.6-0.7c-3.1,0.1-4.3,2.6-5,4.9c-0.4,0-0.9,0-1.3-0.1l-0.2,0.6c0.4-0.1,0.9-0.1,1.3-0.1
			l-1.6,5.1c-0.3,1-0.7,2.1-1.1,3.1c-0.3,0.8-0.9,2-2,2c-0.7,0-0.7-0.9-1.4-0.9l0,0c-0.5,0-0.8,0.5-0.8,0.9c0.1,0.6,1.1,0.6,1.6,0.6
			c3.3,0,4.4-3.3,5.1-5.6l1.6-5.3c0.6,0,1.2,0,1.8,0.1l0.3-0.6C74.9,110.7,74.4,110.8,74,110.8z M65.2,118.3c1.1,0,2.6-1.2,3.3-1.8
			l-0.4-0.3c-0.4,0.4-1.1,1.1-1.8,1.1c-0.2,0-0.3-0.1-0.3-0.3c0-0.7,0.4-1.3,0.6-2l2.4-6.4c0.4-0.9,0.8-1.9,1.2-2.7
			c-1.2,0-2.3,0.3-3.5,0.3l-0.1,0.4c0.1,0,0.2,0,0.3,0c0.4,0,1.1,0,1.1,0.5c0,0.3-0.1,0.7-0.3,1.1l-2.6,7c-0.3,0.8-0.7,1.6-0.7,2.5
			C64.5,118.1,64.8,118.3,65.2,118.3z M69.1,98.4c0.3-2.4,2.9-7.8,5.7-7.8c0.6,0,1,0.4,1,1.1c-0.2,1.8-4.3,7.8-6.2,7.8l0,0
			c-0.4,0-0.5-0.5-0.5-0.8C69.1,98.6,69.1,98.5,69.1,98.4z M66.8,99.4c0,0.8,0.3,1.8,1.2,1.8c2.1,0,4.7-2.9,6-4.4
			c-0.3,1-0.6,2-0.6,3.1c0,0.6,0.3,1.3,1,1.3c1.3,0,3.6-2.2,4.3-3.1l-0.5-0.5c-0.5,0.5-1.7,2-2.5,2c-0.3,0-0.3-0.4-0.3-0.6
			c0-2.4,2.5-7.9,3.5-10.1L77.1,89l-0.4,0.9c-0.4,0-0.9-0.1-1.3-0.1C71.5,89.7,66.8,95.8,66.8,99.4z M244.1,95.1
			c-0.2,10.4-3,20.1-8.7,29.3c-5.7,9-13.6,17.1-23.9,24c-10.1,6.9-21.9,12.3-35.4,16.3c-13.5,3.8-28,5.7-43.5,5.9
			c-15.6-0.1-30.1-2.1-43.5-5.9c-13.4-4-25.2-9.4-35.3-16.3c-2.2-1.5-4.2-2.9-6.1-4.4c-0.6-0.6-1.2-1.1-1.8-1.6
			c-6.6-5.4-11.8-11.5-15.8-18c-5.8-9.1-8.7-18.9-8.8-29.3c0.1-10.4,2.9-20.2,8.8-29.2c5.6-9.1,13.5-17.2,23.8-24
			C64,34.8,75.8,29.5,89.2,25.6c13.5-3.9,27.9-5.9,43.5-5.9c15.5,0,30,1.9,43.5,5.9c13.4,3.9,25.2,9.3,35.4,16.3
			c10.2,6.8,18.2,14.9,23.9,24C241.1,74.9,243.9,84.7,244.1,95.1z M237.1,125.3c5.7-9.4,8.8-19.4,8.8-30.2c-0.1-11-3.1-21-8.8-30.2
			c-6-9.4-14-17.6-24.4-24.6c-10.4-7.1-22.4-12.6-36-16.5c-13.7-4-28.3-6-44-6.1c-15.7,0.1-30.3,2.1-44,6.1
			c-13.6,3.9-25.6,9.4-35.9,16.5c-10.5,7.1-18.5,15.2-24.3,24.6c-5.8,9.3-8.9,19.3-9,30.2c0.1,10.8,3.2,20.8,9,30.2
			c5.7,9.4,13.8,17.4,24.3,24.5c10.3,7.1,22.4,12.6,35.9,16.6c13.7,3.9,28.3,6,44,6.1c15.7-0.1,30.4-2.2,44-6.1
			c13.5-4,25.6-9.5,36-16.6C223,142.8,231.1,134.7,237.1,125.3z M251.8,95.1c0,11-3.1,21.3-9.1,31c-6.1,9.7-14.6,18.3-25.5,25.6
			c-10.8,7.4-23.5,13.2-37.9,17.4c-14.5,4.3-29.9,6.5-46.6,6.5c-16.6,0-32.2-2.2-46.7-6.3c-14.4-4.3-27.1-10.1-37.8-17.6
			c-11-7.3-19.4-15.8-25.5-25.6c-6.1-9.6-9.3-20-9.3-31c0-11.2,3.2-21.6,9.3-31.2c6.2-9.7,14.6-18.3,25.6-25.7
			C59,30.9,71.7,25,86.1,20.9c14.5-4.1,30.1-6.3,46.7-6.5c16.7,0.1,32.1,2.3,46.6,6.5c14.4,4.1,27.1,10,37.9,17.3
			c10.8,7.4,19.4,16,25.5,25.7C248.6,73.5,251.7,83.9,251.8,95.1z M255.5,95.2L255.5,95.2c-0.2-11.9-3.5-22.9-9.9-33
			c-6.5-10.1-15.1-19-26.3-26.6c-11.2-7.7-24.1-13.6-38.9-18c-14.8-4.3-30.6-6.4-47.5-6.5h-0.1c-17,0.1-32.9,2.2-47.6,6.5
			c-14.8,4.4-27.7,10.4-39,18C35,43.2,26.2,52.1,20,62.2c-6.5,10.1-9.8,21.2-9.9,33c0.1,11.7,3.4,22.7,9.9,32.9
			c6.2,10.1,15,19,26.2,26.6c11.3,7.7,24.2,13.6,39.1,18c14.8,4.1,30.6,6.3,47.5,6.5c16.9-0.1,32.8-2.3,47.4-6.5
			c14.8-4.4,27.7-10.4,39-18c11.2-7.6,19.9-16.5,26.3-26.6C251.9,117.9,255.2,106.9,255.5,95.2z"/>
	</g>
</g>
</svg>
