<svg width="164" height="90" viewBox="0 0 164 90" fill="none" xmlns="http://www.w3.org/2000/svg" xmlns:xlink="http://www.w3.org/1999/xlink">
<g clip-path="url(#clip0_855_16680)">
<rect width="164" height="90" fill="white"/>
<rect width="164" height="90" fill="url(#pattern0_855_16680)"/>
<g clip-path="url(#clip1_855_16680)">
<path d="M177.85 0H-14.1499V90H177.85V0Z" fill="white"/>
<path d="M177.85 0H-14.1499V6.92308H177.85V0Z" fill="#B22234"/>
<path d="M177.85 13.8462H-14.1499V20.7692H177.85V13.8462Z" fill="#B22234"/>
<path d="M177.85 27.6923H-14.1499V34.6154H177.85V27.6923Z" fill="#B22234"/>
<path d="M177.85 41.5385H-14.1499V48.4615H177.85V41.5385Z" fill="#B22234"/>
<path d="M177.85 55.3846H-14.1499V62.3077H177.85V55.3846Z" fill="#B22234"/>
<path d="M177.85 69.2307H-14.1499V76.1538H177.85V69.2307Z" fill="#B22234"/>
<path d="M177.85 83.0769H-14.1499V90H177.85V83.0769Z" fill="#B22234"/>
</g>
<circle cx="82" cy="45" r="39" fill="#3C3B6E"/>
<path d="M70.4821 70.098C73.9072 72.1287 77.9049 73.199 82.0416 73.199C93.4853 73.199 102.8 64.9778 102.8 54.8764V40.4184C102.8 40.0366 102.343 39.8283 102.042 40.0713L71.755 64.4861C70.0193 63.1438 68.6655 61.4834 67.8092 59.6378L102.32 31.8212C102.464 31.7055 102.522 31.5145 102.464 31.3352L102.013 29.9177C99.5022 22.0726 91.2868 16.5938 82.0416 16.5938C70.5979 16.5938 61.2832 24.8149 61.2832 34.9164V54.8822C61.2832 56.45 61.5088 58.0121 61.9543 59.5221C63.2329 63.8497 66.2587 67.6045 70.4821 70.1038V70.098ZM77.1817 67.0201L97.1591 50.9133C97.2285 50.8555 97.3384 50.9075 97.3384 50.9943V54.8706C97.3384 62.033 90.4768 67.8648 82.0416 67.8648C80.3869 67.8648 78.7612 67.6392 77.2165 67.2053C77.1297 67.1821 77.1123 67.0722 77.176 67.0201H77.1817ZM66.7447 34.9048C66.7447 27.7366 73.6063 21.9106 82.0416 21.9106C88.2089 21.9106 93.7283 25.0753 96.1003 29.802C96.1235 29.8483 96.1119 29.9004 96.0714 29.9351L66.9241 53.43C66.8546 53.4879 66.7447 53.4358 66.7447 53.349V34.9106V34.9048Z" fill="white"/>
</g>
<defs>
<clipPath id="clip0_855_16680">
<rect width="164" height="90" fill="white"/>
</clipPath>
<clipPath id="clip1_855_16680">
<rect width="192" height="90" fill="white" transform="translate(-14.1499)"/>
</clipPath>
<pattern id="pattern0_855_16680" patternUnits="userSpaceOnUse" viewBox="-77 142 1412 18" width="860.97560975609758%" height="20%" patternContentUnits="objectBoundingBox">
<g id="pattern0_855_16680_inner">
<path d="M276 124H-77V133H276V124Z" fill="#B22234"/>
</g>
<use xlink:href="#pattern0_855_16680_inner" transform="translate(0 18)"/>
<use xlink:href="#pattern0_855_16680_inner" transform="translate(706 9)"/>
<use xlink:href="#pattern0_855_16680_inner" transform="translate(706 27)"/>
</pattern></defs>
</svg>
