<svg width="701" height="400" viewBox="0 0 701 400" fill="none" xmlns="http://www.w3.org/2000/svg">
<path d="M190.362 149.158C190.362 137.419 192.034 118.856 177.678 114.057V113.247H231.47V114.057C217.403 118.914 219.075 137.477 219.075 149.158V282.45C219.075 308.473 197.396 335.247 156 339.353V338.601C187.999 322.929 190.362 305.234 190.362 277.708V149.158Z" fill="#231F20"/>
<path d="M386.001 149.158C386.001 137.419 387.962 118.856 373.605 114.057V113.247H427.052V114.057C412.984 118.856 414.714 137.708 414.714 149.158V245.036C414.714 256.486 412.984 275.048 427.052 279.906V280.658H373.605V279.906C387.673 275.28 386.001 256.486 386.001 245.036V149.158Z" fill="#231F20"/>
<path d="M455.383 113.483C487.9 115.102 513.96 151.88 513.96 196.986C513.96 242.091 487.958 278.927 455.383 280.489C505.485 279.506 545.671 242.496 545.671 196.986C545.671 151.476 505.427 114.466 455.383 113.483Z" fill="#231F20"/>
<path d="M267.313 75.8447L293.777 89.0294L300.003 60L306.23 89.0294L332.694 75.8447L314.013 98.8022L340.823 111.351L311.246 111.004L318.165 139.86L300.003 116.382L281.9 139.86L288.761 111.004L259.184 111.351L286.051 98.8022L267.313 75.8447Z" fill="#231F20"/>
<path d="M267.313 318.016L293.777 304.832L300.003 333.861L306.23 304.832L332.751 318.016L314.013 295.059L340.823 282.51L311.246 282.857L318.165 254.001L300.003 277.479L281.9 254.001L288.818 282.857L259.184 282.51L286.051 295.059L267.313 318.016Z" fill="#231F20"/>
</svg>
