<?xml version="1.0" encoding="UTF-8"?>
<svg id="Calque_1" xmlns="http://www.w3.org/2000/svg" viewBox="0 0 408 147.46">
  <defs>
    <style>
      .cls-1 {
        fill: #fff;
      }

      .cls-2 {
        fill: none;
        stroke: #fff;
        stroke-linecap: round;
        stroke-miterlimit: 10;
        stroke-width: 2px;
      }
    </style>
  </defs>
  <g>
    <path class="cls-1" d="M62.98,100.3c-.23-.29-.53-.53-.92-.71v-.08c.27-.18.48-.39.64-.63.2-.33.3-.69.3-1.13,0-.7-.27-1.23-.7-1.6-.56-.5-1.39-.71-2.28-.71h-5.78v1.18l.86.17v2.12h0v5.61h5.13c.92,0,1.77-.29,2.36-.8.54-.49.89-1.15.89-1.97,0-.53-.17-1.03-.5-1.44M57.03,96.93h2.91c.36,0,.65.12.83.29.21.18.3.44.3.72,0,.26-.09.53-.26.73-.18.2-.44.32-.76.32h-3.03v-2.06ZM61.25,102.6c-.24.26-.62.41-1.07.41h-3.15v-2.6h3.18c.44,0,.8.14,1.06.39.2.21.32.5.32.89s-.12.69-.33.91"/>
    <polygon class="cls-1" points="72.46 103.01 72.46 104.51 65.13 104.51 65.13 95.43 67.09 95.43 67.09 103.01 72.46 103.01"/>
    <path class="cls-1" d="M73.66,95.43h1.97v5.2c0,.82.21,1.44.62,1.88.38.41.94.63,1.66.63s1.33-.21,1.69-.6c.41-.44.61-1.03.61-1.91v-5.2h1.94v5.14c0,1.3-.42,2.34-1.15,3.03-.74.69-1.8,1.07-3.1,1.07-1.22,0-2.28-.35-3.03-1.01-.76-.68-1.2-1.72-1.21-3.09v-5.14Z"/>
    <polygon class="cls-1" points="84.17 95.43 91.65 95.43 91.65 96.96 86.11 96.96 86.11 99.02 91.04 99.02 91.04 100.53 86.11 100.53 86.11 102.98 91.84 102.98 91.84 104.51 84.17 104.51 84.17 95.43"/>
    <path class="cls-1" d="M98.8,99.7v1.18l.86.17v1.96c-.43.09-.88.13-1.39.13-1.08,0-2.06-.39-2.62-1.03-.5-.56-.77-1.3-.77-2.15,0-.97.32-1.79.91-2.33.56-.54,1.48-.85,2.48-.85.91,0,1.72.17,2.66.53l.57-1.33c-1.07-.54-2.13-.73-3.36-.73-1.48,0-2.72.39-3.69,1.18-.97.77-1.54,1.95-1.54,3.53,0,1.42.5,2.53,1.33,3.31,1,.94,2.34,1.39,3.92,1.39,1.23,0,2.31-.23,3.36-.77h0v-4.2h-2.72Z"/>
    <path class="cls-1" d="M108.34,95.43c1.1,0,2,.3,2.68.91.57.53.95,1.3.95,2.28,0,.79-.29,1.54-.8,2.1-.35.36-.85.69-1.48.85l.7.89c.21.27.44.47.68.61.27.14.57.23.91.24l-.1,1.32c-.76,0-1.32-.08-1.79-.3-.48-.24-.88-.63-1.35-1.26l-.92-1.26h-2.48v2.69h-1.94v-9.08h4.95ZM110,98.59c0-.5-.17-.94-.47-1.21-.3-.3-.76-.45-1.29-.45h-2.92v3.37h2.95c.53,0,.98-.17,1.29-.47.29-.3.44-.71.44-1.24"/>
    <polygon class="cls-1" points="113.63 95.43 121.11 95.43 121.11 96.96 115.57 96.96 115.57 99.02 120.5 99.02 120.5 100.53 115.57 100.53 115.57 102.98 121.3 102.98 121.3 104.51 113.63 104.51 113.63 95.43"/>
    <polygon class="cls-1" points="123.03 95.43 130.5 95.43 130.5 96.96 124.96 96.96 124.96 99.02 129.89 99.02 129.89 100.53 124.96 100.53 124.96 102.98 130.7 102.98 130.7 104.51 123.03 104.51 123.03 95.43"/>
    <polygon class="cls-1" points="138.35 95.43 138.35 96.61 139.21 96.78 139.21 101.66 134.22 95.43 132.42 95.43 132.42 104.51 134.28 104.51 134.28 98.21 139.26 104.51 141.07 104.51 141.07 95.43 138.35 95.43"/>
    <path class="cls-1" d="M115.25,38.18c-2.26,0-4.1-1.84-4.1-4.1s1.84-4.1,4.1-4.1,4.1,1.84,4.1,4.1-1.84,4.1-4.1,4.1M116.78,34.08c0-.84-.69-1.53-1.53-1.53s-1.53.69-1.53,1.53.69,1.53,1.53,1.53,1.53-.68,1.53-1.53"/>
    <path class="cls-1" d="M121.35,45.45l-23.54-7.95c-.39-.13-.82-.07-1.16.17-.34.24-.54.63-.54,1.05v34.95c-3.77.22-7.43,1.41-10.59,3.47l-4.7-2.71v-26.46h11.41c.71,0,1.29-.58,1.29-1.29s-.58-1.29-1.29-1.29h-12.69c-.71,0-1.29.58-1.29,1.29v28.5c0,.46.25.89.64,1.12l17.86,10.31c.19.12.42.17.64.17s.45-.06.64-.17l17.86-10.31c.4-.23.64-.66.64-1.12v-21.15c0-.71-.58-1.29-1.29-1.29s-1.29.58-1.29,1.29v20.4l-4.73,2.73c-3.15-2.06-6.79-3.26-10.55-3.48v-18.21l22.66-7.58c.53-.18.88-.67.88-1.22,0-.55-.35-1.04-.88-1.22M106.69,78.63l-9.3,5.37-9.33-5.39c2.83-1.57,6.04-2.4,9.3-2.4s6.49.84,9.33,2.42M98.68,52.75v-12.24l18.21,6.15-18.21,6.09Z"/>
  </g>
  <g>
    <path class="cls-1" d="M214.21,56.18h.6c.63,0,1.15.52,1.15,1.15v16.36c0,2.08.04,3.37.12,3.88.14,1.14.48,2.1,1,2.87.52.77,1.33,1.41,2.42,1.93,1.09.52,2.19.78,3.29.78.96,0,1.88-.2,2.76-.61.88-.41,1.61-.97,2.21-1.7.59-.72,1.02-1.6,1.3-2.62.2-.74.3-2.25.3-4.54v-16.36c0-.64.51-1.15,1.15-1.15h.6c.63,0,1.15.52,1.15,1.15v16.36c0,2.59-.25,4.68-.76,6.28-.51,1.6-1.52,2.99-3.03,4.17-1.52,1.18-3.35,1.77-5.5,1.77-2.34,0-4.34-.56-6-1.68-1.67-1.12-2.78-2.6-3.35-4.44-.35-1.13-.53-3.17-.53-6.11v-16.36c0-.64.51-1.15,1.15-1.15"/>
    <path class="cls-1" d="M265.78,62.48l-.55.52c-.43.4-1.08.41-1.52.02-1.37-1.21-2.84-2.15-4.43-2.82-1.88-.8-3.71-1.2-5.49-1.2-2.22,0-4.33.55-6.34,1.64-2.01,1.09-3.56,2.57-4.67,4.44-1.1,1.87-1.65,3.84-1.65,5.92s.57,4.15,1.71,6.07c1.14,1.92,2.72,3.43,4.73,4.52,2.01,1.1,4.22,1.65,6.62,1.65,2.91,0,5.37-.82,7.39-2.46,2.01-1.64,3.21-3.77,3.58-6.39h-7.9c-.62,0-1.12-.5-1.12-1.12v-.49c0-.62.5-1.12,1.12-1.12h11.08c-.03,4.38-1.33,7.85-3.9,10.42-2.57,2.57-6.01,3.86-10.32,3.86-5.23,0-9.38-1.78-12.43-5.35-2.35-2.75-3.52-5.92-3.52-9.53,0-2.68.67-5.18,2.02-7.49,1.35-2.31,3.19-4.12,5.54-5.42,2.35-1.3,5-1.95,7.97-1.95,2.4,0,4.66.43,6.77,1.3,1.79.73,3.55,1.84,5.27,3.33.51.44.53,1.21.05,1.67"/>
    <path class="cls-1" d="M309.72,56.18h.61c.65,0,1.18.53,1.18,1.18v25.69h10.27c.65,0,1.18.53,1.18,1.18v.51c0,.65-.53,1.18-1.18,1.18h-12.07c-.65,0-1.18-.53-1.18-1.18v-27.38c0-.65.53-1.18,1.18-1.18"/>
    <path class="cls-1" d="M330.7,56.18h12.57c.65,0,1.18.53,1.18,1.18v.55c0,.65-.53,1.18-1.18,1.18h-10.77v9.32h10.77c.65,0,1.18.53,1.18,1.18v.55c0,.65-.53,1.18-1.18,1.18h-10.77v13.42c0,.65-.53,1.18-1.18,1.18h-.61c-.65,0-1.18-.53-1.18-1.18v-27.38c0-.65.53-1.18,1.18-1.18"/>
    <path class="cls-1" d="M283.82,78.32h0c0,.31.3.56.66.56h5.72c.36-.01.66-.27.66-.58,0-.31-.3-.56-.66-.56h-5.72c-.36.01-.66.27-.66.58"/>
    <path class="cls-1" d="M286.89,65.22c-.54,0-.98.43-.98.97,0,.54.44.97.98.97.54,0,.98-.43.98-.97s-.44-.97-.98-.97"/>
    <path class="cls-1" d="M291.88,67.14c-.04-.21-.21-.33-.22-.34l-5.43-3.64-.88.6c-.1.15-.06.36.1.46.15.1.36.06.46-.09l.31-.45,4.69,3.1-3.84.69c-.27.05-.47.32-.41.58l.84,3.23-2.69,3.94c-.16.28-.06.63.22.79.28.16.64.06.8-.21,0,0,2.81-4.13,2.82-4.16l.15.59-.42,3.18c-.05.32.16.61.48.67.32.05.62-.16.68-.47l.44-3.27c.01-.08,0-.27-.02-.35l-.96-3.83,2.51-.45c.27-.05.45-.31.4-.58"/>
    <path class="cls-1" d="M287.66,56.18c-8.21,0-14.87,6.66-14.87,14.87s6.66,14.87,14.87,14.87,14.87-6.66,14.87-14.87-6.66-14.87-14.87-14.87M287.66,57.8c7.3,0,13.25,5.94,13.25,13.25s-5.94,13.25-13.25,13.25-13.25-5.94-13.25-13.25,5.94-13.25,13.25-13.25"/>
  </g>
  <line class="cls-2" x1="177.18" y1="29.98" x2="177.18" y2="110.82"/>
</svg>