<svg width="298" height="120" viewBox="0 0 298 120" fill="none" xmlns="http://www.w3.org/2000/svg">
<g clip-path="url(#clip0_1072_10158)">
<path d="M118.075 17.0005C118.075 14.7621 118.394 11.2226 115.655 10.3074V10.1531H125.917V10.3074C123.233 11.2337 123.552 14.7731 123.552 17.0005V42.4162C123.552 47.3781 119.417 52.4833 111.52 53.2662V53.1228C117.624 50.1347 118.075 46.7606 118.075 41.5121V17.0005Z" fill="white"/>
<path d="M155.4 17.0005C155.4 14.7621 155.774 11.2226 153.035 10.3074V10.1531H163.231V10.3074C160.547 11.2226 160.877 14.8172 160.877 17.0005V35.2822C160.877 37.4654 160.547 41.0049 163.231 41.9311V42.0744H153.035V41.9311C155.719 41.049 155.4 37.4654 155.4 35.2822V17.0005Z" fill="white"/>
<path d="M168.633 10.198C174.836 10.5067 179.808 17.5195 179.808 26.1201C179.808 34.7206 174.847 41.7444 168.633 42.0422C178.191 41.8547 185.857 34.7978 185.857 26.1201C185.857 17.4423 178.18 10.3854 168.633 10.198Z" fill="white"/>
<path d="M132.758 3.02123L137.806 5.53524L138.994 0L140.182 5.53524L145.23 3.02123L141.667 7.39869L146.781 9.79142L141.139 9.72526L142.459 15.2274L138.994 10.7507L135.541 15.2274L136.849 9.72526L131.207 9.79142L136.332 7.39869L132.758 3.02123Z" fill="white"/>
<path d="M132.758 49.1979L137.806 46.6839L138.994 52.2191L140.182 46.6839L145.241 49.1979L141.667 44.8204L146.781 42.4277L141.139 42.4939L142.459 36.9917L138.994 41.4684L135.541 36.9917L136.86 42.4939L131.207 42.4277L136.332 44.8204L132.758 49.1979Z" fill="white"/>
<path d="M3.70361 67.8474C5.99136 68.5972 5.72739 71.4861 5.72739 73.3054V93.3073C5.72739 97.5855 5.23244 99.9672 0.25 102.779V102.9C6.83826 102.261 10.2919 99.9672 10.2919 95.7661V73.3054C10.2919 71.4861 10.0279 68.5972 12.2607 67.8474V67.7261H3.70361V67.8474Z" fill="white"/>
<path d="M40.677 88.564L32.5599 68.2424H25.1137V68.3637C27.2695 68.9591 26.4116 70.6241 25.7847 72.0465L19.1524 88.564C18.1735 90.8244 17.4036 93.0407 14.7969 94.1875V94.3088H23.1559V94.1875C21.0002 93.4708 21.3191 92.324 22.254 90.1077L24.1348 84.9253H34.3857L36.3215 90.1077C37.5313 92.8753 37.8833 93.3164 35.6945 94.1875V94.3088H45.9124L45.0655 94.1875C42.5138 93.0297 41.6999 90.8134 40.666 88.564H40.677ZM25.3887 81.7938L29.3373 71.4732L33.2858 81.7938H25.3887Z" fill="white"/>
<path d="M108.987 68.3738L108.943 68.2305H100.419V68.3738C102.662 69.2228 102.398 72.5087 102.398 74.5376V84.5054C102.398 86.1263 102.442 87.251 101.453 88.5962C99.9678 90.7132 97.416 91.7497 94.8973 91.7497C90.2888 91.7497 87.7591 88.96 87.7591 82.9838V74.5486C87.7591 72.5197 87.4951 69.2449 89.7389 68.3848V68.2415H81.2148V68.3848C83.5136 69.2339 83.1946 72.5197 83.1946 74.5486V82.9838C83.1946 86.2255 83.1066 89.2357 85.4824 91.849C87.4951 94.0542 90.6408 94.9915 93.5995 94.9915C96.7451 94.9915 100.419 93.9109 102.398 91.2976V94.2748H108.987V94.1314C106.699 93.2824 106.963 89.9965 106.963 87.9787V74.6037C106.963 72.5308 106.688 69.2449 108.987 68.3959V68.3738Z" fill="white"/>
<path d="M129.105 91.0228L123.088 90.4825V81.7937H126.729C128.126 81.7937 130.006 81.7496 130.721 83.0507H130.853V78.2763H130.721C130.182 78.552 129.468 78.552 128.753 78.552H123.088V71.7928C124.529 71.5171 126.41 71.473 127.994 71.473C130.061 71.473 131.887 71.6605 133.284 73.2703H133.416V68.0107H133.284C132.701 68.3195 131.942 68.2313 131.172 68.2313H116.5V68.3746C118.788 69.2236 118.524 72.0133 118.524 76.049V89.9312C118.524 89.9973 118.788 93.3163 116.5 94.1322V94.2645H135.528L137.552 88.3654H137.42C135.187 90.3502 132.085 91.2874 129.127 91.0228H129.105Z" fill="white"/>
<path d="M161.908 68.2517H143.804C143.221 68.1634 142.638 68.1634 142.088 67.9429H141.967L140.395 73.2907H140.527C141.923 71.9786 143.936 71.4934 145.861 71.4934H150.051V87.9117C150.051 89.9295 150.315 93.2153 148.072 94.0644V94.1967H156.717V94.0644C154.33 92.6751 154.616 90.9219 154.616 88.3527V71.4824H158.663C160.148 71.4824 161.941 71.7029 162.513 73.2797H162.645L164.086 67.9319H163.943C163.36 68.1965 162.645 68.2406 161.886 68.2406L161.908 68.2517Z" fill="white"/>
<path d="M297.017 88.5089C294.234 90.1739 291.407 91.1663 288.13 90.9898L278.715 90.4495L293.783 68.2424H273.963L271.676 73.4248H271.808C274.15 71.8922 275.756 71.3078 278.539 71.4842L286.172 71.9363L271.016 94.2206H294.663L297.171 88.5089H297.039H297.017Z" fill="white"/>
<path d="M254.205 67.6584C245.967 67.4599 239.488 73.7229 239.488 81.1988C239.488 89.2701 246.044 94.8494 253.82 94.8494C261.596 94.8494 268.261 89.0275 268.261 81.0003C268.261 73.9104 262.454 67.6143 254.216 67.6584H254.205ZM254.007 91.9605C248.056 91.9605 244.372 86.1827 244.372 80.8239C244.372 74.6712 248.21 70.5363 253.93 70.5363C260.056 70.5363 263.367 76.3362 263.367 81.8052C263.367 87.8918 259.616 91.9716 254.007 91.9716V91.9605Z" fill="white"/>
<path d="M75.6158 81.0003C75.6158 73.9104 69.8085 67.6143 61.5594 67.6584C53.3213 67.4599 46.832 73.7229 46.832 81.1988C46.832 89.2701 53.3983 94.8494 61.1634 94.8494C62.4723 94.8494 63.7371 94.684 64.936 94.3753C68.4886 97.176 74.142 101.41 78.1455 101.41C79.9383 101.41 81.7091 100.738 83.139 99.6018C78.2445 99.5687 73.5041 96.0072 69.4675 92.3906C73.1521 89.9537 75.6048 85.885 75.6048 81.0003H75.6158ZM51.7265 80.8239C51.7265 74.6712 55.5761 70.5363 61.2844 70.5363C67.4217 70.5363 70.7214 76.3362 70.7214 81.8052C70.7214 87.8918 66.9598 91.9716 61.3504 91.9716C55.4001 91.9716 51.7155 86.1937 51.7155 80.8349L51.7265 80.8239Z" fill="white"/>
<path d="M191.307 68.2534H180.309V68.3857C182.596 69.0583 182.288 72.3442 182.288 74.4172V87.7591C182.288 90.4164 182.552 92.5666 180.309 94.0992V94.2426H191.076C200.337 94.2426 207.564 88.8176 207.564 81.0771C207.564 73.3366 200.92 68.2644 191.307 68.2644V68.2534ZM190.142 91.2875C189.009 91.2875 187.942 91.1993 186.864 90.9788V71.7157C188.217 71.407 189.559 71.2195 190.9 71.2195C197.896 71.2195 202.449 74.6708 202.449 81.5512C202.449 88.4317 196.246 91.2875 190.142 91.2875Z" fill="white"/>
<path d="M231.734 88.3542L226.994 81.8817C230.843 80.8894 234.099 78.1769 234.099 74.6815C234.099 71.1862 230.008 68.2642 224.354 68.2642H212.52V68.4075C214.807 69.2565 214.488 72.5424 214.488 74.6153V87.8249C214.488 89.8428 214.796 93.1727 212.52 93.9777V94.11H221.088V93.9777C218.8 93.1727 219.064 89.8869 219.064 87.8249V71.1641C220.087 70.9766 222.242 70.8443 223.276 70.8002C226.279 70.6679 229.645 71.7705 229.645 75.3872C229.645 79.0039 224.519 80.4042 220.747 81.0106L225.641 87.1303L229.502 91.9819C230.854 93.6469 232.658 94.2313 235.034 94.2313H238.796C236.233 92.6104 233.626 90.6918 231.734 88.3542Z" fill="white"/>
<path d="M0 119.872L4.05855 110.345H5.01544L9.23897 119.872H7.85312L6.59926 117.082H2.58471L1.39684 119.872H0ZM3.10165 115.858H6.03833L4.5205 112.429L3.11265 115.858H3.10165Z" fill="white"/>
<path d="M12.6836 119.875V110.403H15.0593C16.0162 110.403 16.7751 110.646 17.3361 111.12C17.886 111.594 18.172 112.245 18.172 113.05C18.172 113.601 18.04 114.064 17.765 114.472C17.4901 114.88 17.1051 115.167 16.5882 115.376C16.8521 115.553 17.1161 115.784 17.3801 116.082C17.644 116.38 17.842 116.644 17.996 116.887C18.15 117.118 18.381 117.493 18.6999 118.012C18.9529 118.419 19.3708 119.037 19.9868 119.886H18.359L17.1161 117.945C16.5442 117.041 16.0822 116.457 15.7303 116.192C15.3783 115.917 15.0043 115.784 14.6084 115.784H14.0364V119.897H12.6836V119.875ZM14.0364 114.549H14.9053C15.5763 114.549 16.0602 114.406 16.3462 114.119C16.6322 113.833 16.7641 113.48 16.7641 113.05V113.006C16.7421 112.057 16.1262 111.572 14.9053 111.572H14.0364V114.549Z" fill="white"/>
<path d="M22.6047 111.627V110.403H30.5019V111.627H27.2242V119.875H25.8714V111.627H22.5938H22.6047Z" fill="white"/>
<path d="M40.375 119.875V110.403H41.7278V114.527H47.0183V110.403H48.3711V119.875H47.0183V115.751H41.7278V119.875H40.375Z" fill="white"/>
<path d="M52.4297 115.143C52.4297 113.787 52.9026 112.64 53.8485 111.703C54.7944 110.755 56.0043 110.292 57.5111 110.292C59.018 110.292 60.2498 110.766 61.1847 111.703C62.1196 112.64 62.5926 113.798 62.5926 115.154C62.5926 116.51 62.1306 117.635 61.1957 118.583C60.2608 119.532 59.0289 120.006 57.4891 120.006C55.9493 120.006 54.7834 119.532 53.8485 118.583C52.9136 117.635 52.4517 116.488 52.4517 115.154L52.4297 115.143ZM54.8714 112.552C54.1785 113.236 53.8265 114.096 53.8265 115.132C53.8265 116.169 54.1785 117.029 54.8714 117.712C55.5643 118.396 56.4442 118.738 57.5001 118.738C58.556 118.738 59.4469 118.396 60.1398 117.712C60.8327 117.029 61.1847 116.169 61.1847 115.132C61.1847 114.096 60.8327 113.236 60.1398 112.552C59.4469 111.868 58.567 111.526 57.5111 111.526C56.4552 111.526 55.5863 111.868 54.8934 112.552H54.8714Z" fill="white"/>
<path d="M66.6367 119.875V110.403H69.0125C69.9693 110.403 70.7283 110.646 71.2892 111.12C71.8391 111.594 72.1251 112.245 72.1251 113.05C72.1251 113.601 71.9931 114.064 71.7181 114.472C71.4432 114.88 71.0582 115.167 70.5413 115.376C70.8052 115.553 71.0692 115.784 71.3332 116.082C71.5972 116.38 71.7951 116.644 71.9491 116.887C72.1031 117.118 72.3341 117.493 72.653 118.012C72.906 118.419 73.324 119.037 73.9399 119.886H72.3121L71.0692 117.945C70.4973 117.041 70.0353 116.457 69.6834 116.192C69.3314 115.917 68.9575 115.784 68.5615 115.784H67.9896V119.897H66.6367V119.875ZM67.9896 114.549H68.8585C69.5294 114.549 70.0133 114.406 70.2993 114.119C70.5853 113.833 70.7173 113.48 70.7173 113.05V113.006C70.6953 112.057 70.0793 111.572 68.8585 111.572H67.9896V114.549Z" fill="white"/>
<path d="M77.332 119.875V110.403H78.6849V118.651H82.9524V119.875H77.332Z" fill="white"/>
<path d="M86.0898 115.143C86.0898 113.787 86.5628 112.64 87.5087 111.703C88.4546 110.755 89.6644 110.292 91.1713 110.292C92.6781 110.292 93.91 110.766 94.8449 111.703C95.7798 112.64 96.2527 113.798 96.2527 115.154C96.2527 116.51 95.7908 117.635 94.8559 118.583C93.921 119.532 92.6891 120.006 91.1493 120.006C89.6095 120.006 88.4436 119.532 87.5087 118.583C86.5738 117.635 86.1118 116.488 86.1118 115.154L86.0898 115.143ZM88.5426 112.552C87.8497 113.236 87.4977 114.096 87.4977 115.132C87.4977 116.169 87.8497 117.029 88.5426 117.712C89.2355 118.396 90.1154 118.738 91.1713 118.738C92.2272 118.738 93.1181 118.396 93.811 117.712C94.5039 117.029 94.8559 116.169 94.8559 115.132C94.8559 114.096 94.5039 113.236 93.811 112.552C93.1181 111.868 92.2382 111.526 91.1823 111.526C90.1264 111.526 89.2575 111.868 88.5646 112.552H88.5426Z" fill="white"/>
<path d="M99.9297 115.199C99.9297 113.798 100.414 112.629 101.382 111.692C102.349 110.755 103.559 110.281 105 110.281C105.55 110.281 106.067 110.336 106.551 110.446C107.035 110.556 107.629 110.766 108.377 111.086V112.453C107.255 111.835 106.122 111.527 104.978 111.527C103.955 111.527 103.097 111.869 102.393 112.563C101.689 113.258 101.338 114.118 101.338 115.154C101.338 116.191 101.7 117.073 102.415 117.735C103.13 118.396 104.043 118.738 105.165 118.738C105.748 118.738 106.43 118.617 107.222 118.363V116.422H105.407V115.199H108.575V119.212C107.409 119.73 106.221 119.984 105.011 119.984H104.978C103.526 119.984 102.327 119.532 101.371 118.628C100.414 117.724 99.9407 116.577 99.9407 115.188L99.9297 115.199Z" fill="white"/>
<path d="M112.914 119.875V110.403H118.27V111.627H114.267V114.494H118.138V115.718H114.267V118.662H118.402V119.886H112.914V119.875Z" fill="white"/>
<path d="M122.246 119.875V110.403H124.622C125.579 110.403 126.338 110.646 126.899 111.12C127.449 111.594 127.734 112.245 127.734 113.05C127.734 113.601 127.602 114.064 127.328 114.472C127.053 114.869 126.668 115.167 126.151 115.376C126.415 115.553 126.679 115.784 126.943 116.082C127.207 116.38 127.405 116.644 127.559 116.887C127.712 117.118 127.943 117.493 128.262 118.012C128.515 118.419 128.944 119.037 129.549 119.886H127.932L126.69 117.945C126.118 117.041 125.656 116.457 125.304 116.192C124.952 115.928 124.578 115.784 124.182 115.784H123.61V119.897H122.257L122.246 119.875ZM123.599 114.549H124.468C125.139 114.549 125.623 114.406 125.909 114.119C126.184 113.844 126.327 113.48 126.327 113.05V113.006C126.305 112.057 125.689 111.572 124.468 111.572H123.599V114.549Z" fill="white"/>
<path d="M138.691 112.806C138.691 112.034 138.955 111.428 139.472 110.964C139.989 110.501 140.693 110.281 141.562 110.281C142.299 110.281 143.003 110.501 143.663 110.942V112.486C142.97 111.835 142.233 111.505 141.441 111.505C141.012 111.505 140.649 111.604 140.374 111.813C140.088 112.023 139.956 112.288 139.956 112.629C139.956 112.905 140.055 113.159 140.264 113.401C140.462 113.644 140.715 113.842 141.023 114.008C141.331 114.173 141.65 114.361 142.002 114.581C142.354 114.802 142.684 115.022 142.981 115.243C143.278 115.463 143.531 115.772 143.74 116.147C143.938 116.522 144.048 116.952 144.048 117.426C144.048 118.165 143.795 118.782 143.3 119.267C142.805 119.752 142.167 119.995 141.408 119.995C140.418 119.995 139.538 119.708 138.768 119.124V117.404C139.483 118.319 140.308 118.782 141.265 118.782C141.76 118.782 142.134 118.661 142.398 118.407C142.662 118.154 142.794 117.889 142.794 117.591C142.794 117.227 142.651 116.897 142.376 116.599C142.101 116.301 141.76 116.037 141.353 115.805C140.957 115.573 140.561 115.331 140.154 115.077C139.758 114.824 139.417 114.504 139.131 114.118C138.845 113.732 138.713 113.302 138.713 112.828L138.691 112.806Z" fill="white"/>
<path d="M147.699 116.289V110.401H149.052V116.002C149.052 116.532 149.096 116.929 149.173 117.204C149.25 117.48 149.404 117.722 149.624 117.932C150.163 118.472 150.845 118.737 151.659 118.737C152.627 118.737 153.364 118.483 153.87 117.976C154.265 117.579 154.463 116.884 154.463 115.903V110.39H155.816V116.135C155.816 117.325 155.464 118.263 154.749 118.946C154.046 119.63 153.001 119.972 151.626 119.972C150.537 119.972 149.613 119.663 148.843 119.035C148.073 118.406 147.699 117.491 147.699 116.278V116.289Z" fill="white"/>
<path d="M160.098 119.875V110.403H161.451V119.875H160.098Z" fill="white"/>
<path d="M165.441 112.806C165.441 112.034 165.705 111.428 166.222 110.964C166.739 110.501 167.443 110.281 168.312 110.281C169.049 110.281 169.753 110.501 170.413 110.942V112.486C169.72 111.835 168.983 111.505 168.191 111.505C167.762 111.505 167.399 111.604 167.124 111.813C166.838 112.023 166.706 112.288 166.706 112.629C166.706 112.905 166.805 113.159 167.014 113.401C167.212 113.644 167.465 113.842 167.773 114.008C168.081 114.173 168.4 114.361 168.752 114.581C169.104 114.802 169.434 115.022 169.731 115.243C170.028 115.463 170.281 115.772 170.49 116.147C170.688 116.522 170.798 116.952 170.798 117.426C170.798 118.165 170.545 118.782 170.05 119.267C169.555 119.752 168.917 119.995 168.158 119.995C167.168 119.995 166.288 119.708 165.518 119.124V117.404C166.233 118.319 167.058 118.782 168.015 118.782C168.51 118.782 168.884 118.661 169.148 118.407C169.412 118.154 169.544 117.889 169.544 117.591C169.544 117.227 169.401 116.897 169.126 116.599C168.851 116.301 168.51 116.037 168.103 115.805C167.707 115.573 167.311 115.331 166.904 115.077C166.508 114.824 166.167 114.504 165.881 114.118C165.595 113.732 165.463 113.302 165.463 112.828L165.441 112.806Z" fill="white"/>
<path d="M174.16 112.806C174.16 112.034 174.424 111.428 174.941 110.964C175.458 110.501 176.162 110.281 177.031 110.281C177.768 110.281 178.472 110.501 179.132 110.942V112.486C178.439 111.835 177.702 111.505 176.91 111.505C176.481 111.505 176.118 111.604 175.843 111.813C175.557 112.023 175.425 112.288 175.425 112.629C175.425 112.905 175.524 113.159 175.733 113.401C175.931 113.644 176.184 113.842 176.492 114.008C176.8 114.173 177.119 114.361 177.471 114.581C177.823 114.802 178.153 115.022 178.45 115.243C178.747 115.463 179 115.772 179.209 116.147C179.407 116.522 179.517 116.952 179.517 117.426C179.517 118.165 179.264 118.782 178.769 119.267C178.274 119.752 177.636 119.995 176.877 119.995C175.887 119.995 175.007 119.708 174.237 119.124V117.404C174.952 118.319 175.777 118.782 176.734 118.782C177.229 118.782 177.603 118.661 177.867 118.407C178.131 118.154 178.263 117.889 178.263 117.591C178.263 117.227 178.12 116.897 177.845 116.599C177.57 116.301 177.229 116.037 176.822 115.805C176.426 115.573 176.03 115.331 175.623 115.077C175.227 114.824 174.886 114.504 174.6 114.118C174.314 113.732 174.182 113.302 174.182 112.828L174.16 112.806Z" fill="white"/>
<path d="M183.355 119.875V110.403H188.712V111.627H184.708V114.494H188.58V115.718H184.708V118.662H188.844V119.886H183.355V119.875Z" fill="white"/>
<path d="M198.898 119.875V110.403H202.561C203.397 110.403 204.145 110.547 204.816 110.822C205.476 111.109 206.004 111.473 206.4 111.936C206.796 112.399 207.093 112.895 207.291 113.447C207.488 113.998 207.598 114.56 207.598 115.145C207.598 116.424 207.137 117.537 206.213 118.475C205.289 119.412 204.079 119.886 202.583 119.886H198.909L198.898 119.875ZM200.251 118.651H202.418C203.001 118.651 203.518 118.563 203.98 118.397C204.442 118.221 204.805 118.012 205.069 117.758C205.333 117.504 205.553 117.207 205.74 116.876C205.916 116.545 206.037 116.236 206.103 115.95C206.169 115.663 206.191 115.398 206.191 115.145C206.191 114.13 205.861 113.292 205.212 112.62C204.552 111.958 203.606 111.627 202.352 111.627H200.251V118.662V118.651Z" fill="white"/>
<path d="M211.656 119.875V110.403H217.013V111.627H213.009V114.494H216.881V115.718H213.009V118.662H217.145V119.886H211.656V119.875Z" fill="white"/>
<path d="M220.883 119.875V110.403H223.841C224.831 110.403 225.579 110.657 226.085 111.164C226.591 111.671 226.844 112.333 226.844 113.127C226.844 113.921 226.569 114.549 226.03 115.045C225.491 115.531 224.699 115.784 223.655 115.784H222.236V119.875H220.883ZM222.236 114.56H223.775C224.281 114.56 224.688 114.428 224.996 114.163C225.293 113.899 225.447 113.535 225.447 113.072C225.447 112.664 225.315 112.322 225.073 112.046C224.82 111.771 224.413 111.627 223.841 111.627H222.247V114.56H222.236Z" fill="white"/>
<path d="M230.203 116.289V110.401H231.556V116.002C231.556 116.532 231.6 116.929 231.677 117.204C231.754 117.48 231.908 117.722 232.128 117.932C232.667 118.472 233.349 118.737 234.163 118.737C235.131 118.737 235.867 118.483 236.373 117.976C236.769 117.579 236.967 116.884 236.967 115.903V110.39H238.32V116.135C238.32 117.325 237.968 118.263 237.253 118.946C236.549 119.63 235.505 119.972 234.13 119.972C233.041 119.972 232.117 119.663 231.347 119.035C230.577 118.406 230.203 117.491 230.203 116.278V116.289Z" fill="white"/>
<path d="M242.613 119.875V110.403H243.966V119.875H242.613Z" fill="white"/>
<path d="M247.938 112.806C247.938 112.034 248.201 111.428 248.718 110.964C249.235 110.501 249.939 110.281 250.808 110.281C251.545 110.281 252.249 110.501 252.909 110.942V112.486C252.216 111.835 251.479 111.505 250.687 111.505C250.258 111.505 249.895 111.604 249.62 111.813C249.334 112.023 249.202 112.288 249.202 112.629C249.202 112.905 249.301 113.159 249.51 113.401C249.708 113.644 249.961 113.842 250.269 114.008C250.577 114.173 250.896 114.361 251.248 114.581C251.6 114.802 251.93 115.022 252.227 115.243C252.524 115.463 252.777 115.772 252.986 116.147C253.184 116.522 253.294 116.952 253.294 117.426C253.294 118.165 253.041 118.782 252.546 119.267C252.051 119.752 251.413 119.995 250.654 119.995C249.664 119.995 248.784 119.708 248.014 119.124V117.404C248.729 118.319 249.554 118.782 250.511 118.782C251.006 118.782 251.38 118.661 251.644 118.407C251.908 118.154 252.04 117.889 252.04 117.591C252.04 117.227 251.897 116.897 251.622 116.599C251.347 116.301 251.006 116.037 250.599 115.805C250.203 115.573 249.807 115.331 249.4 115.077C249.004 114.824 248.663 114.504 248.377 114.118C248.091 113.732 247.96 113.302 247.96 112.828L247.938 112.806Z" fill="white"/>
<path d="M265.125 119.875V110.403H266.478V119.875H265.125Z" fill="white"/>
<path d="M272.312 111.693V110.403H278.428L274.149 119.996L272.95 119.478L276.415 111.693H272.323H272.312Z" fill="white"/>
<path d="M281.82 119.455V117.977C282.535 118.451 283.228 118.694 283.921 118.705C284.383 118.705 284.746 118.573 285.032 118.297C285.307 118.021 285.45 117.657 285.45 117.194C285.45 116.698 285.274 116.301 284.922 116.003C284.57 115.706 284.075 115.573 283.426 115.607V114.361C284.042 114.361 284.504 114.239 284.823 113.997C285.142 113.754 285.296 113.412 285.296 112.982C285.296 112.552 285.153 112.199 284.856 111.946C284.559 111.692 284.163 111.56 283.668 111.56C283.195 111.56 282.667 111.703 282.062 111.968V110.678C282.612 110.413 283.206 110.281 283.877 110.281C284.713 110.281 285.384 110.501 285.89 110.953C286.396 111.405 286.649 112.001 286.649 112.751C286.649 113.28 286.561 113.71 286.374 114.03C286.187 114.349 285.879 114.636 285.45 114.879C285.89 115.022 286.231 115.298 286.462 115.717C286.693 116.136 286.803 116.599 286.803 117.128C286.803 117.966 286.528 118.661 285.978 119.201C285.428 119.741 284.713 120.006 283.833 120.006C283.195 120.006 282.524 119.83 281.82 119.466V119.455Z" fill="white"/>
<path d="M290.684 117.304C290.684 116.323 291.124 115.573 292.014 115.044C291.267 114.493 290.893 113.82 290.893 113.004C290.893 112.188 291.168 111.582 291.728 111.063C292.278 110.545 292.971 110.292 293.796 110.292C294.621 110.292 295.248 110.556 295.787 111.074C296.326 111.593 296.59 112.254 296.59 113.037C296.59 113.82 296.194 114.537 295.424 115.055C295.842 115.275 296.172 115.584 296.392 115.992C296.612 116.4 296.733 116.841 296.733 117.337C296.733 118.098 296.447 118.738 295.864 119.245C295.281 119.752 294.577 120.017 293.741 120.017C292.905 120.017 292.168 119.763 291.574 119.245C290.992 118.727 290.695 118.087 290.695 117.326L290.684 117.304ZM292.036 117.205C292.036 117.635 292.19 117.999 292.509 118.275C292.828 118.55 293.224 118.694 293.697 118.694C294.225 118.694 294.632 118.55 294.929 118.253C295.215 117.966 295.369 117.613 295.369 117.194C295.369 116.775 295.215 116.4 294.907 116.124C294.599 115.838 294.214 115.705 293.73 115.705C293.224 115.705 292.817 115.838 292.498 116.124C292.19 116.4 292.036 116.764 292.036 117.205ZM292.256 112.971C292.256 113.357 292.399 113.699 292.696 113.985C292.993 114.272 293.345 114.415 293.741 114.415C294.137 114.415 294.5 114.272 294.786 113.996C295.072 113.721 295.226 113.379 295.226 113.004C295.226 112.596 295.094 112.254 294.819 111.979C294.544 111.703 294.192 111.571 293.774 111.571C293.323 111.571 292.96 111.703 292.674 111.956C292.399 112.21 292.256 112.552 292.256 112.982V112.971Z" fill="white"/>
</g>
<defs>
<clipPath id="clip0_1072_10158">
<rect width="297.143" height="120" fill="white"/>
</clipPath>
</defs>
</svg>
