<svg width="90" height="18" viewBox="0 0 90 18" fill="none" xmlns="http://www.w3.org/2000/svg">
<g clip-path="url(#clip0_1189_13206)">
<path d="M10.3317 0.509607C6.58962 0.535189 3.37415 2.0652 1.49112 4.26344C8.33615 2.83209 13.9489 3.35708 18.1249 4.03222C18.1413 3.91417 18.1668 3.79992 18.1793 3.6922C18.1826 3.66446 18.1782 3.63834 18.1793 3.6106V3.52899C18.206 3.00345 17.9269 2.50294 17.4585 2.26411C15.0112 1.01433 12.5769 0.494261 10.3317 0.509607ZM34.4459 3.13457L32.3378 12.5327H34.7995L36.9077 3.13457H34.4459ZM77.6014 3.13457L76.7445 7.06521H76.7173C76.3523 6.36395 75.5008 5.85473 74.2692 5.85473C71.8602 5.85473 70.6921 7.84753 70.6921 9.98939C70.6921 11.4545 71.8014 12.6824 73.3171 12.6824C74.6712 12.6824 75.2517 12.2118 75.8741 11.4855H75.9013L75.7108 12.5327H77.955C77.9822 12.27 78.0235 11.9419 78.1046 11.5535L79.9951 3.13457H77.6014ZM52.4126 3.78741L50.3589 12.5327H52.6574L54.3031 5.3651H54.3303L54.6704 12.5327H57.0641L60.7635 5.3651H60.7907L59.077 12.5327H61.5388L63.5381 3.78741H59.5123L56.5473 9.66297H56.5201L56.3705 3.78741H52.4126ZM87.5572 4.42665C87.0316 4.42665 86.6051 4.85317 86.6051 5.3787C86.6051 5.90479 87.0316 6.33076 87.5572 6.33076C88.0827 6.33077 88.5092 5.90478 88.5092 5.3787C88.5092 4.85317 88.0827 4.42665 87.5572 4.42665ZM87.5572 4.60346C87.9842 4.60346 88.3188 4.95273 88.3188 5.3787C88.3188 5.80469 87.9842 6.15395 87.5572 6.15395C87.1312 6.15395 86.7819 5.80468 86.7819 5.3787C86.7819 4.95273 87.1312 4.60346 87.5572 4.60346ZM87.2716 4.83467L87.0675 5.81393H87.2716L87.3532 5.43311H87.5572C87.7095 5.43311 87.7073 5.48914 87.6796 5.62352C87.6584 5.72471 87.6622 5.76714 87.666 5.81393H87.8836L87.8972 5.78673C87.858 5.77041 87.8531 5.73994 87.8836 5.59632C87.9233 5.41352 87.889 5.38578 87.8156 5.3515C87.92 5.31832 87.9967 5.22801 88.0196 5.12029C88.0376 5.03542 88.0354 4.83467 87.7748 4.83467H87.2716ZM87.4348 5.01148H87.6932C87.8134 5.01148 87.8259 5.08221 87.8156 5.13389C87.7944 5.23073 87.7318 5.2699 87.6252 5.2699H87.3804L87.4348 5.01148ZM21.8652 5.85473C20.7689 5.85473 19.9986 6.00978 19.281 6.23556L19.0362 7.86766C19.8479 7.47976 20.4414 7.36443 21.3211 7.36443C22.1192 7.36443 22.6268 7.73056 22.6268 8.19408C22.6268 8.28167 22.6268 8.3785 22.5996 8.46609C22.2612 8.44107 21.7678 8.39809 21.2803 8.39809C19.1287 8.39809 17.4041 9.18911 17.4041 10.7918C17.4041 12.0567 18.2414 12.6824 19.757 12.6824C20.7042 12.6824 21.6095 12.3728 22.1236 11.6215V11.5943L22.1508 11.6215L22.042 12.5327H24.0277C24.2986 10.5666 24.9253 9.0988 24.9253 8.07167C24.9253 6.4684 23.5435 5.85473 21.8652 5.85473ZM40.7431 5.85473C37.9822 5.85473 36.1868 7.4123 36.1868 9.70377C36.1868 11.3446 37.2472 12.6824 39.8591 12.6824C42.4982 12.6824 44.4017 11.4964 44.4017 8.77891C44.4017 7.13865 43.1385 5.85473 40.7431 5.85473ZM49.8693 5.85473C48.8677 5.85473 48.0854 6.587 47.6931 7.35082H47.6659L47.938 6.00434H45.6802C45.6128 6.59299 45.5029 7.14083 45.381 7.70445L44.2793 12.5327H46.7139L47.4075 9.52696C47.5838 8.56239 48.2018 7.73165 49.23 7.73165C49.6903 7.73165 50.0341 7.79149 50.3453 8.01727L50.9029 6.01794C50.5787 5.89282 50.1941 5.85473 49.8693 5.85473ZM67.1423 5.85473C66.0461 5.85473 65.2752 6.00978 64.5582 6.23556L64.3134 7.86766C65.1251 7.47976 65.7186 7.36443 66.5983 7.36443C67.3969 7.36443 67.8904 7.73056 67.8904 8.19408C67.8904 8.28167 67.8904 8.3785 67.8632 8.46609C67.5248 8.44107 67.0449 8.39809 66.5575 8.39809C64.4053 8.39809 62.6677 9.18911 62.6677 10.7918C62.6676 12.0567 63.5185 12.6824 65.0342 12.6824C65.9814 12.6824 66.8861 12.3728 67.4007 11.6215V11.5943L67.4279 11.6215L67.3191 12.5327H69.3049C69.5758 10.5666 70.2025 9.0988 70.2025 8.07167C70.2025 6.4684 68.8207 5.85473 67.1423 5.85473ZM83.4769 5.85473C80.3373 5.85473 79.2607 8.18864 79.2607 9.70377C79.2607 11.3446 80.538 12.6824 82.8921 12.6824C83.5966 12.6824 84.5013 12.5534 85.3538 12.3151L85.6667 10.7238C84.9904 11.0241 84.1124 11.1727 83.4633 11.1727C81.9743 11.1727 81.5864 10.6226 81.5592 9.92138H86.5507C86.6459 9.53349 86.7275 8.96062 86.7275 8.69731C86.7275 6.7192 85.331 5.85473 83.4769 5.85473ZM25.211 6.00434L26.7615 12.5055C26.4775 13.1698 26.0374 13.58 25.347 13.58C24.8867 13.58 24.5429 13.4772 24.2317 13.3896L23.7149 15.0353C24.1751 15.1724 24.7665 15.3073 25.6326 15.3073C27.1891 15.3073 27.9888 14.5419 28.7064 13.3896L33.3307 6.00434H30.7465L28.3528 10.1254H28.3256L27.6863 6.00434H25.211ZM7.48909 7.16041C7.30099 7.16603 7.10833 7.17259 6.89065 7.20122C3.99041 7.58422 1.73539 8.33008 0.539062 8.79251C0.594005 9.04549 0.652765 9.20217 0.66147 9.22774C0.662018 9.22937 0.675071 9.28214 0.675071 9.28214C1.17272 10.9468 2.80336 12.87 5.51697 14.9945C5.61924 15.0745 5.71826 15.1512 5.81618 15.2257C7.4151 12.8499 8.2899 11.0497 8.90357 9.14613C9.38056 7.66521 8.80572 7.12113 7.48909 7.16041ZM16.2072 7.21482C16.0754 7.21758 15.9447 7.23087 15.8128 7.24202C14.1257 7.38455 13.4843 8.53192 12.5622 10.003C11.8457 11.1455 9.51724 15.2458 8.50915 17.021C9.68916 17.5863 10.7908 17.6184 11.991 17.2386C12.8152 16.9775 13.2363 16.7648 13.7047 16.4226C13.8608 16.3083 13.9963 16.1892 14.0991 16.0418L14.1399 15.9874C14.1535 15.9683 14.1676 15.9525 14.1807 15.9329C15.6964 13.5697 16.7833 9.96055 17.2953 8.01727C17.3568 7.78442 17.4155 7.54015 17.4721 7.31002C17.0078 7.23454 16.6025 7.20653 16.2072 7.21482ZM83.5041 7.36443C84.3969 7.36443 84.701 7.94164 84.701 8.6429H81.7088C81.8851 8.01727 82.4487 7.36443 83.5041 7.36443ZM40.6207 7.43243C41.5679 7.43243 41.8856 8.07602 41.8856 8.75171C41.8856 10.2298 41.1729 11.1047 40.0359 11.1047C39.2106 11.1172 38.7166 10.5258 38.7166 9.64936C38.7166 8.60972 39.4434 7.43243 40.6207 7.43243ZM75.058 7.58204C75.8703 7.58204 76.2141 8.26371 76.2141 8.91492C76.2141 9.77884 75.5286 10.955 74.378 10.955C73.6065 10.955 73.2083 10.4099 73.2083 9.60856C73.2083 8.59394 73.9079 7.58204 75.058 7.58204ZM21.7156 9.59496C21.8646 9.59497 22.1655 9.59877 22.3684 9.63576C22.1927 10.5127 21.5741 11.1727 20.5323 11.1727C20.0182 11.1727 19.7026 10.8343 19.7026 10.5334C19.7026 9.95729 20.5519 9.55742 21.7156 9.59496ZM66.9927 9.59496C67.1412 9.59497 67.4426 9.59877 67.6456 9.63576C67.4698 10.5127 66.8377 11.1727 65.7958 11.1727C65.2817 11.1727 64.9798 10.8343 64.9798 10.5334C64.9798 9.95729 65.829 9.55742 66.9927 9.59496Z" fill="white"/>
</g>
<defs>
<clipPath id="clip0_1189_13206">
<rect width="89.0435" height="18" fill="white"/>
</clipPath>
</defs>
</svg>
