<svg width="300" height="200" viewBox="0 0 300 200" fill="none" xmlns="http://www.w3.org/2000/svg">
<rect width="300" height="200" fill="url(#paint0_linear_636_4595)"/>
<path fill-rule="evenodd" clip-rule="evenodd" d="M60 67.3407C60 35.6723 85.6723 10 117.341 10H182.659C214.328 10 240 35.6723 240 67.3407V132.659C240 163.835 215.12 189.2 184.133 189.981C181.932 175.417 175.616 162.421 166.523 152.019L166.488 152.09L160.213 165.481C164.651 172.706 167.712 181.008 168.981 190H139.08L198.288 63.2116C198.919 61.1432 197.026 59.145 194.922 59.7409V59.776C184.44 62.7558 159.936 68.1196 149.348 56.691C125.825 31.3097 93.6077 49.7497 100.128 51.6778C113.761 55.6705 117.497 63.1332 122.751 73.6292L122.751 73.6292C125.847 79.8139 129.471 87.0519 135.957 95.2536C143.459 104.754 154.712 106.682 164.773 106.016C165.404 105.981 165.86 106.542 165.65 107.138L150.26 138.163C136.377 129.294 119.515 124.912 101.881 126.84C86.2666 128.544 72.2947 134.933 61.2151 144.458C60.4187 140.65 60 136.704 60 132.659V67.3407ZM145.036 148.716L124.538 190H117.341C94.5251 190 74.8217 176.675 65.5887 157.382C75.0557 146.399 88.2819 138.869 103.459 137.147C118.814 135.394 133.432 139.916 145.036 148.716Z" fill="#0A1A11"/>
<defs>
<linearGradient id="paint0_linear_636_4595" x1="0" y1="0" x2="184.615" y2="276.923" gradientUnits="userSpaceOnUse">
<stop stop-color="#C7F7FD"/>
<stop offset="1" stop-color="#C8F843"/>
</linearGradient>
</defs>
</svg>
