<?xml version="1.0" encoding="UTF-8"?>
<svg id="Layer_1" xmlns="http://www.w3.org/2000/svg" viewBox="0 0 144 144">
  <defs>
    <style>
      .cls-1 {
        fill: #fff;
      }

      .cls-2 {
        fill: #282f42;
      }
    </style>
  </defs>
  <rect class="cls-2" x="0" y="0" width="144" height="144" rx="72" ry="72"/>
  <path class="cls-1" d="M52.02,115.57c5.92,3.51,12.83,5.36,19.98,5.36,19.78,0,35.88-14.21,35.88-31.67v-24.99c0-.66-.79-1.02-1.31-.6l-52.35,42.2c-3-2.32-5.34-5.19-6.82-8.38l59.65-48.08c.25-.2.35-.53.25-.84l-.78-2.45c-4.34-13.56-18.54-23.03-34.52-23.03-19.78,0-35.88,14.21-35.88,31.67v34.51c0,2.71.39,5.41,1.16,8.02,2.21,7.48,7.44,13.97,14.74,18.29ZM63.6,110.25l34.53-27.84c.12-.1.31-.01.31.14v6.7c0,12.38-11.86,22.46-26.44,22.46-2.86,0-5.67-.39-8.34-1.14-.15-.04-.18-.23-.07-.32ZM45.56,54.74c0-12.39,11.86-22.46,26.44-22.46,10.66,0,20.2,5.47,24.3,13.64.04.08.02.17-.05.23l-50.38,40.61c-.12.1-.31.01-.31-.14v-31.87Z"/>
</svg>