<svg width="509" height="509" viewBox="0 0 509 509" fill="none" xmlns="http://www.w3.org/2000/svg">
<rect width="509" height="509" rx="254.5" fill="#0A1A11"/>
<path d="M279.711 345.596C290.374 347.88 299.141 351.112 304.424 354.789L312.901 360.672L319.384 352.641C335.079 333.211 343.052 309.117 342.259 284.094C343.942 308.749 336.414 332.766 320.835 352.157C305.508 371.239 284.085 383.682 260.087 387.553L279.692 345.596H279.711Z" fill="#C8F843"/>
<path d="M285.884 358.617C289.406 359.681 292.29 360.803 294.515 361.868C290.142 364.964 285.497 367.635 280.62 369.86L285.884 358.617ZM326.66 218.891L317.526 238.437C324.531 249.855 329.195 263.073 330.705 277.452C333.395 303.094 325.518 327.381 310.772 345.689C302.76 340.115 289.484 335.664 273.305 333.168L249.056 385.052L242.128 399.896C242.902 399.896 243.676 399.915 244.45 399.915C248.34 399.915 252.249 399.722 256.197 399.296C316.171 392.755 359.502 338.838 352.96 278.864C350.445 255.777 340.884 235.186 326.68 218.929L326.66 218.891Z" fill="#C8F843"/>
<path d="M368.152 84.3121C352.864 88.6664 317.158 96.4849 301.715 79.8223C267.403 42.8201 220.453 69.7202 229.975 72.5263C261.539 81.7769 256.681 103.82 282.207 136.061C293.161 149.898 309.572 152.724 324.203 151.737C325.093 151.679 325.77 152.511 325.499 153.382L303.05 198.609C282.827 185.681 258.229 179.295 232.51 182.101C172.517 188.623 129.205 242.539 135.747 302.513C140.391 345.069 168.898 379.207 206.48 393.122L183.954 438.523C182.232 441.987 184.399 446.129 188.231 446.671L200.81 448.49C203.287 448.857 205.706 447.541 206.771 445.277L373.049 89.3438C373.977 86.3054 371.191 83.4412 368.133 84.3121H368.152ZM237.309 331C211.377 331.677 189.063 336.999 176.852 344.644C166.556 331.522 159.667 315.247 157.77 297.114C152.564 247.319 187.05 202.537 234.813 197.099C257.204 194.545 278.53 201.125 295.406 213.955L237.309 331Z" fill="#C8F843"/>
</svg>
