<svg width="509" height="509" viewBox="0 0 509 509" fill="none" xmlns="http://www.w3.org/2000/svg">
<rect width="509" height="509" rx="100" fill="url(#paint0_linear_459_4335)"/>
<path d="M283.722 359.896C296.059 362.538 306.202 366.277 312.314 370.531L322.121 377.338L329.622 368.046C347.781 345.566 357.006 317.689 356.088 288.738C358.036 317.264 349.326 345.051 331.302 367.486C313.568 389.563 288.782 403.96 261.018 408.438L283.699 359.896H283.722Z" fill="#0A1A11"/>
<path d="M290.864 374.961C294.939 376.192 298.275 377.491 300.85 378.722C295.79 382.305 290.416 385.395 284.774 387.97L290.864 374.961ZM338.041 213.301L327.472 235.915C335.578 249.126 340.974 264.418 342.72 281.055C345.833 310.722 336.72 338.822 319.658 360.004C310.388 353.555 295.028 348.406 276.31 345.517L248.255 405.546L240.239 422.72C241.134 422.72 242.03 422.742 242.926 422.742C247.426 422.742 251.949 422.518 256.517 422.026C325.905 414.458 376.038 352.078 368.47 282.689C365.559 255.977 354.498 232.154 338.063 213.346L338.041 213.301Z" fill="#0A1A11"/>
<path d="M386.046 57.5953C368.358 62.6331 327.047 71.6789 309.179 52.4007C269.481 9.58988 215.161 40.7128 226.178 43.9594C262.697 54.6621 257.077 80.165 286.61 117.468C299.283 133.477 318.27 136.746 335.197 135.604C336.227 135.537 337.011 136.5 336.697 137.507L310.724 189.834C287.326 174.877 258.868 167.488 229.111 170.735C159.7 178.28 109.59 240.661 117.158 310.049C122.532 359.286 155.513 398.783 198.995 414.882L172.933 467.41C170.94 471.418 173.448 476.209 177.881 476.836L192.435 478.941C195.301 479.366 198.1 477.844 199.331 475.224L391.711 63.4168C392.786 59.9015 389.562 56.5877 386.024 57.5953H386.046ZM234.664 343.008C204.66 343.792 178.844 349.949 164.715 358.793C152.804 343.612 144.833 324.782 142.638 303.802C136.615 246.191 176.515 194.379 231.775 188.088C257.681 185.132 282.355 192.745 301.88 207.59L234.664 343.008Z" fill="#0A1A11"/>
<defs>
<linearGradient id="paint0_linear_459_4335" x1="0" y1="0" x2="509" y2="509" gradientUnits="userSpaceOnUse">
<stop stop-color="#C7F7FD"/>
<stop offset="1" stop-color="#C8F843"/>
</linearGradient>
</defs>
</svg>
