<svg width="72" height="48" viewBox="0 0 72 48" fill="none" xmlns="http://www.w3.org/2000/svg">
<g clip-path="url(#clip0_1242_864)">
<path d="M31.5135 35.083H30.6641V44.6492H31.5135V35.083Z" fill="#1D1D1B"/>
<path d="M34.0666 35.083H33.2148V44.6492H34.0666V35.083Z" fill="#1D1D1B"/>
<path d="M16.1906 14.0629C16.9165 14.2819 17.6284 14.5454 18.3221 14.8521C18.5117 14.9462 18.6365 15.2624 18.6365 15.6076C18.6365 15.7982 18.8238 16.9953 18.8862 17.3742C18.9487 17.7531 18.855 17.9728 18.7614 17.9728C18.6053 17.9728 18.5741 17.91 18.3846 17.4684C17.4481 15.1973 15.689 13.9374 12.3646 13.9374C9.98115 13.9374 7.66235 14.9776 6.21979 16.5223C4.7148 18.1611 3.52196 20.7169 3.52196 24.1851C3.52196 27.9044 5.6557 30.774 7.3123 32.1304C8.76877 33.2933 10.5632 33.946 12.4226 33.9889C14.0547 33.9889 15.5596 33.3164 16.3422 32.5384C16.7503 32.0654 16.7503 31.5609 16.8127 30.8054C16.9031 29.6305 16.9135 28.4508 16.8439 27.2744C16.7503 26.1714 16.3735 25.8239 14.9933 25.6356C14.6812 25.602 14.4604 25.5078 14.4604 25.3823C14.4604 25.2567 14.5875 25.1581 15.2141 25.194C15.7157 25.194 16.5318 25.2881 17.6287 25.2881C18.7257 25.2881 19.1895 25.2253 19.4459 25.2253C19.7023 25.2253 19.9498 25.2881 19.9498 25.4137C19.9498 25.5392 19.5729 25.667 19.3522 25.7298C18.9063 25.8239 18.7257 26.0436 18.7257 27.7161C18.7257 29.0388 18.8818 31.3031 18.8818 31.7515C18.8818 32.1999 18.913 32.3815 18.6588 32.507C18.4046 32.6326 17.874 32.9173 17.185 33.2648C15.7737 33.9261 14.2687 34.4933 12.5452 34.4933C9.12721 34.4933 6.58545 33.3276 4.5788 31.5296C2.38486 29.671 1.23438 27.0839 1.23438 23.9945C1.23437 20.7416 2.48742 18.0042 5.43497 15.7354C6.87753 14.6615 8.75263 13.4644 12.7102 13.4644C14.2464 13.4644 15.4682 13.9127 16.1906 14.0629Z" fill="#488F4B"/>
<path d="M26.4924 16.3226C24.6708 18.3695 24.0532 21.2997 24.0532 23.7545C24.0532 25.9964 25.0298 28.5746 26.4278 30.3995C28.6395 33.2647 31.11 33.8969 32.965 33.8969C34.2272 33.9092 35.4597 33.5113 36.4789 32.7625C38.2626 31.4711 40.4141 28.541 40.4141 24.259C40.363 21.38 39.2763 18.6171 37.3551 16.4818C36.6357 15.666 35.7478 15.0181 34.7534 14.5832C33.7591 14.1483 32.6822 13.9371 31.5982 13.9642C29.7789 13.9642 27.5983 15.0963 26.4924 16.3249V16.3226ZM42.6571 23.9272C42.6571 29.0297 39.0897 32.4778 36.5747 33.5494C35.2556 34.1441 33.8307 34.4651 32.3853 34.4932C26.5883 34.4932 21.7812 29.9153 21.7812 23.7321C21.7812 20.5935 22.8559 17.8113 25.9774 15.5133C27.6362 14.2534 30.1735 13.4956 32.2537 13.4956C37.7497 13.4956 42.6616 17.7776 42.6616 23.9339L42.6571 23.9272Z" fill="#488F4B"/>
<path d="M44.29 13.9059C45.2309 13.9059 46.1718 14.0315 46.9231 14.0315C47.7392 14.0315 48.6801 13.9059 49.2129 13.9059C49.5898 13.9059 49.7146 14.0001 49.7146 14.0629C49.7146 14.1884 49.5898 14.2871 49.3378 14.3476C47.9577 14.6301 47.9265 14.8206 47.8016 17.0894C47.7704 17.6252 47.7704 20.3379 47.7704 23.2076C47.7704 26.2969 47.8016 29.5432 47.8328 30.144C47.9265 31.4353 47.9889 32.35 48.2787 32.6975C48.6243 33.1459 49.4694 33.4844 52.1672 33.4844C53.8282 33.4844 54.6443 33.4217 55.1147 33.3275C55.8349 33.2019 56.4302 32.5383 57.059 31.3726C57.215 31.0901 57.4023 30.9242 57.5294 30.9242C57.6565 30.9242 57.5918 31.3726 57.4647 31.7133C57.3711 31.9958 56.8382 33.6055 56.6822 33.8252C56.6236 33.9156 56.545 33.9913 56.4526 34.0461C56.3601 34.1009 56.2563 34.1335 56.1493 34.1413C55.8349 34.1413 53.389 34.1727 51.8528 34.0785C50.2542 34.0135 47.9019 33.9194 46.961 33.9194C46.0201 33.9194 44.6422 34.0785 44.2342 34.0785C43.8262 34.0785 43.6055 34.0135 43.6055 33.8543C43.6055 33.6952 43.8886 33.6301 44.1383 33.6032C45.5497 33.3499 45.6991 32.8769 45.8016 31.9308C45.9265 30.6395 45.9265 28.5679 45.9265 24.1761C45.9265 19.8873 45.8953 17.6477 45.8329 16.6388C45.7392 14.7803 45.6768 14.5897 44.2342 14.3386C43.8886 14.2759 43.7883 14.1795 43.7883 14.0539C43.7883 13.9911 43.9444 13.897 44.29 13.897V13.9059Z" fill="#488F4B"/>
<path d="M69.786 13.9372C70.5708 13.9372 70.7894 14.0314 70.8206 14.2533C70.883 14.7578 70.9766 15.9549 71.0435 16.3966C71.106 16.7127 71.0435 16.9638 70.9164 16.9638C70.7894 16.9638 70.6667 16.6791 70.5106 16.3338C69.9755 15.1344 69.3178 14.7892 68.2208 14.695C67.1863 14.5986 65.7437 14.5986 62.7338 14.5986C62.4818 14.5986 62.2321 15.047 62.2321 15.1972C62.2321 16.0805 62.1697 18.9187 62.2321 23.3644C62.2321 23.6805 62.4551 23.7747 62.513 23.7747C65.5854 23.7747 67.4672 23.7119 67.9689 23.6805C68.3457 23.6491 68.8474 23.6155 69.349 22.5439C69.5051 22.1986 69.601 22.0955 69.6634 22.0955C69.7883 22.0955 69.8507 22.1919 69.8195 22.5439C69.7882 22.8959 69.6634 23.8375 69.6634 24.4674C69.6634 25.0346 69.7883 25.4135 69.7883 25.8552C69.7883 26.2968 69.7258 26.3596 69.601 26.3596C69.4761 26.3596 69.349 26.1713 69.155 25.6668C68.9611 25.1624 68.6534 24.7522 68.2766 24.6557C67.8061 24.5616 67.5876 24.4988 62.5063 24.4988C62.3557 24.5923 62.2445 24.7384 62.1942 24.9091C62.163 25.4135 62.1942 30.4264 62.2566 31.8455C62.319 33.1077 62.4439 33.296 63.9177 33.639C64.2008 33.7018 64.3636 33.796 64.3636 33.9215C64.3636 34.1121 64.0492 34.1121 63.7059 34.1121C63.3625 34.1121 62.105 33.9215 60.852 33.9215C59.7862 33.9215 58.9389 34.0471 58.7204 34.0471C58.5019 34.0471 58.25 33.9843 58.25 33.8587C58.25 33.7332 58.3749 33.6346 58.8141 33.5426C60.0359 33.2602 60.163 33.0718 60.2254 31.841C60.3191 30.8008 60.3191 26.6712 60.3191 23.203C60.3191 19.8402 60.3191 18.0937 60.2254 16.1388C60.163 15.0044 60.1296 14.6905 58.939 14.4058C58.6558 14.343 58.4373 14.2489 58.4373 14.0897C58.4373 13.9305 58.6892 13.9014 58.9077 13.9014C59.1909 13.9014 61.0392 14.0269 62.4194 14.0269C65.4294 14.0269 68.5976 13.9328 69.7883 13.9328L69.786 13.9372Z" fill="#488F4B"/>
<path d="M20.7773 4.01709H21.6424L23.2121 9.47835H23.2255L24.8754 4.01709H25.6201L27.2967 9.47835H27.3079L28.8396 4.01709H29.6646L27.7137 10.5971H26.8374L25.2277 5.33308H25.2143L23.6045 10.5971H22.7416L20.7773 4.01709Z" fill="#1D1D1B"/>
<path d="M33.1321 4.59979C31.7943 4.59979 30.9024 5.6916 30.9024 7.31025C30.9024 8.9827 31.8054 10.0745 33.1321 10.0745C34.4587 10.0745 35.3617 8.95356 35.3617 7.36405C35.3617 5.7185 34.4342 4.59979 33.1321 4.59979ZM33.0919 10.7717C31.2726 10.7717 30.0039 9.36383 30.0039 7.3506C30.0039 5.29702 31.2726 3.91602 33.1254 3.91602C34.9782 3.91602 36.2468 5.29702 36.2468 7.37751C36.2468 9.36383 34.9269 10.7717 33.0941 10.7717H33.0919Z" fill="#1D1D1B"/>
<path d="M38.287 5.76572V10.597H37.4375V4.01704H38.2089V5.17386H38.2357C39.0205 4.29279 39.7541 3.88477 40.5656 3.88477V4.71427C39.8053 4.71427 39.0339 5.06849 38.287 5.76572Z" fill="#1D1D1B"/>
<path d="M46.5318 10.043C47.2306 10.026 47.8959 9.73848 48.3891 9.24039V5.34621C47.7871 4.81937 47.2386 4.58173 46.5564 4.58173C45.2877 4.58173 44.4895 5.68698 44.4895 7.45136C44.4895 9.05655 45.2476 10.043 46.5318 10.043ZM46.4003 3.9114C46.7662 3.90527 47.1297 3.97315 47.469 4.11103C47.8084 4.2489 48.1167 4.45395 48.3757 4.714H48.3891V1.02832H49.2408V10.5967H48.4538V9.76724H48.4404C48.1555 10.0664 47.8142 10.3053 47.4363 10.4701C47.0584 10.6349 46.6516 10.7221 46.2398 10.7268C44.6188 10.7268 43.5977 9.46458 43.5977 7.45136C43.5977 5.2543 44.6567 3.9114 46.3981 3.9114H46.4003Z" fill="#1D1D1B"/>
<path d="M14.6527 44.8197C12.82 44.8197 11.5312 43.571 11.5312 41.3986C11.5312 39.1746 12.869 37.964 14.7374 37.964C15.2992 37.9601 15.8575 38.0542 16.3873 38.242V38.9527C15.8908 38.7537 15.3612 38.651 14.8266 38.65C13.3885 38.65 12.4186 39.5692 12.4186 41.3403C12.4186 43.1697 13.3885 44.1157 14.7887 44.1157C15.4026 44.1094 16.009 43.9799 16.5724 43.7346V44.4319C15.96 44.6774 15.3076 44.8067 14.6482 44.813L14.6527 44.8197Z" fill="#1D1D1B"/>
<path d="M22.0078 40.3605C22.0078 39.2934 21.3925 38.6612 20.3445 38.6612C19.639 38.6796 18.9643 38.9562 18.4471 39.4391V44.6493H17.5977V35.0898H18.4471V38.8517C19.0637 38.3144 19.8436 38.0037 20.6589 37.9707C22.0725 37.9707 22.8573 38.8002 22.8573 40.3135V44.656H22.0078V40.3605Z" fill="#1D1D1B"/>
<path d="M26.3411 44.1224C27.0041 44.1414 27.6496 43.9066 28.1471 43.4655V41.4478H26.7602C25.4894 41.4478 24.8361 41.8693 24.8361 42.8557C24.8361 43.6852 25.3333 44.1313 26.3411 44.1313V44.1224ZM29.4938 44.1896C29.5989 44.1863 29.7039 44.1773 29.8081 44.1627V44.703C29.6009 44.7684 29.3854 44.8039 29.1682 44.8084C29.0511 44.8215 28.9325 44.8099 28.8201 44.7745C28.7077 44.739 28.6038 44.6804 28.5151 44.6024C28.4264 44.5243 28.3548 44.4286 28.3049 44.3213C28.2549 44.214 28.2278 44.0973 28.2251 43.9789C27.9395 44.253 27.6027 44.4675 27.2342 44.6099C26.8656 44.7523 26.4726 44.8197 26.078 44.8084C24.7402 44.8084 23.9844 44.1224 23.9844 42.9252C23.9844 41.5307 24.8762 40.8604 26.5886 40.8604H28.1493V40.2685C28.1493 39.1476 27.7034 38.6499 26.5663 38.6499C25.9272 38.6581 25.2924 38.7555 24.68 38.9391L24.6934 38.28C25.3513 38.078 26.0345 37.9716 26.7223 37.9639C28.3187 37.9639 28.9988 38.6499 28.9988 40.2551V43.6762C28.9882 43.7449 28.9936 43.8151 29.0147 43.8813C29.0357 43.9475 29.0718 44.0079 29.12 44.0577C29.1682 44.1075 29.2273 44.1453 29.2925 44.1682C29.3578 44.1911 29.4274 44.1984 29.496 44.1896H29.4938Z" fill="#1D1D1B"/>
<path d="M36.0241 40.9389H39.7454C39.7454 39.4525 39.1166 38.6364 38.0308 38.6364C36.8 38.6364 36.0554 39.596 36.0241 40.9389ZM40.5391 41.1227V41.5711H36.0241C36.0375 43.2547 36.916 44.1358 38.4455 44.1358C39.1027 44.1258 39.75 43.9728 40.3429 43.6874V44.36C39.6998 44.6615 38.999 44.8184 38.2894 44.8196C36.4166 44.8196 35.168 43.6224 35.168 41.3603C35.168 39.3426 36.2538 37.9639 38.033 37.9639C39.6696 37.9639 40.5458 39.161 40.5458 41.1227H40.5391Z" fill="#1D1D1B"/>
<path d="M45.942 40.3605C45.942 39.3068 45.3288 38.6611 44.2809 38.6611C43.5753 38.6795 42.9007 38.9561 42.3835 39.439V44.6492H41.5273V38.0692H42.301V38.9122H42.3255C42.9513 38.3096 43.7824 37.9704 44.6488 37.9639C45.971 37.9639 46.7959 38.7934 46.7959 40.3067V44.6492H45.942V40.3605Z" fill="#1D1D1B"/>
<path d="M50.5871 43.9654C51.2159 43.9654 51.8312 43.6762 52.4065 43.1225V39.4121C52.1748 39.1647 51.8949 38.9681 51.5841 38.8346C51.2733 38.7011 50.9384 38.6336 50.6005 38.6364C49.3586 38.6364 48.5938 39.6879 48.5938 41.3738C48.5938 43.0171 49.3274 43.9654 50.6005 43.9654H50.5871ZM52.4065 43.7143C52.1427 44.0026 51.8236 44.234 51.4683 44.3947C51.1131 44.5554 50.7291 44.642 50.3396 44.6492C48.6763 44.6492 47.6953 43.4386 47.6953 41.385C47.6953 39.2664 48.7432 37.9639 50.4177 37.9639C50.8015 37.9651 51.1812 38.0438 51.5342 38.1951C51.8873 38.3464 52.2067 38.5674 52.4734 38.8449H52.4845V38.0692H53.2582V44.9653C53.2582 46.5974 52.3418 47.4135 50.5225 47.4135C49.7657 47.429 49.0163 47.2614 48.3374 46.9247V46.2163C48.9657 46.5543 49.6651 46.7364 50.3775 46.7476C51.7911 46.7476 52.4332 46.2096 52.4332 45.064V43.7188L52.4065 43.7143Z" fill="#1D1D1B"/>
<path d="M55.3249 40.9389H59.0551C59.0551 39.4525 58.4263 38.6364 57.3405 38.6364C56.1097 38.6364 55.3651 39.596 55.3338 40.9389H55.3249ZM59.8399 41.1227V41.5711H55.3249C55.3383 43.2547 56.2168 44.1358 57.7463 44.1358C58.4035 44.1258 59.0508 43.9728 59.6437 43.6874V44.36C59.0006 44.6615 58.2998 44.8184 57.5902 44.8196C55.7173 44.8196 54.4688 43.6224 54.4688 41.3603C54.4688 39.3426 55.5546 37.9639 57.3338 37.9639C58.9703 37.9639 59.8466 39.161 59.8466 41.1227H59.8399Z" fill="#1D1D1B"/>
<path d="M42.5331 1.02832H41.6836V10.5967H42.5331V1.02832Z" fill="#1D1D1B"/>
</g>
<defs>
<clipPath id="clip0_1242_864">
<rect width="70.6186" height="46.9072" fill="white" transform="translate(0.949219 0.788574)"/>
</clipPath>
</defs>
</svg>
