<?xml version="1.0" encoding="UTF-8"?>
<svg xmlns="http://www.w3.org/2000/svg" version="1.1" viewBox="0 0 144 144">
  <defs>
    <style>
      .cls-1 {
        fill: #282f42;
      }
    </style>
  </defs>
  <!-- Generator: Adobe Illustrator 28.6.0, SVG Export Plug-In . SVG Version: 1.2.0 Build 709)  -->
  <g>
    <g id="Layer_1">
      <path class="cls-1" d="M42.6,136.1c8.7,5.2,18.9,7.9,29.4,7.9,29.1,0,52.8-20.9,52.8-46.6v-36.8c0-1-1.2-1.5-1.9-.9l-77.1,62.1c-4.4-3.4-7.9-7.6-10-12.3L123.6,38.7c.4-.3.5-.8.4-1.2l-1.1-3.6C116.4,13.9,95.5,0,72,0S19.2,20.9,19.2,46.6v50.8c0,4,.6,8,1.7,11.8,3.3,11,11,20.6,21.7,26.9h0ZM59.6,128.3l50.8-41c.2-.1.5,0,.5.2v9.9c0,18.2-17.5,33.1-38.9,33.1s-8.3-.6-12.3-1.7c-.2,0-.3-.3-.1-.5h0ZM33.1,46.6c0-18.2,17.5-33.1,38.9-33.1s29.7,8.1,35.8,20.1c0,.1,0,.3,0,.3l-74.2,59.8c-.2.1-.5,0-.5-.2v-46.9h0Z"/>
    </g>
  </g>
</svg>