<svg width="200" height="326" viewBox="0 0 200 326" fill="none" xmlns="http://www.w3.org/2000/svg">
<path d="M126.67 250.459C129.588 251.359 131.992 252.259 133.881 253.16C130.232 255.732 126.369 257.961 122.291 259.847L126.67 250.459ZM160.924 133.262L153.24 149.637C159.121 159.196 163.027 170.298 164.315 182.344C166.547 203.863 159.979 224.225 147.574 239.571C140.835 234.898 129.717 231.169 116.11 229.069L95.7636 272.578L89.9258 285.01C90.5697 285.01 91.2135 285.01 91.9003 285.01C95.1626 285.01 98.4249 284.838 101.773 284.495C152.167 279.008 188.524 233.784 183.03 183.458C180.927 164.083 172.9 146.807 160.967 133.176L160.924 133.262Z" fill="#0A1A11"/>
<path d="M195.736 20.3894C182.902 24.0331 152.897 30.5917 139.934 16.6171C111.131 -14.4183 71.683 8.12954 79.6671 10.4872C106.195 18.2461 102.117 36.7216 123.536 63.7705C132.722 75.3873 146.501 77.745 158.821 76.9305C159.593 76.8877 160.151 77.5735 159.894 78.3023L141.05 116.239C124.051 105.394 103.405 100.036 81.8133 102.393C31.4624 107.88 -4.938 153.105 0.556394 203.43C4.46256 239.138 28.4147 267.773 59.9645 279.433L41.0346 317.498C39.5752 320.413 41.4209 323.885 44.6403 324.357L55.1998 325.9C57.3032 326.2 59.3206 325.086 60.2221 323.2L199.857 24.5903C200.63 22.0612 198.312 19.6178 195.736 20.3465V20.3894ZM85.8482 227.307C64.0424 227.864 45.3271 232.322 35.068 238.752C26.3972 227.736 20.6453 214.104 19.057 198.886C14.6787 157.134 43.653 119.54 83.7449 114.996C102.546 112.853 120.446 118.383 134.654 129.142L85.8482 227.307Z" fill="#0A1A11"/>
</svg>
