<svg width="235" height="67" viewBox="0 0 235 67" fill="none" xmlns="http://www.w3.org/2000/svg">
<g clip-path="url(#clip0_464_9883)">
<path d="M24.9328 49.161C26.7653 49.5574 28.2806 50.1124 29.1969 50.7468L30.6593 51.7599L31.7782 50.3768C34.4829 47.0201 35.8572 42.8618 35.7163 38.5449C36.007 42.8002 34.7119 46.9497 32.0249 50.2887C29.3819 53.5748 25.6905 55.7244 21.5586 56.394L24.9416 49.161H24.9328Z" fill="#C8F843"/>
<path d="M25.9984 51.3991C26.5975 51.5841 27.0908 51.7691 27.4785 51.9541C26.7296 52.4827 25.9367 52.9408 25.0998 53.3285L25.9984 51.3991ZM33.0288 27.3125L31.4518 30.678C32.6588 32.6426 33.4605 34.9244 33.7248 37.4C34.1829 41.8226 32.835 46.0074 30.2889 49.1613C28.9057 48.201 26.6239 47.4346 23.8311 47.0029L19.6552 55.945L18.457 58.4999C18.5892 58.4999 18.7213 58.4999 18.8623 58.4999C19.5319 58.4999 20.2014 58.4647 20.8886 58.3942C31.2315 57.2665 38.6936 47.972 37.5659 37.6291C37.1342 33.6469 35.4868 30.0965 33.0376 27.2949L33.0288 27.3125Z" fill="#C8F843"/>
<path d="M40.1736 4.11476C37.5394 4.86361 31.3812 6.21154 28.7206 3.33948C22.8091 -3.03896 14.7127 1.5951 16.3514 2.07965C21.796 3.67426 20.959 7.47137 25.3552 13.0305C27.2405 15.418 30.0685 15.9025 32.597 15.7351C32.7556 15.7263 32.8701 15.8673 32.8173 16.0171L28.9497 23.8139C25.4609 21.585 21.2233 20.4837 16.7919 20.9683C6.45775 22.096 -1.01313 31.3905 0.114545 41.7335C0.916255 49.0722 5.83223 54.9573 12.3076 57.3536L8.42237 65.1769C8.12284 65.776 8.50166 66.4896 9.16241 66.5865L11.3297 66.9036C11.7614 66.9653 12.1754 66.7362 12.3604 66.3486L41.0194 4.97814C41.178 4.45835 40.7022 3.95618 40.1736 4.10595V4.11476ZM17.62 46.6406C13.1445 46.7552 9.30338 47.6714 7.19778 48.9929C5.41816 46.7287 4.23763 43.9272 3.91166 40.7996C3.01304 32.2187 8.95979 24.4923 17.1883 23.5584C21.0471 23.1179 24.7209 24.2544 27.637 26.4657L17.62 46.6406Z" fill="#C8F843"/>
<path d="M60.1807 32.6851L51.9258 15.5938H57.3968L64.3743 31.0641L62.5947 31.0905L69.1758 15.5938H74.9904L81.5714 31.0905L79.7918 31.0641L86.7693 15.5938H92.1611L84.0382 32.6851H77.6422L71.2197 18.0605H72.9729L66.524 32.6851H60.1807Z" fill="#FAFAFA"/>
<path d="M100.362 33.0299C98.2039 33.0299 96.3626 32.7832 94.8296 32.2898C93.2967 31.7965 92.125 31.0388 91.3144 30.0169C90.5039 28.9949 90.0898 27.7086 90.0898 26.1581C90.0898 24.6075 90.4951 23.3125 91.3144 22.2817C92.125 21.2597 93.2967 20.4933 94.8296 19.9823C96.3626 19.4713 98.2039 19.2246 100.362 19.2246C102.521 19.2246 104.38 19.4801 105.886 19.9823C107.393 20.4844 108.547 21.2509 109.349 22.2817C110.15 23.3125 110.555 24.5987 110.555 26.1581C110.555 27.7175 110.15 29.0037 109.349 30.0169C108.547 31.0388 107.393 31.7877 105.886 32.2898C104.38 32.7832 102.538 33.0299 100.362 33.0299ZM100.362 29.8407C101.446 29.8407 102.38 29.6997 103.19 29.4266C103.992 29.1535 104.618 28.7394 105.058 28.1932C105.499 27.647 105.719 26.9598 105.719 26.1493C105.719 25.3388 105.499 24.6692 105.058 24.1054C104.618 23.5415 104.001 23.1186 103.217 22.8279C102.433 22.546 101.481 22.405 100.362 22.405C99.2434 22.405 98.3096 22.5548 97.4991 22.8455C96.6885 23.1363 96.0542 23.5591 95.6137 24.1054C95.1732 24.6516 94.953 25.3388 94.953 26.1493C94.953 26.9598 95.1732 27.647 95.6049 28.1932C96.0366 28.7394 96.6709 29.1535 97.4902 29.4266C98.3096 29.6997 99.2699 29.8407 100.371 29.8407H100.362Z" fill="#FAFAFA"/>
<path d="M112.891 19.5692H117.639V32.6785H112.891V19.5692ZM123.507 23.3399C122.441 23.3399 121.489 23.4897 120.652 23.7892C119.815 24.0887 119.119 24.4588 118.582 24.8905C118.044 25.3221 117.648 25.745 117.401 26.1503L117.375 24.7935C117.41 24.5116 117.516 24.1416 117.683 23.6747C117.851 23.2166 118.089 22.732 118.397 22.2122C118.705 21.7012 119.102 21.2167 119.577 20.7674C120.053 20.3181 120.617 19.948 121.278 19.6485C121.93 19.3578 122.679 19.208 123.507 19.208V23.3223V23.3399Z" fill="#FAFAFA"/>
<path d="M126.617 14.2617H131.366V32.6834H126.617V14.2617Z" fill="#FAFAFA"/>
<path d="M142.387 33.027C140.792 33.027 139.374 32.7451 138.114 32.1813C136.854 31.6174 135.868 30.8157 135.145 29.7937C134.423 28.7718 134.053 27.556 134.053 26.1552C134.053 24.6839 134.414 23.4417 135.145 22.411C135.868 21.389 136.854 20.5961 138.105 20.0499C139.356 19.5037 140.784 19.2306 142.396 19.2306C143.761 19.2306 144.951 19.4068 145.981 19.7503C147.012 20.0939 147.858 20.5785 148.545 21.1952C149.224 21.8119 149.743 22.5431 150.087 23.3889C150.431 24.2258 150.607 25.1509 150.607 26.164C150.607 27.045 150.431 27.8996 150.078 28.7101C149.726 29.5206 149.206 30.2607 148.528 30.9126C147.849 31.5646 146.995 32.0843 145.964 32.4632C144.933 32.842 143.753 33.0358 142.405 33.0358L142.387 33.027ZM144.061 29.7321C145.241 29.7321 146.299 29.5999 147.206 29.3356C148.113 29.0713 148.836 28.6661 149.373 28.1287C149.902 27.5912 150.166 26.9305 150.166 26.1552C150.166 25.3095 149.893 24.6135 149.356 24.0849C148.818 23.5563 148.087 23.1598 147.18 22.9043C146.263 22.6488 145.233 22.5167 144.061 22.5167C142.449 22.5167 141.198 22.8338 140.29 23.4682C139.392 24.1025 138.933 25.0011 138.933 26.1464C138.933 26.8864 139.145 27.5296 139.559 28.0582C139.973 28.5868 140.563 29.0008 141.321 29.2916C142.079 29.5823 142.995 29.7321 144.052 29.7321H144.061ZM150.166 14.2617H154.888V32.6834H150.457C150.404 32.2782 150.342 31.6967 150.272 30.9302C150.201 30.1726 150.166 29.3709 150.166 28.5427V14.2617Z" fill="#FAFAFA"/>
<path d="M175.592 33.4537C173.68 33.4537 171.945 33.2864 170.385 32.9604C168.826 32.6344 167.478 32.1146 166.341 31.4098C165.205 30.705 164.324 29.7888 163.698 28.6787C163.082 27.5598 162.773 26.2119 162.773 24.6173C162.773 23.0227 163.091 21.6836 163.725 20.5471C164.359 19.4106 165.275 18.4591 166.456 17.7103C167.637 16.9614 169.055 16.4064 170.685 16.054C172.323 15.7016 174.138 15.5254 176.138 15.5254C178.667 15.5254 180.816 15.8073 182.57 16.3711C184.323 16.935 185.688 17.7367 186.657 18.7763C187.626 19.807 188.155 21.0404 188.261 22.45H183.301C183.089 21.8862 182.71 21.3752 182.164 20.9259C181.618 20.4766 180.852 20.1154 179.882 19.8511C178.913 19.5868 177.662 19.4546 176.138 19.4546C174.279 19.4546 172.738 19.6573 171.504 20.0537C170.271 20.4502 169.355 21.0404 168.755 21.8069C168.156 22.5734 167.857 23.5161 167.857 24.6349C167.857 25.6833 168.148 26.5643 168.72 27.3044C169.293 28.0356 170.2 28.5994 171.425 28.9783C172.649 29.3571 174.262 29.5509 176.244 29.5509C177.698 29.5509 178.957 29.4276 180.041 29.1809C181.125 28.9342 182.067 28.5818 182.878 28.1325C183.688 27.6832 184.402 27.1546 185.001 26.5555L186.067 26.6084C185.45 28.8021 184.252 30.4936 182.473 31.6917C180.693 32.8899 178.402 33.4802 175.583 33.4802L175.592 33.4537ZM184.772 33.0309C184.772 32.4846 184.825 31.8591 184.922 31.1631C185.019 30.4671 185.151 29.7535 185.309 29.0311C185.468 28.3087 185.627 27.6127 185.785 26.9608H176.817V24.494H188.763V33.0397H184.781L184.772 33.0309Z" fill="#FAFAFA"/>
<path d="M201.704 33.3736C199.546 33.3736 197.704 33.127 196.171 32.6336C194.638 32.1402 193.467 31.3826 192.656 30.3606C191.846 29.3386 191.432 28.0524 191.432 26.5018C191.432 24.9513 191.837 23.6562 192.656 22.6254C193.467 21.6035 194.638 20.837 196.171 20.326C197.704 19.8238 199.546 19.5684 201.704 19.5684C203.863 19.5684 205.721 19.8238 207.228 20.326C208.734 20.8282 209.889 21.5947 210.69 22.6254C211.492 23.6562 211.897 24.9425 211.897 26.5018C211.897 28.0612 211.492 29.3475 210.69 30.3606C209.889 31.3826 208.734 32.1314 207.228 32.6336C205.721 33.127 203.88 33.3736 201.704 33.3736ZM201.704 30.1844C202.788 30.1844 203.722 30.0435 204.532 29.7703C205.343 29.4972 205.959 29.0832 206.4 28.5369C206.84 27.9907 207.061 27.3035 207.061 26.493C207.061 25.6825 206.84 25.0129 206.4 24.4491C205.959 23.8853 205.343 23.4624 204.559 23.1716C203.774 22.8897 202.823 22.7488 201.704 22.7488C200.585 22.7488 199.651 22.8985 198.841 23.1893C198.022 23.48 197.396 23.9029 196.956 24.4491C196.515 24.9953 196.295 25.6825 196.295 26.493C196.295 27.3035 196.515 27.9907 196.947 28.5369C197.378 29.0832 198.013 29.4972 198.832 29.7703C199.651 30.0435 200.612 30.1844 201.713 30.1844H201.704Z" fill="#FAFAFA"/>
<path d="M214.559 14.6064H219.307V33.0282H214.559V14.6064Z" fill="#FAFAFA"/>
<path d="M221.141 20.421H234.488V23.6279H221.141V20.421ZM230.347 14.6064H234.567V18.06H231.995C231.395 18.0423 230.902 18.0864 230.523 18.1921C230.144 18.2978 229.871 18.5005 229.695 18.7912C229.528 19.0819 229.44 19.5224 229.44 20.1039V33.0282H224.691V19.2757C224.691 18.2097 224.894 17.3375 225.29 16.6504C225.687 15.9632 226.303 15.4434 227.131 15.1086C227.96 14.7738 229.034 14.6064 230.338 14.6064H230.347Z" fill="#FAFAFA"/>
<path d="M77.9953 49.6793C77.8719 51.2034 77.3345 52.4809 76.3742 53.5116C75.4227 54.5424 74.066 55.3353 72.3128 55.8727C70.5596 56.4101 68.4012 56.6832 65.8375 56.6832C63.82 56.6832 61.9875 56.5158 60.34 56.1811C58.6926 55.8463 57.283 55.3265 56.1024 54.6305C54.9219 53.9345 54.0233 53.0183 53.3977 51.8994C52.7722 50.7717 52.4551 49.4062 52.4551 47.8028C52.4551 46.1993 52.7722 44.8426 53.3977 43.6885C54.0233 42.5432 54.9307 41.6005 56.1024 40.8781C57.2741 40.1557 58.6926 39.6183 60.34 39.2747C61.9875 38.9311 63.82 38.7549 65.8375 38.7549C68.4012 38.7549 70.5684 39.0368 72.3304 39.6006C74.0924 40.1645 75.4492 40.9838 76.4007 42.0586C77.3521 43.1335 77.8984 44.4373 78.0217 45.9791H73.0088C72.7974 45.3095 72.4097 44.7193 71.8547 44.2259C71.2997 43.7325 70.5332 43.3537 69.5729 43.0894C68.6126 42.8251 67.3616 42.693 65.8463 42.693C64.0402 42.693 62.5249 42.878 61.2915 43.248C60.0581 43.618 59.1331 44.1818 58.5076 44.9483C57.882 45.706 57.5649 46.6663 57.5649 47.8116C57.5649 48.9569 57.882 49.8467 58.5076 50.5867C59.1331 51.3179 60.0669 51.873 61.2915 52.243C62.5249 52.613 64.0402 52.798 65.8463 52.798C67.3704 52.798 68.6038 52.6659 69.5641 52.4104C70.5156 52.1549 71.2732 51.7849 71.8371 51.3091C72.3921 50.8334 72.7886 50.296 73.0176 49.6881H78.0041L77.9953 49.6793Z" fill="#FAFAFA"/>
<path d="M81.1836 56.2616V37.8398H85.9322V56.2616H81.1836ZM95.5879 56.2616V50.0769C95.5879 49.3193 95.447 48.685 95.1739 48.1828C94.9008 47.6806 94.4338 47.293 93.7819 47.0287C93.1299 46.7644 92.2137 46.6322 91.0508 46.6322C90.205 46.6322 89.4033 46.7556 88.6633 47.0022C87.9232 47.2489 87.2889 47.5661 86.7691 47.9537C86.2493 48.3414 85.8881 48.7466 85.6943 49.1783L85.6415 47.7951C85.7296 47.3546 85.9586 46.8525 86.3198 46.2798C86.681 45.716 87.1832 45.161 87.8351 44.6324C88.4783 44.1038 89.28 43.6633 90.2403 43.3197C91.1918 42.9761 92.3018 42.7999 93.5616 42.7999C94.4779 42.7999 95.3501 42.9056 96.1606 43.1082C96.9711 43.3109 97.6935 43.6368 98.3279 44.0773C98.9534 44.5178 99.4467 45.0817 99.7991 45.76C100.152 46.4384 100.328 47.2665 100.328 48.2445V56.2616H95.6056H95.5879Z" fill="#FAFAFA"/>
<path d="M110.988 56.6051C109.393 56.6051 107.975 56.3231 106.732 55.7593C105.49 55.1955 104.495 54.3937 103.763 53.3718C103.032 52.3498 102.662 51.134 102.662 49.7333C102.662 48.262 103.032 47.0198 103.763 45.989C104.495 44.967 105.499 44.1741 106.759 43.6279C108.027 43.0817 109.463 42.8086 111.076 42.8086C112.864 42.8086 114.362 43.1081 115.56 43.7072C116.767 44.3063 117.674 45.1256 118.282 46.1652C118.89 47.2048 119.198 48.3941 119.198 49.7333C119.198 50.6143 119.022 51.4688 118.67 52.2793C118.317 53.0899 117.798 53.8299 117.119 54.4818C116.441 55.1338 115.586 55.6536 114.556 56.0324C113.525 56.4112 112.344 56.6051 110.996 56.6051H110.988ZM112.653 53.3189C113.833 53.3189 114.89 53.1868 115.798 52.9225C116.705 52.6582 117.428 52.2529 117.965 51.7155C118.502 51.1781 118.758 50.5173 118.758 49.7421C118.758 48.8963 118.485 48.2003 117.947 47.6717C117.41 47.1431 116.679 46.7467 115.771 46.4912C114.855 46.2357 113.824 46.1035 112.653 46.1035C111.04 46.1035 109.789 46.4207 108.882 47.055C107.975 47.6893 107.525 48.588 107.525 49.7333C107.525 50.4733 107.737 51.1164 108.151 51.645C108.565 52.1736 109.155 52.5877 109.913 52.8784C110.67 53.1692 111.587 53.3189 112.644 53.3189H112.653ZM118.758 43.1522H123.48V56.2615H119.049C118.943 55.5214 118.864 54.8342 118.82 54.2087C118.776 53.5832 118.749 52.8872 118.749 52.1208V43.1522H118.758Z" fill="#FAFAFA"/>
<path d="M126.617 37.8398H131.366V56.2616H126.617V37.8398Z" fill="#FAFAFA"/>
<path d="M134.846 37.8398H139.594V56.2616H134.846V37.8398Z" fill="#FAFAFA"/>
<path d="M157.408 51.7488H162.024C161.866 52.7003 161.425 53.546 160.712 54.2861C159.998 55.0173 158.985 55.59 157.69 55.9952C156.386 56.4005 154.756 56.6031 152.792 56.6031C150.686 56.6031 148.845 56.3564 147.259 55.8719C145.673 55.3873 144.449 54.6297 143.585 53.6165C142.722 52.5946 142.281 51.2995 142.281 49.7313C142.281 48.1631 142.704 46.8857 143.559 45.8549C144.404 44.833 145.611 44.0665 147.171 43.5555C148.73 43.0533 150.589 42.7979 152.748 42.7979C154.906 42.7979 156.686 43.0533 158.086 43.5643C159.487 44.0753 160.518 44.8858 161.188 45.9783C161.857 47.0707 162.157 48.5067 162.086 50.2775H147.092C147.18 50.859 147.435 51.3964 147.858 51.8722C148.281 52.3479 148.889 52.7267 149.664 52.9998C150.439 53.2729 151.435 53.4139 152.633 53.4139C153.91 53.4139 154.968 53.2641 155.822 52.9646C156.677 52.665 157.205 52.2598 157.417 51.74L157.408 51.7488ZM152.545 45.9871C150.986 45.9871 149.77 46.2338 148.898 46.7271C148.025 47.2205 147.479 47.7843 147.268 48.401H157.434C157.346 47.7138 156.897 47.1324 156.078 46.6742C155.258 46.2161 154.087 45.9871 152.545 45.9871Z" fill="#FAFAFA"/>
<path d="M164.439 43.1522H169.188V56.2615H164.439V43.1522ZM176.809 42.8086C177.743 42.8086 178.615 42.9143 179.425 43.1434C180.227 43.3636 180.949 43.716 181.575 44.1918C182.2 44.6675 182.703 45.3018 183.064 46.0859C183.425 46.87 183.61 47.8391 183.61 48.9932V56.2615H178.888V49.654C178.888 48.4646 178.58 47.6012 177.972 47.055C177.364 46.5088 176.315 46.2357 174.826 46.2357C173.893 46.2357 173.02 46.3855 172.21 46.6762C171.408 46.9669 170.721 47.3281 170.157 47.7686C169.593 48.2003 169.188 48.6496 168.959 49.1077L168.933 47.9096C169.021 47.4162 169.25 46.87 169.611 46.2885C169.972 45.7071 170.474 45.1432 171.126 44.6146C171.769 44.086 172.571 43.6544 173.531 43.3108C174.483 42.976 175.584 42.8086 176.826 42.8086H176.809Z" fill="#FAFAFA"/>
<path d="M194.797 54.3213C192.886 54.3213 191.265 54.1098 189.943 53.687C188.613 53.2641 187.609 52.6298 186.93 51.7928C186.252 50.9559 185.908 49.9075 185.908 48.6477C185.908 47.4671 186.243 46.4452 186.904 45.5818C187.564 44.7272 188.56 44.0488 189.89 43.5555C191.221 43.0621 192.85 42.8154 194.797 42.8154C195.238 42.8154 195.687 42.8331 196.137 42.8683C196.586 42.9035 197.035 42.9476 197.476 43.0004H205.678V45.9165C204.647 45.9694 203.625 45.8813 202.586 45.6611C201.555 45.4408 200.612 45.1941 199.758 44.9298L199.599 44.6391C200.286 44.921 200.947 45.2646 201.564 45.6611C202.18 46.0575 202.674 46.5244 203.052 47.0707C203.422 47.6081 203.607 48.2512 203.607 48.9912C203.607 50.1101 203.282 51.0704 202.63 51.8721C201.978 52.6826 201 53.2905 199.696 53.7046C198.392 54.1187 196.762 54.3301 194.797 54.3301V54.3213ZM199.766 61.8362V61.149C199.766 60.4795 199.52 60.0214 199.026 59.7923C198.533 59.5632 197.802 59.4487 196.85 59.4487H191.273C190.304 59.4487 189.494 59.3782 188.842 59.2373C188.199 59.0963 187.697 58.8937 187.344 58.6294C186.992 58.3651 186.745 58.0655 186.613 57.7396C186.481 57.4136 186.41 57.07 186.41 56.7176C186.41 55.9776 186.666 55.4049 187.168 55.0085C187.67 54.612 188.401 54.3389 189.344 54.198C190.287 54.057 191.414 54.0041 192.727 54.0394L194.797 54.3301C193.52 54.3477 192.604 54.4358 192.049 54.5944C191.494 54.753 191.212 55.0437 191.212 55.4666C191.212 55.7309 191.318 55.9335 191.529 56.0657C191.74 56.1978 192.049 56.2595 192.454 56.2595H198.321C199.758 56.2595 200.929 56.3916 201.837 56.6471C202.744 56.9026 203.422 57.3343 203.854 57.951C204.286 58.5589 204.506 59.3958 204.506 60.4619V61.845H199.758L199.766 61.8362ZM194.797 51.4052C195.731 51.4052 196.524 51.2907 197.159 51.0704C197.793 50.8502 198.269 50.533 198.595 50.1277C198.912 49.7225 199.07 49.2555 199.07 48.7181C199.07 48.1543 198.912 47.6609 198.595 47.2557C198.277 46.8504 197.802 46.5333 197.176 46.313C196.551 46.0928 195.758 45.9782 194.797 45.9782C193.837 45.9782 193.071 46.0839 192.419 46.313C191.776 46.5333 191.282 46.8416 190.956 47.238C190.63 47.6345 190.463 48.1279 190.463 48.7093C190.463 49.2379 190.63 49.7049 190.956 50.1189C191.282 50.5242 191.767 50.8413 192.401 51.0616C193.035 51.2818 193.837 51.3964 194.789 51.3964L194.797 51.4052Z" fill="#FAFAFA"/>
<path d="M222.32 51.7488H226.937C226.778 52.7003 226.338 53.546 225.624 54.2861C224.91 55.0173 223.897 55.59 222.602 55.9952C221.298 56.4005 219.668 56.6031 217.704 56.6031C215.598 56.6031 213.757 56.3564 212.171 55.8719C210.585 55.3873 209.361 54.6297 208.497 53.6165C207.634 52.5946 207.193 51.2995 207.193 49.7313C207.193 48.1631 207.616 46.8857 208.471 45.8549C209.317 44.833 210.524 44.0665 212.083 43.5555C213.642 43.0533 215.501 42.7979 217.66 42.7979C219.818 42.7979 221.598 43.0533 222.999 43.5643C224.399 44.0753 225.43 44.8858 226.1 45.9783C226.769 47.0707 227.069 48.5067 226.998 50.2775H212.004C212.092 50.859 212.347 51.3964 212.77 51.8722C213.193 52.3479 213.801 52.7267 214.576 52.9998C215.351 53.2729 216.347 53.4139 217.545 53.4139C218.823 53.4139 219.88 53.2641 220.734 52.9646C221.589 52.665 222.118 52.2598 222.329 51.74L222.32 51.7488ZM217.466 45.9871C215.906 45.9871 214.691 46.2338 213.818 46.7271C212.946 47.2205 212.4 47.7843 212.189 48.401H222.355C222.267 47.7138 221.818 47.1324 220.999 46.6742C220.179 46.2161 219.008 45.9871 217.466 45.9871Z" fill="#FAFAFA"/>
</g>
<defs>
<clipPath id="clip0_464_9883">
<rect width="234.566" height="66.9031" fill="white"/>
</clipPath>
</defs>
</svg>
