<?xml version="1.0" encoding="UTF-8"?>
<svg xmlns="http://www.w3.org/2000/svg" version="1.1" viewBox="0 0 144.9 38.6">
  <defs>
    <style>
      .cls-1 {
        fill: #fff;
      }
    </style>
  </defs>
  <!-- Generator: Adobe Illustrator 28.6.0, SVG Export Plug-In . SVG Version: 1.2.0 Build 709)  -->
  <g>
    <g id="Layer_1">
      <path class="cls-1" d="M67.3,23.9c1.5.9,3.3,1.4,5.2,1.4,5.1,0,9.3-3.7,9.3-8.2v-6.5c0-.2-.2-.3-.3-.2l-13.5,10.9c-.8-.6-1.4-1.3-1.8-2.2l15.4-12.4c0,0,0-.1,0-.2l-.2-.6C80.2,2.5,76.6,0,72.4,0s-9.3,3.7-9.3,8.2v8.9c0,.7,0,1.4.3,2.1.6,1.9,1.9,3.6,3.8,4.7h0ZM70.2,22.5l8.9-7.2s0,0,0,0v1.7c0,3.2-3.1,5.8-6.8,5.8s-1.5-.1-2.2-.3c0,0,0,0,0,0h0ZM65.6,8.2c0-3.2,3.1-5.8,6.8-5.8s5.2,1.4,6.3,3.5c0,0,0,0,0,0l-13,10.5s0,0,0,0v-8.2h0Z"/>
      <g>
        <polygon class="cls-1" points="13 35.5 14.9 38.5 14 38.5 12.5 36.1 11.1 38.5 10.2 38.5 12.1 35.5 10.2 32.4 11.1 32.4 12.6 34.8 14 32.4 14.9 32.4 13 35.5"/>
        <polygon class="cls-1" points="25 32.4 25 33 23.3 33 23.3 38.5 22.5 38.5 22.5 33 20.8 33 20.8 32.4 25 32.4"/>
        <path class="cls-1" d="M34.3,38.5l-1.5-2.5h-1v2.5h-.8v-6.1h2c.5,0,.8,0,1.2.2s.6.4.7.6c.2.3.2.6.2.9s-.1.8-.4,1.1-.6.5-1.1.6l1.5,2.6h-1ZM31.9,35.4h1.2c.4,0,.8-.1,1-.3.2-.2.3-.5.3-.8s-.1-.6-.3-.8-.5-.3-1-.3h-1.2s0,2.3,0,2.3Z"/>
        <path class="cls-1" d="M44.9,37.1h-2.7l-.5,1.4h-.8l2.2-6.1h.9l2.2,6.1h-.8l-.5-1.4h0ZM44.6,36.5l-1.1-3.1-1.1,3.1h2.2Z"/>
        <path class="cls-1" d="M51.3,33.8c.3-.5.6-.8,1.1-1.1.5-.3,1-.4,1.5-.4s1.2.2,1.7.5c.5.3.9.8,1.1,1.4h-1c-.2-.4-.4-.7-.7-.8-.3-.2-.7-.3-1.1-.3s-.8,0-1.2.3-.6.5-.8.8c-.2.4-.3.8-.3,1.3s0,.9.3,1.3c.2.4.5.7.8.8.3.2.7.3,1.2.3s.8,0,1.1-.3c.3-.2.6-.5.7-.8h1c-.2.6-.6,1-1.1,1.3-.5.3-1.1.5-1.7.5s-1.1-.1-1.5-.4c-.5-.3-.8-.6-1.1-1.1-.3-.5-.4-1-.4-1.6s.1-1.1.4-1.6"/>
        <path class="cls-1" d="M62.7,32.4v3.9c0,.5.1,1,.4,1.2.3.3.6.4,1.1.4s.8-.1,1.1-.4c.3-.3.4-.7.4-1.2v-3.9h.8v3.9c0,.5,0,.9-.3,1.3-.2.3-.5.6-.8.8s-.7.2-1.2.2-.8,0-1.2-.2-.6-.4-.8-.8c-.2-.3-.3-.8-.3-1.3v-3.9s.8,0,.8,0Z"/>
        <path class="cls-1" d="M75.6,38.5l-1.4-2.5h-1v2.5h-.8v-6.1h2c.5,0,.8,0,1.2.2s.6.4.7.6c.2.3.2.6.2.9s-.1.8-.4,1.1-.6.5-1.1.6l1.5,2.6h-1ZM73.2,35.4h1.2c.4,0,.8-.1,1-.3.2-.2.3-.5.3-.8s-.1-.6-.3-.8-.5-.3-1-.3h-1.2v2.3h0Z"/>
        <path class="cls-1" d="M85.9,38.5l-1.5-2.5h-1v2.5h-.8v-6.1h2c.5,0,.8,0,1.2.2s.6.4.7.6c.2.3.2.6.2.9s-.1.8-.4,1.1-.6.5-1.1.6l1.5,2.6h-1ZM83.5,35.4h1.2c.4,0,.8-.1,1-.3.2-.2.3-.5.3-.8s-.1-.6-.3-.8-.5-.3-1-.3h-1.2v2.3h0Z"/>
        <rect class="cls-1" x="92.7" y="32.4" width=".8" height="6.1"/>
        <path class="cls-1" d="M99,33.8c.3-.5.6-.8,1.1-1.1s1-.4,1.6-.4,1.2.2,1.7.5c.5.3.9.8,1.1,1.4h-1c-.2-.4-.4-.7-.7-.8-.3-.2-.7-.3-1.1-.3s-.8,0-1.2.3c-.3.2-.6.5-.8.8-.2.4-.3.8-.3,1.3s0,.9.3,1.3c.2.4.5.7.8.8.3.2.7.3,1.2.3s.8,0,1.1-.3c.3-.2.6-.5.7-.8h1c-.2.6-.6,1-1.1,1.3-.5.3-1.1.5-1.7.5s-1.1-.1-1.6-.4-.8-.6-1.1-1.1-.4-1-.4-1.6.1-1.1.4-1.6"/>
        <path class="cls-1" d="M110.3,32.4v3.9c0,.5.1,1,.4,1.2.3.3.6.4,1.1.4s.8-.1,1.1-.4.4-.7.4-1.2v-3.9h.8v3.9c0,.5,0,.9-.3,1.3-.2.3-.5.6-.8.8s-.7.2-1.2.2-.8,0-1.2-.2-.6-.4-.8-.8c-.2-.3-.3-.8-.3-1.3v-3.9s.8,0,.8,0Z"/>
        <polygon class="cls-1" points="121.5 37.8 123.6 37.8 123.6 38.5 120.7 38.5 120.7 32.4 121.5 32.4 121.5 37.8"/>
        <path class="cls-1" d="M133.8,37.1h-2.7l-.5,1.4h-.8l2.2-6.1h.9l2.2,6.1h-.8l-.5-1.4h0ZM133.6,36.5l-1.1-3.1-1.1,3.1h2.2Z"/>
        <path class="cls-1" d="M143.9,38.5l-1.5-2.5h-1v2.5h-.8v-6.1h2c.5,0,.9,0,1.2.2.3.2.6.4.7.6.2.3.2.6.2.9s-.1.8-.4,1.1-.6.5-1.1.6l1.5,2.6h-1,0ZM141.5,35.4h1.2c.4,0,.8-.1,1-.3.2-.2.3-.5.3-.8s-.1-.6-.3-.8-.5-.3-1-.3h-1.2s0,2.3,0,2.3Z"/>
        <path class="cls-1" d="M2.3,38.6c-.5,0-.9-.1-1.2-.3-.5-.3-.8-.7-.9-1.2,0-.2,0-.3,0-.5v-2.2c0-1.1,1-2,2.3-2s1.9.6,2.2,1.5v.2c0,0-3.6,3-3.6,3,.1.2.3.4.5.5.3.2.6.2.9.2.8,0,1.5-.6,1.5-1.3h.7c0,1.1-1,2-2.3,2M2.3,33c-.8,0-1.5.6-1.5,1.3v1.8l2.9-2.4c-.2-.5-.8-.8-1.4-.8"/>
      </g>
    </g>
  </g>
</svg>