<?xml version="1.0" encoding="UTF-8"?>
<svg id="Layer_1" xmlns="http://www.w3.org/2000/svg" viewBox="0 0 144.85 38.56">
  <defs>
    <style>
      .cls-1 {
        fill: #282f42;
      }
    </style>
  </defs>
  <path class="cls-1" d="M67.26,23.93c1.53.91,3.32,1.39,5.17,1.39,5.12,0,9.28-3.68,9.28-8.19v-6.46c0-.17-.2-.26-.34-.16l-13.54,10.92c-.78-.6-1.38-1.34-1.76-2.17l15.43-12.44c.06-.05.09-.14.07-.22l-.2-.63c-1.12-3.51-4.8-5.96-8.93-5.96-5.12,0-9.28,3.68-9.28,8.19v8.93c0,.7.1,1.4.3,2.07.57,1.93,1.92,3.61,3.81,4.73ZM70.25,22.55l8.93-7.2s.08,0,.08.04v1.73c0,3.2-3.07,5.81-6.84,5.81-.74,0-1.47-.1-2.16-.3-.04-.01-.05-.06-.02-.08ZM65.59,8.19c0-3.2,3.07-5.81,6.84-5.81,2.76,0,5.22,1.42,6.29,3.53.01.02,0,.04-.01.06l-13.03,10.51s-.08,0-.08-.04v-8.25Z"/>
  <g>
    <polygon class="cls-1" points="13.02 35.45 14.9 38.5 14 38.5 12.53 36.12 11.14 38.5 10.25 38.5 12.12 35.45 10.24 32.39 11.14 32.39 12.61 34.78 14.01 32.39 14.91 32.39 13.02 35.45"/>
    <polygon class="cls-1" points="24.96 32.39 24.96 33.04 23.3 33.04 23.3 38.5 22.5 38.5 22.5 33.04 20.82 33.04 20.82 32.39 24.96 32.39"/>
    <path class="cls-1" d="M34.34,38.5l-1.45-2.5h-.96s0,2.5,0,2.5h-.8v-6.11h1.97c.46,0,.85.08,1.17.24.32.16.56.37.71.64.16.27.24.58.24.92,0,.42-.12.79-.36,1.11-.24.32-.61.53-1.09.64l1.53,2.56h-.96ZM31.92,35.36h1.18c.43,0,.76-.11.97-.32.22-.21.33-.5.33-.85,0-.36-.11-.64-.32-.84-.21-.2-.54-.3-.98-.3h-1.18s0,2.31,0,2.31Z"/>
    <path class="cls-1" d="M44.86,37.14h-2.66s-.49,1.36-.49,1.36h-.84s2.21-6.08,2.21-6.08h.92s2.2,6.08,2.2,6.08h-.84s-.49-1.36-.49-1.36ZM44.63,36.49l-1.1-3.09-1.11,3.09h2.21Z"/>
    <path class="cls-1" d="M51.31,33.83c.27-.48.64-.85,1.1-1.12.47-.27.98-.4,1.55-.4.67,0,1.25.16,1.74.48.5.32.86.78,1.09,1.37h-.96c-.17-.37-.41-.65-.73-.85-.32-.2-.7-.3-1.14-.3s-.81.1-1.15.3c-.34.2-.6.48-.8.85-.19.37-.29.79-.29,1.28,0,.49.1.91.29,1.28.19.36.46.65.8.85.34.2.72.3,1.15.3s.83-.1,1.14-.29c.32-.2.56-.48.73-.85h.96c-.23.58-.59,1.04-1.09,1.35-.5.32-1.08.48-1.74.48-.57,0-1.08-.13-1.55-.4-.46-.27-.83-.64-1.1-1.11-.27-.47-.4-1.01-.4-1.6,0-.6.14-1.13.4-1.61"/>
    <path class="cls-1" d="M62.66,32.39v3.87c0,.54.13.95.4,1.21.26.26.64.39,1.11.39s.83-.13,1.1-.39c.26-.26.4-.67.4-1.21v-3.87h.8v3.86c0,.51-.1.94-.31,1.28-.2.35-.48.61-.83.78-.35.17-.74.25-1.17.25s-.82-.08-1.17-.25c-.35-.17-.62-.43-.83-.78-.2-.35-.3-.78-.3-1.28v-3.86h.8Z"/>
    <path class="cls-1" d="M75.61,38.5l-1.45-2.5h-.97s0,2.5,0,2.5h-.8v-6.11h1.97c.46,0,.85.08,1.17.24.32.16.56.37.71.64.16.27.24.58.24.92,0,.42-.12.79-.36,1.11-.24.32-.61.53-1.09.64l1.54,2.56h-.96ZM73.19,35.36h1.18c.43,0,.76-.11.97-.32.22-.21.32-.5.32-.85,0-.36-.11-.64-.32-.84-.21-.2-.54-.3-.98-.3h-1.18s0,2.31,0,2.31Z"/>
    <path class="cls-1" d="M85.93,38.5l-1.46-2.5h-.96s0,2.5,0,2.5h-.8v-6.11h1.97c.46,0,.85.08,1.17.24.32.16.56.37.71.64.16.27.24.58.24.92,0,.42-.12.79-.36,1.11-.24.32-.61.53-1.09.64l1.54,2.56h-.96ZM83.51,35.36h1.18c.43,0,.76-.11.97-.32.22-.21.32-.5.32-.85,0-.36-.11-.64-.32-.84-.21-.2-.54-.3-.98-.3h-1.18s0,2.31,0,2.31Z"/>
    <rect class="cls-1" x="92.7" y="32.39" width=".8" height="6.11"/>
    <path class="cls-1" d="M98.96,33.83c.27-.48.64-.85,1.1-1.12.46-.27.98-.4,1.55-.4.67,0,1.25.16,1.74.48.5.32.86.78,1.09,1.37h-.96c-.17-.37-.41-.65-.73-.85-.32-.2-.7-.3-1.14-.3s-.81.1-1.15.3c-.34.2-.6.48-.8.85-.19.37-.29.79-.29,1.28,0,.49.1.91.29,1.28.19.36.46.65.8.85.34.2.72.3,1.15.3s.83-.1,1.14-.29c.32-.2.56-.48.73-.85h.96c-.23.58-.59,1.04-1.09,1.35-.5.32-1.08.48-1.74.48-.57,0-1.08-.13-1.55-.4-.47-.27-.83-.64-1.1-1.11-.27-.47-.4-1.01-.4-1.6s.13-1.13.4-1.61"/>
    <path class="cls-1" d="M110.31,32.39v3.87c0,.54.13.95.4,1.21.26.26.64.39,1.11.39s.83-.13,1.1-.39c.27-.26.4-.67.4-1.21v-3.87h.8v3.86c0,.51-.1.94-.31,1.28-.2.35-.48.61-.83.78-.35.17-.74.25-1.17.25s-.82-.08-1.17-.25c-.35-.17-.62-.43-.83-.78-.2-.35-.3-.78-.3-1.28v-3.86h.8Z"/>
    <polygon class="cls-1" points="121.46 37.85 123.6 37.85 123.6 38.5 120.66 38.5 120.66 32.39 121.46 32.39 121.46 37.85"/>
    <path class="cls-1" d="M133.78,37.14h-2.66s-.49,1.36-.49,1.36h-.84s2.21-6.08,2.21-6.08h.92s2.2,6.08,2.2,6.08h-.84s-.49-1.36-.49-1.36ZM133.55,36.49l-1.1-3.09-1.11,3.09h2.21Z"/>
    <path class="cls-1" d="M143.89,38.5l-1.46-2.5h-.96s0,2.5,0,2.5h-.8v-6.11h1.97c.46,0,.85.08,1.17.24.32.16.56.37.71.64.16.27.24.58.24.92,0,.42-.12.79-.36,1.11-.24.32-.61.53-1.09.64l1.54,2.56h-.96ZM141.47,35.36h1.18c.43,0,.76-.11.97-.32.22-.21.33-.5.33-.85,0-.36-.11-.64-.32-.84-.21-.2-.54-.3-.98-.3h-1.18s0,2.31,0,2.31Z"/>
    <path class="cls-1" d="M2.26,38.56c-.45,0-.88-.12-1.25-.34-.46-.28-.79-.7-.93-1.19C.02,36.86,0,36.69,0,36.51v-2.15c0-1.13,1.01-2.05,2.26-2.05,1.01,0,1.9.61,2.17,1.49l.07.23-3.64,3.01c.11.22.29.41.52.55.26.16.56.24.88.24.84,0,1.53-.59,1.53-1.32h.73c0,1.13-1.01,2.05-2.26,2.05M2.26,33.04c-.84,0-1.53.59-1.53,1.32v1.84s2.91-2.4,2.91-2.4c-.25-.46-.78-.76-1.38-.76"/>
  </g>
</svg>