<svg width="314" height="509" viewBox="0 0 314 509" fill="none" xmlns="http://www.w3.org/2000/svg">
<g clip-path="url(#clip0_461_9361)">
<path d="M190.503 373.971C204.489 376.966 215.986 381.205 222.916 386.027L234.033 393.743L242.535 383.21C263.12 357.727 273.577 326.127 272.536 293.309C274.745 325.645 264.871 357.143 244.439 382.575C224.337 407.601 196.24 423.922 164.767 428.998L190.478 373.971H190.503Z" fill="url(#paint0_linear_461_9361)"/>
<path d="M198.6 391.047C203.22 392.443 207.002 393.915 209.921 395.311C204.184 399.372 198.093 402.875 191.697 405.794L198.6 391.047ZM252.079 207.793L240.099 233.428C249.287 248.403 255.404 265.739 257.384 284.597C260.912 318.228 250.582 350.081 231.241 374.092C220.733 366.782 203.321 360.945 182.102 357.671L150.299 425.718L141.213 445.186C142.228 445.186 143.243 445.211 144.259 445.211C149.36 445.211 154.487 444.957 159.665 444.399C238.322 435.82 295.152 365.107 286.573 286.45C283.273 256.17 270.735 229.164 252.105 207.844L252.079 207.793Z" fill="url(#paint1_linear_461_9361)"/>
<path d="M306.497 31.2931C286.446 37.0039 239.617 47.2581 219.362 25.4046C174.361 -23.1248 112.786 12.1555 125.273 15.8358C166.67 27.9681 160.3 56.8776 193.778 99.1632C208.144 117.311 229.667 121.017 248.856 119.722C250.023 119.646 250.912 120.737 250.556 121.88L221.114 181.196C194.59 164.241 162.33 155.865 128.598 159.546C49.9157 168.099 -6.88801 238.812 1.69093 317.469C7.78248 373.283 45.1694 418.056 94.4602 436.305L64.9162 495.85C62.6572 500.393 65.4999 505.825 70.5255 506.536L87.0234 508.922C90.2723 509.404 93.4449 507.678 94.8409 504.708L312.919 37.8923C314.137 33.9074 310.482 30.151 306.472 31.2931H306.497ZM134.893 354.831C100.882 355.719 71.6169 362.699 55.6012 372.725C42.0982 355.516 33.0624 334.17 30.575 310.388C23.7474 245.081 68.9772 186.349 131.619 179.216C160.985 175.866 188.955 184.496 211.088 201.324L134.893 354.831Z" fill="url(#paint2_linear_461_9361)"/>
</g>
<defs>
<linearGradient id="paint0_linear_461_9361" x1="164.767" y1="293.309" x2="260.949" y2="334.036" gradientUnits="userSpaceOnUse">
<stop stop-color="#C7F7FD"/>
<stop offset="1" stop-color="#C8F843"/>
</linearGradient>
<linearGradient id="paint1_linear_461_9361" x1="141.213" y1="207.793" x2="279.815" y2="253.174" gradientUnits="userSpaceOnUse">
<stop stop-color="#C7F7FD"/>
<stop offset="1" stop-color="#C8F843"/>
</linearGradient>
<linearGradient id="paint2_linear_461_9361" x1="0.833984" y1="0.0117188" x2="297.102" y2="96.6616" gradientUnits="userSpaceOnUse">
<stop stop-color="#C7F7FD"/>
<stop offset="1" stop-color="#C8F843"/>
</linearGradient>
<clipPath id="clip0_461_9361">
<rect width="312.344" height="509" fill="white" transform="translate(0.827637)"/>
</clipPath>
</defs>
</svg>
