<svg width="811" height="231" viewBox="0 0 811 231" fill="none" xmlns="http://www.w3.org/2000/svg">
<g clip-path="url(#clip0_602_4580)">
<path d="M86.2028 169.737C92.5385 171.105 97.7777 173.022 100.946 175.212L106.002 178.71L109.87 173.934C119.222 162.345 123.973 147.987 123.486 133.082C124.491 147.774 120.014 162.102 110.723 173.63C101.585 184.976 88.8224 192.399 74.5366 194.71L86.2333 169.737H86.2028Z" fill="#C8F843"/>
<path d="M89.8883 177.464C91.9596 178.103 93.6653 178.742 95.0056 179.38C92.4165 181.205 89.6751 182.787 86.7814 184.126L89.8883 177.464ZM114.195 94.2991L108.743 105.919C112.916 112.702 115.688 120.581 116.602 129.129C118.186 144.399 113.525 158.848 104.722 169.738C99.9401 166.422 92.051 163.776 82.3951 162.285L67.957 193.16L63.8145 201.982C64.2714 201.982 64.7283 201.982 65.2156 201.982C67.5306 201.982 69.8455 201.86 72.2214 201.616C107.982 197.723 133.781 165.631 129.882 129.919C128.39 116.17 122.694 103.911 114.226 94.2383L114.195 94.2991Z" fill="#C8F843"/>
<path d="M138.899 14.2039C129.791 16.7895 108.499 21.4435 99.3005 11.527C78.8618 -10.4962 50.869 5.50411 56.5346 7.17714C75.3589 12.6829 72.4652 25.7934 87.6648 44.9876C94.1832 53.2311 103.961 54.9042 112.703 54.3262C113.251 54.2958 113.647 54.7825 113.464 55.2996L100.092 82.2202C88.0303 74.5243 73.379 70.7219 58.0576 72.3949C22.3279 76.2885 -3.50229 108.38 0.396605 144.092C3.16847 169.431 20.1652 189.75 42.5534 198.024L29.1205 225.036C28.0848 227.105 29.3946 229.569 31.6791 229.903L39.1723 230.998C40.6648 231.211 42.0965 230.42 42.7361 229.082L141.823 17.1849C142.371 15.3902 140.726 13.6563 138.899 14.1735V14.2039ZM60.9208 161.035C45.4471 161.431 32.1665 164.594 24.8865 169.157C18.7336 161.339 14.6519 151.666 13.5249 140.868C10.418 111.24 30.9785 84.5624 59.4283 81.3381C72.7698 79.8171 85.4716 83.7411 95.5539 91.3763L60.9208 161.035Z" fill="#C8F843"/>
<path d="M208.074 112.85L179.533 53.8379H198.448L222.573 107.253L216.42 107.344L239.174 53.8379H259.277L282.031 107.344L275.878 107.253L300.002 53.8379H318.644L290.56 112.85H268.446L246.24 62.3551H252.302L230.005 112.85H208.074Z" fill="#FAFAFA"/>
<path d="M347.002 114.041C339.539 114.041 333.173 113.189 327.873 111.486C322.573 109.783 318.522 107.167 315.719 103.638C312.917 100.109 311.485 95.6683 311.485 90.3146C311.485 84.9609 312.887 80.4893 315.719 76.9303C318.522 73.4017 322.573 70.7553 327.873 68.991C333.173 67.2267 339.539 66.375 347.002 66.375C354.465 66.375 360.892 67.2571 366.1 68.991C371.309 70.7249 375.299 73.3713 378.071 76.9303C380.843 80.4893 382.244 84.9304 382.244 90.3146C382.244 95.6987 380.843 100.14 378.071 103.638C375.299 107.167 371.309 109.752 366.1 111.486C360.892 113.189 354.525 114.041 347.002 114.041ZM347.002 103.03C350.748 103.03 353.977 102.543 356.779 101.6C359.551 100.657 361.714 99.2273 363.237 97.3413C364.76 95.4553 365.522 93.0827 365.522 90.2841C365.522 87.4856 364.76 85.1738 363.237 83.227C361.714 81.2802 359.582 79.8201 356.871 78.8163C354.16 77.8429 350.87 77.3562 347.002 77.3562C343.133 77.3562 339.905 77.8733 337.102 78.8771C334.3 79.8809 332.107 81.341 330.584 83.227C329.061 85.113 328.299 87.4856 328.299 90.2841C328.299 93.0827 329.061 95.4553 330.553 97.3413C332.046 99.2273 334.239 100.657 337.072 101.6C339.905 102.543 343.225 103.03 347.032 103.03H347.002Z" fill="#FAFAFA"/>
<path d="M390.316 67.5616H406.734V112.825H390.316V67.5616ZM427.02 80.5808C423.335 80.5808 420.045 81.098 417.151 82.1322C414.258 83.1664 411.851 84.444 409.993 85.9345C408.135 87.4251 406.764 88.8852 405.911 90.2844L405.82 85.5999C405.942 84.6265 406.307 83.349 406.886 81.7368C407.465 80.155 408.287 78.482 409.353 76.6872C410.42 74.923 411.79 73.2499 413.435 71.6986C415.08 70.1472 417.029 68.8696 419.314 67.8354C421.568 66.8316 424.157 66.3145 427.02 66.3145V80.52V80.5808Z" fill="#FAFAFA"/>
<path d="M437.773 49.2402H454.191V112.846H437.773V49.2402Z" fill="#FAFAFA"/>
<path d="M492.296 114.032C486.783 114.032 481.879 113.059 477.523 111.112C473.167 109.165 469.756 106.397 467.258 102.868C464.76 99.3399 463.481 95.1421 463.481 90.3055C463.481 85.2256 464.73 80.9366 467.258 77.3776C469.756 73.849 473.167 71.1113 477.493 69.2254C481.818 67.3394 486.752 66.3964 492.327 66.3964C497.048 66.3964 501.16 67.0048 504.724 68.1911C508.288 69.3774 511.212 71.0505 513.588 73.1798C515.933 75.3091 517.73 77.8339 518.918 80.7541C520.106 83.6438 520.715 86.8378 520.715 90.336C520.715 93.3778 520.106 96.3285 518.888 99.127C517.669 101.926 515.872 104.481 513.527 106.732C511.181 108.983 508.227 110.777 504.663 112.085C501.099 113.393 497.018 114.063 492.357 114.063L492.296 114.032ZM498.084 102.656C502.165 102.656 505.82 102.199 508.958 101.287C512.095 100.374 514.593 98.9749 516.451 97.1193C518.279 95.2638 519.192 92.9824 519.192 90.3055C519.192 87.3853 518.248 84.9823 516.39 83.1571C514.532 81.332 512.004 79.9632 508.866 79.081C505.699 78.1989 502.135 77.7426 498.084 77.7426C492.509 77.7426 488.184 78.8377 485.047 81.0278C481.94 83.218 480.356 86.3207 480.356 90.2751C480.356 92.8303 481.087 95.0509 482.519 96.876C483.95 98.7011 485.991 100.131 488.611 101.135C491.23 102.138 494.398 102.656 498.053 102.656H498.084ZM519.192 49.2402H535.519V112.846H520.198C520.015 111.447 519.802 109.439 519.558 106.793C519.314 104.176 519.192 101.408 519.192 98.549V49.2402Z" fill="#FAFAFA"/>
<path d="M607.101 115.504C600.491 115.504 594.49 114.926 589.099 113.8C583.707 112.675 579.047 110.88 575.118 108.447C571.188 106.013 568.142 102.85 565.98 99.0168C563.847 95.1536 562.781 90.4995 562.781 84.9937C562.781 79.4879 563.878 74.8643 566.071 70.9402C568.264 67.0162 571.432 63.731 575.514 61.1454C579.595 58.5598 584.499 56.6434 590.134 55.4267C595.8 54.2099 602.075 53.6016 608.989 53.6016C617.731 53.6016 625.164 54.575 631.225 56.5218C637.287 58.4686 642.008 61.2367 645.359 64.8261C648.709 68.3851 650.537 72.6437 650.902 77.5107H633.753C633.022 75.5639 631.712 73.7996 629.824 72.2483C627.935 70.6969 625.285 69.4497 621.935 68.5372C618.584 67.6246 614.259 67.1683 608.989 67.1683C602.562 67.1683 597.232 67.868 592.967 69.2368C588.703 70.6056 585.535 72.6437 583.464 75.2901C581.392 77.9366 580.357 81.1914 580.357 85.0545C580.357 88.6744 581.362 91.7163 583.342 94.2714C585.322 96.7962 588.459 98.743 592.693 100.051C596.927 101.359 602.501 102.028 609.355 102.028C614.381 102.028 618.736 101.602 622.483 100.751C626.23 99.8989 629.489 98.6821 632.291 97.1308C635.094 95.5794 637.561 93.7543 639.632 91.6858L643.318 91.8683C641.186 99.4426 637.043 105.283 630.89 109.42C624.737 113.557 616.817 115.595 607.07 115.595L607.101 115.504ZM638.84 114.044C638.84 112.158 639.023 109.998 639.358 107.595C639.693 105.192 640.15 102.728 640.698 100.234C641.246 97.7392 641.795 95.3361 642.343 93.0851H611.335V84.5678H652.639V114.074H638.871L638.84 114.044Z" fill="#FAFAFA"/>
<path d="M697.384 115.229C689.921 115.229 683.555 114.377 678.255 112.674C672.955 110.97 668.903 108.354 666.101 104.825C663.299 101.297 661.867 96.8558 661.867 91.5021C661.867 86.1484 663.268 81.6768 666.101 78.1178C668.903 74.5892 672.955 71.9428 678.255 70.1785C683.555 68.4446 689.921 67.5625 697.384 67.5625C704.846 67.5625 711.273 68.4446 716.482 70.1785C721.691 71.9124 725.681 74.5588 728.453 78.1178C731.225 81.6768 732.626 86.1179 732.626 91.5021C732.626 96.8862 731.225 101.327 728.453 104.825C725.681 108.354 721.691 110.94 716.482 112.674C711.273 114.377 704.907 115.229 697.384 115.229ZM697.384 104.217C701.13 104.217 704.359 103.73 707.161 102.787C709.964 101.844 712.096 100.415 713.619 98.5288C715.142 96.6428 715.903 94.2702 715.903 91.4716C715.903 88.6731 715.142 86.3613 713.619 84.4145C712.096 82.4677 709.964 81.0076 707.253 80.0038C704.542 79.0304 701.252 78.5437 697.384 78.5437C693.515 78.5437 690.286 79.0608 687.484 80.0646C684.651 81.0684 682.489 82.5285 680.966 84.4145C679.443 86.3005 678.681 88.6731 678.681 91.4716C678.681 94.2702 679.443 96.6428 680.935 98.5288C682.428 100.415 684.621 101.844 687.454 102.787C690.286 103.73 693.607 104.217 697.414 104.217H697.384Z" fill="#FAFAFA"/>
<path d="M741.825 50.4297H758.243V114.035H741.825V50.4297Z" fill="#FAFAFA"/>
<path d="M764.579 70.5061H810.726V81.5785H764.579V70.5061ZM796.41 50.4297H811V62.3538H802.106C800.035 62.293 798.329 62.4451 797.019 62.8101C795.709 63.1751 794.765 63.8748 794.156 64.8786C793.577 65.8824 793.273 67.4034 793.273 69.411V114.035H776.855V66.5516C776.855 62.871 777.555 59.8595 778.926 57.4868C780.297 55.1142 782.429 53.3195 785.292 52.1636C788.155 51.0076 791.871 50.4297 796.379 50.4297H796.41Z" fill="#FAFAFA"/>
<path d="M269.663 171.526C269.237 176.788 267.379 181.199 264.059 184.758C260.769 188.317 256.078 191.055 250.016 192.91C243.955 194.766 236.492 195.709 227.628 195.709C220.653 195.709 214.317 195.131 208.621 193.975C202.925 192.819 198.052 191.024 193.97 188.621C189.888 186.218 186.781 183.055 184.619 179.191C182.456 175.298 181.359 170.583 181.359 165.047C181.359 159.51 182.456 154.826 184.619 150.841C186.781 146.887 189.919 143.632 193.97 141.138C198.021 138.643 202.925 136.788 208.621 135.601C214.317 134.415 220.653 133.807 227.628 133.807C236.492 133.807 243.985 134.78 250.077 136.727C256.169 138.674 260.86 141.503 264.15 145.214C267.44 148.925 269.328 153.427 269.755 158.75H252.423C251.692 156.438 250.351 154.4 248.432 152.697C246.514 150.993 243.863 149.685 240.543 148.773C237.223 147.86 232.898 147.404 227.659 147.404C221.414 147.404 216.175 148.043 211.911 149.32C207.646 150.598 204.448 152.545 202.285 155.191C200.123 157.807 199.026 161.123 199.026 165.077C199.026 169.032 200.123 172.104 202.285 174.659C204.448 177.184 207.677 179.1 211.911 180.378C216.175 181.655 221.414 182.294 227.659 182.294C232.928 182.294 237.193 181.838 240.513 180.956C243.803 180.074 246.422 178.796 248.372 177.153C250.291 175.511 251.661 173.655 252.453 171.556H269.694L269.663 171.526Z" fill="#FAFAFA"/>
<path d="M280.691 194.252V130.646H297.109V194.252H280.691ZM330.493 194.252V172.898C330.493 170.282 330.006 168.092 329.062 166.358C328.117 164.624 326.503 163.286 324.249 162.373C321.995 161.461 318.827 161.004 314.806 161.004C311.882 161.004 309.11 161.43 306.552 162.282C303.993 163.134 301.8 164.229 300.003 165.567C298.205 166.906 296.957 168.305 296.286 169.795L296.104 165.02C296.408 163.499 297.2 161.765 298.449 159.788C299.698 157.841 301.434 155.924 303.688 154.099C305.912 152.274 308.684 150.753 312.004 149.567C315.294 148.381 319.132 147.772 323.487 147.772C326.655 147.772 329.671 148.137 332.473 148.837C335.275 149.537 337.773 150.662 339.966 152.183C342.129 153.704 343.835 155.651 345.053 157.993C346.271 160.335 346.881 163.195 346.881 166.571V194.252H330.554H330.493Z" fill="#FAFAFA"/>
<path d="M383.737 195.44C378.224 195.44 373.32 194.467 369.025 192.52C364.73 190.573 361.288 187.805 358.76 184.277C356.231 180.748 354.952 176.55 354.952 171.714C354.952 166.634 356.231 162.345 358.76 158.786C361.288 155.257 364.76 152.52 369.116 150.634C373.502 148.748 378.467 147.805 384.042 147.805C390.225 147.805 395.403 148.839 399.546 150.907C403.719 152.976 406.856 155.805 408.958 159.394C411.06 162.984 412.126 167.09 412.126 171.714C412.126 174.756 411.517 177.706 410.298 180.505C409.08 183.303 407.283 185.859 404.937 188.11C402.592 190.361 399.637 192.155 396.073 193.463C392.509 194.771 388.428 195.44 383.767 195.44H383.737ZM389.494 184.094C393.576 184.094 397.231 183.638 400.368 182.725C403.506 181.813 406.003 180.414 407.861 178.558C409.719 176.703 410.603 174.421 410.603 171.744C410.603 168.824 409.658 166.421 407.8 164.596C405.942 162.771 403.414 161.402 400.277 160.52C397.109 159.638 393.545 159.181 389.494 159.181C383.92 159.181 379.594 160.276 376.457 162.467C373.32 164.657 371.766 167.759 371.766 171.714C371.766 174.269 372.497 176.49 373.929 178.315C375.36 180.14 377.401 181.57 380.021 182.573C382.64 183.577 385.808 184.094 389.463 184.094H389.494ZM410.603 148.991H426.929V194.254H411.608C411.242 191.699 410.968 189.326 410.816 187.167C410.664 185.007 410.572 182.604 410.572 179.957V148.991H410.603Z" fill="#FAFAFA"/>
<path d="M437.773 130.646H454.191V194.252H437.773V130.646Z" fill="#FAFAFA"/>
<path d="M466.222 130.646H482.64V194.252H466.222V130.646Z" fill="#FAFAFA"/>
<path d="M544.23 178.673H560.191C559.643 181.958 558.12 184.878 555.653 187.434C553.185 189.958 549.683 191.936 545.205 193.335C540.697 194.734 535.062 195.434 528.269 195.434C520.989 195.434 514.623 194.582 509.14 192.909C503.657 191.236 499.423 188.62 496.438 185.122C493.453 181.593 491.93 177.122 491.93 171.707C491.93 166.293 493.392 161.882 496.347 158.323C499.271 154.794 503.444 152.148 508.836 150.384C514.227 148.65 520.654 147.768 528.117 147.768C535.58 147.768 541.732 148.65 546.576 150.414C551.419 152.178 554.983 154.977 557.298 158.749C559.613 162.521 560.648 167.479 560.404 173.593H508.561C508.866 175.601 509.749 177.456 511.211 179.099C512.674 180.742 514.775 182.05 517.456 182.992C520.136 183.935 523.578 184.422 527.721 184.422C532.137 184.422 535.793 183.905 538.747 182.871C541.702 181.837 543.53 180.437 544.261 178.643L544.23 178.673ZM527.416 158.779C522.025 158.779 517.821 159.631 514.806 161.334C511.79 163.038 509.902 164.985 509.171 167.114H544.322C544.017 164.741 542.463 162.734 539.631 161.152C536.798 159.57 532.747 158.779 527.416 158.779Z" fill="#FAFAFA"/>
<path d="M568.539 148.991H584.957V194.254H568.539V148.991ZM611.305 147.805C614.533 147.805 617.549 148.17 620.351 148.961C623.123 149.721 625.621 150.938 627.783 152.58C629.946 154.223 631.682 156.413 632.931 159.12C634.18 161.828 634.82 165.174 634.82 169.159V194.254H618.493V171.44C618.493 167.334 617.427 164.352 615.325 162.467C613.224 160.581 609.599 159.638 604.451 159.638C601.222 159.638 598.207 160.155 595.404 161.159C592.633 162.162 590.257 163.41 588.307 164.93C586.358 166.421 584.957 167.972 584.165 169.554L584.073 165.417C584.378 163.714 585.17 161.828 586.419 159.82C587.668 157.812 589.404 155.866 591.658 154.041C593.881 152.215 596.653 150.725 599.973 149.539C603.263 148.383 607.071 147.805 611.366 147.805H611.305Z" fill="#FAFAFA"/>
<path d="M673.503 187.555C666.893 187.555 661.288 186.825 656.719 185.365C652.12 183.905 648.647 181.715 646.302 178.825C643.956 175.935 642.769 172.315 642.769 167.965C642.769 163.889 643.926 160.361 646.211 157.38C648.495 154.429 651.937 152.087 656.536 150.383C661.136 148.68 666.771 147.828 673.503 147.828C675.026 147.828 676.579 147.889 678.133 148.011C679.686 148.132 681.24 148.284 682.763 148.467H711.121V158.536C707.557 158.718 704.024 158.414 700.429 157.653C696.866 156.893 693.606 156.041 690.652 155.129L690.104 154.125C692.479 155.098 694.764 156.285 696.896 157.653C699.028 159.022 700.734 160.634 702.044 162.52C703.323 164.376 703.963 166.597 703.963 169.152C703.963 173.015 702.836 176.331 700.582 179.099C698.328 181.897 694.947 183.996 690.439 185.426C685.93 186.855 680.295 187.585 673.503 187.585V187.555ZM690.682 213.502V211.13C690.682 208.818 689.829 207.236 688.124 206.445C686.418 205.654 683.89 205.259 680.6 205.259H661.319C657.968 205.259 655.166 205.015 652.912 204.529C650.688 204.042 648.952 203.342 647.734 202.43C646.515 201.517 645.662 200.483 645.205 199.357C644.748 198.232 644.505 197.046 644.505 195.829C644.505 193.274 645.388 191.297 647.124 189.928C648.861 188.559 651.389 187.616 654.648 187.129C657.907 186.642 661.806 186.46 666.345 186.582L673.503 187.585C669.086 187.646 665.918 187.95 663.999 188.498C662.08 189.046 661.105 190.049 661.105 191.509C661.105 192.422 661.471 193.122 662.202 193.578C662.933 194.034 663.999 194.247 665.4 194.247H685.687C690.652 194.247 694.703 194.703 697.84 195.586C700.978 196.468 703.323 197.958 704.816 200.088C706.308 202.186 707.07 205.076 707.07 208.757V213.533H690.652L690.682 213.502ZM673.503 177.486C676.732 177.486 679.473 177.091 681.666 176.331C683.859 175.57 685.504 174.475 686.631 173.076C687.728 171.676 688.276 170.064 688.276 168.209C688.276 166.262 687.728 164.558 686.631 163.159C685.535 161.76 683.89 160.665 681.727 159.904C679.564 159.144 676.823 158.748 673.503 158.748C670.183 158.748 667.533 159.113 665.279 159.904C663.055 160.665 661.349 161.729 660.222 163.098C659.095 164.467 658.516 166.171 658.516 168.178C658.516 170.003 659.095 171.616 660.222 173.045C661.349 174.445 663.025 175.54 665.218 176.3C667.411 177.061 670.183 177.456 673.472 177.456L673.503 177.486Z" fill="#FAFAFA"/>
<path d="M768.661 178.673H784.622C784.074 181.958 782.551 184.878 780.083 187.434C777.616 189.958 774.113 191.936 769.636 193.335C765.127 194.734 759.492 195.434 752.7 195.434C745.42 195.434 739.054 194.582 733.571 192.909C728.088 191.236 723.854 188.62 720.869 185.122C717.884 181.593 716.361 177.122 716.361 171.707C716.361 166.293 717.823 161.882 720.778 158.323C723.702 154.794 727.875 152.148 733.266 150.384C738.658 148.65 745.085 147.768 752.547 147.768C760.01 147.768 766.163 148.65 771.006 150.414C775.849 152.178 779.413 154.977 781.728 158.749C784.043 162.521 785.079 167.479 784.835 173.593H732.992C733.297 175.601 734.18 177.456 735.642 179.099C737.104 180.742 739.206 182.05 741.886 182.992C744.567 183.935 748.009 184.422 752.151 184.422C756.568 184.422 760.223 183.905 763.178 182.871C766.133 181.837 767.96 180.437 768.691 178.643L768.661 178.673ZM751.877 158.779C746.486 158.779 742.282 159.631 739.267 161.334C736.251 163.038 734.363 164.985 733.632 167.114H768.783C768.478 164.741 766.925 162.734 764.092 161.152C761.259 159.57 757.208 158.779 751.877 158.779Z" fill="#FAFAFA"/>
</g>
<defs>
<clipPath id="clip0_602_4580">
<rect width="811" height="231" fill="white"/>
</clipPath>
</defs>
</svg>
