<svg width="1390" height="365" viewBox="0 0 1390 365" fill="none" xmlns="http://www.w3.org/2000/svg">
<path d="M225.31 272.261C224.372 283.857 220.283 293.576 212.977 301.418C205.738 309.26 195.416 315.292 182.078 319.381C168.74 323.47 152.318 325.548 132.813 325.548C117.464 325.548 103.523 324.274 90.9888 321.727C78.4549 319.18 67.7306 315.225 58.749 309.93C49.7674 304.635 42.9307 297.665 38.1718 289.152C33.413 280.573 31 270.184 31 257.985C31 245.786 33.413 235.464 38.1718 226.683C42.9307 217.97 49.8345 210.798 58.749 205.302C67.6635 199.806 78.4549 195.717 90.9888 193.103C103.523 190.489 117.464 189.148 132.813 189.148C152.318 189.148 168.807 191.293 182.212 195.583C195.617 199.873 205.939 206.106 213.178 214.283C220.417 222.461 224.573 232.381 225.511 244.11H187.373C185.764 239.016 182.815 234.525 178.593 230.772C174.37 227.018 168.539 224.136 161.233 222.126C153.927 220.115 144.409 219.109 132.88 219.109C119.14 219.109 107.611 220.517 98.2277 223.332C88.8439 226.147 81.8062 230.437 77.0473 236.268C72.2884 242.032 69.8754 249.338 69.8754 258.052C69.8754 266.765 72.2884 273.535 77.0473 279.165C81.8062 284.728 88.911 288.951 98.2277 291.766C107.611 294.581 119.14 295.989 132.88 295.989C144.476 295.989 153.86 294.983 161.166 293.04C168.405 291.096 174.169 288.281 178.459 284.661C182.681 281.042 185.697 276.953 187.44 272.328H225.377L225.31 272.261Z" fill="#FAFAFA"/>
<path d="M249.575 322.336V182.184H285.702V322.336H249.575ZM359.23 322.336V275.284C359.23 269.519 358.158 264.693 356.08 260.873C354.002 257.052 350.45 254.103 345.49 252.092C340.53 250.082 333.559 249.076 324.712 249.076C318.277 249.076 312.178 250.015 306.547 251.891C300.917 253.768 296.091 256.181 292.137 259.13C288.182 262.079 285.434 265.163 283.959 268.447L283.557 257.924C284.227 254.572 285.97 250.752 288.718 246.395C291.466 242.105 295.287 237.883 300.247 233.861C305.14 229.84 311.239 226.488 318.545 223.874C325.784 221.26 334.229 219.92 343.814 219.92C350.785 219.92 357.421 220.724 363.587 222.265C369.753 223.807 375.25 226.287 380.075 229.638C384.834 232.99 388.588 237.279 391.269 242.441C393.95 247.602 395.291 253.902 395.291 261.342V322.336H359.364H359.23Z" fill="#FAFAFA"/>
<path d="M476.325 325.007C464.193 325.007 453.402 322.862 443.951 318.572C434.5 314.282 426.926 308.183 421.363 300.408C415.8 292.633 412.985 283.383 412.985 272.726C412.985 261.532 415.8 252.082 421.363 244.24C426.926 236.464 434.567 230.432 444.152 226.276C453.804 222.121 464.729 220.043 476.995 220.043C490.602 220.043 501.996 222.322 511.112 226.88C520.294 231.437 527.198 237.671 531.823 245.58C536.448 253.489 538.794 262.538 538.794 272.726C538.794 279.429 537.453 285.93 534.772 292.097C532.091 298.263 528.137 303.893 522.976 308.853C517.814 313.813 511.313 317.768 503.471 320.65C495.629 323.532 486.647 325.007 476.392 325.007H476.325ZM489.06 299.939C498.042 299.939 506.085 298.933 512.989 296.922C519.892 294.912 525.388 291.828 529.477 287.74C533.566 283.651 535.509 278.624 535.509 272.726C535.509 266.291 533.432 260.996 529.343 256.975C525.254 252.953 519.691 249.937 512.787 247.993C505.817 246.049 497.975 245.044 489.06 245.044C476.794 245.044 467.276 247.457 460.373 252.283C453.469 257.109 450.051 263.945 450.051 272.659C450.051 278.289 451.659 283.182 454.809 287.204C457.96 291.225 462.451 294.375 468.215 296.587C473.979 298.799 480.95 299.939 488.993 299.939H489.06ZM535.509 222.59H571.436V322.326H537.721C536.917 316.695 536.314 311.467 535.979 306.708C535.644 301.949 535.442 296.654 535.442 290.823V222.59H535.509Z" fill="#FAFAFA"/>
<path d="M595.297 182.234H631.424V322.387H595.297V182.234Z" fill="#FAFAFA"/>
<path d="M657.833 182.234H693.96V322.387H657.833V182.234Z" fill="#FAFAFA"/>
<path d="M829.487 288.013H864.609C863.403 295.252 860.052 301.686 854.622 307.317C849.193 312.88 841.485 317.237 831.632 320.32C821.712 323.403 809.313 324.945 794.366 324.945C778.346 324.945 764.338 323.068 752.273 319.382C740.208 315.695 730.891 309.931 724.323 302.223C717.754 294.448 714.403 284.595 714.403 272.664C714.403 260.733 717.62 251.014 724.122 243.172C730.556 235.397 739.739 229.566 751.603 225.678C763.466 221.858 777.609 219.914 794.03 219.914C810.452 219.914 823.991 221.858 834.649 225.745C845.306 229.633 853.148 235.799 858.242 244.111C863.336 252.422 865.615 263.347 865.079 276.82H750.999C751.67 281.243 753.613 285.332 756.831 288.951C760.048 292.571 764.673 295.453 770.571 297.531C776.469 299.609 784.043 300.681 793.159 300.681C802.878 300.681 810.921 299.542 817.423 297.263C823.924 294.984 827.946 291.901 829.555 287.946L829.487 288.013ZM792.556 244.245C780.692 244.245 771.442 246.121 764.807 249.875C758.171 253.628 754.016 257.918 752.407 262.61H829.756C829.085 257.382 825.667 252.958 819.433 249.473C813.2 245.987 804.286 244.245 792.556 244.245Z" fill="#FAFAFA"/>
<path d="M883.043 222.579H919.17V322.314H883.043V222.579ZM977.081 219.965C984.186 219.965 990.822 220.769 996.988 222.512C1003.09 224.188 1008.58 226.869 1013.34 230.488C1018.1 234.107 1021.92 238.933 1024.67 244.899C1027.42 250.864 1028.83 258.237 1028.83 267.018V322.314H992.9V272.045C992.9 262.996 990.554 256.427 985.929 252.272C981.304 248.116 973.328 246.038 962 246.038C954.895 246.038 948.26 247.178 942.093 249.39C935.994 251.601 930.766 254.349 926.476 257.701C922.186 260.985 919.103 264.403 917.361 267.889L917.159 258.773C917.83 255.02 919.572 250.864 922.321 246.44C925.069 242.017 928.889 237.727 933.849 233.705C938.742 229.684 944.841 226.399 952.147 223.785C959.386 221.238 967.765 219.965 977.215 219.965H977.081Z" fill="#FAFAFA"/>
<path d="M1114.02 307.58C1099.47 307.58 1087.14 305.971 1077.08 302.754C1066.96 299.536 1059.32 294.711 1054.16 288.343C1049 281.976 1046.39 273.999 1046.39 264.415C1046.39 255.433 1048.93 247.658 1053.96 241.089C1058.99 234.588 1066.56 229.427 1076.68 225.673C1086.8 221.92 1099.2 220.043 1114.02 220.043C1117.37 220.043 1120.79 220.177 1124.2 220.445C1127.62 220.713 1131.04 221.048 1134.39 221.451H1196.79V243.636C1188.95 244.038 1181.18 243.368 1173.27 241.693C1165.43 240.017 1158.25 238.14 1151.75 236.129L1150.55 233.917C1155.77 236.062 1160.8 238.676 1165.49 241.693C1170.18 244.709 1173.94 248.261 1176.82 252.417C1179.64 256.505 1181.04 261.398 1181.04 267.029C1181.04 275.541 1178.56 282.847 1173.6 288.946C1168.64 295.113 1161.2 299.738 1151.28 302.888C1141.36 306.038 1128.96 307.647 1114.02 307.647V307.58ZM1151.75 364.753V359.525C1151.75 354.431 1149.88 350.946 1146.12 349.203C1142.37 347.461 1136.81 346.589 1129.57 346.589H1087.14C1079.77 346.589 1073.6 346.053 1068.64 344.981C1063.75 343.908 1059.93 342.366 1057.24 340.356C1054.56 338.345 1052.69 336.066 1051.68 333.586C1050.68 331.106 1050.14 328.492 1050.14 325.811C1050.14 320.181 1052.08 315.824 1055.9 312.808C1059.72 309.792 1065.29 307.714 1072.46 306.641C1079.63 305.569 1088.21 305.167 1098.2 305.435L1113.95 307.647C1104.23 307.781 1097.26 308.451 1093.04 309.658C1088.81 310.864 1086.67 313.076 1086.67 316.293C1086.67 318.304 1087.47 319.846 1089.08 320.851C1090.69 321.856 1093.04 322.326 1096.12 322.326H1140.76C1151.69 322.326 1160.6 323.331 1167.5 325.275C1174.41 327.218 1179.57 330.503 1182.85 335.195C1186.14 339.819 1187.81 346.187 1187.81 354.297V364.82H1151.69L1151.75 364.753ZM1114.02 285.394C1121.12 285.394 1127.15 284.523 1131.98 282.847C1136.81 281.171 1140.42 278.758 1142.9 275.675C1145.32 272.592 1146.52 269.039 1146.52 264.951C1146.52 260.661 1145.32 256.908 1142.9 253.824C1140.49 250.741 1136.87 248.328 1132.11 246.653C1127.35 244.977 1121.32 244.106 1114.02 244.106C1106.71 244.106 1100.88 244.91 1095.92 246.653C1091.03 248.328 1087.27 250.674 1084.79 253.69C1082.31 256.707 1081.04 260.46 1081.04 264.884C1081.04 268.905 1082.31 272.458 1084.79 275.608C1087.27 278.691 1090.96 281.104 1095.78 282.78C1100.61 284.456 1106.71 285.327 1113.95 285.327L1114.02 285.394Z" fill="#FAFAFA"/>
<path d="M1323.41 288.013H1358.53C1357.32 295.252 1353.97 301.686 1348.54 307.317C1343.11 312.88 1335.41 317.237 1325.55 320.32C1315.63 323.403 1303.23 324.945 1288.29 324.945C1272.27 324.945 1258.26 323.068 1246.19 319.382C1234.13 315.695 1224.81 309.931 1218.24 302.223C1211.67 294.448 1208.32 284.595 1208.32 272.664C1208.32 260.733 1211.54 251.014 1218.04 243.172C1224.48 235.397 1233.66 229.566 1245.52 225.678C1257.39 221.858 1271.53 219.914 1287.95 219.914C1304.37 219.914 1317.91 221.858 1328.57 225.745C1339.23 229.633 1347.07 235.799 1352.16 244.111C1357.26 252.422 1359.54 263.347 1359 276.82H1244.92C1245.59 281.243 1247.53 285.332 1250.75 288.951C1253.97 292.571 1258.59 295.453 1264.49 297.531C1270.39 299.609 1277.96 300.681 1287.08 300.681C1296.8 300.681 1304.84 299.542 1311.34 297.263C1317.84 294.984 1321.87 291.901 1323.47 287.946L1323.41 288.013ZM1286.48 244.245C1274.61 244.245 1265.36 246.121 1258.73 249.875C1252.09 253.628 1247.94 257.918 1246.33 262.61H1323.68C1323.01 257.382 1319.59 252.958 1313.35 249.473C1307.12 245.987 1298.21 244.245 1286.48 244.245Z" fill="#FAFAFA"/>
<path d="M62.8039 140.141L0 10.1094H41.6235L94.7086 127.808L81.1692 128.009L131.238 10.1094H175.476L225.545 128.009L212.005 127.808L265.09 10.1094H306.11L244.312 140.141H195.651L146.788 28.8768H160.127L111.063 140.141H62.8039Z" fill="#FAFAFA"/>
<path d="M368.513 142.761C352.091 142.761 338.083 140.884 326.42 137.131C314.758 133.377 305.843 127.613 299.677 119.838C293.51 112.063 290.36 102.277 290.36 90.4804C290.36 78.6837 293.443 68.8308 299.677 60.9887C305.843 53.2136 314.758 47.3823 326.42 43.4947C338.083 39.6072 352.091 37.7305 368.513 37.7305C384.934 37.7305 399.077 39.6742 410.539 43.4947C422 47.3153 430.781 53.1466 436.88 60.9887C442.979 68.8308 446.063 78.6167 446.063 90.4804C446.063 102.344 442.979 112.13 436.88 119.838C430.781 127.613 422 133.31 410.539 137.131C399.077 140.884 385.068 142.761 368.513 142.761ZM368.513 118.498C376.757 118.498 383.862 117.425 390.028 115.347C396.128 113.269 400.887 110.119 404.238 105.964C407.589 101.808 409.265 96.5798 409.265 90.4134C409.265 84.2469 407.589 79.1529 404.238 74.8632C400.887 70.5735 396.195 67.3562 390.23 65.1443C384.264 62.9995 377.025 61.9271 368.513 61.9271C360 61.9271 352.896 63.0665 346.729 65.2784C340.563 67.4903 335.737 70.7075 332.386 74.8632C329.034 79.0188 327.359 84.2469 327.359 90.4134C327.359 96.5798 329.034 101.808 332.319 105.964C335.603 110.119 340.429 113.269 346.662 115.347C352.896 117.425 360.202 118.498 368.58 118.498H368.513Z" fill="#FAFAFA"/>
<path d="M463.824 40.3457H499.951V140.081H463.824V40.3457ZM544.591 69.0331C536.48 69.0331 529.242 70.1726 522.874 72.4515C516.507 74.7304 511.211 77.5455 507.123 80.8298C503.034 84.1141 500.018 87.3314 498.141 90.4146L497.94 80.0925C498.208 77.9477 499.013 75.1325 500.286 71.5801C501.56 68.0948 503.369 64.4083 505.715 60.4537C508.061 56.5662 511.077 52.8797 514.697 49.4614C518.316 46.043 522.606 43.2279 527.633 40.949C532.593 38.7371 538.29 37.5977 544.591 37.5977V68.8991V69.0331Z" fill="#FAFAFA"/>
<path d="M568.252 0H604.379V140.153H568.252V0Z" fill="#FAFAFA"/>
<path d="M688.229 142.767C676.097 142.767 665.306 140.622 655.721 136.332C646.136 132.042 638.629 125.943 633.133 118.168C627.637 110.393 624.822 101.143 624.822 90.4859C624.822 79.2925 627.57 69.8417 633.133 61.9996C638.629 54.2245 646.136 48.1921 655.654 44.0365C665.172 39.8808 676.03 37.803 688.296 37.803C698.685 37.803 707.734 39.1435 715.576 41.7576C723.418 44.3716 729.853 48.0581 735.081 52.7499C740.242 57.4418 744.196 63.005 746.81 69.4396C749.424 75.8071 750.765 82.8449 750.765 90.5529C750.765 97.2556 749.424 103.757 746.743 109.924C744.062 116.09 740.108 121.72 734.947 126.68C729.785 131.64 723.284 135.595 715.442 138.477C707.6 141.359 698.618 142.834 688.363 142.834L688.229 142.767ZM700.964 117.699C709.946 117.699 717.989 116.693 724.893 114.683C731.796 112.672 737.292 109.588 741.381 105.5C745.403 101.411 747.413 96.3843 747.413 90.4859C747.413 84.0514 745.336 78.7563 741.247 74.7347C737.158 70.7131 731.595 67.6969 724.691 65.7531C717.721 63.8093 709.879 62.8039 700.964 62.8039C688.698 62.8039 679.18 65.2169 672.277 70.0428C665.44 74.8687 661.955 81.7054 661.955 90.4189C661.955 96.0491 663.563 100.942 666.713 104.964C669.864 108.985 674.354 112.135 680.119 114.347C685.883 116.559 692.854 117.699 700.897 117.699H700.964ZM747.413 0H783.34V140.153H749.625C749.223 137.069 748.754 132.646 748.218 126.814C747.682 121.05 747.413 114.951 747.413 108.65V0Z" fill="#FAFAFA"/>
<path d="M940.853 145.981C926.308 145.981 913.104 144.708 901.24 142.228C889.376 139.748 879.121 135.793 870.475 130.431C861.828 125.069 855.126 118.098 850.367 109.653C845.675 101.14 843.329 90.8853 843.329 78.7535C843.329 66.6217 845.742 56.4336 850.568 47.7872C855.394 39.1408 862.365 31.9019 871.346 26.2046C880.328 20.5074 891.119 16.2847 903.519 13.6036C915.986 10.9226 929.793 9.58203 945.008 9.58203C964.245 9.58203 980.6 11.7269 993.938 16.0166C1007.28 20.3063 1017.67 26.4057 1025.04 34.3149C1032.41 42.157 1036.43 51.5407 1037.24 62.2649H999.501C997.892 57.9752 995.01 54.0877 990.855 50.6693C986.699 47.251 980.868 44.5029 973.495 42.4921C966.122 40.4813 956.604 39.4759 945.008 39.4759C930.866 39.4759 919.136 41.0175 909.752 44.0337C900.369 47.0499 893.398 51.5407 888.84 57.372C884.282 63.2033 882.003 70.3752 882.003 78.8875C882.003 86.8637 884.215 93.5664 888.572 99.1966C892.929 104.76 899.832 109.05 909.149 111.932C918.466 114.814 930.732 116.288 945.813 116.288C956.872 116.288 966.457 115.35 974.701 113.473C982.946 111.597 990.117 108.915 996.284 105.497C1002.45 102.079 1007.88 98.0571 1012.44 93.4993L1020.55 93.9015C1015.86 110.591 1006.74 123.46 993.201 132.576C979.661 141.691 962.234 146.182 940.786 146.182L940.853 145.981ZM1010.69 142.764C1010.69 138.608 1011.1 133.849 1011.83 128.554C1012.57 123.259 1013.58 117.83 1014.78 112.334C1015.99 106.838 1017.2 101.543 1018.4 96.5826H950.17V77.8151H1041.06V142.831H1010.76L1010.69 142.764Z" fill="#FAFAFA"/>
<path d="M1139.52 145.378C1123.1 145.378 1109.09 143.502 1097.43 139.748C1085.76 135.995 1076.85 130.23 1070.68 122.455C1064.52 114.68 1061.37 104.894 1061.37 93.0976C1061.37 81.3009 1064.45 71.448 1070.68 63.6059C1076.85 55.8308 1085.76 49.9995 1097.43 46.1119C1109.09 42.2914 1123.1 40.3477 1139.52 40.3477C1155.94 40.3477 1170.08 42.2914 1181.54 46.1119C1193.01 49.9325 1201.79 55.7638 1207.89 63.6059C1213.98 71.448 1217.07 81.2339 1217.07 93.0976C1217.07 104.961 1213.98 114.747 1207.89 122.455C1201.79 130.23 1193.01 135.928 1181.54 139.748C1170.08 143.502 1156.07 145.378 1139.52 145.378ZM1139.52 121.115C1147.76 121.115 1154.87 120.042 1161.03 117.964C1167.2 115.887 1171.89 112.736 1175.24 108.581C1178.59 104.425 1180.27 99.197 1180.27 93.0306C1180.27 86.8641 1178.59 81.7701 1175.24 77.4804C1171.89 73.1907 1167.2 69.9734 1161.23 67.7615C1155.27 65.6167 1148.03 64.5443 1139.52 64.5443C1131.01 64.5443 1123.9 65.6837 1117.73 67.8956C1111.5 70.1075 1106.74 73.3247 1103.39 77.4804C1100.04 81.636 1098.36 86.8641 1098.36 93.0306C1098.36 99.197 1100.04 104.425 1103.32 108.581C1106.61 112.736 1111.43 115.887 1117.67 117.964C1123.9 120.042 1131.21 121.115 1139.59 121.115H1139.52Z" fill="#FAFAFA"/>
<path d="M1237.31 2.62109H1273.44V142.774H1237.31V2.62109Z" fill="#FAFAFA"/>
<path d="M1287.38 46.8586H1388.93V71.2563H1287.38V46.8586ZM1357.42 2.62109H1389.53V28.8955H1369.96C1365.4 28.7615 1361.65 29.0966 1358.76 29.9009C1355.88 30.7052 1353.8 32.2468 1352.46 34.4587C1351.19 36.6706 1350.52 40.0219 1350.52 44.4457V142.774H1314.39V38.1452C1314.39 30.035 1315.93 23.3993 1318.95 18.1713C1321.97 12.9432 1326.66 8.98862 1332.96 6.44161C1339.26 3.8946 1347.44 2.62109 1357.36 2.62109H1357.42Z" fill="#FAFAFA"/>
</svg>
