<svg width="384" height="100" viewBox="0 0 384 100" fill="none" xmlns="http://www.w3.org/2000/svg">
<g clip-path="url(#clip0_1067_23262)">
<path d="M17.3479 38.7257L-0.00390625 2.7998H11.4961L26.1628 35.3183L22.422 35.3739L36.2554 2.7998H48.4776L62.3109 35.3739L58.5702 35.3183L73.2554 2.7998H84.5887L67.5146 38.7257H54.0702L40.5702 7.98499H44.2554L30.6998 38.7257H17.3665H17.3479Z" fill="#002F18"/>
<path d="M101.831 39.4421C97.2938 39.4421 93.4235 38.9236 90.2012 37.8865C86.979 36.8495 84.5161 35.2569 82.8124 33.1088C81.1087 30.9606 80.2383 28.2569 80.2383 24.9977C80.2383 21.7384 81.0901 19.0162 82.8124 16.8495C84.5161 14.7014 86.979 13.0902 90.2012 12.0162C93.4235 10.9421 97.2938 10.4236 101.831 10.4236C106.368 10.4236 110.275 10.9606 113.442 12.0162C116.609 13.0717 119.035 14.6828 120.72 16.8495C122.405 19.0162 123.257 21.7199 123.257 24.9977C123.257 28.2754 122.405 30.9791 120.72 33.1088C119.035 35.2569 116.609 36.831 113.442 37.8865C110.275 38.9236 106.405 39.4421 101.831 39.4421ZM101.831 32.7384C104.109 32.7384 106.072 32.4421 107.775 31.868C109.461 31.294 110.775 30.4236 111.701 29.2754C112.627 28.1273 113.09 26.6828 113.09 24.9791C113.09 23.2754 112.627 21.868 111.701 20.6828C110.775 19.4977 109.479 18.6088 107.831 17.9977C106.183 17.4051 104.183 17.1088 101.831 17.1088C99.479 17.1088 97.5161 17.4236 95.8124 18.0347C94.1087 18.6458 92.7753 19.5347 91.8494 20.6828C90.9235 21.831 90.4605 23.2754 90.4605 24.9791C90.4605 26.6828 90.9235 28.1273 91.8309 29.2754C92.7383 30.4236 94.0716 31.294 95.7938 31.868C97.5161 32.4421 99.5346 32.7384 101.849 32.7384H101.831Z" fill="#002F18"/>
<path d="M128.16 11.1654H138.142V38.7209H128.16V11.1654ZM150.475 19.0728C148.234 19.0728 146.234 19.3876 144.475 20.0172C142.716 20.6468 141.253 21.4246 140.123 22.332C138.993 23.2394 138.16 24.1283 137.642 24.9802L137.586 22.1283C137.66 21.5357 137.882 20.7579 138.234 19.7765C138.586 18.8135 139.086 17.795 139.734 16.7024C140.382 15.6283 141.216 14.6098 142.216 13.6654C143.216 12.7209 144.401 11.9431 145.79 11.3135C147.16 10.7024 148.734 10.3876 150.475 10.3876V19.0357V19.0728Z" fill="#002F18"/>
<path d="M157.016 0H166.997V38.7222H157.016V0Z" fill="#002F18"/>
<path d="M190.147 39.4444C186.796 39.4444 183.814 38.8518 181.166 37.6667C178.518 36.4815 176.444 34.7963 174.925 32.6481C173.407 30.5 172.629 27.9444 172.629 25C172.629 21.9074 173.388 19.2963 174.925 17.1296C176.444 14.9815 178.518 13.3148 181.147 12.1667C183.777 11.0185 186.777 10.4444 190.166 10.4444C193.036 10.4444 195.536 10.8148 197.703 11.537C199.87 12.2593 201.647 13.2778 203.092 14.5741C204.518 15.8704 205.61 17.4074 206.333 19.1852C207.055 20.9444 207.425 22.8889 207.425 25.0185C207.425 26.8704 207.055 28.6667 206.314 30.3704C205.573 32.0741 204.481 33.6296 203.055 35C201.629 36.3704 199.833 37.463 197.666 38.2593C195.499 39.0556 193.018 39.463 190.184 39.463L190.147 39.4444ZM193.666 32.5185C196.147 32.5185 198.37 32.2407 200.277 31.6852C202.184 31.1296 203.703 30.2778 204.833 29.1481C205.944 28.0185 206.499 26.6296 206.499 25C206.499 23.2222 205.925 21.7593 204.796 20.6481C203.666 19.537 202.129 18.7037 200.221 18.1667C198.296 17.6296 196.129 17.3519 193.666 17.3519C190.277 17.3519 187.647 18.0185 185.74 19.3519C183.851 20.6852 182.888 22.5741 182.888 24.9815C182.888 26.537 183.333 27.8889 184.203 29C185.073 30.1111 186.314 30.9815 187.907 31.5926C189.499 32.2037 191.425 32.5185 193.647 32.5185H193.666ZM206.499 0H216.425V38.7222H207.11C206.999 37.8704 206.87 36.6481 206.721 35.037C206.573 33.4444 206.499 31.7593 206.499 30.0185V0Z" fill="#002F18"/>
<path d="M259.944 40.3326C255.926 40.3326 252.278 39.9808 249 39.2956C245.722 38.6104 242.889 37.5178 240.5 36.0363C238.111 34.5549 236.259 32.6289 234.944 30.2956C233.648 27.9438 233 25.1104 233 21.7586C233 18.4067 233.667 15.5919 235 13.203C236.333 10.8141 238.259 8.81413 240.741 7.24005C243.222 5.66598 246.204 4.49931 249.63 3.75857C253.074 3.01783 256.889 2.64746 261.093 2.64746C266.407 2.64746 270.926 3.24005 274.611 4.42524C278.296 5.61042 281.167 7.29561 283.204 9.48079C285.241 11.6475 286.352 14.2401 286.574 17.203H276.148C275.704 16.0178 274.907 14.9438 273.759 13.9993C272.611 13.0549 271 12.2956 268.963 11.7401C266.926 11.1845 264.296 10.9067 261.093 10.9067C257.185 10.9067 253.944 11.3326 251.352 12.166C248.759 12.9993 246.833 14.2401 245.574 15.8512C244.315 17.4623 243.685 19.4438 243.685 21.7956C243.685 23.9993 244.296 25.8512 245.5 27.4067C246.704 28.9438 248.611 30.1289 251.185 30.9252C253.759 31.7215 257.148 32.1289 261.315 32.1289C264.37 32.1289 267.019 31.8697 269.296 31.3512C271.574 30.8326 273.556 30.0919 275.259 29.1475C276.963 28.203 278.463 27.0919 279.722 25.8326L281.963 25.9438C280.667 30.5549 278.148 34.1104 274.407 36.6289C270.667 39.1475 265.852 40.3882 259.926 40.3882L259.944 40.3326ZM279.259 39.4438C279.259 38.2956 279.37 36.9808 279.574 35.5178C279.778 34.0549 280.056 32.5549 280.389 31.0363C280.722 29.5178 281.056 28.0549 281.389 26.6845H262.537V21.4993H287.648V39.4623H279.278L279.259 39.4438Z" fill="#002F18"/>
<path d="M314.85 40.1654C310.313 40.1654 306.443 39.6468 303.221 38.6098C299.999 37.5728 297.536 35.9802 295.832 33.832C294.128 31.6839 293.258 28.9802 293.258 25.7209C293.258 22.4617 294.11 19.7394 295.832 17.5728C297.536 15.4246 299.999 13.8135 303.221 12.7394C306.443 11.6839 310.313 11.1469 314.85 11.1469C319.387 11.1469 323.295 11.6839 326.462 12.7394C329.628 13.795 332.054 15.4061 333.739 17.5728C335.424 19.7394 336.276 22.4431 336.276 25.7209C336.276 28.9987 335.424 31.7024 333.739 33.832C332.054 35.9802 329.628 37.5543 326.462 38.6098C323.295 39.6468 319.424 40.1654 314.85 40.1654ZM314.85 33.4802C317.128 33.4802 319.091 33.1839 320.795 32.6098C322.499 32.0357 323.795 31.1654 324.721 30.0172C325.647 28.8691 326.11 27.4246 326.11 25.7209C326.11 24.0172 325.647 22.6098 324.721 21.4246C323.795 20.2394 322.499 19.3506 320.85 18.7394C319.202 18.1468 317.202 17.8506 314.85 17.8506C312.499 17.8506 310.536 18.1654 308.832 18.7765C307.11 19.3876 305.795 20.2765 304.869 21.4246C303.943 22.5728 303.48 24.0172 303.48 25.7209C303.48 27.4246 303.943 28.8691 304.85 30.0172C305.758 31.1654 307.091 32.0357 308.813 32.6098C310.536 33.1839 312.554 33.4802 314.869 33.4802H314.85Z" fill="#002F18"/>
<path d="M341.852 0.723267H351.833V39.4455H341.852V0.723267Z" fill="#002F18"/>
<path d="M355.68 12.9455H383.735V19.6862H355.68V12.9455ZM375.032 0.723267H383.902V7.98253H378.494C377.235 7.94549 376.198 8.03808 375.402 8.2603C374.606 8.48253 374.032 8.90845 373.661 9.51956C373.309 10.1307 373.124 11.0566 373.124 12.2788V39.4455H363.143V10.5381C363.143 8.29734 363.569 6.46401 364.402 5.01956C365.235 3.57512 366.532 2.48253 368.272 1.77882C370.013 1.07512 372.272 0.723267 375.013 0.723267H375.032Z" fill="#002F18"/>
<path d="M54.7906 74.4468C54.5314 77.6506 53.4018 80.3357 51.3832 82.5024C49.3832 84.6691 46.5314 86.3357 42.8462 87.4654C39.161 88.595 34.624 89.1691 29.2351 89.1691C24.9944 89.1691 21.1425 88.8172 17.6795 88.1135C14.2166 87.4098 11.2536 86.3172 8.77213 84.8543C6.29065 83.3913 4.40176 81.4654 3.08695 79.1135C1.77214 76.7431 1.10547 73.8728 1.10547 70.5024C1.10547 67.132 1.77214 64.2802 3.08695 61.8543C4.40176 59.4469 6.30917 57.4654 8.77213 55.9468C11.2351 54.4283 14.2166 53.2987 17.6795 52.5765C21.1425 51.8543 24.9944 51.4839 29.2351 51.4839C34.624 51.4839 39.1795 52.0765 42.8832 53.2617C46.5869 54.4469 49.4388 56.1691 51.4388 58.4283C53.4388 60.6876 54.5869 63.4283 54.8462 66.6691H44.3092C43.8647 65.2617 43.0499 64.0209 41.8832 62.9839C40.7166 61.9468 39.1055 61.1506 37.0869 60.595C35.0684 60.0394 32.4388 59.7617 29.2536 59.7617C25.4573 59.7617 22.2721 60.1506 19.6795 60.9283C17.0869 61.7061 15.1425 62.8913 13.8277 64.5024C12.5129 66.095 11.8462 68.1135 11.8462 70.5209C11.8462 72.9283 12.5129 74.7987 13.8277 76.3543C15.1425 77.8913 17.1055 79.058 19.6795 79.8357C22.2721 80.6135 25.4573 81.0024 29.2536 81.0024C32.4573 81.0024 35.0499 80.7246 37.0684 80.1876C39.0684 79.6505 40.661 78.8728 41.8462 77.8728C43.0129 76.8728 43.8462 75.7431 44.3277 74.4654H54.8092L54.7906 74.4468Z" fill="#002F18"/>
<path d="M61.4961 88.2803V49.5581H71.4776V88.2803H61.4961ZM91.7924 88.2803V75.2803C91.7924 73.6877 91.4961 72.3544 90.922 71.2988C90.3479 70.2433 89.3665 69.4285 87.9961 68.8729C86.6257 68.3174 84.6998 68.0396 82.2554 68.0396C80.4776 68.0396 78.7924 68.2988 77.2368 68.8174C75.6813 69.3359 74.3479 70.0026 73.2554 70.8174C72.1628 71.6322 71.4035 72.484 70.9961 73.3914L70.885 70.484C71.0702 69.5581 71.5516 68.5026 72.3109 67.2988C73.0702 66.1137 74.1257 64.947 75.4961 63.8359C76.8479 62.7248 78.5331 61.7988 80.5517 61.0766C82.5517 60.3544 84.885 59.984 87.5331 59.984C89.4591 59.984 91.2924 60.2063 92.9961 60.6322C94.6998 61.0581 96.2183 61.7433 97.5517 62.6692C98.8665 63.5951 99.9035 64.7803 100.644 66.2063C101.385 67.6322 101.755 69.3729 101.755 71.4285V88.2803H91.8294H91.7924Z" fill="#002F18"/>
<path d="M124.145 89.0197C120.793 89.0197 117.811 88.4271 115.2 87.2419C112.589 86.0567 110.496 84.3715 108.959 82.2234C107.422 80.0752 106.645 77.5197 106.645 74.5752C106.645 71.4826 107.422 68.8715 108.959 66.7048C110.496 64.5567 112.607 62.89 115.256 61.7419C117.922 60.5937 120.941 60.0197 124.33 60.0197C128.089 60.0197 131.237 60.6493 133.756 61.9085C136.293 63.1678 138.2 64.89 139.478 67.0752C140.756 69.2604 141.404 71.7604 141.404 74.5752C141.404 76.4271 141.033 78.2234 140.293 79.9271C139.552 81.6308 138.459 83.1863 137.033 84.5567C135.607 85.9271 133.811 87.0196 131.645 87.8159C129.478 88.6122 126.996 89.0197 124.163 89.0197H124.145ZM127.663 82.0937C130.145 82.0937 132.367 81.816 134.274 81.2604C136.182 80.7048 137.7 79.853 138.83 78.7234C139.959 77.5937 140.496 76.2048 140.496 74.5752C140.496 72.7974 139.922 71.3345 138.793 70.2234C137.663 69.1122 136.126 68.2789 134.219 67.7419C132.293 67.2048 130.126 66.9271 127.663 66.9271C124.274 66.9271 121.645 67.5937 119.737 68.9271C117.83 70.2604 116.885 72.1493 116.885 74.5567C116.885 76.1122 117.33 77.4641 118.2 78.5752C119.07 79.6863 120.311 80.5567 121.904 81.1678C123.496 81.7789 125.422 82.0937 127.645 82.0937H127.663ZM140.496 60.7234H150.422V88.2789H141.107C140.885 86.7234 140.719 85.2789 140.626 83.9641C140.533 82.6493 140.478 81.1863 140.478 79.5752V60.7234H140.496Z" fill="#002F18"/>
<path d="M156.996 49.5721H166.978V88.2944H156.996V49.5721Z" fill="#002F18"/>
<path d="M174.293 49.5721H184.274V88.2944H174.293V49.5721Z" fill="#002F18"/>
<path d="M221.718 78.7985H231.422C231.089 80.7985 230.163 82.5762 228.663 84.1318C227.163 85.6688 225.033 86.8725 222.311 87.7244C219.57 88.5762 216.144 89.0022 212.014 89.0022C207.589 89.0022 203.718 88.4836 200.385 87.4651C197.052 86.4466 194.477 84.854 192.663 82.7244C190.848 80.5762 189.922 77.854 189.922 74.5577C189.922 71.2614 190.811 68.5762 192.607 66.4096C194.385 64.2614 196.922 62.6503 200.2 61.5762C203.477 60.5207 207.385 59.9836 211.922 59.9836C216.459 59.9836 220.2 60.5207 223.144 61.5948C226.089 62.6688 228.255 64.3725 229.663 66.6688C231.07 68.9651 231.7 71.9836 231.552 75.7059H200.033C200.218 76.9281 200.755 78.0577 201.644 79.0577C202.533 80.0577 203.811 80.854 205.44 81.4281C207.07 82.0022 209.163 82.2985 211.681 82.2985C214.366 82.2985 216.589 81.9836 218.385 81.354C220.181 80.7244 221.292 79.8725 221.737 78.7799L221.718 78.7985ZM211.514 66.6873C208.237 66.6873 205.681 67.2059 203.848 68.2429C202.014 69.2799 200.866 70.4651 200.422 71.7614H221.792C221.607 70.317 220.663 69.0948 218.94 68.1318C217.218 67.1688 214.755 66.6873 211.514 66.6873Z" fill="#002F18"/>
<path d="M236.496 60.72H246.478V88.2756H236.496V60.72ZM262.496 59.9978C264.459 59.9978 266.292 60.22 267.996 60.7015C269.681 61.1645 271.2 61.9052 272.515 62.9052C273.829 63.9052 274.885 65.2385 275.644 66.8867C276.404 68.5348 276.792 70.5719 276.792 72.9978V88.2756H266.866V74.3867C266.866 71.8867 266.218 70.0719 264.941 68.9237C263.663 67.7756 261.459 67.2015 258.329 67.2015C256.366 67.2015 254.533 67.5163 252.829 68.1274C251.144 68.7385 249.7 69.4978 248.515 70.4237C247.329 71.3311 246.478 72.2756 245.996 73.2385L245.941 70.72C246.126 69.683 246.607 68.5348 247.366 67.3126C248.126 66.0904 249.181 64.9052 250.552 63.7941C251.904 62.683 253.589 61.7756 255.607 61.0534C257.607 60.3497 259.922 59.9978 262.533 59.9978H262.496Z" fill="#002F18"/>
<path d="M300.33 84.2048C296.311 84.2048 292.904 83.7604 290.126 82.8715C287.33 81.9826 285.219 80.6493 283.793 78.89C282.367 77.1308 281.645 74.9271 281.645 72.2789C281.645 69.7974 282.348 67.6493 283.737 65.8345C285.126 64.0382 287.219 62.6122 290.015 61.5752C292.811 60.5382 296.237 60.0197 300.33 60.0197C301.256 60.0197 302.2 60.0567 303.145 60.1308C304.089 60.2048 305.033 60.2974 305.959 60.4085H323.2V66.5382C321.033 66.6493 318.885 66.4641 316.7 66.0011C314.533 65.5382 312.552 65.0197 310.756 64.4641L310.422 63.853C311.867 64.4456 313.256 65.1678 314.552 66.0011C315.848 66.8345 316.885 67.816 317.682 68.9641C318.459 70.0937 318.848 71.4456 318.848 73.0011C318.848 75.353 318.163 77.3715 316.793 79.0567C315.422 80.7604 313.367 82.0382 310.626 82.9085C307.885 83.7789 304.459 84.2234 300.33 84.2234V84.2048ZM310.756 100.001V98.5567C310.756 97.1493 310.237 96.1863 309.2 95.7048C308.163 95.2234 306.626 94.9826 304.626 94.9826H292.904C290.867 94.9826 289.163 94.8345 287.793 94.5382C286.441 94.2419 285.385 93.8159 284.645 93.2604C283.904 92.7048 283.385 92.0752 283.108 91.39C282.83 90.7048 282.682 89.9826 282.682 89.2419C282.682 87.6863 283.219 86.4826 284.274 85.6493C285.33 84.8159 286.867 84.2419 288.848 83.9456C290.83 83.6493 293.2 83.5382 295.959 83.6122L300.311 84.2234C297.626 84.2604 295.7 84.4456 294.533 84.7789C293.367 85.1122 292.774 85.7234 292.774 86.6122C292.774 87.1678 292.996 87.5937 293.441 87.8715C293.885 88.1493 294.533 88.2789 295.385 88.2789H307.719C310.737 88.2789 313.2 88.5567 315.108 89.0937C317.015 89.6308 318.441 90.5382 319.348 91.8345C320.256 93.1122 320.719 94.8715 320.719 97.1122V100.02H310.737L310.756 100.001ZM300.33 78.0752C302.293 78.0752 303.959 77.8345 305.293 77.3715C306.626 76.9085 307.626 76.2419 308.311 75.39C308.978 74.5382 309.311 73.5567 309.311 72.4271C309.311 71.2419 308.978 70.2048 308.311 69.353C307.645 68.5011 306.645 67.8345 305.33 67.3715C304.015 66.9085 302.348 66.6678 300.33 66.6678C298.311 66.6678 296.7 66.89 295.33 67.3715C293.978 67.8345 292.941 68.4826 292.256 69.3159C291.57 70.1493 291.219 71.1863 291.219 72.4085C291.219 73.5196 291.57 74.5011 292.256 75.3715C292.941 76.2234 293.959 76.89 295.293 77.353C296.626 77.8159 298.311 78.0567 300.311 78.0567L300.33 78.0752Z" fill="#002F18"/>
<path d="M358.179 78.7985H367.883C367.549 80.7985 366.624 82.5762 365.124 84.1318C363.624 85.6688 361.494 86.8725 358.772 87.7244C356.031 88.5762 352.605 89.0022 348.475 89.0022C344.049 89.0022 340.179 88.4836 336.846 87.4651C333.512 86.4466 330.938 84.854 329.124 82.7244C327.309 80.5762 326.383 77.854 326.383 74.5577C326.383 71.2614 327.272 68.5762 329.068 66.4096C330.846 64.2614 333.383 62.6503 336.661 61.5762C339.938 60.5207 343.846 59.9836 348.383 59.9836C352.92 59.9836 356.661 60.5207 359.605 61.5948C362.549 62.6688 364.716 64.3725 366.124 66.6688C367.531 68.9651 368.161 71.9836 368.012 75.7059H336.494C336.679 76.9281 337.216 78.0577 338.105 79.0577C338.994 80.0577 340.272 80.854 341.901 81.4281C343.531 82.0022 345.624 82.2985 348.142 82.2985C350.827 82.2985 353.049 81.9836 354.846 81.354C356.642 80.7244 357.753 79.8725 358.198 78.7799L358.179 78.7985ZM347.957 66.6873C344.679 66.6873 342.124 67.2059 340.29 68.2429C338.457 69.2799 337.309 70.4651 336.864 71.7614H358.235C358.049 70.317 357.105 69.0948 355.383 68.1318C353.661 67.1688 351.198 66.6873 347.957 66.6873Z" fill="#002F18"/>
</g>
<defs>
<clipPath id="clip0_1067_23262">
<rect width="383.907" height="100" fill="white"/>
</clipPath>
</defs>
</svg>
