<svg width="213" height="52" viewBox="0 0 213 52" fill="none" xmlns="http://www.w3.org/2000/svg">
<path d="M7.0109 22.3299L0.462891 0.80507H5.19975L8.70322 12.8275C8.84663 13.2578 8.97366 13.7249 9.0884 14.2248C9.19903 14.7288 9.29328 15.2082 9.36294 15.6713C9.4326 16.1343 9.49406 16.5645 9.54733 16.962C9.5965 17.3636 9.64567 17.6955 9.68664 17.9618L8.94908 17.929C9.13347 17.0685 9.28918 16.3474 9.40801 15.7614C9.53094 15.1795 9.64977 14.655 9.76041 14.192C9.87104 13.729 10.0104 13.266 10.1743 12.7906L13.5589 3.90288H17.3697L20.6929 12.7906C20.9387 13.4053 21.1395 13.9953 21.2911 14.5567C21.4427 15.1222 21.5739 15.6631 21.6763 16.1876C21.7787 16.7121 21.8812 17.2366 21.9836 17.7692L21.3075 17.8922C21.369 17.4619 21.414 17.089 21.4468 16.7694C21.4796 16.4539 21.5083 16.1589 21.537 15.8925C21.5698 15.6262 21.6025 15.3557 21.6435 15.0771C21.6845 14.8026 21.746 14.4747 21.8279 14.0937C21.9099 13.7167 22.0328 13.27 22.1967 12.7578L25.6715 0.796875H30.3469L23.7374 22.3217H20.3241L15.0054 9.59038L15.4971 9.65184L10.5471 22.3217H7.0109V22.3299Z" fill="#FAFAFA"/>
<path d="M42.8649 22.6374C41.2873 22.6374 39.8326 22.3629 38.4968 21.8056C37.1651 21.2524 36.0013 20.478 35.0056 19.4822C34.0099 18.4865 33.2477 17.3105 32.715 15.946C32.1824 14.5815 31.916 13.1022 31.916 11.5042C31.916 9.90608 32.1824 8.40225 32.715 7.06233C33.2477 5.7183 34.0099 4.54638 35.0056 3.54247C36.0013 2.53855 37.161 1.76 38.4968 1.20682C39.8285 0.653638 41.2832 0.375 42.8649 0.375C44.4466 0.375 45.9258 0.649541 47.2452 1.20682C48.5688 1.76 49.7243 2.53855 50.72 3.54247C51.7157 4.54638 52.4779 5.7265 53.0106 7.07872C53.5433 8.43093 53.8096 9.90608 53.8096 11.5083C53.8096 13.1104 53.5433 14.5815 53.0106 15.9337C52.4779 17.2859 51.7157 18.466 50.72 19.4699C49.7243 20.4739 48.5688 21.2524 47.2452 21.8056C45.9217 22.3588 44.4629 22.6374 42.8649 22.6374ZM42.8649 18.2734C43.7664 18.2734 44.6023 18.1095 45.3685 17.7817C46.1389 17.4539 46.7986 16.9827 47.3518 16.368C47.9049 15.7534 48.3393 15.0363 48.6589 14.2168C48.9785 13.3973 49.1383 12.4958 49.1383 11.5123C49.1383 10.5289 48.9785 9.62744 48.6589 8.80382C48.3434 7.98429 47.9049 7.27131 47.3518 6.66486C46.7986 6.05841 46.1348 5.58718 45.3685 5.25118C44.6023 4.91517 43.7664 4.74307 42.8649 4.74307C41.9634 4.74307 41.1316 4.91107 40.3735 5.25118C39.6154 5.59128 38.9475 6.06251 38.3739 6.66486C37.8002 7.27131 37.3658 7.98019 37.0667 8.80382C36.7676 9.62334 36.6201 10.5248 36.6201 11.5123C36.6201 12.4999 36.7676 13.3973 37.0667 14.2168C37.3658 15.0363 37.8002 15.7534 38.3739 16.368C38.9475 16.9827 39.6114 17.4539 40.3735 17.7817C41.1316 18.1095 41.9634 18.2734 42.8649 18.2734Z" fill="#FAFAFA"/>
<path d="M57.9941 22.3295V0.804688H67.5252C68.857 0.804688 70.0657 1.10791 71.1557 1.71026C72.2416 2.31671 73.098 3.13214 73.7249 4.15655C74.3478 5.18095 74.6633 6.34878 74.6633 7.66411C74.6633 8.97945 74.3519 10.1268 73.7249 11.184C73.098 12.2412 72.2416 13.073 71.1557 13.6917C70.0698 14.3064 68.861 14.6137 67.5252 14.6137H62.4524V22.3336H57.9941V22.3295ZM62.4524 10.8603H67.3122C67.8653 10.8603 68.3529 10.7332 68.7709 10.4751C69.1889 10.221 69.5126 9.86044 69.7379 9.39741C69.9633 8.93438 70.0739 8.41808 70.0739 7.84441C70.0739 7.22977 69.9428 6.69707 69.6765 6.24633C69.4101 5.7956 69.0209 5.4432 68.5087 5.18505C67.9964 4.9269 67.4023 4.79987 66.7262 4.79987H62.4524V10.8562V10.8603ZM70.201 22.3295L64.7265 12.6099L69.4634 11.8396L75.5525 22.3582L70.201 22.3254V22.3295Z" fill="#FAFAFA"/>
<path d="M79.5186 22.3295V0.804688H84.1325V18.1786H93.8807V22.3295H79.5227H79.5186Z" fill="#FAFAFA"/>
<path d="M98.1545 22.3295V0.804688H106.981C108.558 0.804688 109.988 1.06694 111.271 1.58733C112.549 2.11183 113.66 2.8494 114.59 3.80005C115.524 4.7548 116.237 5.88574 116.729 7.19699C117.221 8.50823 117.467 9.96288 117.467 11.5651C117.467 13.1672 117.221 14.5932 116.729 15.9167C116.237 17.2403 115.528 18.3753 114.606 19.3301C113.684 20.2848 112.578 21.0224 111.283 21.5428C109.993 22.0673 108.558 22.3254 106.977 22.3254H98.1504L98.1545 22.3295ZM102.764 18.9777L102.273 18.1786H106.825C107.747 18.1786 108.579 18.0188 109.316 17.7033C110.054 17.3837 110.685 16.9452 111.205 16.3798C111.726 15.8143 112.123 15.1218 112.39 14.3023C112.656 13.4827 112.787 12.569 112.787 11.5651C112.787 10.5611 112.656 9.65556 112.39 8.84423C112.123 8.0329 111.73 7.3445 111.205 6.77083C110.681 6.19716 110.054 5.75052 109.316 5.43091C108.579 5.11539 107.747 4.95558 106.825 4.95558H102.182L102.768 4.21801V18.9777H102.764Z" fill="#FAFAFA"/>
<path d="M140.959 22.6387C139.299 22.6387 137.775 22.3559 136.394 21.7946C135.009 21.2291 133.817 20.4464 132.813 19.4425C131.809 18.4386 131.034 17.2585 130.489 15.9063C129.948 14.5541 129.674 13.0871 129.674 11.5095C129.674 9.93193 129.957 8.46908 130.518 7.12916C131.083 5.78513 131.882 4.61731 132.915 3.62568C133.952 2.62996 135.165 1.85551 136.558 1.30643C137.951 0.753248 139.479 0.474609 141.139 0.474609C142.286 0.474609 143.384 0.630319 144.429 0.937641C145.474 1.24496 146.429 1.66702 147.29 2.19971C148.15 2.7324 148.867 3.34705 149.441 4.04364L146.581 7.0554C146.048 6.54319 145.491 6.10885 144.905 5.74825C144.319 5.38766 143.712 5.11312 143.073 4.91644C142.438 4.72385 141.782 4.6255 141.106 4.6255C140.143 4.6255 139.258 4.8017 138.447 5.15C137.636 5.4983 136.923 5.98182 136.308 6.59646C135.693 7.21111 135.214 7.94048 134.878 8.7805C134.542 9.62051 134.37 10.5343 134.37 11.5177C134.37 12.5011 134.55 13.3903 134.906 14.2385C135.263 15.0908 135.759 15.8284 136.382 16.4513C137.004 17.0782 137.738 17.5699 138.578 17.9264C139.418 18.2829 140.319 18.4632 141.286 18.4632C141.963 18.4632 142.61 18.3607 143.225 18.1559C143.839 17.951 144.376 17.6601 144.839 17.279C145.302 16.8979 145.659 16.4513 145.917 15.939C146.175 15.4268 146.302 14.886 146.302 14.3082V13.5706L146.917 14.4311H140.766V10.5876H150.732C150.752 10.8129 150.777 11.0916 150.809 11.4194C150.842 11.7472 150.859 12.0709 150.871 12.3864C150.879 12.706 150.887 12.956 150.887 13.1404C150.887 14.5336 150.637 15.8161 150.133 16.9839C149.629 18.1518 148.933 19.1557 148.043 19.9957C147.15 20.8357 146.101 21.4872 144.892 21.9503C143.684 22.4133 142.372 22.6428 140.955 22.6428L140.959 22.6387Z" fill="#FAFAFA"/>
<path d="M164.478 22.6374C162.901 22.6374 161.446 22.3629 160.11 21.8056C158.778 21.2524 157.615 20.478 156.619 19.4822C155.623 18.4865 154.861 17.3105 154.328 15.946C153.796 14.5815 153.529 13.1022 153.529 11.5042C153.529 9.90608 153.796 8.40225 154.328 7.06233C154.861 5.7183 155.623 4.54638 156.619 3.54247C157.615 2.53855 158.774 1.76 160.11 1.20682C161.442 0.653638 162.896 0.375 164.478 0.375C166.06 0.375 167.539 0.649541 168.859 1.20682C170.182 1.76 171.338 2.53855 172.333 3.54247C173.329 4.54638 174.091 5.7265 174.624 7.07872C175.157 8.43093 175.423 9.90608 175.423 11.5083C175.423 13.1104 175.157 14.5815 174.624 15.9337C174.091 17.2859 173.329 18.466 172.333 19.4699C171.338 20.4739 170.182 21.2524 168.859 21.8056C167.535 22.3588 166.076 22.6374 164.478 22.6374ZM164.478 18.2734C165.38 18.2734 166.216 18.1095 166.982 17.7817C167.752 17.4539 168.412 16.9827 168.965 16.368C169.518 15.7534 169.953 15.0363 170.272 14.2168C170.592 13.3973 170.752 12.4958 170.752 11.5123C170.752 10.5289 170.592 9.62744 170.272 8.80382C169.957 7.98429 169.518 7.27131 168.965 6.66486C168.412 6.05841 167.748 5.58718 166.982 5.25118C166.211 4.91107 165.38 4.74307 164.478 4.74307C163.577 4.74307 162.745 4.91107 161.987 5.25118C161.229 5.59128 160.561 6.06251 159.987 6.66486C159.413 7.27131 158.979 7.98019 158.68 8.80382C158.381 9.62334 158.233 10.5248 158.233 11.5123C158.233 12.4999 158.381 13.3973 158.68 14.2168C158.979 15.0363 159.413 15.7534 159.987 16.368C160.561 16.9827 161.225 17.4539 161.987 17.7817C162.745 18.1095 163.577 18.2734 164.478 18.2734Z" fill="#FAFAFA"/>
<path d="M179.611 22.3295V0.804688H184.225V18.1786H193.974V22.3295H179.615H179.611Z" fill="#FAFAFA"/>
<path d="M198.243 22.3295V0.804688H202.857V22.3295H198.243ZM200.366 4.95558V0.804688H212.79V4.95558H200.366ZM200.366 13.7819V9.81537H211.499V13.7819H200.366Z" fill="#FAFAFA"/>
<path d="M13.7146 51.9889C11.9363 51.9889 10.3095 51.6857 8.82207 51.0711C7.33463 50.4605 6.04388 49.5959 4.94982 48.4773C3.85575 47.3586 3.00754 46.0351 2.40929 44.4985C1.81104 42.966 1.50781 41.29 1.50781 39.4666C1.50781 37.6431 1.81923 36.0492 2.44207 34.5371C3.06491 33.0292 3.9418 31.7139 5.07275 30.5952C6.20369 29.4766 7.52722 28.6079 9.04744 27.985C10.5677 27.3622 12.219 27.0508 13.9933 27.0508C15.1447 27.0508 16.2839 27.2065 17.3984 27.5179C18.5171 27.8293 19.5415 28.2842 20.4757 28.8824C21.41 29.4807 22.209 30.1978 22.881 31.0255L19.6316 34.6232C19.0784 34.07 18.5089 33.5906 17.9188 33.189C17.3287 32.7875 16.71 32.476 16.0503 32.2548C15.3947 32.0376 14.694 31.927 13.9605 31.927C12.9689 31.927 12.0428 32.1114 11.1782 32.4801C10.3136 32.8489 9.55965 33.3611 8.91222 34.0208C8.26889 34.6765 7.75259 35.4714 7.37151 36.4057C6.99044 37.3399 6.80195 38.3725 6.80195 39.4994C6.80195 40.6262 6.98634 41.6957 7.35513 42.63C7.72391 43.5642 8.24431 44.3592 8.91222 45.0148C9.58013 45.6704 10.3833 46.1785 11.3175 46.535C12.2518 46.8915 13.2803 47.0718 14.4112 47.0718C15.1488 47.0718 15.8618 46.9693 16.5543 46.7604C17.2468 46.5514 17.886 46.2646 18.472 45.8958C19.0579 45.527 19.5824 45.1008 20.0455 44.6173L22.5696 48.6617C22.0164 49.2845 21.2707 49.85 20.3364 50.3581C19.4021 50.8662 18.3613 51.2637 17.2058 51.5505C16.0544 51.8373 14.8907 51.9848 13.7146 51.9848V51.9889Z" fill="#FAFAFA"/>
<path d="M26.9258 51.6443V27.4355H32.1134V51.6443H26.9258ZM29.0033 41.9248L29.0361 37.2207H44.8406V41.9248H28.9992H29.0033ZM42.1771 51.6443V27.4355H47.3647V51.6443H42.1771Z" fill="#FAFAFA"/>
<path d="M50.79 51.6443L60.2679 27.4355H64.9023L74.3432 51.6443H69.0163L64.1401 38.6057C64.0008 38.2369 63.8328 37.7616 63.6361 37.1879C63.4394 36.6142 63.2386 35.9996 63.0296 35.3563C62.8207 34.7129 62.624 34.0942 62.4396 33.5041C62.2552 32.9182 62.1159 32.4265 62.0257 32.0331L62.96 31.9962C62.8207 32.5248 62.665 33.0739 62.4929 33.6394C62.3208 34.2048 62.1405 34.7826 61.9561 35.3686C61.7717 35.9545 61.575 36.5282 61.3701 37.0814C61.1611 37.6345 60.9685 38.1754 60.7841 38.7081L55.908 51.6443H50.79ZM55.1827 46.5592L56.8791 42.3755H67.9837L69.7129 46.5592H55.1868H55.1827Z" fill="#FAFAFA"/>
<path d="M77.7324 51.6443V27.4355H82.92V46.9771H93.8853V51.6443H77.7324Z" fill="#FAFAFA"/>
<path d="M98.6914 51.6443V27.4355H103.879V46.9771H114.844V51.6443H98.6914Z" fill="#FAFAFA"/>
<path d="M119.651 51.6443V27.4355H136.009V32.0003H124.7V47.0796H136.251V51.6443H119.651ZM122.069 41.5109V37.0855H134.345V41.5109H122.069Z" fill="#FAFAFA"/>
<path d="M141.61 51.6443V27.4355H146.245L159.632 45.5225H158.661C158.566 44.8095 158.488 44.1088 158.419 43.4286C158.349 42.7484 158.288 42.0559 158.23 41.3552C158.173 40.6545 158.128 39.9251 158.091 39.1752C158.054 38.4254 158.025 37.6304 158.005 36.7904C157.98 35.9463 157.968 35.0325 157.968 34.0409V27.4355H163.053V51.6443H158.349L144.688 33.3812L146.003 33.4181C146.118 34.6187 146.216 35.639 146.298 36.479C146.38 37.3231 146.441 38.0525 146.487 38.6753C146.532 39.2982 146.573 39.8391 146.609 40.3021C146.642 40.7651 146.667 41.2036 146.679 41.6174C146.691 42.0313 146.695 42.4697 146.695 42.9328V51.6484H141.61V51.6443Z" fill="#FAFAFA"/>
<path d="M180.451 51.9868C178.583 51.9868 176.87 51.6713 175.317 51.0361C173.76 50.401 172.416 49.52 171.289 48.3891C170.158 47.2581 169.289 45.9346 168.679 44.4144C168.068 42.8942 167.761 41.2428 167.761 39.4685C167.761 37.6943 168.076 36.0511 168.711 34.5391C169.347 33.0312 170.244 31.7158 171.408 30.5972C172.571 29.4785 173.94 28.6098 175.505 27.987C177.071 27.3642 178.792 27.0527 180.66 27.0527C181.951 27.0527 183.184 27.2248 184.36 27.5731C185.536 27.9214 186.61 28.3927 187.577 28.9909C188.544 29.5892 189.351 30.2817 189.999 31.0684L186.782 34.4571C186.184 33.8794 185.557 33.3918 184.897 32.9861C184.241 32.5804 183.553 32.2731 182.84 32.0518C182.127 31.8347 181.389 31.724 180.627 31.724C179.541 31.724 178.546 31.9207 177.636 32.3141C176.726 32.7075 175.923 33.2483 175.231 33.9367C174.538 34.6292 174.001 35.4488 173.62 36.3912C173.239 37.3378 173.051 38.3622 173.051 39.4685C173.051 40.5749 173.252 41.5747 173.657 42.5295C174.059 43.4883 174.616 44.316 175.317 45.0208C176.017 45.7256 176.845 46.2788 177.788 46.6804C178.73 47.0819 179.746 47.2868 180.832 47.2868C181.59 47.2868 182.32 47.1721 183.012 46.9426C183.705 46.7131 184.311 46.3853 184.827 45.9592C185.344 45.533 185.749 45.029 186.036 44.4554C186.323 43.8817 186.47 43.267 186.47 42.6237V41.796L187.163 42.763H180.246V38.44H191.453C191.474 38.6941 191.506 39.0055 191.539 39.3743C191.576 39.7431 191.597 40.1078 191.609 40.4643C191.621 40.8208 191.625 41.1035 191.625 41.3125C191.625 42.8819 191.343 44.3201 190.777 45.6355C190.212 46.9508 189.429 48.0777 188.425 49.0242C187.421 49.9708 186.241 50.7001 184.881 51.2205C183.52 51.7409 182.045 51.9991 180.455 51.9991L180.451 51.9868Z" fill="#FAFAFA"/>
<path d="M196.187 51.6443V27.4355H212.544V32.0003H201.235V47.0796H212.786V51.6443H196.187ZM198.608 41.5109V37.0855H210.885V41.5109H198.608Z" fill="#FAFAFA"/>
</svg>
