<svg width="300" height="200" viewBox="0 0 300 200" fill="none" xmlns="http://www.w3.org/2000/svg">
<rect width="300" height="200" fill="#252C32"/>
<g clip-path="url(#clip0_636_4628)">
<mask id="mask0_636_4628" style="mask-type:luminance" maskUnits="userSpaceOnUse" x="10" y="52" width="280" height="96">
<path d="M289.559 52.0039H10.4453V147.7H289.559V52.0039Z" fill="white"/>
</mask>
<g mask="url(#mask0_636_4628)">
<path d="M168.678 114.37C168.678 113.688 168.825 113.493 169.168 113.493C169.708 113.493 169.905 114.225 170.297 115.151C171.034 116.906 171.573 119.293 171.573 121C171.573 125.046 169.954 127.141 168.531 128.847C170.494 130.212 171.966 131.772 171.966 132.21C171.966 132.746 171.573 132.746 170.494 132.746H156.409C139.184 132.746 131.576 119.051 130.693 104.185C130.546 101.699 129.563 100.383 128.484 99.6519C127.454 98.9686 126.766 98.7735 126.766 98.2374C126.766 97.7504 127.208 97.5553 128.336 96.7273C130.102 95.4601 130.594 92.6337 131.084 89.9042C132.801 80.2056 139.133 66.4609 156.408 66.4609H170.492C171.572 66.4609 171.965 66.4609 171.965 66.997C171.965 67.4349 170.492 68.9954 168.53 70.3595C169.953 72.0659 171.572 74.1613 171.572 78.2057C171.572 79.9123 171.032 82.2994 170.296 84.0549C169.903 84.9812 169.707 85.76 169.167 85.76C168.824 85.76 168.677 85.5172 168.677 84.8339C168.677 78.6436 165.142 72.6989 156.996 72.6989C147.917 72.6989 142.42 82.6894 142.42 97.8963C142.42 113.103 145.561 126.409 156.996 126.409C165.142 126.409 168.678 120.56 168.678 114.37Z" fill="white"/>
<path d="M178.899 132.746C177.819 132.746 177.034 132.6 177.034 132.064C177.034 131.43 178.211 130.797 179.193 130.115C180.715 129.09 181.205 128.506 181.205 126.167V104.04C181.205 99.0202 176.887 99.263 176.887 98.143C176.887 96.7299 181.205 96.2415 181.205 92.1002V73.0439C181.205 70.7044 180.715 70.1193 179.193 69.0962C178.211 68.4141 177.034 67.7798 177.034 67.1469C177.034 66.6108 177.819 66.4648 178.899 66.4648H218.16C219.24 66.4648 219.633 66.4648 219.633 67.0009C219.633 67.5848 218.16 68.9993 216.197 70.3635C217.62 72.0699 219.24 74.1651 219.24 78.2097C219.24 79.9161 218.701 82.3033 217.964 84.0588C217.57 84.9851 217.375 85.764 216.835 85.764C216.491 85.764 216.344 85.5212 216.344 84.8377C216.344 78.6476 212.81 72.7996 204.075 72.7996H192.248V94.8296C195.486 91.9541 199.461 90.8329 203.928 90.2477C206.186 89.9544 208.688 88.9314 208.688 86.251C208.688 85.2756 208.05 84.6426 208.05 84.1544C208.05 83.9592 208.197 83.8625 208.394 83.8625C209.767 83.8625 212.222 86.3968 212.222 89.0774C212.222 91.0757 211.389 92.1478 209.916 93.22C211.929 93.9021 213.547 95.9005 213.547 98.289C213.547 101.505 211.192 103.699 210.457 103.699C210.21 103.699 210.113 103.504 210.113 103.309C210.113 102.578 210.749 101.846 210.749 100.579C210.749 99.0679 209.181 97.4597 205.206 97.4597C194.997 97.4597 192.248 105.209 192.248 111.009V126.362H204.027C212.762 126.362 216.294 120.562 216.294 114.372C216.294 113.69 216.441 113.494 216.785 113.494C217.278 113.494 217.57 114.226 217.964 115.152C218.701 116.907 219.19 119.295 219.19 121.001C219.19 125.047 217.57 127.142 216.149 128.849C218.111 130.213 219.583 131.773 219.583 132.211C219.583 132.747 219.19 132.747 218.111 132.747L178.899 132.746Z" fill="white"/>
<path d="M224.922 132.746C223.843 132.746 223.449 132.746 223.449 132.21C223.449 131.772 224.922 130.212 226.885 128.847C225.461 127.141 223.843 125.046 223.843 121C223.843 119.295 224.334 116.906 225.069 115.151C225.462 114.225 225.757 113.493 226.247 113.493C226.591 113.493 226.738 113.688 226.738 114.37C226.738 123.095 232.675 126.361 240.235 126.361C247.793 126.361 252.748 121.487 252.748 113.103C252.748 106.182 248.97 103.014 245.583 100.772C243.374 99.2619 242.344 98.7735 241.018 98.7735C239.351 98.7735 237.878 99.6996 236.847 99.6996C236.553 99.6996 236.356 99.6028 236.356 99.2619C236.356 98.6765 236.797 97.4094 236.797 96.0452C236.797 94.9731 235.473 94.3403 234.343 93.5109C227.424 88.3927 224.725 84.3482 224.725 78.7432C224.725 74.1613 227.816 66.4609 242.982 66.4609H258.637C259.716 66.4609 260.11 66.5578 260.11 66.9479C260.11 67.5809 258.637 68.9954 256.675 70.3595C258.098 72.0659 259.716 74.1613 259.716 78.2057C259.716 79.9123 259.178 82.2994 258.44 84.0549C258.049 84.9812 257.852 85.76 257.311 85.76C256.968 85.76 256.821 85.5172 256.821 84.8339C256.821 78.6436 253.287 72.7958 242.638 72.7958C237.731 72.7958 235.229 74.9402 235.229 78.1566C235.229 82.6894 239.742 85.4667 247.301 89.9028C256.626 95.3619 264.037 100.234 264.037 112.469C264.037 123.581 255.447 132.743 241.068 132.743H224.922V132.746Z" fill="white"/>
<path d="M277.286 76.8972C276.157 76.0187 275.714 75.4827 275.714 73.8266V70.8543C275.714 69.928 276.207 69.6839 276.207 69.1969C276.207 69.0019 276.058 68.8068 275.714 68.6117L272.23 66.4183C271.936 66.2232 271.837 66.125 271.69 66.125C271.543 66.125 271.199 66.3692 270.807 66.6133L266.536 69.3429C265.555 69.9759 265.408 70.0741 265.408 70.2692C265.408 70.6592 266.143 70.7069 266.143 71.4872V73.8266C266.143 75.4841 265.654 76.0202 264.525 76.8972C264.229 77.14 264.082 77.3351 264.082 77.4809C264.082 77.6761 264.279 77.8233 264.573 78.017C265.604 78.6009 266.143 78.9433 266.143 80.8927V84.2073C266.143 84.6452 265.898 84.8894 265.604 85.1827C265.408 85.3764 265.211 85.5237 265.211 85.7188C265.211 85.8156 265.261 85.9137 265.408 86.0598C266.046 86.6449 268.695 88.6434 269.383 89.1304L265.652 93.3222C265.209 93.8092 265.16 93.9565 265.16 94.1025C265.16 94.2974 265.308 94.3944 265.455 94.3944C265.553 94.3944 265.7 94.3465 265.799 94.2483L266.338 93.7613C269.037 93.8583 270.559 94.1025 272.032 95.1746C272.475 95.5156 272.572 95.6138 272.672 95.6138C272.769 95.6138 272.914 95.5647 273.063 95.3205C274.389 93.5171 275.909 91.6156 276.694 90.4467C277.137 89.8125 277.235 89.4222 277.235 89.1304C277.235 87.814 275.713 87.5221 275.713 84.3055V80.8939C275.713 78.9447 276.205 78.6024 277.235 78.0184C277.529 77.8233 277.726 77.6761 277.726 77.4824C277.726 77.3365 277.579 77.1414 277.285 76.8986L277.286 76.8972ZM269.386 68.6608L272.427 70.7069V85.8646L271.791 86.5467L269.386 84.5483V68.6608ZM274.244 92.201C272.821 91.5189 271.102 91.0319 268.697 91.0319L272.33 87.0842C272.33 87.7185 272.622 88.5955 273.458 89.4727C274.194 90.253 274.438 90.9349 274.438 91.4219C274.438 91.7631 274.343 92.0059 274.244 92.201Z" fill="white"/>
<path d="M285.188 66.4183C285.385 66.2723 285.532 66.125 285.828 66.125C286.025 66.125 286.22 66.2723 286.514 66.4183L289.36 68.4167C289.509 68.5135 289.557 68.6117 289.557 68.7086C289.557 68.8054 289.509 68.9036 289.36 69.0496C288.724 69.6348 287.545 71.243 287.104 72.2184C287.005 72.4135 286.907 72.5117 286.76 72.5117C286.613 72.5117 286.563 72.3644 286.563 72.2675C286.563 72.0233 286.711 71.7805 286.711 71.4381C286.711 71.243 286.661 71.0971 286.464 70.8543C285.482 69.7822 284.403 69.0987 283.668 68.5626V83.3794C283.668 84.0136 283.716 84.1597 284.01 84.3546C284.01 84.3546 286.073 85.7679 287.102 85.7679C287.496 85.7679 287.935 85.3777 288.575 84.6957C288.772 84.5006 288.968 84.4515 289.115 84.4515C289.31 84.4515 289.457 84.5988 289.457 84.7939C289.457 84.9399 289.358 85.1349 289.213 85.2809C288.378 86.0612 286.806 87.6694 286.071 88.4974C285.826 88.7906 285.677 88.9367 285.481 88.9367C285.335 88.9367 285.139 88.8397 284.845 88.6925C284.058 88.2546 281.311 86.353 279.594 85.6709C279.152 85.5251 279.152 85.3777 279.152 85.2809C279.152 85.184 279.2 85.0858 279.496 84.8907C280.035 84.5988 280.182 84.4037 280.182 83.0382V71.5854C280.182 70.8053 279.693 70.756 279.693 70.3659C279.693 70.1708 279.838 70.1232 280.772 69.4397C281.851 68.7086 283.765 67.4413 285.188 66.4183Z" fill="white"/>
<path d="M69.1753 106.33C67.0985 106.33 65.1412 106.885 63.5438 107.519C58.0715 109.621 51.0418 113.509 44.3705 125.211C37.9794 136.398 32.6266 142.03 25.1972 142.03C19.1659 142.03 15.8777 137.985 15.8777 133.263C15.8777 126.678 20.1645 123.941 24.7576 123.941C27.3935 123.941 29.6709 125.607 30.0705 130.328C30.1901 131.598 30.311 132.985 31.0691 132.985C31.7888 132.985 31.9879 131.597 32.1074 130.328C32.6266 125.567 33.8244 122.473 39.2568 122.037C40.4147 121.918 41.9324 121.601 41.9324 121.006C41.9324 120.372 40.4147 120.054 39.2568 120.014C33.904 119.775 32.4262 118.189 32.0264 113.588C31.8671 111.723 31.6268 110.931 31.0677 110.931C30.5087 110.931 30.3095 111.725 30.1488 113.588C29.7492 118.189 27.4731 118.983 22.5998 119.975C15.7705 121.363 10.4453 125.29 10.4453 133.263C10.4453 142.189 16.5301 147.702 27.3948 147.702C35.7433 147.702 45.0902 143.854 52.5596 130.565C54.5965 132.47 57.0729 133.501 60.0289 133.501C61.467 133.501 62.4257 133.422 62.4257 132.866C62.4257 132.311 61.1469 132.152 59.989 131.359C57.632 129.773 56.6334 127.432 56.6334 123.703C56.6334 117.634 61.1868 112.318 68.1767 108.232C69.2152 107.598 69.9747 107.201 69.9747 106.765C69.9747 106.447 69.6547 106.328 69.1767 106.328L69.1753 106.33Z" fill="white"/>
<path d="M124.292 91.1546C124.585 87.5152 121.577 83.6781 116.675 83.2893C114 83.0779 112.749 83.9454 112.705 84.4869C112.682 84.7829 112.921 84.7242 113.664 84.7829C116.388 84.9985 117.018 87.0773 116.867 88.9462C116.633 91.8476 115.069 92.7138 112.643 92.5213L109.909 92.3046V57.1847C112.939 55.4087 114.822 53.2875 114.822 52.5468C114.822 52.0039 114.425 52.0039 113.332 52.0039H104.991C95.0564 52.0039 92.0746 56.2967 88.1998 61.9195L77.4696 77.5587C75.7307 80.025 74.3407 81.4067 72.5524 81.4067H71.1114C70.3161 81.4067 70.0676 81.6033 70.0676 81.9988C70.0676 82.6905 70.9123 83.1828 70.9123 85.255C70.9123 86.6858 69.9688 88.6091 68.5278 90.6322L61.274 100.894C60.5792 101.831 59.9336 102.768 59.9336 103.509C59.9336 104.348 60.6286 104.595 61.4238 104.595C62.318 104.595 63.2617 104.546 66.1434 103.954C75.7802 101.981 89.69 100.796 97.9863 100.796V121.961C97.9863 128.72 95.2035 130.841 90.0375 132.421C89.2918 132.668 88.1503 132.964 88.1503 133.507C88.1503 133.901 88.6462 134.297 90.0869 134.297C95.7995 134.297 100.47 132.521 103.947 130.399C107.425 132.521 112.094 134.297 117.808 134.297C119.249 134.297 119.745 133.902 119.745 133.507C119.745 133.014 118.651 132.668 117.559 132.323C112.741 130.843 109.909 128.722 109.909 121.962V100.946L112.487 101.026C117.686 101.438 119.842 104.381 119.581 107.627C119.541 108.118 119.464 108.459 119.445 108.705C119.43 108.901 119.482 108.985 119.714 109.073C120.033 109.193 120.657 108.504 121.044 108.041C122.328 106.389 122.753 104.761 122.867 103.334C123.052 101.024 122.076 99.6188 119.839 98.3024C122.328 97.0979 124.047 94.2047 124.292 91.1546ZM100.455 96.1172C98.0797 96.2985 95.669 96.4117 93.3367 96.5223L92.1995 96.5755C91.7201 96.6028 91.2408 96.626 90.76 96.6492C89.8837 96.6928 88.9772 96.7378 88.0871 96.802C87.8537 96.8197 87.6201 96.8333 87.3865 96.847L87.0597 96.8661L86.0363 96.9437C85.5213 96.9792 84.9994 97.0297 84.4953 97.0775C84.3276 97.0938 84.1602 97.1101 83.9913 97.1252C83.4651 97.1716 82.9308 97.2289 82.4144 97.2849L81.9473 97.3352L79.9077 97.5904C79.0051 97.7008 78.0877 97.8305 77.2004 97.956C76.7416 98.02 76.2829 98.0855 75.8241 98.1483C73.1526 98.5261 70.3889 98.9176 67.6185 99.2027C67.6159 99.2027 67.613 99.2027 67.6116 99.2027C67.5787 99.2027 67.5499 99.1795 67.5445 99.1469C67.5375 99.1112 67.5595 99.0772 67.5951 99.0691C70.1692 98.4075 72.8147 97.8128 75.6799 97.2507L76.6962 97.0502L77.7182 96.8688C78.3652 96.7515 79.0245 96.6451 79.6631 96.5415L79.7649 96.525C80.1124 96.4651 80.4652 96.4172 80.7936 96.3736L81.8223 96.2345L82.2866 96.1799C82.8114 96.1172 83.3538 96.053 83.8881 95.9999L84.2041 95.9726C84.7795 95.9221 85.3743 95.8716 85.9623 95.8376C86.7891 95.7801 87.4292 95.7447 88.0362 95.7257C88.5583 95.7038 89.0883 95.6929 89.6007 95.6834L90.1089 95.6724C90.6625 95.6561 91.2229 95.6587 91.7655 95.6616H92.1802C95.018 95.6779 97.8022 95.7844 100.455 95.9807C100.49 95.9834 100.518 96.0135 100.518 96.049C100.518 96.0844 100.49 96.1144 100.455 96.1172ZM78.5038 93.0617L97.9863 65.638V91.7329C89.7394 91.7329 83.5709 92.1736 78.5038 93.0617ZM101.122 56.3744C100.858 56.4577 100.614 56.59 100.43 56.6977C100.2 56.8287 99.9848 56.9774 99.7841 57.1179C99.4092 57.392 99.0191 57.7126 98.5947 58.0987C97.8984 58.748 97.2115 59.4859 96.4945 60.3535C95.4383 61.6603 94.4273 63.0489 93.4494 64.3926C93.2242 64.7008 93.0002 65.0091 92.7749 65.3174L85.5405 75.4266L81.9171 80.4806C81.4239 81.1558 80.935 81.8324 80.4447 82.5104C79.7319 83.4966 78.9941 84.5169 78.258 85.5126L76.4148 88.0186L74.5523 90.5135L74.1154 91.0891C73.6415 91.7139 73.1512 92.3592 72.6622 92.9894L71.7007 94.2157L70.955 95.12C70.9287 95.1487 70.9055 95.176 70.8821 95.2031C70.8189 95.2768 70.7529 95.3532 70.6665 95.4092C70.6555 95.416 70.6416 95.42 70.6294 95.42C70.6074 95.42 70.5867 95.4105 70.5731 95.3915C70.5511 95.3614 70.5566 95.3204 70.5855 95.2986C70.6486 95.2481 70.6994 95.1772 70.7515 95.1023C70.7735 95.0709 70.7942 95.0408 70.8174 95.0123L71.0359 94.6943L72.3243 92.7519L74.0385 90.1574L75.7664 87.5712L77.5094 84.9957C78.3213 83.7912 79.1618 82.5772 79.9749 81.4041C80.3293 80.8939 80.6823 80.3824 81.0353 79.8708L81.7647 78.8355C82.7001 77.5082 83.667 76.1346 84.6312 74.7924C86.9594 71.5663 89.4731 68.1247 92.0842 64.8113C92.7173 64.0011 93.3752 63.1826 94.0401 62.3792C94.6279 61.6657 95.3311 60.8268 96.0825 60.007C96.8736 59.1435 97.6168 58.4315 98.357 57.8313C98.7485 57.5203 99.1758 57.1929 99.6413 56.9092C99.857 56.7809 100.092 56.6445 100.338 56.5286C100.537 56.4317 100.802 56.3131 101.085 56.2476C101.121 56.2394 101.156 56.2612 101.167 56.2953C101.177 56.3308 101.158 56.3676 101.122 56.3785V56.3744ZM104.486 99.8984C104.476 100.866 104.469 101.833 104.462 102.798C104.449 104.686 104.434 106.638 104.403 108.558C104.316 115.491 104.195 120.833 104.012 125.876C104.012 125.913 103.98 125.942 103.943 125.942C103.906 125.942 103.876 125.913 103.875 125.876C103.692 120.832 103.571 115.49 103.483 108.556C103.452 106.637 103.438 104.685 103.424 102.797C103.417 101.83 103.41 100.864 103.401 99.897L103.375 91.2378L103.402 82.5785C103.41 81.6538 103.417 80.7303 103.425 79.8054C103.441 77.8766 103.454 75.8808 103.486 73.918C103.575 66.9707 103.695 61.6303 103.876 56.5982C103.876 56.5613 103.908 56.5327 103.945 56.5327C103.982 56.5327 104.012 56.5613 104.013 56.5982C104.195 61.6289 104.314 66.9707 104.403 73.918C104.435 75.8808 104.45 77.8752 104.464 79.804C104.471 80.7275 104.478 81.6524 104.487 82.5758L104.515 91.2351L104.489 99.8944L104.486 99.8984ZM116.912 97.4307C116.741 97.4539 116.517 97.4649 116.247 97.4649C115.303 97.4649 113.807 97.3258 112.101 97.0747C109.499 96.6901 107.867 96.4131 107.249 96.2494C107.218 96.2412 107.197 96.2127 107.199 96.1799C107.2 96.1486 107.223 96.1213 107.255 96.1158C108.251 95.9453 110.679 95.9194 112.2 96.1404C113.79 96.3382 116.171 96.9533 116.931 97.3012C116.959 97.3134 116.975 97.3435 116.971 97.3735C116.967 97.4034 116.942 97.4266 116.912 97.4307Z" fill="white"/>
</g>
</g>
<defs>
<clipPath id="clip0_636_4628">
<rect width="280" height="95.6962" fill="white" transform="translate(10 52)"/>
</clipPath>
</defs>
</svg>
