<svg width="556" height="191" viewBox="0 0 556 191" fill="none" xmlns="http://www.w3.org/2000/svg">
<g clip-path="url(#clip0_713_4809)">
<mask id="mask0_713_4809" style="mask-type:luminance" maskUnits="userSpaceOnUse" x="0" y="0" width="556" height="191">
<path d="M555.123 0H0.882812V190.025H555.123V0Z" fill="white"/>
</mask>
<g mask="url(#mask0_713_4809)">
<path d="M315.085 123.838C315.085 122.483 315.377 122.096 316.059 122.096C317.131 122.096 317.521 123.548 318.301 125.387C319.763 128.873 320.835 133.613 320.835 137.002C320.835 145.036 317.619 149.196 314.793 152.585C318.691 155.294 321.615 158.393 321.615 159.262C321.615 160.326 320.835 160.326 318.691 160.326H290.724C256.518 160.326 241.411 133.131 239.657 103.612C239.365 98.6768 237.415 96.0629 235.271 94.6109C233.226 93.254 231.859 92.8666 231.859 91.8021C231.859 90.8351 232.738 90.4476 234.977 88.8036C238.485 86.2871 239.461 80.6747 240.434 75.2548C243.844 55.996 256.418 28.7031 290.721 28.7031H318.688C320.832 28.7031 321.612 28.7031 321.612 29.7677C321.612 30.6371 318.688 33.7359 314.791 36.4445C317.616 39.833 320.832 43.9938 320.832 52.0249C320.832 55.4136 319.76 60.1537 318.298 63.6396C317.518 65.479 317.128 67.0256 316.056 67.0256C315.374 67.0256 315.083 66.5435 315.083 65.1866C315.083 52.8944 308.065 41.09 291.888 41.09C273.86 41.09 262.944 60.9282 262.944 91.1247C262.944 121.321 269.182 147.742 291.888 147.742C308.065 147.742 315.085 136.129 315.085 123.838Z" fill="white"/>
<path d="M335.386 160.33C333.243 160.33 331.682 160.04 331.682 158.976C331.682 157.716 334.02 156.459 335.97 155.105C338.992 153.071 339.966 151.912 339.966 147.266V103.328C339.966 93.3605 331.391 93.8426 331.391 91.6186C331.391 88.8126 339.966 87.8428 339.966 79.6192V41.7789C339.966 37.1335 338.992 35.9715 335.97 33.9399C334.02 32.5856 331.682 31.326 331.682 30.0692C331.682 29.0047 333.243 28.7148 335.386 28.7148H413.348C415.491 28.7148 416.272 28.7148 416.272 29.7793C416.272 30.9387 413.348 33.7476 409.449 36.4564C412.275 39.8448 415.491 44.0053 415.491 52.0367C415.491 55.4252 414.421 60.1656 412.958 63.6515C412.176 65.4909 411.789 67.0375 410.716 67.0375C410.033 67.0375 409.741 66.5554 409.741 65.1981C409.741 52.9063 402.724 41.294 385.379 41.294H361.894V85.0392C368.323 79.3293 376.216 77.1028 385.087 75.9408C389.57 75.3585 394.539 73.3269 394.539 68.0045C394.539 66.0676 393.272 64.8106 393.272 63.8412C393.272 63.4537 393.564 63.2616 393.955 63.2616C396.682 63.2616 401.556 68.2941 401.556 73.6169C401.556 77.5849 399.902 79.7139 396.978 81.8429C400.975 83.1974 404.188 87.1657 404.188 91.9086C404.188 98.2956 399.512 102.651 398.051 102.651C397.562 102.651 397.368 102.264 397.368 101.876C397.368 100.425 398.632 98.9726 398.632 96.4565C398.632 93.4552 395.517 90.2617 387.624 90.2617C367.352 90.2617 361.894 105.65 361.894 117.167V147.653H385.284C402.629 147.653 409.643 136.136 409.643 123.844C409.643 122.49 409.935 122.102 410.617 122.102C411.596 122.102 412.176 123.554 412.958 125.393C414.421 128.879 415.393 133.62 415.393 137.008C415.393 145.042 412.176 149.203 409.354 152.591C413.25 155.3 416.174 158.399 416.174 159.268C416.174 160.333 415.393 160.333 413.25 160.333L335.386 160.33Z" fill="white"/>
<path d="M426.772 160.326C424.629 160.326 423.848 160.326 423.848 159.262C423.848 158.393 426.772 155.294 430.671 152.585C427.842 149.196 424.629 145.036 424.629 137.002C424.629 133.616 425.604 128.873 427.064 125.387C427.845 123.548 428.429 122.096 429.404 122.096C430.087 122.096 430.379 122.483 430.379 123.838C430.379 141.163 442.168 147.647 457.18 147.647C472.188 147.647 482.027 137.969 482.027 121.321C482.027 107.577 474.525 101.288 467.8 96.8349C463.412 93.8364 461.367 92.8666 458.735 92.8666C455.424 92.8666 452.499 94.7056 450.451 94.7056C449.867 94.7056 449.476 94.5135 449.476 93.8364C449.476 92.6741 450.353 90.158 450.353 87.4491C450.353 85.3201 447.724 84.0635 445.479 82.4166C431.741 72.2534 426.381 64.222 426.381 53.0922C426.381 43.9938 432.518 28.7031 462.634 28.7031H493.721C495.864 28.7031 496.645 28.8954 496.645 29.6701C496.645 30.927 493.721 33.7359 489.825 36.4445C492.651 39.833 495.864 43.9938 495.864 52.0249C495.864 55.4136 494.794 60.1537 493.33 63.6396C492.552 65.479 492.162 67.0256 491.088 67.0256C490.406 67.0256 490.114 66.5435 490.114 65.1866C490.114 52.8944 483.097 41.2824 461.951 41.2824C452.207 41.2824 447.238 45.5404 447.238 51.9274C447.238 60.9283 456.201 66.4432 471.21 75.2519C489.727 86.0922 504.443 95.7676 504.443 120.062C504.443 142.127 487.386 160.321 458.833 160.321H426.772V160.326Z" fill="white"/>
<path d="M530.755 49.4335C528.514 47.6891 527.634 46.6246 527.634 43.3361V37.4341C527.634 35.5947 528.612 35.1099 528.612 34.1429C528.612 33.7556 528.316 33.3683 527.634 32.9809L520.715 28.6253C520.131 28.238 519.934 28.043 519.642 28.043C519.35 28.043 518.667 28.5278 517.89 29.0127L509.409 34.4327C507.459 35.6897 507.167 35.8847 507.167 36.2721C507.167 37.0466 508.628 37.1413 508.628 38.6907V43.3361C508.628 46.6274 507.656 47.6919 505.415 49.4335C504.827 49.9156 504.535 50.303 504.535 50.5926C504.535 50.9801 504.926 51.2725 505.51 51.6571C507.558 52.8166 508.628 53.4965 508.628 57.3674V63.9493C508.628 64.8188 508.142 65.3038 507.558 65.8862C507.167 66.2708 506.777 66.5632 506.777 66.9506C506.777 67.1428 506.875 67.3377 507.167 67.6277C508.434 68.7897 513.695 72.758 515.06 73.7251L507.653 82.0489C506.773 83.0159 506.675 83.3083 506.675 83.5983C506.675 83.9854 506.97 84.1779 507.262 84.1779C507.456 84.1779 507.748 84.0828 507.945 83.8879L509.015 82.9209C514.374 83.1134 517.397 83.5983 520.321 85.7273C521.201 86.4043 521.395 86.5993 521.592 86.5993C521.785 86.5993 522.074 86.5018 522.369 86.0169C525.002 82.436 528.021 78.6601 529.58 76.339C530.46 75.0795 530.653 74.3046 530.653 73.7251C530.653 71.1111 527.63 70.5316 527.63 64.1443V57.3699C527.63 53.4993 528.609 52.8195 530.653 51.6599C531.237 51.2725 531.628 50.9801 531.628 50.5955C531.628 50.3058 531.336 49.9184 530.752 49.4363L530.755 49.4335ZM515.067 33.0784L521.106 37.1413V67.2403L519.843 68.5947L515.067 64.6264V33.0784ZM524.713 79.8224C521.887 78.4679 518.474 77.5009 513.699 77.5009L520.913 69.662C520.913 70.9215 521.493 72.663 523.154 74.4049C524.614 75.9543 525.1 77.3084 525.1 78.2755C525.1 78.9529 524.91 79.435 524.713 79.8224Z" fill="white"/>
<path d="M546.447 28.6253C546.837 28.3355 547.129 28.043 547.717 28.043C548.108 28.043 548.495 28.3355 549.079 28.6253L554.73 32.5935C555.026 32.7859 555.121 32.9809 555.121 33.1732C555.121 33.3655 555.026 33.5606 554.73 33.8504C553.467 35.0124 551.127 38.2058 550.251 40.1427C550.054 40.5301 549.86 40.725 549.568 40.725C549.276 40.725 549.177 40.4326 549.177 40.2401C549.177 39.7552 549.469 39.2731 549.469 38.5932C549.469 38.2058 549.371 37.9162 548.98 37.4341C547.031 35.3051 544.888 33.9479 543.427 32.8834V62.3052C543.427 63.5647 543.522 63.8546 544.106 64.2417C544.106 64.2417 548.203 67.0481 550.247 67.0481C551.028 67.0481 551.901 66.2732 553.171 64.9191C553.562 64.5317 553.953 64.4342 554.245 64.4342C554.632 64.4342 554.924 64.7267 554.924 65.1141C554.924 65.4041 554.727 65.7911 554.438 66.0811C552.781 67.6305 549.659 70.824 548.199 72.4681C547.713 73.0505 547.418 73.3404 547.027 73.3404C546.739 73.3404 546.348 73.1479 545.764 72.8555C544.202 71.986 538.747 68.2101 535.337 66.8556C534.461 66.566 534.461 66.2732 534.461 66.0811C534.461 65.8886 534.556 65.6937 535.144 65.3062C536.213 64.7267 536.506 64.3392 536.506 61.6278V38.8857C536.506 37.3366 535.534 37.2388 535.534 36.4643C535.534 36.0768 535.823 35.9822 537.677 34.6251C539.82 33.1732 543.621 30.6568 546.447 28.6253Z" fill="white"/>
<path d="M117.504 107.87C113.38 107.87 109.493 108.973 106.321 110.232C95.4549 114.406 81.4958 122.126 68.2485 145.364C55.5577 167.578 44.9286 178.762 30.1758 178.762C18.1995 178.762 11.67 170.728 11.67 161.353C11.67 148.276 20.1823 142.842 29.303 142.842C34.537 142.842 39.0592 146.149 39.8528 155.524C40.0903 158.046 40.3303 160.8 41.8357 160.8C43.2648 160.8 43.6603 158.043 43.8975 155.524C44.9286 146.071 47.3071 139.927 58.0942 139.061C60.3935 138.825 63.4071 138.194 63.4071 137.013C63.4071 135.753 60.3935 135.122 58.0942 135.044C47.4651 134.57 44.5306 131.419 43.7367 122.283C43.4203 118.58 42.9432 117.006 41.8329 117.006C40.723 117.006 40.3275 118.583 40.0083 122.283C39.2148 131.419 34.6952 132.996 25.0182 134.965C11.4572 137.723 0.882812 145.521 0.882812 161.353C0.882812 179.076 12.9655 190.025 34.5397 190.025C51.1174 190.025 69.6776 182.383 84.5098 155.995C88.5545 159.777 93.4719 161.825 99.3416 161.825C102.197 161.825 104.101 161.667 104.101 160.565C104.101 159.463 101.562 159.146 99.2624 157.572C94.5822 154.422 92.5992 149.773 92.5992 142.368C92.5992 130.317 101.641 119.761 115.521 111.649C117.583 110.389 119.091 109.601 119.091 108.734C119.091 108.103 118.456 107.867 117.507 107.867L117.504 107.87Z" fill="white"/>
<path d="M226.95 77.7422C227.531 70.5152 221.558 62.8959 211.824 62.1239C206.513 61.704 204.029 63.4266 203.941 64.502C203.895 65.0897 204.37 64.9732 205.845 65.0897C211.254 65.5179 212.506 69.6457 212.206 73.3568C211.742 79.1181 208.635 80.8382 203.819 80.456L198.388 80.0256V10.2876C204.405 6.76089 208.145 2.54888 208.145 1.07806C208.145 0 207.356 0 205.185 0H188.624C168.896 0 162.975 8.52425 155.281 19.6895L133.974 50.7445C130.521 55.6419 127.761 58.3856 124.21 58.3856H121.348C119.769 58.3856 119.276 58.7759 119.276 59.5613C119.276 60.9348 120.953 61.9124 120.953 66.0271C120.953 68.8683 119.079 72.6875 116.218 76.7048L101.814 97.0822C100.434 98.943 99.1523 100.804 99.1523 102.275C99.1523 103.941 100.532 104.431 102.111 104.431C103.887 104.431 105.761 104.333 111.483 103.158C130.619 99.2411 158.24 96.8872 174.714 96.8872V138.915C174.714 152.337 169.188 156.549 158.93 159.685C157.449 160.176 155.183 160.764 155.183 161.841C155.183 162.624 156.167 163.41 159.028 163.41C170.372 163.41 179.645 159.883 186.551 155.671C193.457 159.883 202.728 163.41 214.074 163.41C216.935 163.41 217.92 162.627 217.92 161.841C217.92 160.863 215.749 160.176 213.58 159.49C204.013 156.551 198.388 152.339 198.388 138.918V97.1849L203.508 97.3447C213.831 98.1629 218.113 104.005 217.595 110.452C217.516 111.427 217.363 112.104 217.325 112.592C217.295 112.982 217.399 113.147 217.86 113.323C218.492 113.562 219.731 112.194 220.5 111.273C223.05 107.993 223.893 104.761 224.119 101.928C224.487 97.3394 222.548 94.5496 218.108 91.9357C223.05 89.5438 226.462 83.7987 226.95 77.7422ZM179.615 87.5964C174.9 87.9564 170.113 88.1813 165.481 88.4008L163.223 88.5064C162.271 88.5606 161.319 88.6067 160.365 88.6528C158.625 88.7394 156.825 88.8287 155.057 88.9561C154.594 88.9913 154.13 89.0184 153.666 89.0455L153.017 89.0835L150.985 89.2376C149.962 89.308 148.926 89.4083 147.925 89.5033C147.592 89.5357 147.259 89.5681 146.924 89.598C145.879 89.6902 144.818 89.8039 143.793 89.9151L142.865 90.015L138.815 90.5217C137.023 90.741 135.201 90.9986 133.439 91.2477C132.528 91.3747 131.617 91.5049 130.706 91.6295C125.402 92.3798 119.914 93.1571 114.412 93.7233C114.407 93.7233 114.402 93.7233 114.399 93.7233C114.333 93.7233 114.276 93.6772 114.265 93.6125C114.252 93.5417 114.295 93.4742 114.366 93.458C119.477 92.1443 124.73 90.9634 130.42 89.8471L132.438 89.4491L134.467 89.0888C135.752 88.8558 137.061 88.6447 138.33 88.4388L138.532 88.4061C139.222 88.2872 139.922 88.1922 140.574 88.1056L142.617 87.8294L143.539 87.721C144.581 87.5964 145.658 87.469 146.719 87.3634L147.347 87.3092C148.489 87.209 149.67 87.1087 150.838 87.0411C152.48 86.9271 153.751 86.8567 154.956 86.8191C155.993 86.7754 157.045 86.7539 158.063 86.7349L159.072 86.7131C160.171 86.6808 161.284 86.686 162.361 86.6917H163.185C168.82 86.724 174.349 86.9355 179.615 87.3254C179.686 87.3307 179.741 87.3905 179.741 87.4609C179.741 87.5313 179.686 87.5908 179.615 87.5964ZM136.027 81.529L174.714 27.0733V78.8904C158.338 78.8904 146.089 79.7656 136.027 81.529ZM180.941 8.67863C180.417 8.84388 179.932 9.10661 179.566 9.3206C179.111 9.58062 178.683 9.87586 178.284 10.1549C177.54 10.6993 176.765 11.3359 175.922 12.1024C174.54 13.3918 173.176 14.8572 171.752 16.5799C169.655 19.1748 167.647 21.9323 165.705 24.6003C165.258 25.2125 164.813 25.8247 164.366 26.4368L150 46.5108L142.805 56.5466C141.826 57.8873 140.855 59.2309 139.881 60.5773C138.466 62.5356 137.001 64.5615 135.539 66.5388L131.879 71.515L128.181 76.469L127.313 77.612C126.372 78.8528 125.399 80.134 124.428 81.3854L122.518 83.8205L121.038 85.6163C120.986 85.6733 120.939 85.7275 120.893 85.7813C120.767 85.9277 120.636 86.0794 120.465 86.1906C120.443 86.2039 120.415 86.212 120.391 86.212C120.348 86.212 120.306 86.193 120.279 86.1554C120.236 86.0955 120.247 86.0143 120.304 85.971C120.429 85.8707 120.53 85.7299 120.634 85.5811C120.677 85.5188 120.718 85.459 120.765 85.4023L121.198 84.771L123.757 80.9138L127.161 75.762L130.592 70.6264L134.053 65.5123C135.665 63.1204 137.334 60.7099 138.949 58.3804C139.652 57.3672 140.353 56.3517 141.054 55.3357L142.503 53.2799C144.36 50.6442 146.28 47.9166 148.195 45.2514C152.818 38.8454 157.809 32.0113 162.994 25.4319C164.252 23.8229 165.558 22.1977 166.878 20.6023C168.045 19.1857 169.442 17.5198 170.934 15.8919C172.505 14.1773 173.98 12.7633 175.45 11.5715C176.228 10.9539 177.076 10.3038 178.001 9.74045C178.429 9.48582 178.895 9.21496 179.383 8.98471C179.779 8.7924 180.305 8.55673 180.867 8.42674C180.938 8.41049 181.009 8.4538 181.031 8.52155C181.05 8.59196 181.012 8.66508 180.941 8.68676V8.67863ZM187.62 95.1049C187.601 97.0252 187.588 98.9458 187.574 100.863C187.547 104.612 187.517 108.488 187.457 112.3C187.282 126.068 187.042 136.675 186.679 146.689C186.679 146.762 186.617 146.819 186.543 146.819C186.469 146.819 186.41 146.762 186.407 146.689C186.044 136.672 185.804 126.065 185.629 112.297C185.567 108.486 185.539 104.61 185.512 100.861C185.498 98.9402 185.485 97.0224 185.466 95.102L185.414 77.9072L185.469 60.7124C185.485 58.8762 185.498 57.0424 185.515 55.2059C185.545 51.3758 185.572 47.4127 185.635 43.5151C185.812 29.7197 186.05 19.1152 186.41 9.12287C186.41 9.04974 186.472 8.99284 186.546 8.99284C186.619 8.99284 186.679 9.04974 186.682 9.12287C187.042 19.1125 187.279 29.7197 187.457 43.5151C187.519 47.4127 187.549 51.373 187.577 55.2031C187.59 57.0368 187.604 58.8734 187.623 60.7071L187.678 77.9019L187.626 95.0968L187.62 95.1049ZM212.296 90.2047C211.955 90.2508 211.51 90.2726 210.976 90.2726C209.099 90.2726 206.129 89.9963 202.741 89.4977C197.576 88.7341 194.335 88.1841 193.108 87.8589C193.045 87.8427 193.004 87.7861 193.007 87.721C193.01 87.6587 193.056 87.6045 193.119 87.5936C195.096 87.2551 199.919 87.2037 202.938 87.6425C206.096 88.0352 210.823 89.2567 212.334 89.9474C212.388 89.9717 212.421 90.0315 212.413 90.091C212.405 90.1505 212.356 90.1966 212.296 90.2047Z" fill="white"/>
</g>
</g>
<defs>
<clipPath id="clip0_713_4809">
<rect width="556" height="190.025" fill="white"/>
</clipPath>
</defs>
</svg>
