<svg width="296" height="89" viewBox="0 0 296 89" fill="none" xmlns="http://www.w3.org/2000/svg">
<path d="M10.9783 74.2999C10.7483 74.0099 10.4483 73.7699 10.0583 73.5899V73.5099C10.3283 73.3299 10.5383 73.1199 10.6983 72.8799C10.8983 72.5499 10.9983 72.1899 10.9983 71.7499C10.9983 71.0499 10.7283 70.5199 10.2983 70.1499C9.73828 69.6499 8.90828 69.4399 8.01828 69.4399H2.23828V70.6199L3.09828 70.7899V72.9099V78.5199H8.22828C9.14828 78.5199 9.99828 78.2299 10.5883 77.7199C11.1283 77.2299 11.4783 76.5699 11.4783 75.7499C11.4783 75.2199 11.3083 74.7199 10.9783 74.3099M5.02828 70.9299H7.93828C8.29828 70.9299 8.58828 71.0499 8.76828 71.2199C8.97828 71.3999 9.06828 71.6599 9.06828 71.9399C9.06828 72.1999 8.97828 72.4699 8.80828 72.6699C8.62828 72.8699 8.36828 72.9899 8.04828 72.9899H5.01828V70.9299H5.02828ZM9.24828 76.5999C9.00828 76.8599 8.62828 77.0099 8.17828 77.0099H5.02828V74.4099H8.20828C8.64828 74.4099 9.00828 74.5499 9.26828 74.7999C9.46828 75.0099 9.58828 75.2999 9.58828 75.6899C9.58828 76.0799 9.46828 76.3799 9.25828 76.5999" fill="#003A28"/>
<path d="M20.4589 77.0099V78.5099H13.1289V69.4299H15.0889V77.0099H20.4589Z" fill="#003A28"/>
<path d="M21.6602 69.4299H23.6301V74.6299C23.6301 75.4499 23.8402 76.0699 24.2502 76.5099C24.6302 76.9199 25.1902 77.1399 25.9102 77.1399C26.6302 77.1399 27.2402 76.9299 27.6002 76.5399C28.0102 76.0999 28.2102 75.5099 28.2102 74.6299V69.4299H30.1502V74.5699C30.1502 75.8699 29.7302 76.9099 29.0002 77.5999C28.2602 78.2899 27.2002 78.6699 25.9002 78.6699C24.6802 78.6699 23.6202 78.3199 22.8702 77.6599C22.1102 76.9799 21.6702 75.9399 21.6602 74.5699V69.4299Z" fill="#003A28"/>
<path d="M32.168 69.4299H39.648V70.9599H34.108V73.0199H39.038V74.5299H34.108V76.9799H39.838V78.5099H32.168V69.4299Z" fill="#003A28"/>
<path d="M46.8002 73.7V74.88L47.6602 75.05V77.01C47.2302 77.1 46.7801 77.14 46.2701 77.14C45.1901 77.14 44.2102 76.75 43.6502 76.11C43.1502 75.55 42.8801 74.81 42.8801 73.96C42.8801 72.99 43.2002 72.17 43.7902 71.63C44.3502 71.09 45.2701 70.78 46.2701 70.78C47.1801 70.78 47.9902 70.95 48.9302 71.31L49.5002 69.98C48.4302 69.44 47.3702 69.25 46.1402 69.25C44.6602 69.25 43.4201 69.64 42.4501 70.43C41.4801 71.2 40.9102 72.38 40.9102 73.96C40.9102 75.38 41.4102 76.49 42.2402 77.27C43.2402 78.21 44.5802 78.66 46.1602 78.66C47.3902 78.66 48.4701 78.43 49.5201 77.89V73.69H46.8002V73.7Z" fill="#003A28"/>
<path d="M56.3384 69.4299C57.4384 69.4299 58.3384 69.7299 59.0184 70.3399C59.5884 70.8699 59.9684 71.6399 59.9684 72.6199C59.9684 73.4099 59.6784 74.1599 59.1684 74.7199C58.8184 75.0799 58.3184 75.4099 57.6884 75.5699L58.3884 76.4599C58.5984 76.7299 58.8284 76.9299 59.0684 77.0699C59.3384 77.2099 59.6384 77.2999 59.9784 77.3099L59.8784 78.6299C59.1184 78.6299 58.5584 78.5499 58.0884 78.3299C57.6084 78.0899 57.2084 77.6999 56.7384 77.0699L55.8184 75.8099H53.3384V78.4999H51.3984V69.4199H56.3484L56.3384 69.4299ZM57.9984 72.5899C57.9984 72.0899 57.8284 71.6499 57.5284 71.3799C57.2284 71.0799 56.7684 70.9299 56.2384 70.9299H53.3184V74.2999H56.2684C56.7984 74.2999 57.2484 74.1299 57.5584 73.8299C57.8484 73.5299 57.9984 73.1199 57.9984 72.5899Z" fill="#003A28"/>
<path d="M61.6289 69.4299H69.1089V70.9599H63.5689V73.0199H68.4989V74.5299H63.5689V76.9799H69.2989V78.5099H61.6289V69.4299Z" fill="#003A28"/>
<path d="M71.0273 69.4299H78.4973V70.9599H72.9573V73.0199H77.8873V74.5299H72.9573V76.9799H78.6973V78.5099H71.0273V69.4299Z" fill="#003A28"/>
<path d="M86.348 69.4299V70.6099L87.208 70.7799V75.6599L82.218 69.4299H80.418V78.5099H82.278V72.2099L87.258 78.5099H89.068V69.4299H86.348Z" fill="#003A28"/>
<path d="M63.2484 12.18C60.9884 12.18 59.1484 10.34 59.1484 8.07998C59.1484 5.81998 60.9884 3.97998 63.2484 3.97998C65.5084 3.97998 67.3484 5.81998 67.3484 8.07998C67.3484 10.34 65.5084 12.18 63.2484 12.18ZM64.7784 8.07998C64.7784 7.23998 64.0884 6.54998 63.2484 6.54998C62.4084 6.54998 61.7184 7.23998 61.7184 8.07998C61.7184 8.91998 62.4084 9.60998 63.2484 9.60998C64.0884 9.60998 64.7784 8.92998 64.7784 8.07998Z" fill="#16BAE7"/>
<path d="M69.35 19.45L45.81 11.5C45.42 11.37 44.99 11.43 44.65 11.67C44.31 11.91 44.11 12.3 44.11 12.72V47.67C40.34 47.89 36.68 49.08 33.52 51.14L28.82 48.43V21.97H40.23C40.94 21.97 41.52 21.39 41.52 20.68C41.52 19.97 40.94 19.39 40.23 19.39H27.54C26.83 19.39 26.25 19.97 26.25 20.68V49.18C26.25 49.64 26.5 50.07 26.89 50.3L44.75 60.61C44.94 60.73 45.17 60.78 45.39 60.78C45.61 60.78 45.84 60.72 46.03 60.61L63.89 50.3C64.29 50.07 64.53 49.64 64.53 49.18V28.03C64.53 27.32 63.95 26.74 63.24 26.74C62.53 26.74 61.95 27.32 61.95 28.03V48.43L57.22 51.16C54.07 49.1 50.43 47.9 46.67 47.68V29.47L69.33 21.89C69.86 21.71 70.21 21.22 70.21 20.67C70.21 20.12 69.86 19.63 69.33 19.45M54.69 52.63L45.39 58L36.06 52.61C38.89 51.04 42.1 50.21 45.36 50.21C48.62 50.21 51.85 51.05 54.69 52.63ZM46.68 26.75V14.51L64.89 20.66L46.68 26.75Z" fill="#16BAE7"/>
<path d="M162.21 30.1799H162.81C163.44 30.1799 163.96 30.6999 163.96 31.3299V47.6899C163.96 49.7699 164 51.0599 164.08 51.5699C164.22 52.7099 164.56 53.6699 165.08 54.4399C165.6 55.2099 166.41 55.8499 167.5 56.3699C168.59 56.8899 169.69 57.1499 170.79 57.1499C171.75 57.1499 172.67 56.9499 173.55 56.5399C174.43 56.1299 175.16 55.5699 175.76 54.8399C176.35 54.1199 176.78 53.2399 177.06 52.2199C177.26 51.4799 177.36 49.9699 177.36 47.6799V31.3199C177.36 30.6799 177.87 30.1699 178.51 30.1699H179.11C179.74 30.1699 180.26 30.6899 180.26 31.3199V47.6799C180.26 50.2699 180.01 52.3599 179.5 53.9599C178.99 55.5599 177.98 56.9499 176.47 58.1299C174.95 59.3099 173.12 59.8999 170.97 59.8999C168.63 59.8999 166.63 59.3399 164.97 58.2199C163.3 57.0999 162.19 55.6199 161.62 53.7799C161.27 52.6499 161.09 50.6099 161.09 47.6699V31.3099C161.09 30.6699 161.6 30.1599 162.24 30.1599" fill="#E94E1B"/>
<path d="M213.778 36.4799L213.228 37C212.798 37.4 212.148 37.41 211.708 37.02C210.338 35.81 208.868 34.87 207.278 34.2C205.398 33.4 203.568 33 201.788 33C199.568 33 197.458 33.5499 195.448 34.6399C193.438 35.7299 191.888 37.21 190.778 39.08C189.678 40.95 189.128 42.92 189.128 45C189.128 47.08 189.698 49.15 190.838 51.07C191.978 52.99 193.558 54.4999 195.568 55.5899C197.578 56.6899 199.788 57.2399 202.188 57.2399C205.098 57.2399 207.558 56.4199 209.578 54.7799C211.588 53.1399 212.788 51.0099 213.158 48.3899H205.258C204.638 48.3899 204.138 47.8899 204.138 47.2699V46.7799C204.138 46.1599 204.638 45.66 205.258 45.66H216.338C216.308 50.04 215.008 53.51 212.438 56.08C209.868 58.65 206.428 59.94 202.118 59.94C196.888 59.94 192.738 58.1599 189.688 54.5899C187.338 51.8399 186.168 48.6699 186.168 45.0599C186.168 42.3799 186.838 39.88 188.188 37.57C189.538 35.26 191.378 33.45 193.728 32.15C196.078 30.85 198.728 30.2 201.698 30.2C204.098 30.2 206.358 30.63 208.468 31.5C210.258 32.23 212.018 33.34 213.738 34.83C214.248 35.27 214.268 36.04 213.788 36.5" fill="#007534"/>
<path d="M257.721 30.1799H258.331C258.981 30.1799 259.511 30.7099 259.511 31.3599V57.0499H269.781C270.431 57.0499 270.961 57.5799 270.961 58.2299V58.7399C270.961 59.3899 270.431 59.9199 269.781 59.9199H257.711C257.061 59.9199 256.531 59.3899 256.531 58.7399V31.3599C256.531 30.7099 257.061 30.1799 257.711 30.1799" fill="#007534"/>
<path d="M278.701 30.1799H291.271C291.921 30.1799 292.451 30.7099 292.451 31.3599V31.9099C292.451 32.5599 291.921 33.0899 291.271 33.0899H280.501V42.4099H291.271C291.921 42.4099 292.451 42.9399 292.451 43.5899V44.1399C292.451 44.7899 291.921 45.3199 291.271 45.3199H280.501V58.7399C280.501 59.3899 279.971 59.9199 279.321 59.9199H278.711C278.061 59.9199 277.531 59.3899 277.531 58.7399V31.3599C277.531 30.7099 278.061 30.1799 278.711 30.1799" fill="#007534"/>
<path d="M231.82 52.32C231.82 52.63 232.12 52.88 232.48 52.88H238.2C238.56 52.87 238.86 52.61 238.86 52.3C238.86 51.99 238.56 51.74 238.2 51.74H232.48C232.12 51.75 231.82 52.01 231.82 52.32Z" fill="#E94E1B"/>
<path d="M234.89 39.22C234.35 39.22 233.91 39.65 233.91 40.19C233.91 40.73 234.35 41.16 234.89 41.16C235.43 41.16 235.87 40.73 235.87 40.19C235.87 39.65 235.43 39.22 234.89 39.22Z" fill="#007A37"/>
<path d="M239.881 41.1399C239.841 40.9299 239.671 40.8099 239.661 40.7999L234.231 37.1599L233.351 37.7599C233.251 37.9099 233.291 38.1199 233.451 38.2199C233.601 38.3199 233.811 38.2799 233.911 38.1299L234.221 37.6799L238.911 40.7799L235.071 41.4699C234.801 41.5199 234.601 41.7899 234.661 42.0499L235.501 45.2799L232.811 49.2199C232.651 49.4999 232.751 49.8499 233.031 50.0099C233.311 50.1699 233.671 50.0699 233.831 49.7999C233.831 49.7999 236.641 45.6699 236.651 45.6399L236.801 46.2299L236.381 49.4099C236.331 49.7299 236.541 50.0199 236.861 50.0799C237.181 50.1299 237.481 49.9199 237.541 49.6099L237.981 46.3399C237.991 46.2599 237.981 46.0699 237.961 45.9899L237.001 42.1599L239.511 41.7099C239.781 41.6599 239.961 41.3999 239.911 41.1299" fill="#007534"/>
<path d="M235.659 30.1799C227.449 30.1799 220.789 36.8399 220.789 45.0499C220.789 53.2599 227.449 59.9199 235.659 59.9199C243.869 59.9199 250.529 53.2599 250.529 45.0499C250.529 36.8399 243.869 30.1799 235.659 30.1799ZM235.659 31.7999C242.959 31.7999 248.909 37.7399 248.909 45.0499C248.909 52.3599 242.969 58.2999 235.659 58.2999C228.349 58.2999 222.409 52.3599 222.409 45.0499C222.409 37.7399 228.349 31.7999 235.659 31.7999Z" fill="#007534"/>
<path d="M125.18 3.97998V84.82" stroke="#5A5A59" stroke-width="2" stroke-miterlimit="10" stroke-linecap="round"/>
</svg>
