<svg width="301" height="91" viewBox="0 0 301 91" fill="none" xmlns="http://www.w3.org/2000/svg">
<path d="M13.9783 75.2999C13.7483 75.0099 13.4483 74.7699 13.0583 74.5899V74.5099C13.3283 74.3299 13.5383 74.1199 13.6983 73.8799C13.8983 73.5499 13.9983 73.1899 13.9983 72.7499C13.9983 72.0499 13.7283 71.5199 13.2983 71.1499C12.7383 70.6499 11.9083 70.4399 11.0183 70.4399H5.23828V71.6199L6.09828 71.7899V73.9099V79.5199H11.2283C12.1483 79.5199 12.9983 79.2299 13.5883 78.7199C14.1283 78.2299 14.4783 77.5699 14.4783 76.7499C14.4783 76.2199 14.3083 75.7199 13.9783 75.3099M8.02828 71.9299H10.9383C11.2983 71.9299 11.5883 72.0499 11.7683 72.2199C11.9783 72.3999 12.0683 72.6599 12.0683 72.9399C12.0683 73.1999 11.9783 73.4699 11.8083 73.6699C11.6283 73.8699 11.3683 73.9899 11.0483 73.9899H8.01828V71.9299H8.02828ZM12.2483 77.5999C12.0083 77.8599 11.6283 78.0099 11.1783 78.0099H8.02828V75.4099H11.2083C11.6483 75.4099 12.0083 75.5499 12.2683 75.7999C12.4683 76.0099 12.5883 76.2999 12.5883 76.6899C12.5883 77.0799 12.4683 77.3799 12.2583 77.5999" fill="white"/>
<path d="M23.4589 78.0099V79.5099H16.1289V70.4299H18.0889V78.0099H23.4589Z" fill="white"/>
<path d="M24.6602 70.4299H26.6301V75.6299C26.6301 76.4499 26.8402 77.0699 27.2502 77.5099C27.6302 77.9199 28.1902 78.1399 28.9102 78.1399C29.6302 78.1399 30.2402 77.9299 30.6002 77.5399C31.0102 77.0999 31.2102 76.5099 31.2102 75.6299V70.4299H33.1502V75.5699C33.1502 76.8699 32.7302 77.9099 32.0002 78.5999C31.2602 79.2899 30.2002 79.6699 28.9002 79.6699C27.6802 79.6699 26.6202 79.3199 25.8702 78.6599C25.1102 77.9799 24.6702 76.9399 24.6602 75.5699V70.4299Z" fill="white"/>
<path d="M35.168 70.4299H42.648V71.9599H37.108V74.0199H42.038V75.5299H37.108V77.9799H42.838V79.5099H35.168V70.4299Z" fill="white"/>
<path d="M49.8002 74.7V75.88L50.6602 76.05V78.01C50.2302 78.1 49.7801 78.14 49.2701 78.14C48.1901 78.14 47.2102 77.75 46.6502 77.11C46.1502 76.55 45.8801 75.81 45.8801 74.96C45.8801 73.99 46.2002 73.17 46.7902 72.63C47.3502 72.09 48.2701 71.78 49.2701 71.78C50.1801 71.78 50.9902 71.95 51.9302 72.31L52.5002 70.98C51.4302 70.44 50.3702 70.25 49.1402 70.25C47.6602 70.25 46.4201 70.64 45.4501 71.43C44.4801 72.2 43.9102 73.38 43.9102 74.96C43.9102 76.38 44.4102 77.49 45.2402 78.27C46.2402 79.21 47.5802 79.66 49.1602 79.66C50.3902 79.66 51.4701 79.43 52.5201 78.89V74.69H49.8002V74.7Z" fill="white"/>
<path d="M59.3384 70.4299C60.4384 70.4299 61.3384 70.7299 62.0184 71.3399C62.5884 71.8699 62.9684 72.6399 62.9684 73.6199C62.9684 74.4099 62.6784 75.1599 62.1684 75.7199C61.8184 76.0799 61.3184 76.4099 60.6884 76.5699L61.3884 77.4599C61.5984 77.7299 61.8284 77.9299 62.0684 78.0699C62.3384 78.2099 62.6384 78.2999 62.9784 78.3099L62.8784 79.6299C62.1184 79.6299 61.5584 79.5499 61.0884 79.3299C60.6084 79.0899 60.2084 78.6999 59.7384 78.0699L58.8184 76.8099H56.3384V79.4999H54.3984V70.4199H59.3484L59.3384 70.4299ZM60.9984 73.5899C60.9984 73.0899 60.8284 72.6499 60.5284 72.3799C60.2284 72.0799 59.7684 71.9299 59.2384 71.9299H56.3184V75.2999H59.2684C59.7984 75.2999 60.2484 75.1299 60.5584 74.8299C60.8484 74.5299 60.9984 74.1199 60.9984 73.5899Z" fill="white"/>
<path d="M64.6289 70.4299H72.1089V71.9599H66.5689V74.0199H71.4989V75.5299H66.5689V77.9799H72.2989V79.5099H64.6289V70.4299Z" fill="white"/>
<path d="M74.0273 70.4299H81.4973V71.9599H75.9573V74.0199H80.8873V75.5299H75.9573V77.9799H81.6973V79.5099H74.0273V70.4299Z" fill="white"/>
<path d="M89.348 70.4299V71.6099L90.208 71.7799V76.6599L85.218 70.4299H83.418V79.5099H85.278V73.2099L90.258 79.5099H92.068V70.4299H89.348Z" fill="white"/>
<path d="M66.2484 13.18C63.9884 13.18 62.1484 11.34 62.1484 9.07998C62.1484 6.81998 63.9884 4.97998 66.2484 4.97998C68.5084 4.97998 70.3484 6.81998 70.3484 9.07998C70.3484 11.34 68.5084 13.18 66.2484 13.18ZM67.7784 9.07998C67.7784 8.23998 67.0884 7.54998 66.2484 7.54998C65.4084 7.54998 64.7184 8.23998 64.7184 9.07998C64.7184 9.91998 65.4084 10.61 66.2484 10.61C67.0884 10.61 67.7784 9.92998 67.7784 9.07998Z" fill="white"/>
<path d="M72.35 20.45L48.81 12.5C48.42 12.37 47.99 12.43 47.65 12.67C47.31 12.91 47.11 13.3 47.11 13.72V48.67C43.34 48.89 39.68 50.08 36.52 52.14L31.82 49.43V22.97H43.23C43.94 22.97 44.52 22.39 44.52 21.68C44.52 20.97 43.94 20.39 43.23 20.39H30.54C29.83 20.39 29.25 20.97 29.25 21.68V50.18C29.25 50.64 29.5 51.07 29.89 51.3L47.75 61.61C47.94 61.73 48.17 61.78 48.39 61.78C48.61 61.78 48.84 61.72 49.03 61.61L66.89 51.3C67.29 51.07 67.53 50.64 67.53 50.18V29.03C67.53 28.32 66.95 27.74 66.24 27.74C65.53 27.74 64.95 28.32 64.95 29.03V49.43L60.22 52.16C57.07 50.1 53.43 48.9 49.67 48.68V30.47L72.33 22.89C72.86 22.71 73.21 22.22 73.21 21.67C73.21 21.12 72.86 20.63 72.33 20.45M57.69 53.63L48.39 59L39.06 53.61C41.89 52.04 45.1 51.21 48.36 51.21C51.62 51.21 54.85 52.05 57.69 53.63ZM49.68 27.75V15.51L67.89 21.66L49.68 27.75Z" fill="white"/>
<path d="M165.21 31.1799H165.81C166.44 31.1799 166.96 31.6999 166.96 32.3299V48.6899C166.96 50.7699 167 52.0599 167.08 52.5699C167.22 53.7099 167.56 54.6699 168.08 55.4399C168.6 56.2099 169.41 56.8499 170.5 57.3699C171.59 57.8899 172.69 58.1499 173.79 58.1499C174.75 58.1499 175.67 57.9499 176.55 57.5399C177.43 57.1299 178.16 56.5699 178.76 55.8399C179.35 55.1199 179.78 54.2399 180.06 53.2199C180.26 52.4799 180.36 50.9699 180.36 48.6799V32.3199C180.36 31.6799 180.87 31.1699 181.51 31.1699H182.11C182.74 31.1699 183.26 31.6899 183.26 32.3199V48.6799C183.26 51.2699 183.01 53.3599 182.5 54.9599C181.99 56.5599 180.98 57.9499 179.47 59.1299C177.95 60.3099 176.12 60.8999 173.97 60.8999C171.63 60.8999 169.63 60.3399 167.97 59.2199C166.3 58.0999 165.19 56.6199 164.62 54.7799C164.27 53.6499 164.09 51.6099 164.09 48.6699V32.3099C164.09 31.6699 164.6 31.1599 165.24 31.1599" fill="white"/>
<path d="M216.778 37.4799L216.228 38C215.798 38.4 215.148 38.41 214.708 38.02C213.338 36.81 211.868 35.87 210.278 35.2C208.398 34.4 206.568 34 204.788 34C202.568 34 200.458 34.5499 198.448 35.6399C196.438 36.7299 194.888 38.21 193.778 40.08C192.678 41.95 192.128 43.92 192.128 46C192.128 48.08 192.698 50.15 193.838 52.07C194.978 53.99 196.558 55.4999 198.568 56.5899C200.578 57.6899 202.788 58.2399 205.188 58.2399C208.098 58.2399 210.558 57.4199 212.578 55.7799C214.588 54.1399 215.788 52.0099 216.158 49.3899H208.258C207.638 49.3899 207.138 48.8899 207.138 48.2699V47.7799C207.138 47.1599 207.638 46.66 208.258 46.66H219.338C219.308 51.04 218.008 54.51 215.438 57.08C212.868 59.65 209.428 60.94 205.118 60.94C199.888 60.94 195.738 59.1599 192.688 55.5899C190.338 52.8399 189.168 49.6699 189.168 46.0599C189.168 43.3799 189.838 40.88 191.188 38.57C192.538 36.26 194.378 34.45 196.728 33.15C199.078 31.85 201.728 31.2 204.698 31.2C207.098 31.2 209.358 31.63 211.468 32.5C213.258 33.23 215.018 34.34 216.738 35.83C217.248 36.27 217.268 37.04 216.788 37.5" fill="white"/>
<path d="M260.721 31.1799H261.331C261.981 31.1799 262.511 31.7099 262.511 32.3599V58.0499H272.781C273.431 58.0499 273.961 58.5799 273.961 59.2299V59.7399C273.961 60.3899 273.431 60.9199 272.781 60.9199H260.711C260.061 60.9199 259.531 60.3899 259.531 59.7399V32.3599C259.531 31.7099 260.061 31.1799 260.711 31.1799" fill="white"/>
<path d="M281.701 31.1799H294.271C294.921 31.1799 295.451 31.7099 295.451 32.3599V32.9099C295.451 33.5599 294.921 34.0899 294.271 34.0899H283.501V43.4099H294.271C294.921 43.4099 295.451 43.9399 295.451 44.5899V45.1399C295.451 45.7899 294.921 46.3199 294.271 46.3199H283.501V59.7399C283.501 60.3899 282.971 60.9199 282.321 60.9199H281.711C281.061 60.9199 280.531 60.3899 280.531 59.7399V32.3599C280.531 31.7099 281.061 31.1799 281.711 31.1799" fill="white"/>
<path d="M234.82 53.32C234.82 53.63 235.12 53.88 235.48 53.88H241.2C241.56 53.87 241.86 53.61 241.86 53.3C241.86 52.99 241.56 52.74 241.2 52.74H235.48C235.12 52.75 234.82 53.01 234.82 53.32Z" fill="white"/>
<path d="M237.89 40.22C237.35 40.22 236.91 40.65 236.91 41.19C236.91 41.73 237.35 42.16 237.89 42.16C238.43 42.16 238.87 41.73 238.87 41.19C238.87 40.65 238.43 40.22 237.89 40.22Z" fill="white"/>
<path d="M242.881 42.1399C242.841 41.9299 242.671 41.8099 242.661 41.7999L237.231 38.1599L236.351 38.7599C236.251 38.9099 236.291 39.1199 236.451 39.2199C236.601 39.3199 236.811 39.2799 236.911 39.1299L237.221 38.6799L241.911 41.7799L238.071 42.4699C237.801 42.5199 237.601 42.7899 237.661 43.0499L238.501 46.2799L235.811 50.2199C235.651 50.4999 235.751 50.8499 236.031 51.0099C236.311 51.1699 236.671 51.0699 236.831 50.7999C236.831 50.7999 239.641 46.6699 239.651 46.6399L239.801 47.2299L239.381 50.4099C239.331 50.7299 239.541 51.0199 239.861 51.0799C240.181 51.1299 240.481 50.9199 240.541 50.6099L240.981 47.3399C240.991 47.2599 240.981 47.0699 240.961 46.9899L240.001 43.1599L242.511 42.7099C242.781 42.6599 242.961 42.3999 242.911 42.1299" fill="white"/>
<path d="M238.659 31.1799C230.449 31.1799 223.789 37.8399 223.789 46.0499C223.789 54.2599 230.449 60.9199 238.659 60.9199C246.869 60.9199 253.529 54.2599 253.529 46.0499C253.529 37.8399 246.869 31.1799 238.659 31.1799ZM238.659 32.7999C245.959 32.7999 251.909 38.7399 251.909 46.0499C251.909 53.3599 245.969 59.2999 238.659 59.2999C231.349 59.2999 225.409 53.3599 225.409 46.0499C225.409 38.7399 231.349 32.7999 238.659 32.7999Z" fill="white"/>
<path d="M128.18 4.97998V85.82" stroke="white" stroke-width="2" stroke-miterlimit="10" stroke-linecap="round"/>
</svg>
