<svg width="701" height="400" viewBox="0 0 701 400" fill="none" xmlns="http://www.w3.org/2000/svg">
<rect width="701" height="400" fill="#231F20"/>
<path d="M248.84 167.668C248.84 160.207 249.903 148.408 240.779 145.358V144.843H274.968V145.358C266.027 148.445 267.09 160.243 267.09 167.668V252.387C267.09 268.927 253.311 285.944 227 288.554V288.076C247.338 278.115 248.84 266.868 248.84 249.373V167.668Z" fill="white"/>
<path d="M373.187 167.668C373.187 160.207 374.433 148.408 365.309 145.358V144.843H399.278V145.358C390.337 148.408 391.436 160.39 391.436 167.668V228.607C391.436 235.884 390.337 247.683 399.278 250.77V251.248H365.309V250.77C374.25 247.83 373.187 235.884 373.187 228.607V167.668Z" fill="white"/>
<path d="M417.285 144.993C437.953 146.022 454.516 169.398 454.516 198.067C454.516 226.735 437.99 250.148 417.285 251.14C449.13 250.516 474.671 226.993 474.671 198.067C474.671 169.141 449.093 145.618 417.285 144.993Z" fill="white"/>
<path d="M297.749 121.071L314.569 129.451L318.527 111L322.484 129.451L339.304 121.071L327.431 135.662L344.471 143.638L325.672 143.418L330.07 161.758L318.527 146.836L307.02 161.758L311.381 143.418L292.582 143.638L309.659 135.662L297.749 121.071Z" fill="white"/>
<path d="M297.749 274.993L314.569 266.613L318.527 285.063L322.484 266.613L339.341 274.993L327.431 260.401L344.471 252.425L325.672 252.646L330.07 234.305L318.527 249.228L307.02 234.305L311.418 252.646L292.582 252.425L309.659 260.401L297.749 274.993Z" fill="white"/>
</svg>
