<svg width="177" height="32" viewBox="0 0 177 32" fill="none" xmlns="http://www.w3.org/2000/svg">
<g clip-path="url(#clip0_1060_14874)">
<path d="M31.4888 4.533C31.4888 3.9361 31.5739 2.99225 30.8435 2.7482V2.70703H33.58V2.7482C32.8644 2.99519 32.9494 3.93904 32.9494 4.533V11.3105C32.9494 12.6337 31.8466 13.9951 29.7407 14.2039V14.1656C31.3685 13.3688 31.4888 12.469 31.4888 11.0694V4.533Z" fill="white"/>
<path d="M41.4407 4.533C41.4407 3.9361 41.5404 2.99225 40.8101 2.7482V2.70703H43.529V2.7482C42.8133 2.99225 42.9013 3.95081 42.9013 4.533V9.40812C42.9013 9.99032 42.8133 10.9342 43.529 11.1812V11.2194H40.8101V11.1812C41.5257 10.9459 41.4407 9.99032 41.4407 9.40812V4.533Z" fill="white"/>
<path d="M44.9722 2.71973C46.6264 2.80206 47.9521 4.67213 47.9521 6.96561C47.9521 9.2591 46.6293 11.1321 44.9722 11.2115C47.521 11.1615 49.5653 9.27968 49.5653 6.96561C49.5653 4.65155 47.518 2.76971 44.9722 2.71973Z" fill="white"/>
<path d="M35.4048 0.80566L36.751 1.47606L37.0678 0L37.3845 1.47606L38.7308 0.80566L37.7805 1.97299L39.1443 2.61104L37.6397 2.5934L37.9917 4.06065L37.0678 2.86686L36.1468 4.06065L36.4958 2.5934L34.9912 2.61104L36.358 1.97299L35.4048 0.80566Z" fill="white"/>
<path d="M35.4048 13.1192L36.751 12.4488L37.0678 13.9249L37.3845 12.4488L38.7337 13.1192L37.7805 11.9519L39.1443 11.3139L37.6397 11.3315L37.9917 9.86426L37.0678 11.058L36.1468 9.86426L36.4988 11.3315L34.9912 11.3139L36.358 11.9519L35.4048 13.1192Z" fill="white"/>
<path d="M0.988347 18.0929C1.59841 18.2928 1.52802 19.0632 1.52802 19.5484V24.8822C1.52802 26.0231 1.39603 26.6582 0.0673828 27.408V27.4403C1.82425 27.2698 2.74522 26.6582 2.74522 25.5379V19.5484C2.74522 19.0632 2.67483 18.2928 3.27023 18.0929V18.0605H0.988347V18.0929Z" fill="white"/>
<path d="M10.8496 23.6173L8.68505 18.1982H6.6994V18.2306C7.27427 18.3894 7.0455 18.8334 6.87832 19.2127L5.10971 23.6173C4.84868 24.2201 4.64336 24.8111 3.94824 25.1169V25.1493H6.17733V25.1169C5.60246 24.9258 5.68751 24.62 5.93682 24.029L6.43836 22.647H9.17193L9.68814 24.029C10.0108 24.767 10.1046 24.8846 9.52095 25.1169V25.1493H12.2457L12.0199 25.1169C11.3394 24.8082 11.1224 24.2172 10.8467 23.6173H10.8496ZM6.77273 21.812L7.82568 19.0598L8.87863 21.812H6.77273Z" fill="white"/>
<path d="M29.0631 18.2335L29.0513 18.1953H26.7783V18.2335C27.3766 18.4599 27.3062 19.3362 27.3062 19.8772V22.5353C27.3062 22.9675 27.3179 23.2674 27.054 23.6262C26.658 24.1907 25.9775 24.4671 25.3059 24.4671C24.077 24.4671 23.4024 23.7232 23.4024 22.1295V19.8801C23.4024 19.3391 23.332 18.4658 23.9303 18.2365V18.1983H21.6572V18.2365C22.2702 18.4629 22.1852 19.3391 22.1852 19.8801V22.1295C22.1852 22.994 22.1617 23.7967 22.7952 24.4936C23.332 25.0816 24.1708 25.3316 24.9598 25.3316C25.7986 25.3316 26.7783 25.0434 27.3062 24.3466V25.1405H29.0631V25.1022C28.453 24.8758 28.5234 23.9996 28.5234 23.4615V19.8948C28.5234 19.3421 28.4501 18.4658 29.0631 18.2394V18.2335Z" fill="white"/>
<path d="M34.4276 24.2723L32.8233 24.1282V21.8112H33.7941C34.1666 21.8112 34.6681 21.7994 34.8588 22.1464H34.894V20.8732H34.8588C34.7151 20.9467 34.5244 20.9467 34.3338 20.9467H32.8233V19.1443C33.2075 19.0708 33.709 19.059 34.1314 19.059C34.6828 19.059 35.1697 19.109 35.5422 19.5383H35.5774V18.1357H35.5422C35.3867 18.2181 35.1843 18.1945 34.979 18.1945H31.0664V18.2328C31.6765 18.4592 31.6061 19.2031 31.6061 20.2793V23.9812C31.6061 23.9988 31.6765 24.8839 31.0664 25.1015V25.1368H36.1405L36.6802 23.5637H36.645C36.0496 24.0929 35.2225 24.3429 34.4335 24.2723H34.4276Z" fill="white"/>
<path d="M43.1769 18.2005H38.3492C38.1937 18.177 38.0383 18.177 37.8916 18.1182H37.8594L37.4399 19.5443H37.4751C37.8476 19.1943 38.3844 19.065 38.8976 19.065H40.0151V23.4432C40.0151 23.9813 40.0855 24.8575 39.4872 25.0839V25.1192H41.7925V25.0839C41.1561 24.7134 41.2323 24.2459 41.2323 23.5608V19.062H42.3117C42.7076 19.062 43.1857 19.1208 43.3382 19.5413H43.3734L43.7576 18.1152H43.7195C43.5641 18.1858 43.3734 18.1976 43.171 18.1976L43.1769 18.2005Z" fill="white"/>
<path d="M79.2032 23.6026C78.4611 24.0466 77.7073 24.3113 76.8333 24.2642L74.3226 24.1201L78.3409 18.1982H73.0556L72.4455 19.5802H72.4807C73.1054 19.1715 73.5337 19.0157 74.2757 19.0627L76.3112 19.1833L72.2695 25.1257H78.5755L79.2442 23.6026H79.209H79.2032Z" fill="white"/>
<path d="M67.7881 18.0422C65.5913 17.9893 63.8638 19.6594 63.8638 21.653C63.8638 23.8054 65.6118 25.2932 67.6855 25.2932C69.7591 25.2932 71.5365 23.7407 71.5365 21.6001C71.5365 19.7094 69.9879 18.0305 67.7911 18.0422H67.7881ZM67.7353 24.5228C66.1486 24.5228 65.166 22.9821 65.166 21.553C65.166 19.9123 66.1896 18.8097 67.7148 18.8097C69.3485 18.8097 70.2313 20.3563 70.2313 21.8147C70.2313 23.4378 69.2312 24.5257 67.7353 24.5257V24.5228Z" fill="white"/>
<path d="M20.1644 21.6001C20.1644 19.7094 18.6158 18.0305 16.4161 18.0422C14.2192 17.9893 12.4888 19.6594 12.4888 21.653C12.4888 23.8054 14.2398 25.2932 16.3105 25.2932C16.6595 25.2932 16.9968 25.2491 17.3165 25.1667C18.2639 25.9136 19.7714 27.0427 20.839 27.0427C21.3171 27.0427 21.7893 26.8633 22.1706 26.5605C20.8654 26.5517 19.6013 25.6019 18.5249 24.6375C19.5075 23.9877 20.1615 22.9027 20.1615 21.6001H20.1644ZM13.794 21.553C13.794 19.9123 14.8205 18.8097 16.3427 18.8097C17.9794 18.8097 18.8593 20.3563 18.8593 21.8147C18.8593 23.4378 17.8562 24.5257 16.3603 24.5257C14.7736 24.5257 13.791 22.985 13.791 21.556L13.794 21.553Z" fill="white"/>
<path d="M51.017 18.2012H48.084V18.2365C48.694 18.4158 48.6119 19.292 48.6119 19.8448V23.4027C48.6119 24.1113 48.6823 24.6847 48.084 25.0934V25.1316H50.9554C53.425 25.1316 55.352 23.685 55.352 21.6208C55.352 19.5567 53.5804 18.2041 51.017 18.2041V18.2012ZM50.7061 24.3436C50.404 24.3436 50.1195 24.3201 49.8321 24.2613V19.1244C50.1928 19.0421 50.5506 18.9921 50.9085 18.9921C52.7739 18.9921 53.9881 19.9125 53.9881 21.7473C53.9881 23.582 52.3339 24.3436 50.7061 24.3436Z" fill="white"/>
<path d="M61.7988 23.5614L60.5346 21.8355C61.5612 21.5708 62.4294 20.8475 62.4294 19.9154C62.4294 18.9833 61.3383 18.2041 59.8307 18.2041H56.6748V18.2423C57.2849 18.4687 57.1998 19.345 57.1998 19.8978V23.4203C57.1998 23.9584 57.2819 24.8464 56.6748 25.061V25.0963H58.9596V25.061C58.3496 24.8464 58.4199 23.9702 58.4199 23.4203V18.9774C58.6927 18.9274 59.2676 18.8921 59.5433 18.8804C60.344 18.8451 61.2415 19.1391 61.2415 20.1036C61.2415 21.068 59.8747 21.4414 58.8687 21.6032L60.1739 23.2351L61.2034 24.5288C61.5641 24.9728 62.0451 25.1287 62.6787 25.1287H63.6818C62.9984 24.6964 62.3032 24.1848 61.7988 23.5614Z" fill="white"/>
<path d="M0 31.9663L1.08228 29.4258H1.33745L2.46373 31.9663H2.09417L1.7598 31.2223H0.689256L0.372492 31.9663H0ZM0.827108 30.896H1.61022L1.20547 29.9815L0.830041 30.896H0.827108Z" fill="white"/>
<path d="M3.38184 31.9672V29.4414H4.01537C4.27054 29.4414 4.47291 29.5061 4.6225 29.6325C4.76915 29.759 4.84541 29.9324 4.84541 30.1471C4.84541 30.2941 4.81021 30.4176 4.73688 30.5264C4.66356 30.6352 4.5609 30.7116 4.42305 30.7675C4.49345 30.8146 4.56384 30.8763 4.63423 30.9557C4.70462 31.0351 4.75742 31.1057 4.79848 31.1703C4.83954 31.2321 4.90113 31.3321 4.98619 31.4703C5.05365 31.5791 5.1651 31.7437 5.32935 31.9701H4.89527L4.56384 31.4526C4.41132 31.2115 4.28813 31.0557 4.19428 30.9851C4.10042 30.9116 4.0007 30.8763 3.89511 30.8763H3.7426V31.9731H3.38184V31.9672ZM3.7426 30.547H3.9743C4.15322 30.547 4.28227 30.5088 4.35853 30.4323C4.43479 30.3559 4.46998 30.2618 4.46998 30.1471V30.1353C4.46412 29.8825 4.29987 29.7531 3.9743 29.7531H3.7426V30.547Z" fill="white"/>
<path d="M6.02442 29.7678V29.4414H8.13032V29.7678H7.25628V31.9672H6.89552V29.7678H6.02148H6.02442Z" fill="white"/>
<path d="M10.7642 31.9672V29.4414H11.1249V30.5411H12.5357V29.4414H12.8965V31.9672H12.5357V30.8675H11.1249V31.9672H10.7642Z" fill="white"/>
<path d="M13.979 30.7049C13.979 30.3432 14.1051 30.0374 14.3574 29.7875C14.6096 29.5346 14.9322 29.4111 15.3341 29.4111C15.7359 29.4111 16.0644 29.5376 16.3137 29.7875C16.563 30.0374 16.6891 30.3462 16.6891 30.7078C16.6891 31.0695 16.5659 31.3694 16.3166 31.6223C16.0673 31.8752 15.7388 32.0016 15.3282 32.0016C14.9176 32.0016 14.6067 31.8752 14.3574 31.6223C14.1081 31.3694 13.9849 31.0636 13.9849 30.7078L13.979 30.7049ZM14.6301 30.0139C14.4454 30.1962 14.3515 30.4256 14.3515 30.702C14.3515 30.9783 14.4454 31.2077 14.6301 31.39C14.8149 31.5723 15.0496 31.6635 15.3311 31.6635C15.6127 31.6635 15.8503 31.5723 16.035 31.39C16.2198 31.2077 16.3137 30.9783 16.3137 30.702C16.3137 30.4256 16.2198 30.1962 16.035 30.0139C15.8503 29.8316 15.6156 29.7405 15.3341 29.7405C15.0525 29.7405 14.8208 29.8316 14.636 30.0139H14.6301Z" fill="white"/>
<path d="M17.7686 31.9672V29.4414H18.4021C18.6573 29.4414 18.8596 29.5061 19.0092 29.6325C19.1559 29.759 19.2321 29.9324 19.2321 30.1471C19.2321 30.2941 19.1969 30.4176 19.1236 30.5264C19.0503 30.6352 18.9476 30.7116 18.8098 30.7675C18.8802 30.8146 18.9506 30.8763 19.0209 30.9557C19.0913 31.0351 19.1441 31.1057 19.1852 31.1703C19.2263 31.2321 19.2879 31.3321 19.3729 31.4703C19.4404 31.5791 19.5518 31.7437 19.7161 31.9701H19.282L18.9506 31.4526C18.798 31.2115 18.6749 31.0557 18.581 30.9851C18.4871 30.9116 18.3874 30.8763 18.2818 30.8763H18.1293V31.9731H17.7686V31.9672ZM18.1293 30.547H18.361C18.5399 30.547 18.669 30.5088 18.7452 30.4323C18.8215 30.3559 18.8567 30.2618 18.8567 30.1471V30.1353C18.8508 29.8825 18.6866 29.7531 18.361 29.7531H18.1293V30.547Z" fill="white"/>
<path d="M20.6221 31.9672V29.4414H20.9828V31.6408H22.1208V31.9672H20.6221Z" fill="white"/>
<path d="M22.9565 30.7049C22.9565 30.3432 23.0827 30.0374 23.3349 29.7875C23.5871 29.5346 23.9098 29.4111 24.3116 29.4111C24.7134 29.4111 25.0419 29.5376 25.2912 29.7875C25.5405 30.0374 25.6666 30.3462 25.6666 30.7078C25.6666 31.0695 25.5435 31.3694 25.2941 31.6223C25.0448 31.8752 24.7163 32.0016 24.3057 32.0016C23.8951 32.0016 23.5842 31.8752 23.3349 31.6223C23.0856 31.3694 22.9624 31.0636 22.9624 30.7078L22.9565 30.7049ZM23.6106 30.0139C23.4258 30.1962 23.332 30.4256 23.332 30.702C23.332 30.9783 23.4258 31.2077 23.6106 31.39C23.7954 31.5723 24.03 31.6635 24.3116 31.6635C24.5932 31.6635 24.8307 31.5723 25.0155 31.39C25.2003 31.2077 25.2941 30.9783 25.2941 30.702C25.2941 30.4256 25.2003 30.1962 25.0155 30.0139C24.8307 29.8316 24.5961 29.7405 24.3145 29.7405C24.033 29.7405 23.8012 29.8316 23.6165 30.0139H23.6106Z" fill="white"/>
<path d="M26.6494 30.7196C26.6494 30.3462 26.7785 30.0345 27.0366 29.7846C27.2947 29.5346 27.6173 29.4082 28.0015 29.4082C28.1482 29.4082 28.286 29.4229 28.4151 29.4523C28.5441 29.4817 28.7025 29.5376 28.902 29.6229V29.9875C28.6028 29.8228 28.3007 29.7405 27.9957 29.7405C27.7229 29.7405 27.4941 29.8316 27.3064 30.0169C27.1187 30.2021 27.0248 30.4315 27.0248 30.7078C27.0248 30.9842 27.1216 31.2195 27.3123 31.3959C27.5029 31.5723 27.7464 31.6635 28.0455 31.6635C28.201 31.6635 28.3828 31.6311 28.594 31.5635V31.046H28.11V30.7196H28.9548V31.7899C28.6439 31.9281 28.3271 31.9957 28.0045 31.9957H27.9957C27.6085 31.9957 27.2888 31.8752 27.0336 31.6341C26.7785 31.3929 26.6523 31.0872 26.6523 30.7167L26.6494 30.7196Z" fill="white"/>
<path d="M30.1104 31.9672V29.4414H31.5387V29.7678H30.4711V30.5323H31.5035V30.8587H30.4711V31.6437H31.5739V31.9701H30.1104V31.9672Z" fill="white"/>
<path d="M32.5977 31.9672V29.4414H33.2312C33.4864 29.4414 33.6887 29.5061 33.8383 29.6325C33.985 29.759 34.0612 29.9324 34.0612 30.1471C34.0612 30.2941 34.026 30.4176 33.9527 30.5264C33.8794 30.6323 33.7767 30.7116 33.6389 30.7675C33.7093 30.8146 33.7797 30.8763 33.8501 30.9557C33.9204 31.0351 33.9732 31.1057 34.0143 31.1703C34.0554 31.2321 34.117 31.3321 34.202 31.4703C34.2695 31.5791 34.3839 31.7437 34.5452 31.9701H34.114L33.7826 31.4526C33.6301 31.2115 33.5069 31.0557 33.413 30.9851C33.3192 30.9145 33.2195 30.8763 33.1139 30.8763H32.9613V31.9731H32.6006L32.5977 31.9672ZM32.9584 30.547H33.1901C33.369 30.547 33.4981 30.5088 33.5743 30.4323C33.6477 30.3588 33.6858 30.2618 33.6858 30.1471V30.1353C33.6799 29.8825 33.5157 29.7531 33.1901 29.7531H32.9584V30.547Z" fill="white"/>
<path d="M36.9854 30.0815C36.9854 29.8757 37.0557 29.714 37.1936 29.5905C37.3314 29.467 37.5192 29.4082 37.7509 29.4082C37.9474 29.4082 38.1351 29.467 38.3111 29.5846V29.9963C38.1263 29.8228 37.9298 29.7346 37.7186 29.7346C37.6042 29.7346 37.5074 29.761 37.4341 29.8169C37.3578 29.8728 37.3226 29.9434 37.3226 30.0345C37.3226 30.108 37.349 30.1756 37.4048 30.2403C37.4576 30.305 37.525 30.3579 37.6071 30.402C37.6893 30.4462 37.7743 30.4961 37.8682 30.5549C37.962 30.6138 38.05 30.6726 38.1292 30.7314C38.2084 30.7902 38.2759 30.8725 38.3316 30.9725C38.3844 31.0725 38.4137 31.1871 38.4137 31.3136C38.4137 31.5106 38.3463 31.6752 38.2143 31.8046C38.0823 31.934 37.9122 31.9987 37.7098 31.9987C37.4458 31.9987 37.2112 31.9222 37.0059 31.7664V31.3077C37.1965 31.5517 37.4165 31.6752 37.6717 31.6752C37.8037 31.6752 37.9034 31.6429 37.9738 31.5753C38.0442 31.5076 38.0794 31.4371 38.0794 31.3577C38.0794 31.2606 38.0412 31.1724 37.9679 31.093C37.8946 31.0136 37.8037 30.9431 37.6951 30.8813C37.5896 30.8196 37.484 30.7549 37.3754 30.6873C37.2699 30.6196 37.1789 30.5344 37.1027 30.4315C37.0264 30.3285 36.9912 30.2139 36.9912 30.0874L36.9854 30.0815Z" fill="white"/>
<path d="M39.3872 31.0106V29.4404H39.748V30.9341C39.748 31.0753 39.7597 31.1811 39.7802 31.2546C39.8008 31.3282 39.8418 31.3928 39.9005 31.4487C40.0442 31.5928 40.226 31.6634 40.4431 31.6634C40.7012 31.6634 40.8977 31.5957 41.0326 31.4605C41.1382 31.3546 41.191 31.1694 41.191 30.9077V29.4375H41.5518V30.9694C41.5518 31.287 41.4579 31.5369 41.2673 31.7192C41.0796 31.9015 40.8009 31.9927 40.4343 31.9927C40.1439 31.9927 39.8976 31.9103 39.6922 31.7427C39.4869 31.5751 39.3872 31.3311 39.3872 31.0077V31.0106Z" fill="white"/>
<path d="M42.6899 31.9672V29.4414H43.0507V31.9672H42.6899Z" fill="white"/>
<path d="M44.1152 30.0815C44.1152 29.8757 44.1856 29.714 44.3235 29.5905C44.4613 29.467 44.649 29.4082 44.8807 29.4082C45.0773 29.4082 45.265 29.467 45.4409 29.5846V29.9963C45.2562 29.8228 45.0597 29.7346 44.8485 29.7346C44.7341 29.7346 44.6373 29.761 44.564 29.8169C44.4877 29.8728 44.4525 29.9434 44.4525 30.0345C44.4525 30.108 44.4789 30.1756 44.5347 30.2403C44.5874 30.305 44.6549 30.3579 44.737 30.402C44.8192 30.4462 44.9042 30.4961 44.9981 30.5549C45.0919 30.6138 45.1799 30.6726 45.2591 30.7314C45.3383 30.7902 45.4058 30.8725 45.4615 30.9725C45.5143 31.0725 45.5436 31.1871 45.5436 31.3136C45.5436 31.5106 45.4762 31.6752 45.3442 31.8046C45.2122 31.934 45.0421 31.9987 44.8397 31.9987C44.5757 31.9987 44.3411 31.9222 44.1358 31.7664V31.3077C44.3264 31.5517 44.5464 31.6752 44.8016 31.6752C44.9335 31.6752 45.0333 31.6429 45.1037 31.5753C45.174 31.5076 45.2092 31.4371 45.2092 31.3577C45.2092 31.2606 45.1711 31.1724 45.0978 31.093C45.0245 31.0136 44.9335 30.9431 44.825 30.8813C44.7194 30.8196 44.6138 30.7549 44.5053 30.6873C44.3997 30.6196 44.3088 30.5344 44.2326 30.4315C44.1563 30.3285 44.1211 30.2139 44.1211 30.0874L44.1152 30.0815Z" fill="white"/>
<path d="M46.4414 30.0815C46.4414 29.8757 46.5118 29.714 46.6497 29.5905C46.7875 29.467 46.9752 29.4082 47.2069 29.4082C47.4034 29.4082 47.5911 29.467 47.7671 29.5846V29.9963C47.5823 29.8228 47.3858 29.7346 47.1747 29.7346C47.0603 29.7346 46.9635 29.761 46.8902 29.8169C46.8139 29.8728 46.7787 29.9434 46.7787 30.0345C46.7787 30.108 46.8051 30.1756 46.8608 30.2403C46.9136 30.305 46.9811 30.3579 47.0632 30.402C47.1453 30.4462 47.2304 30.4961 47.3242 30.5549C47.4181 30.6138 47.5061 30.6726 47.5853 30.7314C47.6645 30.7902 47.7319 30.8725 47.7877 30.9725C47.8404 31.0725 47.8698 31.1871 47.8698 31.3136C47.8698 31.5106 47.8023 31.6752 47.6703 31.8046C47.5384 31.934 47.3682 31.9987 47.1659 31.9987C46.9019 31.9987 46.6672 31.9222 46.4619 31.7664V31.3077C46.6526 31.5517 46.8726 31.6752 47.1277 31.6752C47.2597 31.6752 47.3594 31.6429 47.4298 31.5753C47.5002 31.5076 47.5354 31.4371 47.5354 31.3577C47.5354 31.2606 47.4973 31.1724 47.424 31.093C47.3506 31.0136 47.2597 30.9431 47.1512 30.8813C47.0456 30.8196 46.94 30.7549 46.8315 30.6873C46.7259 30.6196 46.635 30.5344 46.5587 30.4315C46.4825 30.3285 46.4473 30.2139 46.4473 30.0874L46.4414 30.0815Z" fill="white"/>
<path d="M48.8965 31.9672V29.4414H50.3249V29.7678H49.2572V30.5323H50.2897V30.8587H49.2572V31.6437H50.3601V31.9701H48.8965V31.9672Z" fill="white"/>
<path d="M53.0405 31.9672V29.4414H54.0172C54.2401 29.4414 54.4396 29.4796 54.6185 29.5531C54.7945 29.6296 54.9353 29.7266 55.0408 29.8501C55.1464 29.9736 55.2256 30.1059 55.2784 30.2529C55.3312 30.4 55.3605 30.5499 55.3605 30.7058C55.3605 31.0468 55.2374 31.3438 54.991 31.5938C54.7446 31.8437 54.422 31.9701 54.0231 31.9701H53.0435L53.0405 31.9672ZM53.4013 31.6408H53.9791C54.1345 31.6408 54.2724 31.6173 54.3956 31.5732C54.5188 31.5261 54.6156 31.4703 54.6859 31.4026C54.7563 31.335 54.815 31.2556 54.8649 31.1674C54.9118 31.0792 54.944 30.9969 54.9616 30.9204C54.9792 30.844 54.9851 30.7734 54.9851 30.7058C54.9851 30.4353 54.8971 30.2118 54.7241 30.0324C54.5481 29.856 54.2959 29.7678 53.9615 29.7678H53.4013V31.6437V31.6408Z" fill="white"/>
<path d="M56.4429 31.9672V29.4414H57.8712V29.7678H56.8036V30.5323H57.836V30.8587H56.8036V31.6437H57.9064V31.9701H56.4429V31.9672Z" fill="white"/>
<path d="M58.9038 31.9672V29.4414H59.6928C59.9568 29.4414 60.1562 29.509 60.2911 29.6443C60.426 29.7795 60.4935 29.956 60.4935 30.1677C60.4935 30.3794 60.4202 30.547 60.2765 30.6793C60.1327 30.8087 59.9216 30.8763 59.6429 30.8763H59.2646V31.9672H58.9038ZM59.2646 30.5499H59.6752C59.8101 30.5499 59.9186 30.5146 60.0008 30.4441C60.0799 30.3735 60.121 30.2765 60.121 30.153C60.121 30.0442 60.0858 29.953 60.0213 29.8795C59.9538 29.806 59.8453 29.7678 59.6928 29.7678H59.2675V30.5499H59.2646Z" fill="white"/>
<path d="M61.3877 31.0106V29.4404H61.7485V30.9341C61.7485 31.0753 61.7602 31.1811 61.7807 31.2546C61.8012 31.3282 61.8423 31.3928 61.901 31.4487C62.0447 31.5928 62.2265 31.6634 62.4436 31.6634C62.7017 31.6634 62.8982 31.5957 63.0331 31.4605C63.1387 31.3546 63.1915 31.1694 63.1915 30.9077V29.4375H63.5523V30.9694C63.5523 31.287 63.4584 31.5369 63.2678 31.7192C63.08 31.9015 62.8014 31.9927 62.4348 31.9927C62.1444 31.9927 61.898 31.9103 61.6927 31.7427C61.4874 31.5751 61.3877 31.3311 61.3877 31.0077V31.0106Z" fill="white"/>
<path d="M64.6934 31.9672V29.4414H65.0541V31.9672H64.6934Z" fill="white"/>
<path d="M66.1162 30.0815C66.1162 29.8757 66.1866 29.714 66.3245 29.5905C66.4623 29.467 66.65 29.4082 66.8817 29.4082C67.0782 29.4082 67.266 29.467 67.4419 29.5846V29.9963C67.2572 29.8228 67.0606 29.7346 66.8495 29.7346C66.7351 29.7346 66.6383 29.761 66.565 29.8169C66.4887 29.8728 66.4535 29.9434 66.4535 30.0345C66.4535 30.108 66.4799 30.1756 66.5356 30.2403C66.5884 30.305 66.6559 30.3579 66.738 30.402C66.8201 30.4462 66.9052 30.4961 66.999 30.5549C67.0929 30.6138 67.1809 30.6726 67.2601 30.7314C67.3393 30.7902 67.4067 30.8725 67.4625 30.9725C67.5153 31.0725 67.5446 31.1871 67.5446 31.3136C67.5446 31.5106 67.4771 31.6752 67.3451 31.8046C67.2132 31.934 67.043 31.9987 66.8407 31.9987C66.5767 31.9987 66.3421 31.9222 66.1367 31.7664V31.3077C66.3274 31.5517 66.5474 31.6752 66.8025 31.6752C66.9345 31.6752 67.0342 31.6429 67.1046 31.5753C67.175 31.5076 67.2102 31.4371 67.2102 31.3577C67.2102 31.2606 67.1721 31.1724 67.0988 31.093C67.0254 31.0136 66.9345 30.9431 66.826 30.8813C66.7204 30.8196 66.6148 30.7549 66.5063 30.6873C66.4007 30.6196 66.3098 30.5344 66.2335 30.4315C66.1573 30.3285 66.1221 30.2139 66.1221 30.0874L66.1162 30.0815Z" fill="white"/>
<path d="M70.7002 31.9672V29.4414H71.061V31.9672H70.7002Z" fill="white"/>
<path d="M72.6152 29.7854V29.4414H74.246L73.105 31.9995L72.7853 31.8613L73.7092 29.7854H72.6182H72.6152Z" fill="white"/>
<path d="M75.1523 31.8546V31.4606C75.343 31.587 75.5278 31.6517 75.7125 31.6546C75.8357 31.6546 75.9325 31.6194 76.0088 31.5459C76.0821 31.4723 76.1202 31.3753 76.1202 31.2518C76.1202 31.1195 76.0733 31.0136 75.9794 30.9343C75.8856 30.8549 75.7536 30.8196 75.5806 30.8284V30.4961C75.7448 30.4961 75.868 30.4638 75.953 30.3991C76.0381 30.3344 76.0792 30.2433 76.0792 30.1286C76.0792 30.0139 76.041 29.9198 75.9618 29.8522C75.8827 29.7846 75.7771 29.7493 75.6451 29.7493C75.519 29.7493 75.3782 29.7875 75.2169 29.8581V29.5141C75.3635 29.4435 75.5219 29.4082 75.7008 29.4082C75.9237 29.4082 76.1026 29.467 76.2376 29.5876C76.3725 29.7081 76.4399 29.8669 76.4399 30.0668C76.4399 30.208 76.4165 30.3227 76.3666 30.4079C76.3167 30.4932 76.2346 30.5696 76.1202 30.6343C76.2376 30.6726 76.3285 30.7461 76.3901 30.8578C76.4517 30.9695 76.481 31.093 76.481 31.2342C76.481 31.4576 76.4077 31.6429 76.261 31.787C76.1144 31.931 75.9237 32.0016 75.6891 32.0016C75.519 32.0016 75.3401 31.9546 75.1523 31.8575V31.8546Z" fill="white"/>
<path d="M77.5166 31.2812C77.5166 31.0195 77.6339 30.8196 77.8715 30.6784C77.672 30.5314 77.5723 30.352 77.5723 30.1345C77.5723 29.9169 77.6456 29.7552 77.7952 29.617C77.9419 29.4788 78.1267 29.4111 78.3466 29.4111C78.5666 29.4111 78.7338 29.4817 78.8775 29.6199C79.0212 29.7581 79.0916 29.9345 79.0916 30.1433C79.0916 30.352 78.986 30.5432 78.7807 30.6814C78.8922 30.7402 78.9802 30.8225 79.0388 30.9313C79.0975 31.0401 79.1298 31.1577 79.1298 31.29C79.1298 31.4929 79.0535 31.6635 78.898 31.7987C78.7426 31.934 78.5549 32.0045 78.332 32.0045C78.1091 32.0045 77.9126 31.9369 77.7542 31.7987C77.5987 31.6605 77.5195 31.49 77.5195 31.2871L77.5166 31.2812ZM77.8774 31.2547C77.8774 31.3694 77.9184 31.4664 78.0035 31.54C78.0885 31.6135 78.1941 31.6517 78.3202 31.6517C78.461 31.6517 78.5695 31.6135 78.6487 31.5341C78.725 31.4576 78.7661 31.3635 78.7661 31.2518C78.7661 31.1401 78.725 31.0401 78.6429 30.9666C78.5608 30.8901 78.4581 30.8549 78.329 30.8549C78.1941 30.8549 78.0856 30.8901 78.0005 30.9666C77.9184 31.0401 77.8774 31.1371 77.8774 31.2547ZM77.936 30.1256C77.936 30.2286 77.9741 30.3197 78.0533 30.3962C78.1325 30.4726 78.2264 30.5108 78.332 30.5108C78.4376 30.5108 78.5343 30.4726 78.6106 30.3991C78.6869 30.3256 78.7279 30.2344 78.7279 30.1345C78.7279 30.0257 78.6927 29.9345 78.6194 29.861C78.5461 29.7875 78.4522 29.7522 78.3408 29.7522C78.2205 29.7522 78.1237 29.7875 78.0475 29.8551C77.9741 29.9228 77.936 30.0139 77.936 30.1286V30.1256Z" fill="white"/>
</g>
<path d="M94.5039 18.9844C94.8086 19.2656 94.8086 19.7578 94.5039 20.0391C94.3633 20.1797 94.1758 20.25 93.9883 20.25C93.7773 20.25 93.5898 20.1797 93.4492 20.0391L90.9883 17.5781L88.5039 20.0391C88.3633 20.1797 88.1758 20.25 87.9883 20.25C87.7773 20.25 87.5898 20.1797 87.4492 20.0391C87.1445 19.7578 87.1445 19.2656 87.4492 18.9844L89.9102 16.5L87.4492 14.0391C87.1445 13.7578 87.1445 13.2656 87.4492 12.9844C87.7305 12.6797 88.2227 12.6797 88.5039 12.9844L90.9883 15.4453L93.4492 12.9844C93.7305 12.6797 94.2227 12.6797 94.5039 12.9844C94.8086 13.2656 94.8086 13.7578 94.5039 14.0391L92.043 16.5234L94.5039 18.9844Z" fill="white"/>
<g clip-path="url(#clip1_1060_14874)">
<mask id="mask0_1060_14874" style="mask-type:luminance" maskUnits="userSpaceOnUse" x="103" y="3" width="74" height="26">
<path d="M176.123 3.52539H103.354V28.4748H176.123V3.52539Z" fill="white"/>
</mask>
<g mask="url(#mask0_1060_14874)">
<path d="M144.607 19.7836C144.607 19.6059 144.645 19.555 144.735 19.555C144.875 19.555 144.927 19.7456 145.029 19.9871C145.221 20.4448 145.362 21.0671 145.362 21.5121C145.362 22.5669 144.94 23.1131 144.569 23.558C145.08 23.9137 145.464 24.3205 145.464 24.4347C145.464 24.5744 145.362 24.5744 145.08 24.5744H141.408C136.917 24.5744 134.934 21.0038 134.703 17.1281C134.665 16.4802 134.409 16.137 134.128 15.9463C133.859 15.7682 133.68 15.7173 133.68 15.5775C133.68 15.4506 133.795 15.3997 134.089 15.1839C134.55 14.8535 134.678 14.1166 134.806 13.405C135.253 10.8764 136.904 7.29297 141.408 7.29297H145.08C145.361 7.29297 145.464 7.29297 145.464 7.43274C145.464 7.54689 145.08 7.95374 144.568 8.30938C144.939 8.75426 145.361 9.30056 145.361 10.355C145.361 10.7999 145.221 11.4223 145.029 11.88C144.926 12.1215 144.875 12.3245 144.734 12.3245C144.645 12.3245 144.606 12.2612 144.606 12.0831C144.606 10.4692 143.685 8.9193 141.561 8.9193C139.194 8.9193 137.761 11.524 137.761 15.4886C137.761 19.4533 138.58 22.9222 141.561 22.9222C143.685 22.9222 144.607 21.3975 144.607 19.7836Z" fill="white"/>
<path d="M147.273 24.5753C146.991 24.5753 146.786 24.5373 146.786 24.3975C146.786 24.2321 147.093 24.0671 147.349 23.8893C147.746 23.6222 147.874 23.47 147.874 22.8601V17.0913C147.874 15.7826 146.748 15.8459 146.748 15.5539C146.748 15.1855 147.874 15.0581 147.874 13.9784V9.01016C147.874 8.40024 147.746 8.24768 147.349 7.98095C147.093 7.80313 146.786 7.63775 146.786 7.47274C146.786 7.33297 146.991 7.29492 147.273 7.29492H157.509C157.79 7.29492 157.893 7.29492 157.893 7.43468C157.893 7.5869 157.509 7.95569 156.997 8.31135C157.368 8.75623 157.79 9.30249 157.79 10.357C157.79 10.8019 157.65 11.4242 157.457 11.8819C157.355 12.1234 157.304 12.3265 157.163 12.3265C157.073 12.3265 157.035 12.2632 157.035 12.085C157.035 10.4711 156.114 8.9465 153.836 8.9465H150.753V14.69C151.597 13.9403 152.633 13.648 153.798 13.4955C154.387 13.419 155.039 13.1523 155.039 12.4535C155.039 12.1992 154.873 12.0341 154.873 11.9068C154.873 11.856 154.911 11.8307 154.962 11.8307C155.321 11.8307 155.96 12.4915 155.96 13.1903C155.96 13.7113 155.743 13.9908 155.359 14.2704C155.884 14.4482 156.306 14.9692 156.306 15.5919C156.306 16.4305 155.692 17.0024 155.5 17.0024C155.436 17.0024 155.411 16.9515 155.411 16.9007C155.411 16.71 155.576 16.5194 155.576 16.1891C155.576 15.795 155.168 15.3757 154.131 15.3757C151.47 15.3757 150.753 17.3961 150.753 18.9083V22.9109H153.824C156.101 22.9109 157.022 21.3988 157.022 19.7849C157.022 19.6071 157.06 19.5562 157.15 19.5562C157.279 19.5562 157.355 19.7468 157.457 19.9883C157.65 20.446 157.777 21.0684 157.777 21.5133C157.777 22.5681 157.355 23.1144 156.984 23.5593C157.496 23.9149 157.88 24.3218 157.88 24.4359C157.88 24.5757 157.777 24.5757 157.496 24.5757L147.273 24.5753Z" fill="white"/>
<path d="M159.271 24.5744C158.989 24.5744 158.887 24.5744 158.887 24.4347C158.887 24.3205 159.271 23.9137 159.783 23.558C159.411 23.1131 158.989 22.5669 158.989 21.5121C158.989 21.0675 159.117 20.4448 159.309 19.9871C159.412 19.7456 159.488 19.555 159.616 19.555C159.706 19.555 159.744 19.6059 159.744 19.7836C159.744 22.0583 161.292 22.9097 163.263 22.9097C165.234 22.9097 166.525 21.639 166.525 19.4533C166.525 17.6488 165.54 16.823 164.657 16.2383C164.081 15.8446 163.813 15.7173 163.467 15.7173C163.032 15.7173 162.649 15.9588 162.38 15.9588C162.303 15.9588 162.252 15.9335 162.252 15.8446C162.252 15.692 162.367 15.3617 162.367 15.006C162.367 14.7265 162.022 14.5615 161.727 14.3453C159.923 13.0109 159.219 11.9564 159.219 10.4951C159.219 9.30056 160.025 7.29297 163.979 7.29297H168.061C168.342 7.29297 168.445 7.31822 168.445 7.41993C168.445 7.58495 168.061 7.95374 167.549 8.30938C167.92 8.75426 168.342 9.30056 168.342 10.355C168.342 10.7999 168.202 11.4223 168.009 11.88C167.907 12.1215 167.856 12.3245 167.715 12.3245C167.625 12.3245 167.587 12.2612 167.587 12.0831C167.587 10.4692 166.666 8.94457 163.89 8.94457C162.61 8.94457 161.958 9.50362 161.958 10.3422C161.958 11.524 163.135 12.2481 165.105 13.4046C167.536 14.8279 169.468 16.0982 169.468 19.2879C169.468 22.1849 167.229 24.5737 163.48 24.5737H159.271V24.5744Z" fill="white"/>
<path d="M172.924 10.0155C172.629 9.78647 172.514 9.64671 172.514 9.21495V8.44004C172.514 8.19854 172.642 8.13489 172.642 8.00792C172.642 7.95707 172.603 7.90621 172.514 7.85535L171.605 7.28349C171.529 7.23264 171.503 7.20703 171.464 7.20703C171.426 7.20703 171.336 7.27069 171.234 7.33435L170.121 8.04598C169.865 8.21101 169.827 8.23661 169.827 8.28748C169.827 8.38917 170.018 8.4016 170.018 8.60503V9.21495C170.018 9.64708 169.891 9.78684 169.596 10.0155C169.519 10.0788 169.481 10.1297 169.481 10.1677C169.481 10.2186 169.532 10.257 169.609 10.3075C169.878 10.4597 170.018 10.549 170.018 11.0572V11.9214C170.018 12.0355 169.955 12.0992 169.878 12.1757C169.827 12.2262 169.775 12.2645 169.775 12.3154C169.775 12.3406 169.788 12.3662 169.827 12.4043C169.993 12.5569 170.684 13.0779 170.863 13.2049L169.89 14.2977C169.775 14.4247 169.762 14.4631 169.762 14.5012C169.762 14.552 169.801 14.5773 169.839 14.5773C169.864 14.5773 169.903 14.5648 169.929 14.5392L170.069 14.4122C170.773 14.4375 171.17 14.5012 171.554 14.7807C171.669 14.8696 171.695 14.8952 171.72 14.8952C171.746 14.8952 171.784 14.8824 171.822 14.8187C172.168 14.3486 172.565 13.8528 172.769 13.5481C172.885 13.3827 172.91 13.281 172.91 13.2049C172.91 12.8617 172.513 12.7856 172.513 11.9469V11.0575C172.513 10.5493 172.642 10.4601 172.91 10.3078C172.987 10.257 173.038 10.2186 173.038 10.1681C173.038 10.13 173 10.0792 172.923 10.0159L172.924 10.0155ZM170.864 7.86816L171.657 8.4016V12.3534L171.491 12.5313L170.864 12.0102V7.86816ZM172.13 14.0054C171.759 13.8276 171.311 13.7006 170.684 13.7006L171.631 12.6714C171.631 12.8368 171.707 13.0654 171.926 13.2941C172.117 13.4976 172.181 13.6753 172.181 13.8023C172.181 13.8912 172.156 13.9545 172.13 14.0054Z" fill="white"/>
<path d="M174.984 7.28349C175.035 7.24544 175.073 7.20703 175.151 7.20703C175.202 7.20703 175.253 7.24544 175.329 7.28349L176.071 7.8045C176.11 7.82975 176.123 7.85535 176.123 7.88061C176.123 7.90586 176.11 7.93146 176.071 7.96952C175.906 8.12209 175.598 8.54136 175.483 8.79566C175.457 8.84653 175.432 8.87212 175.394 8.87212C175.355 8.87212 175.342 8.83373 175.342 8.80846C175.342 8.74479 175.381 8.68149 175.381 8.59223C175.381 8.54136 175.368 8.50334 175.316 8.44004C175.061 8.16051 174.779 7.98232 174.587 7.84255V11.7055C174.587 11.8709 174.6 11.9089 174.677 11.9597C174.677 11.9597 175.214 12.3282 175.483 12.3282C175.585 12.3282 175.7 12.2265 175.867 12.0487C175.918 11.9978 175.969 11.985 176.008 11.985C176.058 11.985 176.097 12.0234 176.097 12.0743C176.097 12.1124 176.071 12.1632 176.033 12.2012C175.815 12.4047 175.406 12.824 175.214 13.0398C175.15 13.1163 175.111 13.1544 175.06 13.1544C175.022 13.1544 174.971 13.1291 174.894 13.0907C174.689 12.9765 173.973 12.4808 173.525 12.3029C173.41 12.2649 173.41 12.2265 173.41 12.2012C173.41 12.176 173.423 12.1504 173.5 12.0995C173.64 12.0234 173.679 11.9725 173.679 11.6166V8.63062C173.679 8.42724 173.551 8.4144 173.551 8.3127C173.551 8.26184 173.589 8.24941 173.832 8.07123C174.114 7.88061 174.613 7.55022 174.984 7.28349Z" fill="white"/>
<path d="M118.666 17.6879C118.124 17.6879 117.614 17.8326 117.198 17.998C115.771 18.546 113.938 19.5596 112.199 22.6106C110.533 25.5272 109.137 26.9956 107.2 26.9956C105.628 26.9956 104.77 25.9408 104.77 24.7099C104.77 22.9929 105.888 22.2795 107.085 22.2795C107.773 22.2795 108.366 22.7137 108.471 23.9446C108.502 24.2757 108.533 24.6374 108.731 24.6374C108.919 24.6374 108.97 24.2753 109.002 23.9446C109.137 22.7034 109.449 21.8968 110.866 21.783C111.167 21.7521 111.563 21.6692 111.563 21.5142C111.563 21.3488 111.167 21.2659 110.866 21.2556C109.47 21.1934 109.085 20.7798 108.981 19.5802C108.939 19.094 108.876 18.8874 108.731 18.8874C108.585 18.8874 108.533 19.0944 108.491 19.5802C108.387 20.7798 107.793 20.9868 106.523 21.2453C104.742 21.6074 103.354 22.6312 103.354 24.7099C103.354 27.0369 104.94 28.4744 107.773 28.4744C109.95 28.4744 112.386 27.4711 114.334 24.0065C114.865 24.503 115.51 24.7718 116.281 24.7718C116.656 24.7718 116.906 24.7512 116.906 24.6064C116.906 24.4617 116.573 24.4201 116.271 24.2135C115.656 23.7999 115.396 23.1896 115.396 22.2173C115.396 20.635 116.583 19.2491 118.405 18.184C118.676 18.0186 118.874 17.9151 118.874 17.8013C118.874 17.7185 118.791 17.6875 118.666 17.6875L118.666 17.6879Z" fill="white"/>
<path d="M133.035 13.7325C133.111 12.7837 132.327 11.7833 131.049 11.6819C130.352 11.6268 130.026 11.853 130.014 11.9942C130.008 12.0713 130.07 12.056 130.264 12.0713C130.974 12.1276 131.139 12.6695 131.099 13.1568C131.038 13.9132 130.63 14.139 129.998 14.0889L129.285 14.0324V4.8761C130.075 4.41306 130.566 3.86005 130.566 3.66693C130.566 3.52539 130.462 3.52539 130.177 3.52539H128.003C125.413 3.52539 124.635 4.64458 123.625 6.11052L120.828 10.1879C120.374 10.8309 120.012 11.1911 119.546 11.1911H119.17C118.963 11.1911 118.898 11.2424 118.898 11.3455C118.898 11.5258 119.118 11.6542 119.118 12.1944C119.118 12.5675 118.872 13.0689 118.496 13.5963L116.605 16.2718C116.424 16.5161 116.256 16.7604 116.256 16.9536C116.256 17.1723 116.437 17.2366 116.644 17.2366C116.878 17.2366 117.124 17.2238 117.875 17.0695C120.387 16.5552 124.014 16.2462 126.177 16.2462V21.7643C126.177 23.5264 125.451 24.0795 124.104 24.4913C123.91 24.5556 123.612 24.6328 123.612 24.7744C123.612 24.8772 123.742 24.9803 124.117 24.9803C125.607 24.9803 126.824 24.5172 127.731 23.9642C128.638 24.5172 129.855 24.9803 131.344 24.9803C131.72 24.9803 131.849 24.8775 131.849 24.7744C131.849 24.646 131.564 24.5556 131.28 24.4657C130.023 24.0798 129.285 23.5268 129.285 21.7646V16.2853L129.957 16.3063C131.313 16.4137 131.875 17.1808 131.807 18.0272C131.796 18.1552 131.776 18.2441 131.771 18.3082C131.767 18.3594 131.781 18.3811 131.842 18.4042C131.925 18.4355 132.087 18.2559 132.188 18.135C132.523 17.7043 132.634 17.28 132.663 16.908C132.712 16.3056 132.457 15.9393 131.874 15.5961C132.523 15.282 132.971 14.5277 133.035 13.7325ZM126.82 15.0264C126.201 15.0736 125.573 15.1031 124.965 15.132L124.668 15.1458C124.543 15.153 124.418 15.159 124.293 15.1651C124.064 15.1764 123.828 15.1882 123.596 15.2049C123.535 15.2095 123.474 15.2131 123.413 15.2166L123.328 15.2216L123.061 15.2418C122.927 15.2511 122.791 15.2643 122.659 15.2767C122.616 15.281 122.572 15.2852 122.528 15.2892C122.391 15.3013 122.252 15.3162 122.117 15.3308L121.995 15.3439L121.463 15.4104C121.228 15.4392 120.989 15.473 120.758 15.5058C120.638 15.5224 120.518 15.5395 120.399 15.5559C119.702 15.6544 118.982 15.7564 118.259 15.8308C118.259 15.8308 118.258 15.8308 118.258 15.8308C118.249 15.8308 118.242 15.8247 118.24 15.8162C118.238 15.8069 118.244 15.7981 118.253 15.796C118.924 15.6235 119.614 15.4684 120.361 15.3219L120.626 15.2696L120.893 15.2223C121.061 15.1917 121.233 15.164 121.4 15.137L121.426 15.1327C121.517 15.1171 121.609 15.1046 121.694 15.0932L121.963 15.0569L122.084 15.0427C122.22 15.0264 122.362 15.0096 122.501 14.9958L122.584 14.9887C122.734 14.9755 122.889 14.9623 123.042 14.9534C123.257 14.9385 123.424 14.9292 123.583 14.9243C123.719 14.9186 123.857 14.9157 123.99 14.9133L124.123 14.9104C124.267 14.9061 124.413 14.9068 124.555 14.9076H124.663C125.403 14.9118 126.129 14.9396 126.82 14.9908C126.83 14.9915 126.837 14.9993 126.837 15.0086C126.837 15.0178 126.83 15.0256 126.82 15.0264ZM121.097 14.2297L126.177 7.07998V13.8833C124.027 13.8833 122.418 13.9982 121.097 14.2297ZM126.994 4.66485C126.926 4.68655 126.862 4.72104 126.814 4.74914C126.754 4.78328 126.698 4.82204 126.645 4.85868C126.548 4.93016 126.446 5.01373 126.335 5.11438C126.154 5.28366 125.975 5.47606 125.788 5.70225C125.512 6.04295 125.249 6.40499 124.994 6.75529C124.935 6.83566 124.877 6.91604 124.818 6.99641L122.932 9.63203L121.987 10.9497C121.859 11.1257 121.731 11.3021 121.603 11.4789C121.418 11.736 121.225 12.002 121.033 12.2616L120.553 12.9149L120.067 13.5654L119.953 13.7155C119.83 13.8784 119.702 14.0466 119.574 14.2109L119.324 14.5306L119.129 14.7664C119.122 14.7739 119.116 14.781 119.11 14.788C119.094 14.8073 119.077 14.8272 119.054 14.8418C119.051 14.8435 119.048 14.8446 119.044 14.8446C119.039 14.8446 119.033 14.8421 119.03 14.8372C119.024 14.8293 119.025 14.8186 119.033 14.8129C119.049 14.7998 119.063 14.7813 119.076 14.7618C119.082 14.7536 119.087 14.7457 119.093 14.7383L119.15 14.6554L119.486 14.149L119.933 13.4726L120.384 12.7983L120.838 12.1268C121.05 11.8128 121.269 11.4963 121.481 11.1904C121.573 11.0574 121.665 10.9241 121.757 10.7907L121.948 10.5208C122.191 10.1747 122.443 9.8166 122.695 9.46667C123.302 8.6256 123.957 7.72831 124.638 6.86447C124.803 6.65322 124.975 6.43984 125.148 6.23037C125.301 6.04437 125.484 5.82565 125.68 5.61192C125.887 5.38679 126.08 5.20115 126.273 5.04467C126.375 4.96359 126.487 4.87823 126.608 4.80426C126.664 4.77083 126.726 4.73527 126.79 4.70504C126.842 4.67979 126.911 4.64885 126.985 4.63178C126.994 4.62965 127.003 4.63533 127.006 4.64423C127.009 4.65347 127.004 4.66307 126.994 4.66592V4.66485ZM127.871 16.0122C127.869 16.2643 127.867 16.5165 127.865 16.7682C127.862 17.2604 127.858 17.7694 127.85 18.2698C127.827 20.0774 127.795 21.4701 127.748 22.7849C127.748 22.7945 127.739 22.802 127.73 22.802C127.72 22.802 127.712 22.7945 127.712 22.7849C127.664 21.4698 127.633 20.0771 127.61 18.2694C127.602 17.769 127.598 17.2601 127.594 16.7679C127.593 16.5157 127.591 16.2639 127.588 16.0118L127.582 13.7542L127.589 11.4966C127.591 11.2555 127.593 11.0148 127.595 10.7736C127.599 10.2708 127.602 9.75044 127.611 9.2387C127.634 7.42744 127.665 6.03512 127.712 4.72318C127.712 4.71358 127.721 4.70611 127.73 4.70611C127.74 4.70611 127.748 4.71358 127.748 4.72318C127.795 6.03477 127.826 7.42744 127.85 9.2387C127.858 9.75044 127.862 10.2704 127.866 10.7733C127.867 11.014 127.869 11.2552 127.872 11.4959L127.879 13.7535L127.872 16.0111L127.871 16.0122ZM131.111 15.3688C131.066 15.3749 131.008 15.3777 130.938 15.3777C130.691 15.3777 130.301 15.3415 129.857 15.276C129.178 15.1757 128.753 15.1035 128.592 15.0608C128.584 15.0587 128.578 15.0513 128.579 15.0427C128.579 15.0345 128.585 15.0274 128.593 15.026C128.853 14.9815 129.486 14.9748 129.882 15.0324C130.297 15.084 130.918 15.2443 131.116 15.335C131.123 15.3382 131.127 15.3461 131.126 15.3539C131.125 15.3617 131.119 15.3677 131.111 15.3688Z" fill="white"/>
</g>
</g>
<defs>
<clipPath id="clip0_1060_14874">
<rect width="79.2381" height="32" fill="white"/>
</clipPath>
<clipPath id="clip1_1060_14874">
<rect width="73" height="24.9494" fill="white" transform="translate(103.238 3.52539)"/>
</clipPath>
</defs>
</svg>
