<svg width="230" height="137" viewBox="0 0 230 137" fill="none" xmlns="http://www.w3.org/2000/svg">
<path d="M185.15 66.4803C209.501 55.7676 225.401 39.6799 226.267 21.8327C226.267 21.8327 219.839 16.8801 199.082 9.24276C180.855 2.53599 166.949 1.00102 166.949 1.00102L167.014 40.7656C167.014 46.7076 164.628 52.7726 160.125 58.1423C146.348 54.8156 131.121 52.9491 115.151 52.9437H115.141C99.1598 52.9491 83.9171 54.821 70.1239 58.153C65.6206 52.7833 63.2299 46.7129 63.2299 40.7656L63.2887 1.00102C63.2887 1.00102 49.3939 2.53599 31.1562 9.24276C10.3994 16.8801 3.98145 21.8327 3.98145 21.8327C4.84252 39.6853 20.7484 55.7783 45.1259 66.491C20.7698 77.2036 4.86927 93.2913 4.00819 111.133C4.00819 111.133 10.4315 116.091 31.1882 123.723C49.4206 130.43 63.3208 131.965 63.3208 131.965L63.2567 92.2002C63.2567 86.2583 65.642 80.188 70.1506 74.8236C83.9278 78.1556 99.1491 80.0168 115.119 80.0168C131.105 80.0168 146.359 78.1502 160.146 74.8076C164.65 80.1773 167.035 86.2583 167.035 92.2002L166.982 131.965C166.982 131.965 180.882 130.43 199.114 123.723C219.871 116.091 226.294 111.133 226.294 111.133C225.428 93.2806 209.522 77.1876 185.15 66.4803ZM115.13 75.428H115.114L114.659 75.4173C100.24 75.4173 88.4846 71.8874 79.8631 66.491C88.4846 61.0838 100.246 57.5486 114.691 57.5486L115.135 57.5432H115.157L115.611 57.5486C130.036 57.5486 141.786 61.0785 150.407 66.4749C141.786 71.8767 130.025 75.4173 115.584 75.4173" fill="white"/>
</svg>
