<svg width="122" height="106" viewBox="0 0 122 106" fill="none" xmlns="http://www.w3.org/2000/svg">
<path d="M35.7365 7.76072L33.2787 15.1429H15.625C7.28262 15.1429 0.5 21.9335 0.5 30.2857V90.8571C0.5 99.2094 7.28262 106 15.625 106H106.375C114.717 106 121.5 99.2094 121.5 90.8571V30.2857C121.5 21.9335 114.717 15.1429 106.375 15.1429H88.7213L86.2635 7.76072C84.7273 3.12321 80.4025 0 75.5105 0H46.4895C41.5975 0 37.2727 3.12321 35.7365 7.76072ZM61 37.8571C67.0171 37.8571 72.7878 40.2503 77.0425 44.51C81.2972 48.7698 83.6875 54.5472 83.6875 60.5714C83.6875 66.5956 81.2972 72.3731 77.0425 76.6329C72.7878 80.8926 67.0171 83.2857 61 83.2857C54.9829 83.2857 49.2122 80.8926 44.9575 76.6329C40.7028 72.3731 38.3125 66.5956 38.3125 60.5714C38.3125 54.5472 40.7028 48.7698 44.9575 44.51C49.2122 40.2503 54.9829 37.8571 61 37.8571Z" fill="#EFEEF2"/>
</svg>
