<?xml version="1.0" encoding="utf-8"?>
<!-- Generator: Adobe Illustrator 28.1.0, SVG Export Plug-In . SVG Version: 6.00 Build 0)  -->
<svg version="1.1" id="Calque_1" xmlns="http://www.w3.org/2000/svg" xmlns:xlink="http://www.w3.org/1999/xlink" x="0px" y="0px"
	 viewBox="0 0 800 800" style="enable-background:new 0 0 800 800;" xml:space="preserve">
<style type="text/css">
	.st0{fill:none;stroke:#FFFFFF;stroke-width:66.6667;stroke-linecap:round;stroke-linejoin:round;stroke-miterlimit:133.3333;}
</style>
<path class="st0" d="M266.7,166.7c-32.9,0-50.2,0.4-63.6,7.3c-12.5,6.4-22.7,16.6-29.1,29.1c-7.3,14.3-7.3,32.9-7.3,70.3v320
	c0,37.3,0,56,7.3,70.3c6.4,12.5,16.6,22.7,29.1,29.1c14.3,7.3,32.9,7.3,70.3,7.3h253.3c37.3,0,56,0,70.3-7.3
	c12.5-6.4,22.7-16.6,29.1-29.1c7.3-14.3,7.3-32.9,7.3-70.3v-320c0-37.3,0-56-7.3-70.3c-6.4-12.5-16.6-22.7-29.1-29.1
	c-13.4-6.8-30.7-7.2-63.6-7.3 M266.7,166.7v66.7h266.7v-66.7 M266.7,166.7v-9.8c0-15.1,6-29.6,16.7-40.2s25.1-16.7,40.2-16.7h152.9
	c15.1,0,29.6,6,40.2,16.7c10.7,10.7,16.7,25.1,16.7,40.2v9.8"/>
</svg>
