<svg width="44" height="50" viewBox="0 0 44 50" fill="none" xmlns="http://www.w3.org/2000/svg">
<g clip-path="url(#clip0_533_7021)">
<path d="M37.625 32.8125H18.875C18.0156 32.8125 17.3125 32.1094 17.3125 31.25V6.25C17.3125 5.39062 18.0156 4.6875 18.875 4.6875H32.5566L39.1875 11.3184V31.25C39.1875 32.1094 38.4844 32.8125 37.625 32.8125ZM18.875 37.5H37.625C41.0723 37.5 43.875 34.6973 43.875 31.25V11.3184C43.875 10.0781 43.377 8.88672 42.498 8.00781L35.877 1.37695C34.998 0.498047 33.8066 0 32.5664 0H18.875C15.4277 0 12.625 2.80273 12.625 6.25V31.25C12.625 34.6973 15.4277 37.5 18.875 37.5ZM6.375 12.5C2.92773 12.5 0.125 15.3027 0.125 18.75V43.75C0.125 47.1973 2.92773 50 6.375 50H25.125C28.5723 50 31.375 47.1973 31.375 43.75V40.625H26.6875V43.75C26.6875 44.6094 25.9844 45.3125 25.125 45.3125H6.375C5.51562 45.3125 4.8125 44.6094 4.8125 43.75V18.75C4.8125 17.8906 5.51562 17.1875 6.375 17.1875H9.5V12.5H6.375Z" fill="#0A1A11"/>
</g>
<defs>
<clipPath id="clip0_533_7021">
<rect width="43.75" height="50" fill="white" transform="translate(0.125)"/>
</clipPath>
</defs>
</svg>
