<svg width="64" height="64" viewBox="0 0 64 64" fill="none" xmlns="http://www.w3.org/2000/svg">
<path d="M9.10894 1.57855C7.02642 -0.503971 3.64441 -0.503971 1.56189 1.57855C-0.52063 3.66107 -0.52063 7.04308 1.56189 9.1256L24.4529 32L1.57855 54.8911C-0.503971 56.9736 -0.503971 60.3556 1.57855 62.4381C3.66107 64.5206 7.04308 64.5206 9.1256 62.4381L32 39.547L54.8911 62.4214C56.9736 64.504 60.3556 64.504 62.4381 62.4214C64.5206 60.3389 64.5206 56.9569 62.4381 54.8744L39.547 32L62.4214 9.10894C64.504 7.02642 64.504 3.64441 62.4214 1.56189C60.3389 -0.52063 56.9569 -0.52063 54.8744 1.56189L32 24.4529L9.10894 1.57855Z" fill="#0A1A11"/>
</svg>
