<svg width="18" height="18" viewBox="0 0 18 18" fill="none" xmlns="http://www.w3.org/2000/svg">
<path d="M15.9569 0.981531C15.2159 0.240531 14.0181 0.240531 13.2771 0.981531L12.2586 1.9966L15.5711 5.3091L16.5896 4.29065C17.3306 3.54965 17.3306 2.35187 16.5896 1.61087L15.9569 0.981531ZM5.83326 8.42536C5.62686 8.63176 5.46783 8.88553 5.37648 9.16636L4.37494 12.171C4.27682 12.4619 4.35464 12.7834 4.57119 13.0033C4.78774 13.2232 5.10918 13.2977 5.40354 13.1996L8.40815 12.198C8.6856 12.1067 8.93936 11.9476 9.14915 11.7413L14.8098 6.07717L11.494 2.76128L5.83326 8.42536ZM3.24822 2.41278C1.45493 2.41278 0 3.86771 0 5.66099V14.3229C0 16.1162 1.45493 17.5711 3.24822 17.5711H11.9101C13.7034 17.5711 15.1583 16.1162 15.1583 14.3229V11.0747C15.1583 10.4758 14.6745 9.99195 14.0756 9.99195C13.4767 9.99195 12.9929 10.4758 12.9929 11.0747V14.3229C12.9929 14.9218 12.509 15.4056 11.9101 15.4056H3.24822C2.64933 15.4056 2.16548 14.9218 2.16548 14.3229V5.66099C2.16548 5.0621 2.64933 4.57825 3.24822 4.57825H6.49643C7.09532 4.57825 7.57917 4.09441 7.57917 3.49552C7.57917 2.89663 7.09532 2.41278 6.49643 2.41278H3.24822Z" fill="#0A1A11"/>
</svg>
