<svg width="60" height="52" viewBox="0 0 60 52" fill="none" xmlns="http://www.w3.org/2000/svg">
<path d="M24.5128 30.525C34.6706 30.525 42.9 38.7544 42.9 48.9122C42.9 50.6034 41.5284 51.975 39.8372 51.975H3.06281C1.37156 51.975 0 50.6034 0 48.9122C0 38.7544 8.22938 30.525 18.3872 30.525H24.5128ZM49.5 7.425C50.8716 7.425 51.975 8.52844 51.975 9.9V14.85H56.925C58.2966 14.85 59.4 15.9534 59.4 17.325C59.4 18.6966 58.2966 19.8 56.925 19.8H51.975V24.75C51.975 26.1216 50.8716 27.225 49.5 27.225C48.1284 27.225 47.025 26.1216 47.025 24.75V19.8H42.075C40.7034 19.8 39.6 18.6966 39.6 17.325C39.6 15.9534 40.7034 14.85 42.075 14.85H47.025V9.9C47.025 8.52844 48.1284 7.425 49.5 7.425ZM21.45 24.75C14.6128 24.75 9.075 19.2122 9.075 12.375C9.075 5.53781 14.6128 0 21.45 0C28.2872 0 33.825 5.53781 33.825 12.375C33.825 19.2122 28.2872 24.75 21.45 24.75Z" fill="#0A1A11"/>
</svg>
