<svg width="64" height="56" viewBox="0 0 64 56" fill="none" xmlns="http://www.w3.org/2000/svg">
<path d="M26.4111 32.8889C37.3556 32.8889 46.2222 41.7556 46.2222 52.7C46.2222 54.5222 44.7444 56 42.9222 56H3.3C1.47778 56 0 54.5222 0 52.7C0 41.7556 8.86667 32.8889 19.8111 32.8889H26.4111ZM53.3333 8C54.8111 8 56 9.18889 56 10.6667V16H61.3333C62.8111 16 64 17.1889 64 18.6667C64 20.1444 62.8111 21.3333 61.3333 21.3333H56V26.6667C56 28.1444 54.8111 29.3333 53.3333 29.3333C51.8556 29.3333 50.6667 28.1444 50.6667 26.6667V21.3333H45.3333C43.8556 21.3333 42.6667 20.1444 42.6667 18.6667C42.6667 17.1889 43.8556 16 45.3333 16H50.6667V10.6667C50.6667 9.18889 51.8556 8 53.3333 8ZM23.1111 26.6667C15.7444 26.6667 9.77778 20.7 9.77778 13.3333C9.77778 5.96667 15.7444 0 23.1111 0C30.4778 0 36.4444 5.96667 36.4444 13.3333C36.4444 20.7 30.4778 26.6667 23.1111 26.6667Z" fill="#C8F843"/>
</svg>
