<svg width="17" height="18" viewBox="0 0 17 18" fill="none" xmlns="http://www.w3.org/2000/svg">
<path d="M16.283 5.97685C16.3912 6.27122 16.2999 6.59943 16.0664 6.80921L14.6013 8.14233C14.6386 8.42317 14.6589 8.71077 14.6589 9.00176C14.6589 9.29274 14.6386 9.58034 14.6013 9.86118L16.0664 11.1943C16.2999 11.4041 16.3912 11.7323 16.283 12.0267C16.1341 12.4293 15.9548 12.815 15.7484 13.1872L15.5893 13.4613C15.366 13.8335 15.1156 14.1854 14.8416 14.517C14.6419 14.7606 14.3104 14.8418 14.0126 14.747L12.128 14.1481C11.6746 14.4967 11.1738 14.7876 10.6392 15.0076L10.2162 16.9396C10.1486 17.2475 9.91172 17.4911 9.60044 17.5419C9.13351 17.6197 8.65304 17.6603 8.16242 17.6603C7.67181 17.6603 7.19134 17.6197 6.72441 17.5419C6.41312 17.4911 6.17627 17.2475 6.1086 16.9396L5.68566 15.0076C5.15106 14.7876 4.65029 14.4967 4.19689 14.1481L2.31563 14.7504C2.01788 14.8452 1.68629 14.7606 1.48666 14.5203C1.21259 14.1888 0.962209 13.8369 0.738894 13.4647L0.579866 13.1906C0.373469 12.8184 0.19414 12.4327 0.0452638 12.03C-0.0630101 11.7357 0.028346 11.4075 0.261812 11.1977L1.72689 9.86456C1.68967 9.58034 1.66937 9.29274 1.66937 9.00176C1.66937 8.71077 1.68967 8.42317 1.72689 8.14233L0.261812 6.80921C0.028346 6.59943 -0.0630101 6.27122 0.0452638 5.97685C0.19414 5.57421 0.373469 5.18848 0.579866 4.81629L0.738894 4.54222C0.962209 4.17003 1.21259 3.81814 1.48666 3.48655C1.68629 3.24294 2.01788 3.16173 2.31563 3.25647L4.20027 3.85536C4.65367 3.50686 5.15444 3.21587 5.68904 2.99594L6.11199 1.06393C6.17966 0.756022 6.41651 0.512405 6.72779 0.461652C7.19473 0.380446 7.67519 0.339844 8.16581 0.339844C8.65642 0.339844 9.13689 0.380446 9.60382 0.458268C9.91511 0.509022 10.152 0.752638 10.2196 1.06054L10.6426 2.99255C11.1772 3.21249 11.6779 3.50347 12.1313 3.85198L14.016 3.25309C14.3137 3.15835 14.6453 3.24294 14.845 3.48317C15.119 3.81476 15.3694 4.16665 15.5927 4.53884L15.7517 4.81291C15.9581 5.1851 16.1375 5.57083 16.2864 5.97347L16.283 5.97685ZM8.16581 11.7086C8.88371 11.7086 9.57221 11.4234 10.0798 10.9158C10.5875 10.4082 10.8727 9.71966 10.8727 9.00176C10.8727 8.28385 10.5875 7.59536 10.0798 7.08773C9.57221 6.58009 8.88371 6.29491 8.16581 6.29491C7.44791 6.29491 6.75941 6.58009 6.25178 7.08773C5.74414 7.59536 5.45896 8.28385 5.45896 9.00176C5.45896 9.71966 5.74414 10.4082 6.25178 10.9158C6.75941 11.4234 7.44791 11.7086 8.16581 11.7086Z" fill="#0A1A11"/>
</svg>
