<?xml version="1.0" encoding="utf-8"?>
<!-- Generator: Adobe Illustrator 28.1.0, SVG Export Plug-In . SVG Version: 6.00 Build 0)  -->
<svg version="1.1" id="_x32_" xmlns="http://www.w3.org/2000/svg" xmlns:xlink="http://www.w3.org/1999/xlink" x="0px" y="0px"
	 viewBox="0 0 800 800" style="enable-background:new 0 0 800 800;" xml:space="preserve">
<style type="text/css">
	.st0{fill:#FFFFFF;}
</style>
<g>
	<path class="st0" d="M418.5,267.3c-19.3-19.4-42.8-34.6-68.9-44.6c-12.3,13.7-20.7,30.4-24.2,48.5c-1,4.9-1.5,9.8-1.8,14.6
		c2.1,0.7,4.2,1.5,6.3,2.4c22.7,9.6,42.3,25.8,56,46.1c11,16.3,18.3,35.1,20.7,55.5c0.6,5.1,1,10.3,1,15.6c0,17.7-3.6,34.3-10,49.5
		c-8,18.7-20.3,35.3-35.8,48.2c-3.3,2.8-6.7,5.4-10.3,7.8c-20.3,13.7-44.6,21.7-71.1,21.7c-17.6,0-34.2-3.6-49.4-10
		c-22.8-9.6-42.2-25.8-56-46.1c-13.7-20.3-21.6-44.6-21.6-71.1c0-17.7,3.5-34.3,9.9-49.5c8.7-20.4,22.6-38.3,40.1-51.6
		c-0.3-4.6-0.5-9.2-0.5-13.8c0-23.7,3.7-46.8,10.8-68.7c-27.1,9.9-51.4,25.5-71.4,45.5c-35.3,35.2-57.3,84.2-57.2,138.1
		c-0.1,53.8,21.9,102.9,57.2,138.1c29.4,29.5,68.4,49.5,111.8,55.4v60.9h-90.5v52.4h90.5V800h52.4v-87.9h90.5v-52.4h-90.5v-60.9
		c43.4-5.8,82.5-25.9,111.9-55.4c9.8-9.8,18.6-20.7,26.2-32.4c19.7-30.5,31.1-66.8,31-105.7c0-9.1-0.6-18.1-1.8-26.9
		C467.9,335.3,447.8,296.5,418.5,267.3z"/>
	<path class="st0" d="M545.3,0v52.4h80l-82.7,82.7c-34.8-26.5-76.6-39.9-118.3-39.9c-49.8,0-100,19.1-138.1,57.2
		c-27.2,27.2-44.7,60.5-52.5,95.5c-0.1,0.4-0.1,0.9-0.3,1.2c-0.3,1.4-0.6,2.7-0.8,4c-0.5,2.5-0.9,5-1.3,7.6
		c-0.3,1.5-0.5,3.1-0.6,4.6c-0.3,2.3-0.6,4.7-0.8,7c-0.1,1.4-0.3,2.7-0.3,4.1c0,0.7-0.1,1.4-0.1,2.1c-0.1,1.4-0.2,2.8-0.2,4.1
		c-0.1,2.6-0.2,5.2-0.2,7.8c0,2,0.1,4,0.1,6c0.1,2,0.2,4,0.3,6l0.3,4.4c0,0.7,0.1,1.5,0.2,2.3c4.2,43.6,23,86.1,56.3,119.4
		c20.2,20.2,43.8,35.1,68.9,44.6c7.6-8.4,13.8-18.1,18.3-28.5c4.6-11,7.2-22.5,7.7-34.5c-17-6.1-33-16-46.7-29.7
		c-12.4-12.5-21.7-26.7-27.9-42.1c-4.4-10.8-7.2-22.1-8.5-33.6c-0.8-6.8-1-13.6-0.7-20.3c0.1-1.7,0.2-3.3,0.3-4.9
		c0.1-1.2,0.2-2.4,0.4-3.6c0-0.5,0.1-0.9,0.1-1.4c0.1-1.2,0.3-2.4,0.5-3.5c0.3-1.6,0.5-3.2,0.8-4.8c1.4-7.1,3.4-14.2,6-21
		c0.5-1.3,1-2.5,1.5-3.7c0.5-1.3,1.1-2.6,1.7-3.9c0.5-1.3,1.1-2.6,1.8-3.9c0.6-1.3,1.3-2.6,2-3.8c3.5-6.4,7.5-12.6,12.2-18.5
		c1-1.2,2-2.4,2.9-3.6c2.2-2.5,4.4-4.9,6.7-7.2c2.9-2.9,5.9-5.7,9-8.2c10.2-8.4,21.3-15.1,33-19.8c22.9-9.3,48.1-11.6,72.2-7
		c24.1,4.7,46.9,16.2,65.6,34.9c12.5,12.5,21.7,26.7,27.9,42c9.3,22.9,11.7,48.1,7,72.1c-4.7,24.1-16.3,46.9-34.9,65.6
		c-4.1,4.1-8.4,7.9-12.8,11.2c0.3,4.6,0.4,9.2,0.4,13.8c0.1,23.5-3.7,46.7-10.8,68.7c26.1-9.4,50.6-24.6,71.4-45.5
		c38.1-38,57.3-88.2,57.2-138.1c0-41.6-13.4-83.4-40-118.3l82.7-82.7v80h52.4V0H545.3z"/>
</g>
</svg>
