<?xml version="1.0" encoding="utf-8"?>
<!-- Generator: Adobe Illustrator 28.1.0, SVG Export Plug-In . SVG Version: 6.00 Build 0)  -->
<svg version="1.1" id="_x32_" xmlns="http://www.w3.org/2000/svg" xmlns:xlink="http://www.w3.org/1999/xlink" x="0px" y="0px"
	 viewBox="0 0 800 800" style="enable-background:new 0 0 800 800;" xml:space="preserve">
<style type="text/css">
	.st0{fill:#FFFFFF;}
</style>
<g>
	<path class="st0" d="M505.8,505.2H294.2c-12.7,0-23,10.3-23,23v27.9c0,12.7,10.3,23,23,23h211.5c12.7,0,23-10.3,23-23v-27.9
		C528.8,515.5,518.5,505.2,505.8,505.2z"/>
	<path class="st0" d="M400,0C257.5,0,142,115.5,142,258c0,91.7,48,172,120,217.8h275.9C610,430,658,349.7,658,258
		C658,115.5,542.5,0,400,0z"/>
	<polygon class="st0" points="356.5,688.7 356.5,800 443.5,800 443.5,688.7 484.5,606.2 315.5,606.2 	"/>
</g>
</svg>
