<svg width="164" height="164" viewBox="0 0 164 164" fill="none" xmlns="http://www.w3.org/2000/svg">
<path d="M20.5 46.125C24.5777 46.125 28.4884 44.5051 31.3718 41.6218C34.2551 38.7384 35.875 34.8277 35.875 30.75C35.875 26.6723 34.2551 22.7616 31.3718 19.8782C28.4884 16.9949 24.5777 15.375 20.5 15.375C16.4223 15.375 12.5116 16.9949 9.62823 19.8782C6.74486 22.7616 5.125 26.6723 5.125 30.75C5.125 34.8277 6.74486 38.7384 9.62823 41.6218C12.5116 44.5051 16.4223 46.125 20.5 46.125ZM61.5 20.5C55.8305 20.5 51.25 25.0805 51.25 30.75C51.25 36.4195 55.8305 41 61.5 41H153.75C159.42 41 164 36.4195 164 30.75C164 25.0805 159.42 20.5 153.75 20.5H61.5ZM61.5 71.75C55.8305 71.75 51.25 76.3305 51.25 82C51.25 87.6695 55.8305 92.25 61.5 92.25H153.75C159.42 92.25 164 87.6695 164 82C164 76.3305 159.42 71.75 153.75 71.75H61.5ZM61.5 123C55.8305 123 51.25 127.58 51.25 133.25C51.25 138.92 55.8305 143.5 61.5 143.5H153.75C159.42 143.5 164 138.92 164 133.25C164 127.58 159.42 123 153.75 123H61.5ZM20.5 148.625C24.5777 148.625 28.4884 147.005 31.3718 144.122C34.2551 141.238 35.875 137.328 35.875 133.25C35.875 129.172 34.2551 125.262 31.3718 122.378C28.4884 119.495 24.5777 117.875 20.5 117.875C16.4223 117.875 12.5116 119.495 9.62823 122.378C6.74486 125.262 5.125 129.172 5.125 133.25C5.125 137.328 6.74486 141.238 9.62823 144.122C12.5116 147.005 16.4223 148.625 20.5 148.625ZM35.875 82C35.875 79.9809 35.4773 77.9816 34.7046 76.1162C33.932 74.2509 32.7995 72.5559 31.3718 71.1282C29.9441 69.7005 28.2491 68.568 26.3838 67.7954C24.5184 67.0227 22.5191 66.625 20.5 66.625C18.4809 66.625 16.4816 67.0227 14.6162 67.7954C12.7509 68.568 11.0559 69.7005 9.62823 71.1282C8.20053 72.5559 7.06802 74.2509 6.29535 76.1162C5.52269 77.9816 5.125 79.9809 5.125 82C5.125 84.0191 5.52269 86.0184 6.29535 87.8838C7.06802 89.7491 8.20053 91.4441 9.62823 92.8718C11.0559 94.2995 12.7509 95.432 14.6162 96.2046C16.4816 96.9773 18.4809 97.375 20.5 97.375C22.5191 97.375 24.5184 96.9773 26.3838 96.2046C28.2491 95.432 29.9441 94.2995 31.3718 92.8718C32.7995 91.4441 33.932 89.7491 34.7046 87.8838C35.4773 86.0184 35.875 84.0191 35.875 82Z" fill="#0A1A11"/>
</svg>
