<svg width="18" height="16" viewBox="0 0 18 16" fill="none" xmlns="http://www.w3.org/2000/svg">
<path d="M12.7865 2.92233L16.9415 7.07734C17.1851 7.32095 17.3238 7.65593 17.3238 8.00105C17.3238 8.34617 17.1851 8.68114 16.9415 8.92476L12.7865 13.0798C12.5699 13.2963 12.2789 13.4147 11.9744 13.4147C11.3417 13.4147 10.8274 12.9004 10.8274 12.2677V10.1665H6.49643C5.89754 10.1665 5.41369 9.68268 5.41369 9.08379V6.91831C5.41369 6.31942 5.89754 5.83557 6.49643 5.83557H10.8274V3.73438C10.8274 3.10165 11.3417 2.58735 11.9744 2.58735C12.2789 2.58735 12.5699 2.70916 12.7865 2.92233ZM5.41369 2.58735H3.24822C2.64933 2.58735 2.16548 3.0712 2.16548 3.67009V12.332C2.16548 12.9309 2.64933 13.4147 3.24822 13.4147H5.41369C6.01259 13.4147 6.49643 13.8986 6.49643 14.4975C6.49643 15.0964 6.01259 15.5802 5.41369 15.5802H3.24822C1.45493 15.5802 0 14.1253 0 12.332V3.67009C0 1.87681 1.45493 0.421875 3.24822 0.421875H5.41369C6.01259 0.421875 6.49643 0.905724 6.49643 1.50461C6.49643 2.1035 6.01259 2.58735 5.41369 2.58735Z" fill="#D33236"/>
</svg>
