<svg width="14" height="16" viewBox="0 0 14 16" fill="none" xmlns="http://www.w3.org/2000/svg">
<path d="M4.46875 9.25C4.34375 9.875 3.9375 12.6562 3.78125 13.4375C3.78125 13.5 3.75 13.5312 3.6875 13.5312H1.375C1.125 13.5312 0.96875 13.3125 1 13.0938L2.8125 1.46875C2.875 1.15625 3.125 0.9375 3.4375 0.9375C8.21875 0.9375 8.59375 0.8125 9.8125 1.3125C11.6875 2.03125 11.875 3.78125 11.1875 5.6875C10.5312 7.625 8.9375 8.46875 6.8125 8.5C5.46875 8.53125 4.65625 8.28125 4.46875 9.25ZM12.1562 4.75C12.0938 4.71875 12.0625 4.71875 12.0625 4.8125C12 5.15625 11.9062 5.5 11.7812 5.84375C10.5312 9.40625 7.0625 9.09375 5.375 9.09375C5.1875 9.09375 5.0625 9.21875 5.03125 9.40625C4.34375 13.7812 4.1875 14.6875 4.1875 14.6875C4.15625 14.9062 4.3125 15.0938 4.53125 15.0938H6.5C6.78125 15.0938 7 14.9062 7.0625 14.625C7.09375 14.4688 7.03125 14.8125 7.5 11.7812C7.65625 11.0938 7.96875 11.1562 8.4375 11.1562C10.6562 11.1562 12.375 10.2812 12.875 7.65625C13.0938 6.5625 13.0312 5.4375 12.1562 4.75Z" fill="#0A1A11"/>
</svg>
