<?xml version="1.0" encoding="utf-8"?>
<!-- Generator: Adobe Illustrator 28.1.0, SVG Export Plug-In . SVG Version: 6.00 Build 0)  -->
<svg version="1.1" id="Calque_1" xmlns="http://www.w3.org/2000/svg" xmlns:xlink="http://www.w3.org/1999/xlink" x="0px" y="0px"
	 viewBox="0 0 800 800" style="enable-background:new 0 0 800 800;" xml:space="preserve">
<style type="text/css">
	.st0{fill:none;stroke:#FFFFFF;stroke-width:66.6667;stroke-linecap:round;stroke-linejoin:round;stroke-miterlimit:133.3333;}
</style>
<path class="st0" d="M516.7,183.4l94.3,94.3 M433.3,700H700 M100,700l1.6-11.1c5.6-39.2,8.4-58.8,14.8-77.1
	c5.6-16.2,13.4-31.7,23-45.9c10.8-16.1,24.8-30.1,52.8-58l388.3-388.3c26-26,68.2-26,94.3,0c26,26,26,68.2,0,94.3L279.2,609.3
	c-25.4,25.4-38.1,38.1-52.5,48.2c-12.8,9-26.7,16.4-41.2,22.1c-16.4,6.5-34,10-69.2,17.1L100,700z"/>
</svg>
