<svg width="48" height="64" viewBox="0 0 48 64" fill="none" xmlns="http://www.w3.org/2000/svg">
<path d="M3 0C1.3375 0 0 1.3375 0 3C0 4.6625 1.3375 6 3 6H4V8.375C4 13.4125 6 18.25 9.5625 21.8125L19.75 32L9.5625 42.1875C6 45.75 4 50.5875 4 55.625V58H3C1.3375 58 0 59.3375 0 61C0 62.6625 1.3375 64 3 64H45C46.6625 64 48 62.6625 48 61C48 59.3375 46.6625 58 45 58H44V55.625C44 50.5875 42 45.75 38.4375 42.1875L28.25 32L38.4375 21.8125C42 18.25 44 13.4125 44 8.375V6H45C46.6625 6 48 4.6625 48 3C48 1.3375 46.6625 0 45 0H3ZM24 36.2375L34.1875 46.425C36.625 48.875 38 52.175 38 55.625V58H10V55.625C10 52.175 11.375 48.875 13.8125 46.4375L24 36.2375ZM24 27.75L13.8125 17.5625C11.375 15.125 10 11.825 10 8.375V6H38V8.375C38 11.825 36.625 15.125 34.1875 17.5625L24 27.7625V27.75Z" fill="#0A1A11"/>
</svg>
