<svg width="21" height="21" viewBox="0 0 21 21" fill="none" xmlns="http://www.w3.org/2000/svg">
<path d="M7.74922 20.5L7.34922 17.3C7.13255 17.2167 6.92839 17.1167 6.73672 17C6.54505 16.8833 6.35755 16.7583 6.17422 16.625L3.19922 17.875L0.449219 13.125L3.02422 11.175C3.00755 11.0583 2.99922 10.9458 2.99922 10.8375V10.1625C2.99922 10.0542 3.00755 9.94167 3.02422 9.825L0.449219 7.875L3.19922 3.125L6.17422 4.375C6.35755 4.24167 6.54922 4.11667 6.74922 4C6.94922 3.88333 7.14922 3.78333 7.34922 3.7L7.74922 0.5H13.2492L13.6492 3.7C13.8659 3.78333 14.0701 3.88333 14.2617 4C14.4534 4.11667 14.6409 4.24167 14.8242 4.375L17.7992 3.125L20.5492 7.875L17.9742 9.825C17.9909 9.94167 17.9992 10.0542 17.9992 10.1625V10.8375C17.9992 10.9458 17.9826 11.0583 17.9492 11.175L20.5242 13.125L17.7742 17.875L14.8242 16.625C14.6409 16.7583 14.4492 16.8833 14.2492 17C14.0492 17.1167 13.8492 17.2167 13.6492 17.3L13.2492 20.5H7.74922ZM9.49922 18.5H11.4742L11.8242 15.85C12.3409 15.7167 12.8201 15.5208 13.2617 15.2625C13.7034 15.0042 14.1076 14.6917 14.4742 14.325L16.9492 15.35L17.9242 13.65L15.7742 12.025C15.8576 11.7917 15.9159 11.5458 15.9492 11.2875C15.9826 11.0292 15.9992 10.7667 15.9992 10.5C15.9992 10.2333 15.9826 9.97083 15.9492 9.7125C15.9159 9.45417 15.8576 9.20833 15.7742 8.975L17.9242 7.35L16.9492 5.65L14.4742 6.7C14.1076 6.31667 13.7034 5.99583 13.2617 5.7375C12.8201 5.47917 12.3409 5.28333 11.8242 5.15L11.4992 2.5H9.52422L9.17422 5.15C8.65755 5.28333 8.17839 5.47917 7.73672 5.7375C7.29505 5.99583 6.89089 6.30833 6.52422 6.675L4.04922 5.65L3.07422 7.35L5.22422 8.95C5.14089 9.2 5.08255 9.45 5.04922 9.7C5.01589 9.95 4.99922 10.2167 4.99922 10.5C4.99922 10.7667 5.01589 11.025 5.04922 11.275C5.08255 11.525 5.14089 11.775 5.22422 12.025L3.07422 13.65L4.04922 15.35L6.52422 14.3C6.89089 14.6833 7.29505 15.0042 7.73672 15.2625C8.17839 15.5208 8.65755 15.7167 9.17422 15.85L9.49922 18.5ZM10.5492 14C11.5159 14 12.3409 13.6583 13.0242 12.975C13.7076 12.2917 14.0492 11.4667 14.0492 10.5C14.0492 9.53333 13.7076 8.70833 13.0242 8.025C12.3409 7.34167 11.5159 7 10.5492 7C9.56589 7 8.73672 7.34167 8.06172 8.025C7.38672 8.70833 7.04922 9.53333 7.04922 10.5C7.04922 11.4667 7.38672 12.2917 8.06172 12.975C8.73672 13.6583 9.56589 14 10.5492 14Z" fill="#FAFAFA"/>
</svg>
