<svg width="17" height="22" viewBox="0 0 17 22" fill="none" xmlns="http://www.w3.org/2000/svg">
<path d="M17 8.25C17 11.1203 15.4904 13.6469 13.2016 15.125H3.79844C1.50964 13.6469 0 11.1203 0 8.25C0 3.69531 3.80729 0 8.5 0C13.1927 0 17 3.69531 17 8.25ZM4.25 17.875C4.25 17.1145 4.88307 16.5 5.66667 16.5H8.5H11.3333C12.1169 16.5 12.75 17.1145 12.75 17.875C12.75 18.6355 12.1169 19.25 11.3333 19.25H10.625C10.2354 19.25 9.91667 19.5594 9.91667 19.9375V20.625C9.91667 21.3855 9.28359 22 8.5 22C7.71641 22 7.08333 21.3855 7.08333 20.625V19.9375C7.08333 19.5594 6.76458 19.25 6.375 19.25H5.66667C4.88307 19.25 4.25 18.6355 4.25 17.875Z" fill="url(#paint0_linear_421_12376)"/>
<defs>
<linearGradient id="paint0_linear_421_12376" x1="0" y1="0" x2="21.2885" y2="16.4502" gradientUnits="userSpaceOnUse">
<stop stop-color="#C7F7FD"/>
<stop offset="1" stop-color="#C8F843"/>
</linearGradient>
</defs>
</svg>
