<svg width="19" height="20" viewBox="0 0 19 20" fill="none" xmlns="http://www.w3.org/2000/svg">
<path d="M9.5 19.5C12.0196 19.5 14.4359 18.4991 16.2175 16.7175C17.9991 14.9359 19 12.5196 19 10C19 7.48044 17.9991 5.06408 16.2175 3.28249C14.4359 1.50089 12.0196 0.5 9.5 0.5C6.98044 0.5 4.56408 1.50089 2.78249 3.28249C1.00089 5.06408 0 7.48044 0 10C0 12.5196 1.00089 14.9359 2.78249 16.7175C4.56408 18.4991 6.98044 19.5 9.5 19.5ZM13.6934 8.25586L8.94336 13.0059C8.59453 13.3547 8.03047 13.3547 7.68535 13.0059L5.31035 10.6309C4.96152 10.282 4.96152 9.71797 5.31035 9.37285C5.65918 9.02773 6.22324 9.02402 6.56836 9.37285L8.3125 11.117L12.4316 6.99414C12.7805 6.64531 13.3445 6.64531 13.6896 6.99414C14.0348 7.34297 14.0385 7.90703 13.6896 8.25215L13.6934 8.25586Z" fill="url(#paint0_linear_421_12381)"/>
<defs>
<linearGradient id="paint0_linear_421_12381" x1="0" y1="0.5" x2="19" y2="19.5" gradientUnits="userSpaceOnUse">
<stop stop-color="#C7F7FD"/>
<stop offset="1" stop-color="#C8F843"/>
</linearGradient>
</defs>
</svg>
