<svg width="24" height="16" viewBox="0 0 24 16" fill="none" xmlns="http://www.w3.org/2000/svg">
<path d="M2.66667 0C1.19583 0 0 1.19583 0 2.66667V13.3333C0 14.8042 1.19583 16 2.66667 16H21.3333C22.8042 16 24 14.8042 24 13.3333V2.66667C24 1.19583 22.8042 0 21.3333 0H2.66667ZM5.33333 13.3333H2.66667V10.6667C4.1375 10.6667 5.33333 11.8625 5.33333 13.3333ZM2.66667 5.33333V2.66667H5.33333C5.33333 4.1375 4.1375 5.33333 2.66667 5.33333ZM18.6667 13.3333C18.6667 11.8625 19.8625 10.6667 21.3333 10.6667V13.3333H18.6667ZM21.3333 5.33333C19.8625 5.33333 18.6667 4.1375 18.6667 2.66667H21.3333V5.33333ZM12 4C13.0609 4 14.0783 4.42143 14.8284 5.17157C15.5786 5.92172 16 6.93913 16 8C16 9.06087 15.5786 10.0783 14.8284 10.8284C14.0783 11.5786 13.0609 12 12 12C10.9391 12 9.92172 11.5786 9.17157 10.8284C8.42143 10.0783 8 9.06087 8 8C8 6.93913 8.42143 5.92172 9.17157 5.17157C9.92172 4.42143 10.9391 4 12 4Z" fill="url(#paint0_linear_421_12366)"/>
<defs>
<linearGradient id="paint0_linear_421_12366" x1="0" y1="0" x2="14.7692" y2="22.1538" gradientUnits="userSpaceOnUse">
<stop stop-color="#C7F7FD"/>
<stop offset="1" stop-color="#C8F843"/>
</linearGradient>
</defs>
</svg>
