<svg width="19" height="20" viewBox="0 0 19 20" fill="none" xmlns="http://www.w3.org/2000/svg">
<path d="M9.5 19.5C12.0196 19.5 14.4359 18.4991 16.2175 16.7175C17.9991 14.9359 19 12.5196 19 10C19 7.48044 17.9991 5.06408 16.2175 3.28249C14.4359 1.50089 12.0196 0.5 9.5 0.5C6.98044 0.5 4.56408 1.50089 2.78249 3.28249C1.00089 5.06408 0 7.48044 0 10C0 12.5196 1.00089 14.9359 2.78249 16.7175C4.56408 18.4991 6.98044 19.5 9.5 19.5ZM8.01562 12.9688H8.90625V10.5938H8.01562C7.52207 10.5938 7.125 10.1967 7.125 9.70312C7.125 9.20957 7.52207 8.8125 8.01562 8.8125H9.79688C10.2904 8.8125 10.6875 9.20957 10.6875 9.70312V12.9688H10.9844C11.4779 12.9688 11.875 13.3658 11.875 13.8594C11.875 14.3529 11.4779 14.75 10.9844 14.75H8.01562C7.52207 14.75 7.125 14.3529 7.125 13.8594C7.125 13.3658 7.52207 12.9688 8.01562 12.9688ZM9.5 5.25C9.81494 5.25 10.117 5.37511 10.3397 5.59781C10.5624 5.82051 10.6875 6.12256 10.6875 6.4375C10.6875 6.75244 10.5624 7.05449 10.3397 7.27719C10.117 7.49989 9.81494 7.625 9.5 7.625C9.18506 7.625 8.88301 7.49989 8.66031 7.27719C8.43761 7.05449 8.3125 6.75244 8.3125 6.4375C8.3125 6.12256 8.43761 5.82051 8.66031 5.59781C8.88301 5.37511 9.18506 5.25 9.5 5.25Z" fill="url(#paint0_linear_421_12371)"/>
<defs>
<linearGradient id="paint0_linear_421_12371" x1="0" y1="0.5" x2="19" y2="19.5" gradientUnits="userSpaceOnUse">
<stop stop-color="#C7F7FD"/>
<stop offset="1" stop-color="#C8F843"/>
</linearGradient>
</defs>
</svg>
