<svg width="18" height="16" viewBox="0 0 18 16" fill="none" xmlns="http://www.w3.org/2000/svg">
<path d="M2.16548 0.421875C0.971082 0.421875 0 1.39296 0 2.58735V13.4147C0 14.6091 0.971082 15.5802 2.16548 15.5802H15.1583C16.3527 15.5802 17.3238 14.6091 17.3238 13.4147V5.83557C17.3238 4.64117 16.3527 3.67009 15.1583 3.67009H2.70685C2.40909 3.67009 2.16548 3.42648 2.16548 3.12872C2.16548 2.83097 2.40909 2.58735 2.70685 2.58735H15.1583C15.7572 2.58735 16.2411 2.1035 16.2411 1.50461C16.2411 0.905724 15.7572 0.421875 15.1583 0.421875H2.16548ZM14.0756 8.54242C14.3628 8.54242 14.6382 8.65649 14.8412 8.85955C15.0443 9.0626 15.1583 9.338 15.1583 9.62516C15.1583 9.91232 15.0443 10.1877 14.8412 10.3908C14.6382 10.5938 14.3628 10.7079 14.0756 10.7079C13.7884 10.7079 13.513 10.5938 13.31 10.3908C13.1069 10.1877 12.9929 9.91232 12.9929 9.62516C12.9929 9.338 13.1069 9.0626 13.31 8.85955C13.513 8.65649 13.7884 8.54242 14.0756 8.54242Z" fill="#0A1A11"/>
</svg>
