<svg width="50" height="44" viewBox="0 0 50 44" fill="none" xmlns="http://www.w3.org/2000/svg">
<path d="M6.25 0.125C2.80273 0.125 0 2.92773 0 6.375V37.625C0 41.0723 2.80273 43.875 6.25 43.875H43.75C47.1973 43.875 50 41.0723 50 37.625V15.75C50 12.3027 47.1973 9.5 43.75 9.5H7.8125C6.95312 9.5 6.25 8.79688 6.25 7.9375C6.25 7.07812 6.95312 6.375 7.8125 6.375H43.75C45.4785 6.375 46.875 4.97852 46.875 3.25C46.875 1.52148 45.4785 0.125 43.75 0.125H6.25ZM40.625 23.5625C41.4538 23.5625 42.2487 23.8917 42.8347 24.4778C43.4208 25.0638 43.75 25.8587 43.75 26.6875C43.75 27.5163 43.4208 28.3112 42.8347 28.8972C42.2487 29.4833 41.4538 29.8125 40.625 29.8125C39.7962 29.8125 39.0013 29.4833 38.4153 28.8972C37.8292 28.3112 37.5 27.5163 37.5 26.6875C37.5 25.8587 37.8292 25.0638 38.4153 24.4778C39.0013 23.8917 39.7962 23.5625 40.625 23.5625Z" fill="#FAFAFA"/>
</svg>
