<svg width="700" height="300" viewBox="0 0 700 300" fill="none" xmlns="http://www.w3.org/2000/svg">
<rect width="700" height="300" fill="#002F18"/>
<g clip-path="url(#clip0_765_6408)">
<path d="M101.08 192.261C106.01 193.328 110.087 194.821 112.552 196.528L116.487 199.254L119.497 195.532C126.774 186.501 130.471 175.314 130.092 163.699C130.874 175.148 127.39 186.312 120.161 195.295C113.05 204.136 103.118 209.92 92.0015 211.721L101.103 192.261H101.08Z" fill="#C8F843"/>
<path d="M103.947 198.285C105.559 198.783 106.887 199.28 107.93 199.778C105.915 201.2 103.781 202.433 101.53 203.476L103.947 198.285ZM122.862 133.481L118.62 142.536C121.867 147.821 124.024 153.96 124.735 160.621C125.967 172.52 122.341 183.779 115.491 192.264C111.769 189.681 105.63 187.618 98.1165 186.457L86.8813 210.515L83.6577 217.389C84.0133 217.389 84.3688 217.389 84.748 217.389C86.5495 217.389 88.3509 217.295 90.1997 217.105C118.027 214.071 138.103 189.064 135.069 161.237C133.908 150.523 129.475 140.971 122.886 133.434L122.862 133.481Z" fill="#C8F843"/>
<path d="M142.085 71.068C134.998 73.0827 118.43 76.7092 111.272 68.9821C95.367 51.8212 73.584 64.2889 77.9928 65.5926C92.6412 69.8828 90.3894 80.0988 102.217 95.0553C107.29 101.479 114.898 102.782 121.701 102.332C122.128 102.308 122.436 102.688 122.294 103.091L111.888 124.068C102.502 118.071 91.1005 115.108 79.1779 116.412C51.3744 119.446 31.2743 144.452 34.3083 172.279C36.4653 192.024 49.6915 207.858 67.1131 214.305L56.6602 235.353C55.8543 236.965 56.8735 238.885 58.6512 239.145L64.4821 239.999C65.6436 240.165 66.7576 239.548 67.2554 238.505L144.361 73.3908C144.788 71.9924 143.508 70.6413 142.085 71.0442V71.068ZM81.406 185.482C69.3649 185.79 59.0304 188.255 53.3654 191.811C48.5775 185.719 45.4013 178.181 44.5243 169.767C42.1066 146.68 58.106 125.893 80.2446 123.38C90.6264 122.195 100.511 125.253 108.356 131.202L81.406 185.482Z" fill="#C8F843"/>
<path d="M243.842 193.657C243.51 197.758 242.064 201.195 239.48 203.968C236.92 206.741 233.27 208.875 228.553 210.32C223.836 211.766 218.029 212.501 211.132 212.501C205.704 212.501 200.774 212.051 196.341 211.15C191.909 210.249 188.116 208.851 184.94 206.978C181.764 205.106 179.346 202.641 177.663 199.63C175.98 196.596 175.127 192.922 175.127 188.609C175.127 184.295 175.98 180.644 177.663 177.539C179.346 174.458 181.787 171.922 184.94 169.978C188.092 168.034 191.909 166.589 196.341 165.664C200.774 164.74 205.704 164.266 211.132 164.266C218.029 164.266 223.86 165.024 228.601 166.541C233.341 168.058 236.992 170.262 239.551 173.154C242.111 176.046 243.581 179.554 243.913 183.702H230.426C229.857 181.901 228.814 180.313 227.321 178.985C225.827 177.658 223.765 176.639 221.182 175.927C218.598 175.216 215.232 174.861 211.155 174.861C206.296 174.861 202.219 175.359 198.901 176.354C195.583 177.35 193.094 178.867 191.411 180.929C189.728 182.967 188.875 185.551 188.875 188.632C188.875 191.714 189.728 194.108 191.411 196.099C193.094 198.066 195.606 199.559 198.901 200.555C202.219 201.55 206.296 202.048 211.155 202.048C215.256 202.048 218.574 201.693 221.158 201.005C223.718 200.318 225.756 199.322 227.273 198.042C228.767 196.762 229.833 195.316 230.45 193.681H243.865L243.842 193.657Z" fill="#FAFAFA"/>
<path d="M252.423 211.364V161.801H265.199V211.364H252.423ZM291.177 211.364V194.724C291.177 192.686 290.798 190.979 290.063 189.628C289.328 188.277 288.072 187.234 286.318 186.523C284.564 185.812 282.099 185.456 278.97 185.456C276.695 185.456 274.538 185.788 272.547 186.452C270.556 187.115 268.849 187.969 267.45 189.012C266.052 190.055 265.08 191.145 264.559 192.306L264.417 188.585C264.654 187.4 265.27 186.049 266.242 184.508C267.213 182.991 268.565 181.498 270.319 180.076C272.049 178.654 274.206 177.468 276.789 176.544C279.349 175.62 282.336 175.146 285.725 175.146C288.191 175.146 290.537 175.43 292.718 175.975C294.898 176.52 296.842 177.397 298.549 178.582C300.232 179.768 301.559 181.285 302.507 183.11C303.455 184.935 303.929 187.163 303.929 189.794V211.364H291.225H291.177Z" fill="#FAFAFA"/>
<path d="M332.61 212.291C328.319 212.291 324.503 211.532 321.161 210.015C317.819 208.498 315.141 206.341 313.173 203.592C311.206 200.842 310.21 197.571 310.21 193.802C310.21 189.844 311.206 186.502 313.173 183.729C315.141 180.979 317.843 178.846 321.232 177.376C324.646 175.907 328.509 175.172 332.847 175.172C337.658 175.172 341.688 175.978 344.912 177.59C348.159 179.201 350.6 181.406 352.236 184.203C353.871 187 354.701 190.2 354.701 193.802C354.701 196.173 354.227 198.472 353.279 200.653C352.331 202.833 350.932 204.824 349.107 206.578C347.282 208.332 344.983 209.731 342.209 210.75C339.436 211.769 336.26 212.291 332.633 212.291H332.61ZM337.09 203.449C340.266 203.449 343.11 203.094 345.552 202.383C347.993 201.672 349.937 200.581 351.382 199.136C352.828 197.69 353.516 195.912 353.516 193.826C353.516 191.551 352.781 189.678 351.335 188.256C349.889 186.834 347.922 185.767 345.48 185.08C343.015 184.392 340.242 184.037 337.09 184.037C332.752 184.037 329.386 184.89 326.945 186.597C324.503 188.303 323.294 190.721 323.294 193.802C323.294 195.793 323.863 197.524 324.977 198.946C326.091 200.368 327.68 201.482 329.718 202.264C331.756 203.047 334.222 203.449 337.066 203.449H337.09ZM353.516 176.096H366.22V211.366H354.298C354.013 209.375 353.8 207.526 353.682 205.843C353.563 204.161 353.492 202.288 353.492 200.226V176.096H353.516Z" fill="#FAFAFA"/>
<path d="M374.659 161.801H387.435V211.364H374.659V161.801Z" fill="#FAFAFA"/>
<path d="M396.797 161.801H409.573V211.364H396.797V161.801Z" fill="#FAFAFA"/>
<path d="M457.5 199.227H469.92C469.493 201.787 468.308 204.062 466.388 206.053C464.468 208.02 461.743 209.561 458.258 210.652C454.75 211.742 450.365 212.287 445.079 212.287C439.414 212.287 434.46 211.623 430.194 210.32C425.927 209.016 422.633 206.978 420.31 204.252C417.987 201.502 416.802 198.018 416.802 193.799C416.802 189.58 417.939 186.143 420.239 183.369C422.514 180.62 425.761 178.558 429.957 177.183C434.152 175.832 439.154 175.145 444.961 175.145C450.768 175.145 455.556 175.832 459.325 177.207C463.094 178.581 465.867 180.762 467.668 183.701C469.47 186.64 470.276 190.504 470.086 195.268H429.744C429.981 196.833 430.668 198.279 431.806 199.559C432.943 200.838 434.579 201.858 436.665 202.593C438.751 203.327 441.429 203.707 444.653 203.707C448.09 203.707 450.934 203.304 453.233 202.498C455.532 201.692 456.954 200.601 457.523 199.203L457.5 199.227ZM444.416 183.725C440.22 183.725 436.949 184.389 434.603 185.716C432.256 187.043 430.786 188.56 430.218 190.22H457.571C457.334 188.371 456.125 186.806 453.921 185.574C451.716 184.341 448.564 183.725 444.416 183.725Z" fill="#FAFAFA"/>
<path d="M476.416 176.096H489.191V211.366H476.416V176.096ZM509.694 175.172C512.207 175.172 514.554 175.456 516.734 176.073C518.891 176.665 520.835 177.613 522.518 178.893C524.201 180.173 525.552 181.88 526.524 183.989C527.495 186.099 527.993 188.706 527.993 191.811V211.366H515.288V193.589C515.288 190.389 514.459 188.066 512.823 186.597C511.188 185.127 508.367 184.392 504.361 184.392C501.849 184.392 499.502 184.795 497.322 185.577C495.165 186.36 493.316 187.331 491.799 188.517C490.282 189.678 489.191 190.887 488.575 192.119L488.504 188.896C488.741 187.569 489.357 186.099 490.329 184.535C491.301 182.97 492.652 181.453 494.406 180.031C496.136 178.609 498.293 177.447 500.877 176.523C503.437 175.622 506.4 175.172 509.742 175.172H509.694Z" fill="#FAFAFA"/>
<path d="M558.095 206.147C552.951 206.147 548.59 205.579 545.035 204.441C541.456 203.303 538.753 201.596 536.928 199.345C535.103 197.093 534.179 194.272 534.179 190.883C534.179 187.707 535.079 184.957 536.857 182.634C538.635 180.335 541.313 178.51 544.892 177.182C548.472 175.855 552.857 175.191 558.095 175.191C559.28 175.191 560.489 175.239 561.698 175.334C562.907 175.428 564.115 175.547 565.301 175.689H587.368V183.535C584.595 183.677 581.845 183.44 579.048 182.847C576.275 182.255 573.739 181.591 571.44 180.88L571.013 180.098C572.862 180.856 574.64 181.781 576.299 182.847C577.958 183.914 579.285 185.17 580.305 186.64C581.3 188.086 581.798 189.816 581.798 191.807C581.798 194.817 580.921 197.401 579.167 199.558C577.413 201.739 574.782 203.374 571.274 204.488C567.766 205.602 563.381 206.171 558.095 206.171V206.147ZM571.463 226.366V224.517C571.463 222.716 570.8 221.483 569.472 220.867C568.145 220.251 566.178 219.943 563.618 219.943H548.614C546.006 219.943 543.826 219.753 542.072 219.374C540.341 218.994 538.99 218.449 538.042 217.738C537.094 217.027 536.43 216.221 536.075 215.344C535.719 214.467 535.53 213.543 535.53 212.595C535.53 210.604 536.217 209.063 537.568 207.996C538.919 206.93 540.887 206.195 543.423 205.816C545.959 205.436 548.993 205.294 552.525 205.389L558.095 206.171C554.658 206.219 552.193 206.456 550.7 206.882C549.206 207.309 548.448 208.091 548.448 209.229C548.448 209.94 548.732 210.485 549.301 210.841C549.87 211.196 550.7 211.362 551.79 211.362H567.576C571.44 211.362 574.592 211.718 577.034 212.405C579.475 213.092 581.3 214.254 582.462 215.913C583.623 217.549 584.216 219.8 584.216 222.668V226.39H571.44L571.463 226.366ZM558.095 198.302C560.607 198.302 562.741 197.994 564.447 197.401C566.154 196.808 567.434 195.955 568.311 194.865C569.164 193.775 569.591 192.518 569.591 191.072C569.591 189.555 569.164 188.228 568.311 187.138C567.458 186.047 566.178 185.194 564.495 184.601C562.812 184.009 560.679 183.701 558.095 183.701C555.511 183.701 553.449 183.985 551.695 184.601C549.965 185.194 548.637 186.024 547.76 187.09C546.883 188.157 546.433 189.484 546.433 191.049C546.433 192.471 546.883 193.727 547.76 194.841C548.637 195.931 549.941 196.785 551.648 197.377C553.354 197.97 555.511 198.278 558.071 198.278L558.095 198.302Z" fill="#FAFAFA"/>
<path d="M632.144 199.227H644.564C644.137 201.787 642.952 204.062 641.032 206.053C639.112 208.02 636.387 209.561 632.902 210.652C629.394 211.742 625.009 212.287 619.723 212.287C614.058 212.287 609.105 211.623 604.838 210.32C600.571 209.016 597.277 206.978 594.954 204.252C592.631 201.502 591.446 198.018 591.446 193.799C591.446 189.58 592.584 186.143 594.883 183.369C597.158 180.62 600.406 178.558 604.601 177.183C608.796 175.832 613.798 175.145 619.605 175.145C625.412 175.145 630.2 175.832 633.969 177.207C637.738 178.581 640.511 180.762 642.312 183.701C644.114 186.64 644.92 190.504 644.73 195.268H604.388C604.625 196.833 605.312 198.279 606.45 199.559C607.587 200.838 609.223 201.858 611.309 202.593C613.395 203.327 616.073 203.707 619.297 203.707C622.734 203.707 625.578 203.304 627.877 202.498C630.176 201.692 631.599 200.601 632.167 199.203L632.144 199.227ZM619.083 183.725C614.888 183.725 611.617 184.389 609.27 185.716C606.924 187.043 605.454 188.56 604.885 190.22H632.239C632.002 188.371 630.793 186.806 628.588 185.574C626.384 184.341 623.231 183.725 619.083 183.725Z" fill="#FAFAFA"/>
<path d="M192.386 136.915V127.086H220.188C222.34 127.086 224.052 126.596 225.323 125.618C226.644 124.591 227.304 123.026 227.304 120.923C227.304 118.772 226.644 117.207 225.323 116.229C224.052 115.202 222.34 114.688 220.188 114.688H193.559V151H180.282V103.758H218.501C221.582 103.758 224.467 104.051 227.157 104.638C229.847 105.225 232.194 106.179 234.199 107.499C236.204 108.82 237.769 110.58 238.894 112.781C240.019 114.982 240.581 117.696 240.581 120.923C240.581 124.151 240.019 126.817 238.894 128.919C237.769 130.973 236.204 132.587 234.199 133.761C232.194 134.935 229.847 135.766 227.157 136.255C224.467 136.695 221.582 136.915 218.501 136.915H192.386ZM248.307 114.761H261.144V151H248.307V114.761ZM277.136 124.958C274.251 124.958 271.659 125.398 269.36 126.279C267.111 127.11 265.228 128.137 263.712 129.36C262.245 130.582 261.193 131.78 260.558 132.954L260.411 129.14C260.509 128.357 260.778 127.354 261.218 126.132C261.707 124.86 262.367 123.515 263.198 122.097C264.079 120.679 265.155 119.359 266.426 118.136C267.747 116.864 269.287 115.837 271.048 115.055C272.857 114.224 274.887 113.808 277.136 113.808V124.958ZM296.928 97.5958V107.059H282.77V97.5958H296.928ZM283.43 114.761H296.268V151H283.43V114.761ZM330.866 144.618L325.438 144.545L340.843 114.761H355.001L334.167 151H321.99L301.89 114.761H316.048L330.866 144.618ZM378.974 151.88C374.719 151.88 370.855 151.122 367.383 149.606C363.96 148.041 361.246 145.841 359.24 143.004C357.284 140.119 356.306 136.744 356.306 132.881C356.306 128.871 357.309 125.447 359.314 122.611C361.319 119.774 364.033 117.598 367.456 116.082C370.929 114.566 374.89 113.808 379.34 113.808C384.231 113.808 388.29 114.639 391.518 116.302C394.794 117.965 397.24 120.239 398.853 123.124C400.516 125.961 401.348 129.213 401.348 132.881C401.348 135.326 400.883 137.698 399.954 139.996C399.025 142.246 397.631 144.276 395.772 146.085C393.914 147.846 391.567 149.264 388.73 150.34C385.942 151.367 382.69 151.88 378.974 151.88ZM383.522 143.004C386.749 143.004 389.61 142.637 392.105 141.904C394.648 141.121 396.628 139.972 398.046 138.456C399.514 136.94 400.247 135.081 400.247 132.881C400.247 130.582 399.514 128.699 398.046 127.232C396.579 125.716 394.599 124.616 392.105 123.931C389.61 123.198 386.749 122.831 383.522 122.831C379.071 122.831 375.624 123.736 373.178 125.545C370.733 127.306 369.51 129.751 369.51 132.881C369.51 134.984 370.073 136.793 371.198 138.309C372.371 139.776 374.01 140.926 376.113 141.757C378.216 142.588 380.685 143.004 383.522 143.004ZM400.247 114.761H413.085V151H401.054C401.054 151 400.981 150.486 400.834 149.459C400.687 148.432 400.541 147.063 400.394 145.351C400.296 143.591 400.247 141.733 400.247 139.776V114.761ZM418.609 114.761H453.013V123.638H418.609V114.761ZM429.392 104.345H442.23V151H429.392V104.345ZM498.184 138.529H510.729C510.337 141.17 509.139 143.518 507.134 145.572C505.178 147.577 502.415 149.142 498.845 150.266C495.323 151.391 490.898 151.954 485.567 151.954C479.796 151.954 474.759 151.293 470.455 149.973C466.152 148.604 462.826 146.501 460.479 143.664C458.131 140.828 456.958 137.258 456.958 132.954C456.958 128.65 458.107 125.08 460.405 122.244C462.704 119.407 465.981 117.305 470.235 115.935C474.49 114.517 479.552 113.808 485.42 113.808C491.289 113.808 496.13 114.541 499.945 116.009C503.76 117.427 506.572 119.652 508.381 122.684C510.239 125.667 511.071 129.604 510.875 134.495H469.942C470.186 136.108 470.871 137.576 471.996 138.896C473.17 140.216 474.832 141.292 476.984 142.124C479.136 142.906 481.85 143.297 485.127 143.297C488.648 143.297 491.558 142.882 493.856 142.05C496.204 141.17 497.646 139.996 498.184 138.529ZM484.833 122.464C480.628 122.464 477.326 123.149 474.93 124.518C472.534 125.887 471.042 127.477 470.455 129.286H498.331C498.038 127.33 496.791 125.716 494.59 124.445C492.389 123.124 489.137 122.464 484.833 122.464Z" fill="#FAFAFA"/>
</g>
<defs>
<clipPath id="clip0_765_6408">
<rect width="631.09" height="180" fill="white" transform="translate(34 60)"/>
</clipPath>
</defs>
</svg>
