<svg width="300" height="200" viewBox="0 0 300 200" fill="none" xmlns="http://www.w3.org/2000/svg">
<rect width="300" height="200" fill="#FE5E1B"/>
<path d="M150.16 10C100.455 10 60 50.3712 60 100C60 149.629 100.433 190 150.139 190C199.844 190 240.277 149.629 240.277 100C240.277 50.3712 199.865 10 150.16 10ZM150.16 186.765C102.245 186.765 63.2611 147.841 63.2611 100C63.2611 52.1589 102.245 13.2561 150.16 13.2561C198.075 13.2561 237.059 52.1802 237.059 100.021C237.059 147.862 198.075 186.786 150.16 186.786V186.765Z" fill="#10312B"/>
<path d="M147.387 130.897H152.609V89.1639H168.232V84.2266H131.742V89.1639H147.387V130.897Z" fill="#10312B"/>
<path d="M73.6211 100.233C73.6211 142.307 107.895 176.571 150.055 176.635H150.14H150.268C192.385 176.571 226.658 142.307 226.658 100.233V100.106C226.573 58.1597 192.342 23.9814 150.353 23.875H150.225H150.076C108.001 23.9176 73.7277 58.0959 73.6424 100.106V100.233H75.1984L73.6424 100.255L73.6211 100.233ZM91.781 56.0954L124.989 48.0935L114.673 58.4364L85.749 65.3955C87.5181 62.1394 89.5429 59.0322 91.781 56.0954ZM142.19 35.4948L134.026 68.8218C130.957 72.9504 127.461 76.7386 123.603 80.1436L131.895 45.7951L142.19 35.4948ZM167.937 45.4546L176.207 79.6967C172.285 76.1852 168.769 72.2481 165.678 67.9705L157.642 35.1543L167.937 45.4546ZM214.658 65.7147L185.82 58.7769L175.504 48.434L208.712 56.4359C210.928 59.3728 212.911 62.4799 214.658 65.7147ZM208.712 144.074L175.483 152.076L185.799 141.733L214.658 134.795C212.911 138.051 210.907 141.158 208.712 144.074ZM157.664 165.334L165.763 132.22C168.854 127.963 172.371 124.048 176.271 120.557L167.959 155.034L157.664 165.334ZM131.895 154.714L123.539 120.132C127.461 123.579 130.999 127.431 134.111 131.624H134.005L142.168 165.015L131.873 154.714H131.895ZM85.7277 135.093L114.651 142.052L124.967 152.395L91.7596 144.414C89.5216 141.477 87.4968 138.37 85.7277 135.114V135.093ZM113.053 64.6506C112.179 68.311 111.326 72.0353 110.452 75.7596C109.237 80.9949 108.023 86.2302 106.808 91.2952C103.994 92.6359 101.074 93.8064 98.09 94.7854L102.928 74.7807L113.053 64.6293V64.6506ZM150.161 40.5385C152.314 51.0942 156.662 60.8412 162.673 69.3538L162.779 69.822L162.971 69.7795C167.085 75.5042 171.987 80.6544 177.486 85.0384L177.529 85.2299L177.678 85.1874C186.864 92.4657 197.756 97.701 209.65 100.17C190.445 104.128 173.863 115.301 162.843 130.709H162.779L162.737 130.858C156.683 139.37 152.314 149.16 150.14 159.737C144.065 129.9 120.513 106.32 90.6513 100.148C120.513 93.9767 144.086 70.3754 150.14 40.5172L150.161 40.5385ZM153.209 30.7277L160.136 59.011C155.468 50.094 152.591 40.0916 151.994 29.5146L153.209 30.7277ZM148.328 29.3444C147.71 40.5385 144.577 51.0729 139.44 60.3943L146.623 31.0469L148.307 29.3444H148.328ZM189.507 75.9511C188.591 72.0353 187.696 68.1621 186.801 64.3314L196.925 74.4614L201.785 94.6364C198.779 93.6149 195.859 92.4444 193.046 91.0611C191.873 86.145 190.68 81.0375 189.507 75.9511ZM186.779 136.157C187.696 132.326 188.591 128.432 189.507 124.537C190.701 119.366 191.895 114.216 193.088 109.236C195.902 107.874 198.822 106.682 201.827 105.682L196.904 126.048L186.779 136.178V136.157ZM205.451 104.554C210.417 103.17 215.596 102.277 220.946 101.979L201.337 121.622L205.451 104.575V104.554ZM205.408 95.7643L201.337 78.888L220.754 98.3394C215.468 98.0202 210.332 97.1476 205.408 95.7643ZM146.623 169.463L139.355 139.796C144.555 149.203 147.731 159.843 148.328 171.186L146.623 169.484V169.463ZM151.994 171.016C152.57 160.29 155.49 150.16 160.243 141.137L153.23 169.782L151.994 171.016ZM110.474 124.729C111.348 128.453 112.2 132.177 113.074 135.838L102.95 125.686L98.0687 105.511C101.053 106.49 103.973 107.661 106.786 109.002C108.023 114.109 109.259 119.408 110.474 124.729ZM94.4453 104.426L98.5163 121.281L79.2268 101.957C84.4701 102.234 89.5643 103.085 94.4453 104.426ZM94.4879 95.892C89.6282 97.2115 84.598 98.0628 79.3973 98.3607L98.5163 79.2072L94.4879 95.8707V95.892ZM95.8733 123.218C93.955 122.771 92.0154 122.324 90.0758 121.877C86.4737 121.047 82.8929 120.238 79.4399 119.408C78.1184 114.556 77.2659 109.491 76.9888 104.298L95.8733 123.218ZM89.3511 125.069C93.0385 125.92 96.7046 126.75 100.221 127.602L110.282 137.668L83.8307 131.305C82.5731 128.644 81.4861 125.878 80.5483 123.047C83.4257 123.728 86.4097 124.409 89.3724 125.09L89.3511 125.069ZM117.443 140.243C116.165 134.965 114.907 129.496 113.628 124.005C112.605 119.621 111.603 115.258 110.58 111.002C113.65 112.705 116.591 114.62 119.362 116.727L127.461 150.309L117.422 140.264L117.443 140.243ZM145.834 173.251C134.602 172.591 124.051 169.399 114.715 164.249L144.364 171.782L145.834 173.251ZM156.129 171.463L186.332 163.78C176.783 169.229 165.934 172.591 154.339 173.251L156.129 171.463ZM180.449 117.089C183.241 114.939 186.182 112.981 189.273 111.236C188.293 115.365 187.312 119.578 186.332 123.792C185.053 129.304 183.774 134.795 182.495 140.094L182.388 140.562L172.349 150.607L180.449 117.089ZM216.555 130.985L190.19 137.327L200.229 127.261C203.596 126.452 207.092 125.665 210.587 124.856C213.699 124.154 216.79 123.43 219.795 122.728C218.879 125.559 217.792 128.304 216.534 130.985H216.555ZM220.882 119.153C217.323 120.004 213.614 120.855 209.884 121.707C208.115 122.111 206.346 122.515 204.598 122.92L223.269 104.234C222.992 109.363 222.182 114.364 220.882 119.153ZM204.598 77.5898C206.346 77.9942 208.115 78.3985 209.884 78.8029C213.614 79.6542 217.323 80.5054 220.882 81.3567C222.182 86.1663 222.992 91.1462 223.269 96.2751L204.598 77.5898ZM210.609 75.6319C207.113 74.8232 203.618 74.0358 200.25 73.2271L190.211 63.1609L216.555 69.5028C217.792 72.163 218.9 74.9296 219.817 77.7601C216.811 77.0578 213.721 76.3342 210.609 75.6319ZM182.388 59.9474L182.495 60.4156C183.774 65.6934 185.053 71.2053 186.332 76.7173C187.291 80.8672 188.25 85.0171 189.209 89.0606C186.118 87.3155 183.177 85.3576 180.385 83.1869L172.349 49.9024L182.388 59.9474ZM154.339 27.2375C165.934 27.8972 176.804 31.281 186.353 36.7291L156.15 29.0464L154.339 27.2375ZM144.364 28.7272L114.715 36.2822C124.051 31.1108 134.623 27.8972 145.856 27.2588L144.364 28.7485V28.7272ZM119.426 83.57C116.634 85.6768 113.713 87.6135 110.623 89.316C111.625 85.1235 112.626 80.8034 113.628 76.5045C114.907 71.0138 116.165 65.5231 117.443 60.2666L127.483 50.2217L119.426 83.57ZM83.8307 69.2049L110.282 62.8417L100.221 72.9079C96.7046 73.7379 93.0385 74.5891 89.3724 75.4191C86.3884 76.1001 83.4257 76.7811 80.527 77.4621C81.4648 74.6317 82.5518 71.8651 83.8094 69.2049H83.8307ZM79.4399 81.08C82.8929 80.25 86.495 79.4413 90.0971 78.6113C92.0367 78.1644 93.955 77.7175 95.8733 77.2919L76.9888 96.2113C77.2659 91.0185 78.1184 85.9535 79.4399 81.1013V81.08ZM95.2126 148.564L129.401 156.779L139.888 167.292L106.189 158.715C102.182 155.715 98.5163 152.31 95.2126 148.564ZM194.175 158.63L194.133 158.439L160.626 166.951L171.113 156.46L205.344 148.224C201.998 152.054 198.268 155.544 194.197 158.63H194.175ZM225.081 100.17V100.127H226.637L225.081 100.17ZM205.323 52.2647L171.113 44.0287L160.626 33.5369L194.133 42.0495L194.175 41.858C198.246 44.9225 201.976 48.4127 205.323 52.2434V52.2647ZM106.189 41.7728L139.888 33.1964L129.401 43.7095L95.2339 51.9242C98.5376 48.1786 102.204 44.7736 106.211 41.7728H106.189Z" fill="#10312B"/>
<path d="M150.372 14.7617C150.372 14.7617 146.216 18.2945 150.137 22.5934C150.137 22.5934 154.379 19.167 150.372 14.7617Z" fill="#10312B"/>
<path d="M142.935 15.0625C142.935 15.0625 139.099 18.9358 143.383 22.8941C143.383 22.8941 147.305 19.106 142.935 15.0625Z" fill="#10312B"/>
<path d="M136.673 23.7834C136.673 23.7834 140.254 19.6548 135.543 16.0156C135.543 16.0156 132.048 20.2081 136.673 23.7834Z" fill="#10312B"/>
<path d="M130.067 25.2534C130.067 25.2534 133.264 20.8481 128.255 17.6133C128.255 17.6133 125.143 22.1037 130.067 25.2534Z" fill="#10312B"/>
<path d="M123.599 27.2962C123.599 27.2962 126.412 22.6143 121.147 19.8477C121.147 19.8477 118.44 24.5935 123.599 27.2962Z" fill="#10312B"/>
<path d="M117.357 29.902C117.357 29.902 119.744 25.0072 114.266 22.6875C114.266 22.6875 111.985 27.6461 117.357 29.902Z" fill="#10312B"/>
<path d="M111.347 33.0025C111.347 33.0025 113.308 27.9162 107.638 26.0859C107.638 26.0859 105.805 31.2148 111.347 33.0025Z" fill="#10312B"/>
<path d="M105.657 36.6485C105.657 36.6485 107.149 31.3919 101.352 30.0938C101.352 30.0938 99.9662 35.3716 105.657 36.6485Z" fill="#10312B"/>
<path d="M100.28 40.7693C100.28 40.7693 101.324 35.4064 95.4204 34.5977C95.4204 34.5977 94.5039 39.9819 100.28 40.7693Z" fill="#10312B"/>
<path d="M95.2932 45.3537C95.2932 45.3537 95.8687 39.9268 89.922 39.6289C89.922 39.6289 89.4744 45.077 95.2932 45.3537Z" fill="#10312B"/>
<path d="M90.7365 50.3312C90.7365 50.3312 90.8217 44.8831 84.875 45.0959C84.875 45.0959 84.8963 50.544 90.7365 50.3312Z" fill="#10312B"/>
<path d="M86.6198 55.6912C86.6198 55.6912 86.2361 50.2431 80.332 50.9879C80.332 50.9879 80.8436 56.4147 86.6198 55.6912Z" fill="#10312B"/>
<path d="M82.9722 61.3966C82.9722 61.3966 82.1196 56.0123 76.3008 57.268C76.3008 57.268 77.2812 62.6309 82.9722 61.3966Z" fill="#10312B"/>
<path d="M79.8679 67.3971C79.8679 67.3971 78.5464 62.098 72.8555 63.8644C72.8555 63.8644 74.3048 69.121 79.8679 67.3971Z" fill="#10312B"/>
<path d="M77.2895 73.6299C77.2895 73.6299 75.4991 68.4798 70 70.7144C70 70.7144 71.897 75.822 77.2895 73.6299Z" fill="#10312B"/>
<path d="M75.2584 80.0823C75.2584 80.0823 73.0203 75.1024 67.7344 77.8264C67.7344 77.8264 70.0576 82.7638 75.2584 80.0823Z" fill="#10312B"/>
<path d="M73.7882 86.6806C73.7882 86.6806 71.1453 81.9135 66.0938 85.0845C66.0938 85.0845 68.8433 89.7877 73.7882 86.6806Z" fill="#10312B"/>
<path d="M72.9104 93.3847C72.9104 93.3847 69.8625 88.873 65.1094 92.4696C65.1094 92.4696 68.2639 96.9174 72.9104 93.3847Z" fill="#10312B"/>
<path d="M72.6171 100.133C72.6171 100.133 69.1642 95.8982 64.7734 99.8992C64.7734 99.8992 68.3116 104.07 72.6171 100.133Z" fill="#10312B"/>
<path d="M72.914 106.877C72.914 106.877 69.12 102.961 65.0703 107.324C65.0703 107.324 68.9495 111.154 72.914 106.877Z" fill="#10312B"/>
<path d="M73.8071 113.577C73.8071 113.577 69.6721 110.023 66.0273 114.705C66.0273 114.705 70.2263 118.195 73.8071 113.577Z" fill="#10312B"/>
<path d="M75.2808 120.172C75.2808 120.172 70.8687 116.979 67.6289 121.981C67.6289 121.981 72.1262 125.088 75.2808 120.172Z" fill="#10312B"/>
<path d="M77.3272 126.598C77.3272 126.598 72.6381 123.81 69.8672 129.067C69.8672 129.067 74.6203 131.769 77.3272 126.598Z" fill="#10312B"/>
<path d="M79.9326 132.859C79.9326 132.859 75.009 130.475 72.707 135.966C72.707 135.966 77.6733 138.243 79.9326 132.859Z" fill="#10312B"/>
<path d="M83.0639 138.841C83.0639 138.841 77.9698 136.904 76.1367 142.544C76.1367 142.544 81.2735 144.395 83.0639 138.841Z" fill="#10312B"/>
<path d="M86.6898 144.547C86.6898 144.547 81.4252 143.057 80.125 148.846C80.125 148.846 85.411 150.229 86.6898 144.547Z" fill="#10312B"/>
<path d="M84.6367 154.752C84.6367 154.752 90.0293 155.667 90.8179 149.9C90.8179 149.9 85.4467 148.879 84.6367 154.752Z" fill="#10312B"/>
<path d="M89.6758 160.248C89.6758 160.248 95.1323 160.695 95.4094 154.885C95.4094 154.885 89.9742 154.332 89.6758 160.248Z" fill="#10312B"/>
<path d="M95.1506 165.29C95.1506 165.29 100.628 165.269 100.394 159.438C100.394 159.438 94.9375 159.352 95.1506 165.29Z" fill="#10312B"/>
<path d="M101.051 169.821C101.051 169.821 106.486 169.31 105.761 163.543C105.761 163.543 100.305 163.947 101.051 169.821Z" fill="#10312B"/>
<path d="M107.339 173.845C107.339 173.845 112.71 172.866 111.474 167.184C111.474 167.184 106.081 168.056 107.339 173.845Z" fill="#10312B"/>
<path d="M113.948 177.295C113.948 177.295 119.213 175.847 117.486 170.293C117.486 170.293 112.2 171.634 113.948 177.295Z" fill="#10312B"/>
<path d="M120.809 180.149C120.809 180.149 125.946 178.255 123.729 172.871C123.729 172.871 118.571 174.659 120.809 180.149Z" fill="#10312B"/>
<path d="M127.929 182.403C127.929 182.403 132.874 180.062 130.189 174.891C130.189 174.891 125.201 177.125 127.929 182.403Z" fill="#10312B"/>
<path d="M135.199 184.046C135.199 184.046 139.91 181.301 136.798 176.363C136.798 176.363 132.024 179.023 135.199 184.046Z" fill="#10312B"/>
<path d="M142.573 185.016C142.573 185.016 147.028 181.866 143.49 177.227C143.49 177.227 138.971 180.291 142.573 185.016Z" fill="#10312B"/>
<path d="M150.035 185.361C150.035 185.361 154.212 181.828 150.269 177.508C150.269 177.508 146.028 180.955 150.035 185.361Z" fill="#10312B"/>
<path d="M157.471 185.043C157.471 185.043 161.308 181.169 157.024 177.211C157.024 177.211 153.102 181.02 157.471 185.043Z" fill="#10312B"/>
<path d="M163.735 176.312C163.735 176.312 160.176 180.441 164.865 184.08C164.865 184.08 168.36 179.888 163.735 176.312Z" fill="#10312B"/>
<path d="M170.341 174.852C170.341 174.852 167.144 179.278 172.153 182.492C172.153 182.492 175.265 178.001 170.341 174.852Z" fill="#10312B"/>
<path d="M176.779 172.832C176.779 172.832 173.987 177.514 179.251 180.281C179.251 180.281 181.958 175.535 176.779 172.832Z" fill="#10312B"/>
<path d="M183.024 170.227C183.024 170.227 180.658 175.143 186.136 177.441C186.136 177.441 188.416 172.482 183.024 170.227Z" fill="#10312B"/>
<path d="M189.04 167.102C189.04 167.102 187.122 172.209 192.77 174.018C192.77 174.018 194.603 168.889 189.04 167.102Z" fill="#10312B"/>
<path d="M194.729 163.461C194.729 163.461 193.258 168.717 199.056 170.037C199.056 170.037 200.441 164.759 194.729 163.461Z" fill="#10312B"/>
<path d="M200.099 159.355C200.099 159.355 199.076 164.718 204.98 165.527C204.98 165.527 205.897 160.143 200.099 159.355Z" fill="#10312B"/>
<path d="M205.083 154.781C205.083 154.781 204.55 160.208 210.475 160.506C210.475 160.506 210.923 155.058 205.083 154.781Z" fill="#10312B"/>
<path d="M209.648 149.8C209.648 149.8 209.585 155.27 215.531 155.036C215.531 155.036 215.51 149.566 209.648 149.8Z" fill="#10312B"/>
<path d="M213.781 144.441C213.781 144.441 214.186 149.89 220.09 149.145C220.09 149.145 219.579 143.718 213.781 144.441Z" fill="#10312B"/>
<path d="M217.41 138.731C217.41 138.731 218.305 144.116 224.103 142.86C224.103 142.86 223.122 137.497 217.41 138.731Z" fill="#10312B"/>
<path d="M220.516 132.734C220.516 132.734 221.858 138.033 227.549 136.267C227.549 136.267 226.1 131.01 220.516 132.734Z" fill="#10312B"/>
<path d="M223.121 126.5C223.121 126.5 224.933 131.65 230.432 129.415C230.432 129.415 228.535 124.286 223.121 126.5Z" fill="#10312B"/>
<path d="M225.145 120.052C225.145 120.052 227.404 125.032 232.69 122.308C232.69 122.308 230.345 117.37 225.145 120.052Z" fill="#10312B"/>
<path d="M226.594 113.445C226.594 113.445 229.279 118.213 234.288 115.042C234.288 115.042 231.539 110.317 226.594 113.445Z" fill="#10312B"/>
<path d="M227.465 106.746C227.465 106.746 230.555 111.258 235.287 107.661C235.287 107.661 232.133 103.214 227.465 106.746Z" fill="#10312B"/>
<path d="M227.77 100.004C227.77 100.004 231.244 104.217 235.635 100.238C235.635 100.238 232.096 96.0665 227.77 100.004Z" fill="#10312B"/>
<path d="M227.465 93.2525C227.465 93.2525 231.28 97.1471 235.33 92.8056C235.33 92.8056 231.451 88.9536 227.465 93.2525Z" fill="#10312B"/>
<path d="M226.57 86.5522C226.57 86.5522 230.727 90.1063 234.35 85.4243C234.35 85.4243 230.151 81.9341 226.57 86.5522Z" fill="#10312B"/>
<path d="M225.102 79.9728C225.102 79.9728 229.556 83.1438 232.753 78.1639C232.753 78.1639 228.256 75.0567 225.102 79.9728Z" fill="#10312B"/>
<path d="M223.055 73.5262C223.055 73.5262 227.765 76.3141 230.536 71.0575C230.536 71.0575 225.783 68.3547 223.055 73.5262Z" fill="#10312B"/>
<path d="M220.473 67.2879C220.473 67.2879 225.418 69.6501 227.698 64.1808C227.698 64.1808 222.732 61.8823 220.473 67.2879Z" fill="#10312B"/>
<path d="M217.344 61.2887C217.344 61.2887 222.459 63.204 224.271 57.5644C224.271 57.5644 219.113 55.7129 217.344 61.2887Z" fill="#10312B"/>
<path d="M213.699 55.6084C213.699 55.6084 218.964 57.0768 220.285 51.2882C220.285 51.2882 214.978 49.9049 213.699 55.6084Z" fill="#10312B"/>
<path d="M215.763 45.3681C215.763 45.3681 210.371 44.4317 209.582 50.2416C209.582 50.2416 214.953 51.2419 215.763 45.3681Z" fill="#10312B"/>
<path d="M210.737 39.8751C210.737 39.8751 205.281 39.4282 205.004 45.2593C205.004 45.2593 210.439 45.7914 210.737 39.8751Z" fill="#10312B"/>
<path d="M205.262 34.8398C205.262 34.8398 199.785 34.8611 200.019 40.7136C200.019 40.7136 205.497 40.7561 205.262 34.8398Z" fill="#10312B"/>
<path d="M199.355 30.2852C199.355 30.2852 193.898 30.7746 194.644 36.5845C194.644 36.5845 200.101 36.1589 199.355 30.2852Z" fill="#10312B"/>
<path d="M193.071 26.2773C193.071 26.2773 187.679 27.2563 188.936 32.9598C188.936 32.9598 194.329 32.0659 193.071 26.2773Z" fill="#10312B"/>
<path d="M186.459 22.8359C186.459 22.8359 181.173 24.2618 182.921 29.8589C182.921 29.8589 188.207 28.4969 186.459 22.8359Z" fill="#10312B"/>
<path d="M179.6 19.9609C179.6 19.9609 174.464 21.855 176.68 27.2605C176.68 27.2605 181.838 25.4516 179.6 19.9609Z" fill="#10312B"/>
<path d="M172.476 17.707C172.476 17.707 167.531 20.0267 170.217 25.2407C170.217 25.2407 175.183 22.9849 172.476 17.707Z" fill="#10312B"/>
<path d="M165.206 16.082C165.206 16.082 160.474 18.8274 163.607 23.786C163.607 23.786 168.36 21.1045 165.206 16.082Z" fill="#10312B"/>
<path d="M157.831 15.1055C157.831 15.1055 153.355 18.2551 156.914 22.9158C156.914 22.9158 161.411 19.83 157.831 15.1055Z" fill="#10312B"/>
</svg>
